<?xml version="1.0" standalone="no"?>
<!DOCTYPE svg PUBLIC "-//W3C//DTD SVG 1.1//EN" "http://www.w3.org/Graphics/SVG/1.1/DTD/svg11.dtd" >
<svg xmlns="http://www.w3.org/2000/svg" xmlns:xlink="http://www.w3.org/1999/xlink" version="1.1">
<metadata></metadata>
<defs>
<font id="xtreem_thin_demoregular" horiz-adv-x="1705" >
<font-face units-per-em="2048" ascent="1536" descent="-512" />
<missing-glyph horiz-adv-x="1024" />
<glyph horiz-adv-x="0" />
<glyph unicode="&#xd;" horiz-adv-x="1024" />
<glyph unicode=" "  horiz-adv-x="1024" />
<glyph unicode="&#x09;" horiz-adv-x="1024" />
<glyph unicode="&#xa0;" horiz-adv-x="1024" />
<glyph unicode="!" horiz-adv-x="557" d="M152 266l569 1370q8 20 27.5 28.5t39.5 0.5q20 -10 28.5 -28.5t-1.5 -39.5v-2l-627 -1345q-8 -18 -26 -10t-10 26zM51 -121q0 -23 -14 -37t-37 -14t-37 14.5t-14 36.5q0 23 14 37t37 14t37 -14t14 -37z" />
<glyph unicode="&#x22;" horiz-adv-x="366" d="M37 858l180 461q8 20 27.5 29.5t40.5 1.5q20 -8 28.5 -27.5t-0.5 -40.5l-2 -4l-229 -440q-10 -20 -33 -11q-18 11 -12 31zM172 850l285 596q10 18 29.5 26.5t37.5 -2.5q20 -10 27.5 -29.5t-2.5 -39.5q-2 -2 -2 -4l-338 -568q-10 -18 -29 -8q-18 11 -8 29z" />
<glyph unicode="#" horiz-adv-x="2297" d="M1855 1124l-36 -30l26 -41l-43 -27l27 -43l-43 -25l18 -43l-47 -20l17 -49l-45 -15l8 -45l-49 -10l4 -51l-47 -4v-47h-41l-7 -43l-45 4l-10 -45l-49 8l-14 -47l-45 14l-17 -47l-49 21l-22 -45l-43 22l-27 -41l-43 27l-29 -37l-37 31l-34 -33l-31 29l-33 -29l-29 37 l-41 -27l-28 43l-43 -24l-23 40l-45 -18l-20 47l-47 -14l-15 45l-47 -10l-10 49l-49 -4l-6 47h-48v43l-40 4l4 47l-47 8l10 49l-49 15l14 45l-45 18l18 47l-45 25l23 41l-39 26l29 43l-39 31l28 37l-32 35l30 29l-28 32l36 31l-26 39l41 29l-23 43l39 22l-16 45l45 21 l-14 47l47 14l-11 47l50 10l-7 52l47 4v47h44l4 43l47 -6l8 47l51 -8l12 47l45 -13l19 43l47 -18l25 45l43 -22l24 40l43 -28l31 39l39 -31l33 33l30 -29l31 27l31 -35l41 27l26 -43l45 24l23 -41l43 19l20 -48l50 15l14 -45l45 10l10 -49l51 4l4 -47h48v-43l43 -4l-5 -47 l46 -9l-9 -49l49 -14l-14 -45l45 -19l-20 -47l47 -24l-25 -41l41 -27l-26 -43l36 -31l-30 -36l32 -33l-26 -31zM319 281q0 4 2.5 9t2.5 9q2 14 16 29q4 6 11 11t16 9q10 4 19 6t20 2h6q6 0 18 -4q6 0 10 -2t9 -4q14 -8 24 -22q4 -6 8 -15q2 -4 2 -12h-39q0 6 -4 10 q-2 6 -12 12t-20 7q-6 0 -11 -2h-8q-4 -4 -16 -13q-4 -4 -7.5 -8t-5.5 -10q-4 -10 -4 -33q0 -18 6 -33q2 -14 15 -18q6 -4 11 -6t11 -4h7q14 0 20 6q8 0 14 10q4 6 7.5 11t3.5 12h-43v32h75v-98h-24l-4 23q-6 -10 -17 -17q-6 -4 -11 -5t-9 -5q-6 0 -11.5 -1t-11.5 -1 q-18 0 -28 8q-16 6 -25 19q-12 12 -18 30t-7 39q0 13 2 19zM764 6h33v-20q12 25 39 24q14 0 20 -6q10 -4 16 -16q4 10 15 16q8 6 20 6q16 0 27 -8q8 -6 14 -16q4 -4 4 -21v-92h-32v80q0 27 -21 27q-23 0 -22 -27v-80h-37v80v12q0 6 -6 12q-4 2 -15 3q-23 0 -22 -25v-82h-33 v133zM1966 6h33v-20q14 25 39 24q16 0 22 -6q8 -4 15 -16q4 8 16 16q6 6 20 6q16 0 25 -8q12 -6 14 -16q6 -6 7 -21v-92h-35v80q0 27 -21 27q-23 0 -22 -27v-80h-35v80q0 10 -2 12q0 6 -6 12q-4 2 -13 3q-23 0 -22 -25v-82h-35v133zM1810 -35q2 8 5.5 13.5t7.5 11.5 q12 12 22 14q8 6 29 6q16 0 29 -6q8 -2 22 -12q4 -4 6 -10.5t6 -12.5q4 -8 5 -30q0 -20 -9 -35q-6 -14 -22 -25q-14 -8 -37 -8q-27 0 -39 10q-14 10 -23 25q-6 14 -6 33q0 18 4 26zM1317 264q2 12 12 23q12 12 23 16q8 4 28 4t31 -4q4 -4 9 -6t10 -6q10 -12 14 -25 q4 -12 4 -28q0 -20 -8 -35q-6 -14 -23 -25q-16 -10 -37 -10q-23 0 -39 10q-12 10 -22 27q-6 14 -6 33q0 10 4 26zM313 2v4h35l23 -96l18 96h35l20 -96l21 96h37l-37 -127l-2 -6h-35l-22 96l-21 -96h-37zM1110 2v4h37l20 -96l19 96h35l20 -96l23 96h34l-36 -127v-6h-37 l-21 96l-20 -96h-37zM119 2v4h37l20 -96l19 96h36l19 -96l22 96h35l-37 -127v-6h-37l-20 96l-20 -96h-37zM506 2v4h37l20 -96l19 96h36l19 -96l20 96h37l-37 -127l-2 -6h-34l-21 96l-22 -96h-35zM1778 238q12 8 28 12l31 4q12 2 12 10q0 16 -20 17q-8 0 -17 -5q-6 -2 -8 -16 h-32q2 18 8 29q4 8 18 14q8 4 14 4h17q27 0 37 -4l8 -8t6 -8q4 -12 4 -17v-71v-15q0 -6 8 -6v-6h-39q-2 0 -2 2v2v2q0 4 -1 6t-1 4q-4 -6 -10 -10q-4 -2 -7 -4t-5 -2l-9 -3t-10 -1q-6 0 -18 4q-4 4 -8 6t-8 6q-6 8 -7 25q1 21 11 29zM987 -61q8 8 27 12l33 4q10 4 10 10 q0 16 -21 17q-4 0 -8 -1t-8 -1q-2 -4 -4 -8.5t-2 -8.5h-33q0 14 6 27q12 12 21 14l12 4q4 0 8 1t8 1q27 0 37 -8q10 -6 17 -14q2 -6 2 -17v-71q0 -10 2 -15q0 -6 6 -6v-6h-37q0 2 -2 4v2q-2 4 -2 10q-8 -8 -12 -10t-6.5 -3t-6.5 -3t-16 -2q-14 0 -19 2q-10 2 -16 14 q-8 6 -8 21q0 21 12 31zM512 274q6 16 20 25q8 6 17.5 7t19.5 1q27 0 35 -8q12 -8 21 -27q4 -10 5 -18t1 -18v-9h-92q0 -12 10 -22q6 -8 22 -8q6 0 15 4q8 8 8 10h37q-4 -10 -13 -23q-6 -4 -11 -8t-9 -6q-8 -2 -13 -4t-14 -2q-66 0 -65 74q0 10 1 17t5 15zM1190 1210 q10 0 18.5 2t14.5 5q14 8 24 22q8 10 8 29q0 14 -4 18q-2 12 -12 19q-8 12 -22 14q-8 6 -29 6q-10 0 -31 -8q-12 -6 -24 -21q-8 -14 -9 -28q0 -14 4 -21q6 -12 15 -20q8 -8 22 -13q13 -4 25 -4zM1204 1044q8 10 8 29q0 12 -4 21q-4 8 -12 18q-10 10 -22 12q-12 6 -27 6 q-23 0 -33 -8q-10 -4 -15 -9t-9 -11q-8 -14 -9 -29q0 -16 4 -22q8 -12 15 -19q4 -4 10 -6t12 -6q16 -4 25 -4q23 0 33 8q12 6 24 20zM1495 -84q0 -18 31 -18q10 0 16 2q4 8 4 10q0 8 -14 10l-31 8q-6 2 -13 5.5t-11 7.5q-12 8 -13 24q0 12 6 23q4 8 19 16q8 6 29 6 q12 0 21 -2t17 -6q12 -6 17 -16q2 -4 2 -5t2 -6v-10h-35q0 10 -6 15q-2 2 -16 2q-20 0 -21 -13q0 -6 12 -8l31 -8q12 -2 29 -12q10 -6 10 -25q0 -12 -6 -25q-8 -10 -21 -16q-8 -4 -30 -4h-13q-8 0 -12 2q-12 4 -20 8q-12 8 -15 15q-4 12 -4 20h35zM1315 6h35v-20 q14 25 41 24q12 0 24 -6q10 -4 15 -14q6 -12 6 -25v-92h-35v80q0 16 -4 20q-2 6 -19 7q-14 0 -20 -9q-6 -10 -6 -22v-76h-37v133zM1473 305h32v-18q14 20 41 20q18 0 25 -4q4 -4 8 -7t8 -7q6 -12 6 -25v-92h-34v80q0 8 -5 20q-6 6 -20 7q-14 0 -21 -9q-4 -6 -4 -22v-76h-36 v133zM1008 172h-33v18q-6 -10 -17 -14q-16 -8 -24 -8q-20 0 -33 14q-12 12 -12 35v88h35v-82q0 -25 22 -24q8 0 12 2t13 10q0 4 2 8t2 8v78h33v-133zM1681 -12q16 23 48 22q18 0 30 -6q14 -4 21 -18q10 -10 10 -27h-37q0 6 -4 14q-4 6 -16 7q-16 0 -21 -11q-8 -8 -8 -26 t2 -25q2 -10 8 -14q4 -4 17 -4q10 0 16 4q6 6 6 18h37q0 -10 -8 -26q-6 -10 -21 -19q-12 -6 -32 -6q-27 0 -43 14q-8 8 -15 21q-2 8 -2 31q0 28 12 51zM831 1212h72v5h-4q-12 0 -16 4q-4 2 -4 6v8v31h24l39 -54h41v5h-4q-10 0 -14 2l-7 6q-2 4 -4 6t-4 6l-4 4q0 2 -4 6v4 q-6 2 -12 2q-8 4 -10 7l-13 6h19q4 2 8 2t8 2q6 0 14 4q12 8 13 22q0 4 -2 7q-4 8 -6 10q-6 6 -17 6q-12 4 -26 4h-87v-4h5q10 0 14 -4q6 -4 6 -17v-63q0 -4 -1 -8t-5 -6q-4 -4 -14 -4h-5v-5zM811 281h-18v24h18v10q0 37 39 37h18v-26h-10q-6 0 -8 -2q-4 0 -4 -5v-14h22v-24 h-22v-109h-35v109zM1243 281h-18v24h18v10q0 37 39 37h16v-26h-8q-8 0 -8 -2q-2 0 -4 -5v-14h25v-24h-25v-109h-35v109zM1917 281h-16v24h16v35h37v-35h22v-24h-22v-72q0 -4 1 -6t1 -4q2 0 4 -1t6 -1l6 2h4v-27h-22q-16 0 -23 4q-8 0 -10 8q0 4 -2 7.5t-2 7.5v82zM659 281 h-18v24h18v35h35v-35h21v-24h-21v-72q0 -8 2 -10q2 0 5.5 -1t7.5 -1l4 2h2v-27h-21q-16 0 -22 4q-8 0 -10 8q-2 4 -3 15v82zM631 1212v5h-6q-20 0 -21 18v29h29h22q12 4 15 6q10 4 10 10q4 4 4 12t-6 19q-8 8 -21 8q-2 2 -8 2h-12q-6 2 -14 2h-66v-4h4q20 0 21 -21v-63 q0 -18 -21 -18h-4v-5h74zM1630 281h-20v24h20v35h33v-35h23v-24h-23v-72q0 -4 1 -6t1 -4q4 0 6 -1t6 -1l4 2h5v-27h-23q-16 0 -21 4q-10 0 -12 8v15v82zM1176 1112l4 -8t4 -10q0 -4 1 -9.5t1 -11.5q0 -12 -4 -29q-6 -12 -15 -20q-6 -4 -20 -4q-12 0 -14 4q-8 0 -15 10 q-2 4 -6 17q-4 12 -4 22q0 4 1 9t1 10q2 4 3 7t3 7q6 10 8 12q0 2 11 6q8 4 14 4q2 0 3 -1t5 -1l8 -4zM1219 1307q2 -4 4 -8.5t4 -10.5q0 -4 1 -9t1 -11q0 -16 -6 -29q-4 -12 -13 -18q-10 -6 -20 -7q-10 0 -16 3q-4 4 -6.5 5t-4.5 5q-4 6 -8 18q-2 6 -3 11.5t-1 11.5 q0 4 1 9t1 9q2 4 3 7t3 7q4 8 8 13q6 6 11 6q4 2 14 2h8q2 -2 3 -2t3 -2q9 -2 13 -10zM1040 352h35v-180h-35v180zM1102 352h33v-180h-33v180zM713 1315q6 -4 6 -17v-63q0 -18 -21 -18h-2v-5h119v45h-2q-2 -4 -2 -7t-4 -7q-4 -10 -10 -16t-11 -6l-12 -4h-33v49h4 q14 0 21 -11l6 -6q0 -2 1 -3t1 -5q0 -8 2 -10h2v72h-2q-2 -4 -2 -11q0 -10 -6 -12q-6 -12 -20 -12h-7v51h23q16 0 22 -4q8 0 11 -8q4 -2 8 -11q2 -4 2 -8t4 -8h2v43h-117v-4h2q13 0 15 -4zM1008 1063q-4 -4 -4 -7t-3 -7q-8 -12 -12 -17q-6 -6 -10 -6l-10 -4q-6 -2 -15 -2 h-18v49h2q14 0 23 -8q2 -2 2 -3t2 -3q0 -2 1 -3t1 -5q2 -4 2 -11h2v72h-2v-10l-3 -6t-3 -7q-10 -12 -21 -12h-6v51h20q18 0 25 -2q4 -4 5 -4t5 -4l6 -12q4 -8 7 -17h4v43h-119v-4h4q10 0 12 -4q6 -4 6 -14v-66q0 -20 -18 -20h-4v-2h119v45zM1380 1128h-55v-4h10q0 -2 4 -2 q8 -8 9 -10q4 -4 4 -16v-47l-78 79h-43v-4h2q8 0 10 -2q4 0 5 -2t3 -2q2 -4 2 -10v-64q0 -8 -2 -12q-2 -6 -8 -8q-8 -4 -14 -4v-2h57v2q-6 0 -10 2q-4 0 -5 1t-5 1q-2 2 -6 10q-2 2 -3 15v65l95 -96h4v78q0 12 6 22q2 6 18 6v4zM1430 1212h45v5h-7h-2q-4 2 -4 3t-2 3 q0 2 -1 3t-1 5q0 2 1 4t1 4l2 8h47l2 -4l2 -2v-2q2 -4 3.5 -6t1.5 -6q2 -2 2 -4q0 -6 -2 -6h-9h-10v-5h66v5h-4h-9q-2 0 -3 2t-3 2l-4 8l-43 96h-4l-35 -78q-10 -23 -16 -26q-4 0 -5 -2t-3 -2h-6v-5zM877 1051v10q-2 2 -3.5 4t-3.5 4q-6 4 -14 8q-4 2 -9 3t-11 5h-9h-4l-2 2 q-16 4 -16 5q-4 2 -6 2t-4 2q-2 0 -7 4q-4 4 -4 8q0 6 2 8q0 -2 5 6l8 4q4 0 6 1t6 1q8 0 16 -4q10 0 17 -6q8 -4 12 -8t5 -9t5 -11h4v36h-4q-2 -8 -8 -8t-10 2q-20 10 -37 10q-10 0 -23 -4q-4 -4 -7 -6t-7 -4q-6 -10 -6 -18q0 -6 6 -13q0 -2 6 -8q8 -4 15 -6q2 -2 8 -3 t16 -5l8 -2q12 -4 17 -4q4 0 8 -4q2 0 4 -2q6 -6 6 -13q0 -2 -4 -10q-2 -2 -10 -8h-12q-12 0 -19 2q-12 4 -20 8l-13 12q-10 14 -10 25h-4v-51h4q0 8 4 8q4 4 10 4q2 0 2.5 -1t4.5 -1q2 0 3 -1t5 -1q6 -4 9 -4t7 -2t17 -2q6 0 18 4q4 0 7 2t7 6q4 2 4 4t5 6v13zM1063 1210 q8 0 20 4q8 2 15 9q2 2 3 5t3 5q2 4 2 10v10q-4 4 -4 6.5t-4 4.5q-4 4 -13 8q-4 2 -9 3t-13 5l-10 2h-4q-4 0 -8.5 2t-8.5 2t-8 4q-2 0 -6 4q-4 2 -4 9q0 4 2 6q0 2 4 6q2 4 8 4q4 2 12 2q10 0 17 -2q4 0 8 -2t8 -2q4 -4 6 -5t4 -5q8 -12 13 -23h2v39h-2q-2 -8 -11 -8h-2 q-4 0 -6 2q-20 10 -37 10q-16 0 -22 -4q-8 -2 -14 -12q-6 -6 -7 -17q0 -8 4 -12q2 -4 4.5 -5t4.5 -3t5 -3t7 -3t10 -3t17 -6l8 -2q4 -2 7 -2t7 -2l8 -4q6 0 6 -4q6 -4 7 -10q0 -6 -5 -10q-6 -6 -10 -6q-4 -2 -14 -3q-10 0 -19 3q-6 0 -18 8q-6 4 -14 12q-8 16 -11 27h-2v-54 h2q4 6 7 9q2 2 8 2h6q6 0 10 -4q4 -2 8 -2.5t9 -2.5q4 -2 14 -2zM1272 1212h57v5h-10q-6 0 -10 4q-6 0 -6 8q-4 8 -5 14v66l97 -99h2v80q0 6 2 12.5t4 10.5q6 6 20 6v4h-55v-4h8l8 -4q4 0 9 -8q2 -4 2 -17v-47l-76 80h-45v-4h12q4 -4 5 -4t3 -2q2 -4 2 -10v-64q0 -8 -2 -12 q-2 -6 -8 -8q-4 -2 -14 -2v-5zM1405 266q-6 12 -25 13q-18 0 -24 -13q-8 -12 -8 -28q0 -14 8 -27q4 -12 24 -12t25 12q8 8 8 27q0 20 -8 28zM1898 -31q-6 10 -24 11q-18 0 -25 -11q-6 -12 -6 -30q0 -14 6 -27q6 -12 25 -12q18 0 24 12q4 6 5.5 13t1.5 14q-1 22 -7 30z M1696 1262h-4q0 -4 -2 -7.5t-2 -7.5q-2 -4 -2 -5t-3 -5l-6 -6q-6 -10 -14 -10q-4 -4 -14 -4h-29v81q0 12 4 17q2 4 16 4h7v4h-74v-4h4q20 0 20 -21v-63q0 -18 -20 -18h-4v-5h123v50zM1653 1128h-56v-4h7q10 0 12 -2q4 -2 4 -8q0 -4 -6 -12l-23 -31l-28 37l-4 8v2q0 4 2 4 q0 2 6 2h10v4h-72v-4h2q12 0 17 -2l6 -6t4 -6l35 -45v-25q0 -10 -4 -14q-4 -2 -8.5 -4t-8.5 -2h-6v-2h78v2h-8q-8 0 -15 6q-6 2 -6 14v27l29 39q4 4 6 8q8 4 10 4q2 4 6 4q4 2 11 2v4zM1511 1067h-2q-4 -4 -4 -7t-2 -7q-4 -4 -4 -11q-2 -2 -6 -8q-8 -8 -14 -10q-4 -4 -17 -4 h-28v86q0 10 6 14q4 4 14 4h8v4h-76v-4h7q18 0 18 -18v-66q0 -20 -18 -20h-7v-2h125v49zM754 1128h-56v-4h13q2 0 3 -1t3 -1q12 -6 12 -26v-39q0 -16 -10 -27q-2 -2 -14 -10h-19q-14 0 -20 4q-4 0 -13 8q-4 4 -4 19v55q0 12 4 14q4 4 17 4h8v4h-76v-4h2q23 0 23 -18v-55 q0 -14 12 -27q6 -4 18 -6q6 -2 23 -2q16 0 29 4q8 4 12 8q10 8 10 27v43v14l10 10h2l2 2h9v4zM928 1272q-4 -2 -19 -2h-30v49h30q33 0 33 -23q0 -12 -4 -16q0 -4 -10 -8zM649 1272q-2 -6 -22 -6h-23v53h33q6 0 10 -4q12 -4 12 -23q0 -14 -10 -20zM1044 -68l-16 -2l-12 -6 q-6 -6 -6 -14t6 -10q4 -4 12 -4h6q2 0 3 1t3 1q4 2 6.5 4t6.5 4q4 4 4 14v19q-7 -7 -13 -7zM1835 231l-16 -4q-6 0 -13 -6q-4 -2 -4 -12t4 -10q4 -4 13 -4h8h2q2 0 4 2q8 4 12 8q4 8 4 16v17q-6 -7 -14 -7zM1608 -90h37v-37h-37v37zM694 -90h37v-37h-37v37zM596 252 q-4 12 -8 20q-4 4 -8.5 6.5t-10.5 2.5q-23 0 -26 -29h53zM1509 1249h-45l23 49z" />
<glyph unicode="$" horiz-adv-x="2281" d="M1855 1124l-36 -30l26 -41l-43 -27l27 -43l-43 -25l18 -43l-47 -20l17 -49l-45 -15l8 -45l-49 -10l4 -51l-47 -4v-47h-41l-7 -43l-45 4l-10 -45l-49 8l-14 -47l-45 14l-17 -47l-49 21l-22 -45l-43 22l-27 -41l-43 27l-29 -37l-37 31l-34 -33l-31 29l-33 -29l-29 37 l-41 -27l-28 43l-43 -24l-23 40l-45 -18l-20 47l-47 -14l-15 45l-47 -10l-10 49l-49 -4l-6 47h-48v43l-40 4l4 47l-47 8l10 49l-49 15l14 45l-45 18l18 47l-45 25l23 41l-39 26l29 43l-39 31l28 37l-32 35l30 29l-28 32l36 31l-26 39l41 29l-23 43l39 22l-16 45l45 21 l-14 47l47 14l-11 47l50 10l-7 52l47 4v47h44l4 43l47 -6l8 47l51 -8l12 47l45 -13l19 43l47 -18l25 45l43 -22l24 40l43 -28l31 39l39 -31l33 33l30 -29l31 27l31 -35l41 27l26 -43l45 24l23 -41l43 19l20 -48l50 15l14 -45l45 10l10 -49l51 4l4 -47h48v-43l43 -4l-5 -47 l46 -9l-9 -49l49 -14l-14 -45l45 -19l-20 -47l47 -24l-25 -41l41 -27l-26 -43l36 -31l-30 -36l32 -33l-26 -31zM319 281q0 4 2.5 9t2.5 9q2 14 16 29q4 6 11 11t16 9q10 4 19 6t20 2h6q6 0 18 -4q6 0 10 -2t9 -4q14 -8 24 -22q4 -6 8 -15q2 -4 2 -12h-39q0 6 -4 10 q-2 6 -12 12t-20 7q-6 0 -11 -2h-8q-4 -4 -16 -13q-4 -4 -7.5 -8t-5.5 -10q-4 -10 -4 -33q0 -18 6 -33q2 -14 15 -18q6 -4 11 -6t11 -4h7q14 0 20 6q8 0 14 10q4 6 7.5 11t3.5 12h-43v32h75v-98h-24l-4 23q-6 -10 -17 -17q-6 -4 -11 -5t-9 -5q-6 0 -11.5 -1t-11.5 -1 q-18 0 -28 8q-16 6 -25 19q-12 12 -18 30t-7 39q0 13 2 19zM764 6h33v-20q12 25 39 24q14 0 20 -6q10 -4 16 -16q4 10 15 16q8 6 20 6q16 0 27 -8q8 -6 14 -16q4 -4 4 -21v-92h-32v80q0 27 -21 27q-23 0 -22 -27v-80h-37v80v12q0 6 -6 12q-4 2 -15 3q-23 0 -22 -25v-82h-33 v133zM1966 6h33v-20q14 25 39 24q16 0 22 -6q8 -4 15 -16q4 8 16 16q6 6 20 6q16 0 25 -8q12 -6 14 -16q6 -6 7 -21v-92h-35v80q0 27 -21 27q-23 0 -22 -27v-80h-35v80q0 10 -2 12q0 6 -6 12q-4 2 -13 3q-23 0 -22 -25v-82h-35v133zM1810 -35q2 8 5.5 13.5t7.5 11.5 q12 12 22 14q8 6 29 6q16 0 29 -6q8 -2 22 -12q4 -4 6 -10.5t6 -12.5q4 -8 5 -30q0 -20 -9 -35q-6 -14 -22 -25q-14 -8 -37 -8q-27 0 -39 10q-14 10 -23 25q-6 14 -6 33q0 18 4 26zM1317 264q2 12 12 23q12 12 23 16q8 4 28 4t31 -4q4 -4 9 -6t10 -6q10 -12 14 -25 q4 -12 4 -28q0 -20 -8 -35q-6 -14 -23 -25q-16 -10 -37 -10q-23 0 -39 10q-12 10 -22 27q-6 14 -6 33q0 10 4 26zM313 2v4h35l23 -96l18 96h35l20 -96l21 96h37l-37 -127l-2 -6h-35l-22 96l-21 -96h-37zM1110 2v4h37l20 -96l19 96h35l20 -96l23 96h34l-36 -127v-6h-37 l-21 96l-20 -96h-37zM119 2v4h37l20 -96l19 96h36l19 -96l22 96h35l-37 -127v-6h-37l-20 96l-20 -96h-37zM506 2v4h37l20 -96l19 96h36l19 -96l20 96h37l-37 -127l-2 -6h-34l-21 96l-22 -96h-35zM1778 238q12 8 28 12l31 4q12 2 12 10q0 16 -20 17q-8 0 -17 -5q-6 -2 -8 -16 h-32q2 18 8 29q4 8 18 14q8 4 14 4h17q27 0 37 -4l8 -8t6 -8q4 -12 4 -17v-71v-15q0 -6 8 -6v-6h-39q-2 0 -2 2v2v2q0 4 -1 6t-1 4q-4 -6 -10 -10q-4 -2 -7 -4t-5 -2l-9 -3t-10 -1q-6 0 -18 4q-4 4 -8 6t-8 6q-6 8 -7 25q1 21 11 29zM987 -61q8 8 27 12l33 4q10 4 10 10 q0 16 -21 17q-4 0 -8 -1t-8 -1q-2 -4 -4 -8.5t-2 -8.5h-33q0 14 6 27q12 12 21 14l12 4q4 0 8 1t8 1q27 0 37 -8q10 -6 17 -14q2 -6 2 -17v-71q0 -10 2 -15q0 -6 6 -6v-6h-37q0 2 -2 4v2q-2 4 -2 10q-8 -8 -12 -10t-6.5 -3t-6.5 -3t-16 -2q-14 0 -19 2q-10 2 -16 14 q-8 6 -8 21q0 21 12 31zM512 274q6 16 20 25q8 6 17.5 7t19.5 1q27 0 35 -8q12 -8 21 -27q4 -10 5 -18t1 -18v-9h-92q0 -12 10 -22q6 -8 22 -8q6 0 15 4q8 8 8 10h37q-4 -10 -13 -23q-6 -4 -11 -8t-9 -6q-8 -2 -13 -4t-14 -2q-66 0 -65 74q0 10 1 17t5 15zM1190 1210 q10 0 18.5 2t14.5 5q14 8 24 22q8 10 8 29q0 14 -4 18q-2 12 -12 19q-8 12 -22 14q-8 6 -29 6q-10 0 -31 -8q-12 -6 -24 -21q-8 -14 -9 -28q0 -14 4 -21q6 -12 15 -20q8 -8 22 -13q13 -4 25 -4zM1204 1044q8 10 8 29q0 12 -4 21q-4 8 -12 18q-10 10 -22 12q-12 6 -27 6 q-23 0 -33 -8q-10 -4 -15 -9t-9 -11q-8 -14 -9 -29q0 -16 4 -22q8 -12 15 -19q4 -4 10 -6t12 -6q16 -4 25 -4q23 0 33 8q12 6 24 20zM1495 -84q0 -18 31 -18q10 0 16 2q4 8 4 10q0 8 -14 10l-31 8q-6 2 -13 5.5t-11 7.5q-12 8 -13 24q0 12 6 23q4 8 19 16q8 6 29 6 q12 0 21 -2t17 -6q12 -6 17 -16q2 -4 2 -5t2 -6v-10h-35q0 10 -6 15q-2 2 -16 2q-20 0 -21 -13q0 -6 12 -8l31 -8q12 -2 29 -12q10 -6 10 -25q0 -12 -6 -25q-8 -10 -21 -16q-8 -4 -30 -4h-13q-8 0 -12 2q-12 4 -20 8q-12 8 -15 15q-4 12 -4 20h35zM1315 6h35v-20 q14 25 41 24q12 0 24 -6q10 -4 15 -14q6 -12 6 -25v-92h-35v80q0 16 -4 20q-2 6 -19 7q-14 0 -20 -9q-6 -10 -6 -22v-76h-37v133zM1473 305h32v-18q14 20 41 20q18 0 25 -4q4 -4 8 -7t8 -7q6 -12 6 -25v-92h-34v80q0 8 -5 20q-6 6 -20 7q-14 0 -21 -9q-4 -6 -4 -22v-76h-36 v133zM1008 172h-33v18q-6 -10 -17 -14q-16 -8 -24 -8q-20 0 -33 14q-12 12 -12 35v88h35v-82q0 -25 22 -24q8 0 12 2t13 10q0 4 2 8t2 8v78h33v-133zM1681 -12q16 23 48 22q18 0 30 -6q14 -4 21 -18q10 -10 10 -27h-37q0 6 -4 14q-4 6 -16 7q-16 0 -21 -11q-8 -8 -8 -26 t2 -25q2 -10 8 -14q4 -4 17 -4q10 0 16 4q6 6 6 18h37q0 -10 -8 -26q-6 -10 -21 -19q-12 -6 -32 -6q-27 0 -43 14q-8 8 -15 21q-2 8 -2 31q0 28 12 51zM831 1212h72v5h-4q-12 0 -16 4q-4 2 -4 6v8v31h24l39 -54h41v5h-4q-10 0 -14 2l-7 6q-2 4 -4 6t-4 6l-4 4q0 2 -4 6v4 q-6 2 -12 2q-8 4 -10 7l-13 6h19q4 2 8 2t8 2q6 0 14 4q12 8 13 22q0 4 -2 7q-4 8 -6 10q-6 6 -17 6q-12 4 -26 4h-87v-4h5q10 0 14 -4q6 -4 6 -17v-63q0 -4 -1 -8t-5 -6q-4 -4 -14 -4h-5v-5zM811 281h-18v24h18v10q0 37 39 37h18v-26h-10q-6 0 -8 -2q-4 0 -4 -5v-14h22v-24 h-22v-109h-35v109zM1243 281h-18v24h18v10q0 37 39 37h16v-26h-8q-8 0 -8 -2q-2 0 -4 -5v-14h25v-24h-25v-109h-35v109zM1917 281h-16v24h16v35h37v-35h22v-24h-22v-72q0 -4 1 -6t1 -4q2 0 4 -1t6 -1l6 2h4v-27h-22q-16 0 -23 4q-8 0 -10 8q0 4 -2 7.5t-2 7.5v82zM659 281 h-18v24h18v35h35v-35h21v-24h-21v-72q0 -8 2 -10q2 0 5.5 -1t7.5 -1l4 2h2v-27h-21q-16 0 -22 4q-8 0 -10 8q-2 4 -3 15v82zM631 1212v5h-6q-20 0 -21 18v29h29h22q12 4 15 6q10 4 10 10q4 4 4 12t-6 19q-8 8 -21 8q-2 2 -8 2h-12q-6 2 -14 2h-66v-4h4q20 0 21 -21v-63 q0 -18 -21 -18h-4v-5h74zM1630 281h-20v24h20v35h33v-35h23v-24h-23v-72q0 -4 1 -6t1 -4q4 0 6 -1t6 -1l4 2h5v-27h-23q-16 0 -21 4q-10 0 -12 8v15v82zM1176 1112l4 -8t4 -10q0 -4 1 -9.5t1 -11.5q0 -12 -4 -29q-6 -12 -15 -20q-6 -4 -20 -4q-12 0 -14 4q-8 0 -15 10 q-2 4 -6 17q-4 12 -4 22q0 4 1 9t1 10q2 4 3 7t3 7q6 10 8 12q0 2 11 6q8 4 14 4q2 0 3 -1t5 -1l8 -4zM1219 1307q2 -4 4 -8.5t4 -10.5q0 -4 1 -9t1 -11q0 -16 -6 -29q-4 -12 -13 -18q-10 -6 -20 -7q-10 0 -16 3q-4 4 -6.5 5t-4.5 5q-4 6 -8 18q-2 6 -3 11.5t-1 11.5 q0 4 1 9t1 9q2 4 3 7t3 7q4 8 8 13q6 6 11 6q4 2 14 2h8q2 -2 3 -2t3 -2q9 -2 13 -10zM1040 352h35v-180h-35v180zM1102 352h33v-180h-33v180zM713 1315q6 -4 6 -17v-63q0 -18 -21 -18h-2v-5h119v45h-2q-2 -4 -2 -7t-4 -7q-4 -10 -10 -16t-11 -6l-12 -4h-33v49h4 q14 0 21 -11l6 -6q0 -2 1 -3t1 -5q0 -8 2 -10h2v72h-2q-2 -4 -2 -11q0 -10 -6 -12q-6 -12 -20 -12h-7v51h23q16 0 22 -4q8 0 11 -8q4 -2 8 -11q2 -4 2 -8t4 -8h2v43h-117v-4h2q13 0 15 -4zM1008 1063q-4 -4 -4 -7t-3 -7q-8 -12 -12 -17q-6 -6 -10 -6l-10 -4q-6 -2 -15 -2 h-18v49h2q14 0 23 -8q2 -2 2 -3t2 -3q0 -2 1 -3t1 -5q2 -4 2 -11h2v72h-2v-10l-3 -6t-3 -7q-10 -12 -21 -12h-6v51h20q18 0 25 -2q4 -4 5 -4t5 -4l6 -12q4 -8 7 -17h4v43h-119v-4h4q10 0 12 -4q6 -4 6 -14v-66q0 -20 -18 -20h-4v-2h119v45zM1380 1128h-55v-4h10q0 -2 4 -2 q8 -8 9 -10q4 -4 4 -16v-47l-78 79h-43v-4h2q8 0 10 -2q4 0 5 -2t3 -2q2 -4 2 -10v-64q0 -8 -2 -12q-2 -6 -8 -8q-8 -4 -14 -4v-2h57v2q-6 0 -10 2q-4 0 -5 1t-5 1q-2 2 -6 10q-2 2 -3 15v65l95 -96h4v78q0 12 6 22q2 6 18 6v4zM1430 1212h45v5h-7h-2q-4 2 -4 3t-2 3 q0 2 -1 3t-1 5q0 2 1 4t1 4l2 8h47l2 -4l2 -2v-2q2 -4 3.5 -6t1.5 -6q2 -2 2 -4q0 -6 -2 -6h-9h-10v-5h66v5h-4h-9q-2 0 -3 2t-3 2l-4 8l-43 96h-4l-35 -78q-10 -23 -16 -26q-4 0 -5 -2t-3 -2h-6v-5zM877 1051v10q-2 2 -3.5 4t-3.5 4q-6 4 -14 8q-4 2 -9 3t-11 5h-9h-4l-2 2 q-16 4 -16 5q-4 2 -6 2t-4 2q-2 0 -7 4q-4 4 -4 8q0 6 2 8q0 -2 5 6l8 4q4 0 6 1t6 1q8 0 16 -4q10 0 17 -6q8 -4 12 -8t5 -9t5 -11h4v36h-4q-2 -8 -8 -8t-10 2q-20 10 -37 10q-10 0 -23 -4q-4 -4 -7 -6t-7 -4q-6 -10 -6 -18q0 -6 6 -13q0 -2 6 -8q8 -4 15 -6q2 -2 8 -3 t16 -5l8 -2q12 -4 17 -4q4 0 8 -4q2 0 4 -2q6 -6 6 -13q0 -2 -4 -10q-2 -2 -10 -8h-12q-12 0 -19 2q-12 4 -20 8l-13 12q-10 14 -10 25h-4v-51h4q0 8 4 8q4 4 10 4q2 0 2.5 -1t4.5 -1q2 0 3 -1t5 -1q6 -4 9 -4t7 -2t17 -2q6 0 18 4q4 0 7 2t7 6q4 2 4 4t5 6v13zM1063 1210 q8 0 20 4q8 2 15 9q2 2 3 5t3 5q2 4 2 10v10q-4 4 -4 6.5t-4 4.5q-4 4 -13 8q-4 2 -9 3t-13 5l-10 2h-4q-4 0 -8.5 2t-8.5 2t-8 4q-2 0 -6 4q-4 2 -4 9q0 4 2 6q0 2 4 6q2 4 8 4q4 2 12 2q10 0 17 -2q4 0 8 -2t8 -2q4 -4 6 -5t4 -5q8 -12 13 -23h2v39h-2q-2 -8 -11 -8h-2 q-4 0 -6 2q-20 10 -37 10q-16 0 -22 -4q-8 -2 -14 -12q-6 -6 -7 -17q0 -8 4 -12q2 -4 4.5 -5t4.5 -3t5 -3t7 -3t10 -3t17 -6l8 -2q4 -2 7 -2t7 -2l8 -4q6 0 6 -4q6 -4 7 -10q0 -6 -5 -10q-6 -6 -10 -6q-4 -2 -14 -3q-10 0 -19 3q-6 0 -18 8q-6 4 -14 12q-8 16 -11 27h-2v-54 h2q4 6 7 9q2 2 8 2h6q6 0 10 -4q4 -2 8 -2.5t9 -2.5q4 -2 14 -2zM1272 1212h57v5h-10q-6 0 -10 4q-6 0 -6 8q-4 8 -5 14v66l97 -99h2v80q0 6 2 12.5t4 10.5q6 6 20 6v4h-55v-4h8l8 -4q4 0 9 -8q2 -4 2 -17v-47l-76 80h-45v-4h12q4 -4 5 -4t3 -2q2 -4 2 -10v-64q0 -8 -2 -12 q-2 -6 -8 -8q-4 -2 -14 -2v-5zM1405 266q-6 12 -25 13q-18 0 -24 -13q-8 -12 -8 -28q0 -14 8 -27q4 -12 24 -12t25 12q8 8 8 27q0 20 -8 28zM1898 -31q-6 10 -24 11q-18 0 -25 -11q-6 -12 -6 -30q0 -14 6 -27q6 -12 25 -12q18 0 24 12q4 6 5.5 13t1.5 14q-1 22 -7 30z M1696 1262h-4q0 -4 -2 -7.5t-2 -7.5q-2 -4 -2 -5t-3 -5l-6 -6q-6 -10 -14 -10q-4 -4 -14 -4h-29v81q0 12 4 17q2 4 16 4h7v4h-74v-4h4q20 0 20 -21v-63q0 -18 -20 -18h-4v-5h123v50zM1653 1128h-56v-4h7q10 0 12 -2q4 -2 4 -8q0 -4 -6 -12l-23 -31l-28 37l-4 8v2q0 4 2 4 q0 2 6 2h10v4h-72v-4h2q12 0 17 -2l6 -6t4 -6l35 -45v-25q0 -10 -4 -14q-4 -2 -8.5 -4t-8.5 -2h-6v-2h78v2h-8q-8 0 -15 6q-6 2 -6 14v27l29 39q4 4 6 8q8 4 10 4q2 4 6 4q4 2 11 2v4zM1511 1067h-2q-4 -4 -4 -7t-2 -7q-4 -4 -4 -11q-2 -2 -6 -8q-8 -8 -14 -10q-4 -4 -17 -4 h-28v86q0 10 6 14q4 4 14 4h8v4h-76v-4h7q18 0 18 -18v-66q0 -20 -18 -20h-7v-2h125v49zM754 1128h-56v-4h13q2 0 3 -1t3 -1q12 -6 12 -26v-39q0 -16 -10 -27q-2 -2 -14 -10h-19q-14 0 -20 4q-4 0 -13 8q-4 4 -4 19v55q0 12 4 14q4 4 17 4h8v4h-76v-4h2q23 0 23 -18v-55 q0 -14 12 -27q6 -4 18 -6q6 -2 23 -2q16 0 29 4q8 4 12 8q10 8 10 27v43v14l10 10h2l2 2h9v4zM928 1272q-4 -2 -19 -2h-30v49h30q33 0 33 -23q0 -12 -4 -16q0 -4 -10 -8zM649 1272q-2 -6 -22 -6h-23v53h33q6 0 10 -4q12 -4 12 -23q0 -14 -10 -20zM1044 -68l-16 -2l-12 -6 q-6 -6 -6 -14t6 -10q4 -4 12 -4h6q2 0 3 1t3 1q4 2 6.5 4t6.5 4q4 4 4 14v19q-7 -7 -13 -7zM1835 231l-16 -4q-6 0 -13 -6q-4 -2 -4 -12t4 -10q4 -4 13 -4h8h2q2 0 4 2q8 4 12 8q4 8 4 16v17q-6 -7 -14 -7zM1608 -90h37v-37h-37v37zM694 -90h37v-37h-37v37zM596 252 q-4 12 -8 20q-4 4 -8.5 6.5t-10.5 2.5q-23 0 -26 -29h53zM1509 1249h-45l23 49z" />
<glyph unicode="%" horiz-adv-x="2310" d="M1855 1124l-36 -30l26 -41l-43 -27l27 -43l-43 -25l18 -43l-47 -20l17 -49l-45 -15l8 -45l-49 -10l4 -51l-47 -4v-47h-41l-7 -43l-45 4l-10 -45l-49 8l-14 -47l-45 14l-17 -47l-49 21l-22 -45l-43 22l-27 -41l-43 27l-29 -37l-37 31l-34 -33l-31 29l-33 -29l-29 37 l-41 -27l-28 43l-43 -24l-23 40l-45 -18l-20 47l-47 -14l-15 45l-47 -10l-10 49l-49 -4l-6 47h-48v43l-40 4l4 47l-47 8l10 49l-49 15l14 45l-45 18l18 47l-45 25l23 41l-39 26l29 43l-39 31l28 37l-32 35l30 29l-28 32l36 31l-26 39l41 29l-23 43l39 22l-16 45l45 21 l-14 47l47 14l-11 47l50 10l-7 52l47 4v47h44l4 43l47 -6l8 47l51 -8l12 47l45 -13l19 43l47 -18l25 45l43 -22l24 40l43 -28l31 39l39 -31l33 33l30 -29l31 27l31 -35l41 27l26 -43l45 24l23 -41l43 19l20 -48l50 15l14 -45l45 10l10 -49l51 4l4 -47h48v-43l43 -4l-5 -47 l46 -9l-9 -49l49 -14l-14 -45l45 -19l-20 -47l47 -24l-25 -41l41 -27l-26 -43l36 -31l-30 -36l32 -33l-26 -31zM319 281q0 4 2.5 9t2.5 9q2 14 16 29q4 6 11 11t16 9q10 4 19 6t20 2h6q6 0 18 -4q6 0 10 -2t9 -4q14 -8 24 -22q4 -6 8 -15q2 -4 2 -12h-39q0 6 -4 10 q-2 6 -12 12t-20 7q-6 0 -11 -2h-8q-4 -4 -16 -13q-4 -4 -7.5 -8t-5.5 -10q-4 -10 -4 -33q0 -18 6 -33q2 -14 15 -18q6 -4 11 -6t11 -4h7q14 0 20 6q8 0 14 10q4 6 7.5 11t3.5 12h-43v32h75v-98h-24l-4 23q-6 -10 -17 -17q-6 -4 -11 -5t-9 -5q-6 0 -11.5 -1t-11.5 -1 q-18 0 -28 8q-16 6 -25 19q-12 12 -18 30t-7 39q0 13 2 19zM764 6h33v-20q12 25 39 24q14 0 20 -6q10 -4 16 -16q4 10 15 16q8 6 20 6q16 0 27 -8q8 -6 14 -16q4 -4 4 -21v-92h-32v80q0 27 -21 27q-23 0 -22 -27v-80h-37v80v12q0 6 -6 12q-4 2 -15 3q-23 0 -22 -25v-82h-33 v133zM1966 6h33v-20q14 25 39 24q16 0 22 -6q8 -4 15 -16q4 8 16 16q6 6 20 6q16 0 25 -8q12 -6 14 -16q6 -6 7 -21v-92h-35v80q0 27 -21 27q-23 0 -22 -27v-80h-35v80q0 10 -2 12q0 6 -6 12q-4 2 -13 3q-23 0 -22 -25v-82h-35v133zM1810 -35q2 8 5.5 13.5t7.5 11.5 q12 12 22 14q8 6 29 6q16 0 29 -6q8 -2 22 -12q4 -4 6 -10.5t6 -12.5q4 -8 5 -30q0 -20 -9 -35q-6 -14 -22 -25q-14 -8 -37 -8q-27 0 -39 10q-14 10 -23 25q-6 14 -6 33q0 18 4 26zM1317 264q2 12 12 23q12 12 23 16q8 4 28 4t31 -4q4 -4 9 -6t10 -6q10 -12 14 -25 q4 -12 4 -28q0 -20 -8 -35q-6 -14 -23 -25q-16 -10 -37 -10q-23 0 -39 10q-12 10 -22 27q-6 14 -6 33q0 10 4 26zM313 2v4h35l23 -96l18 96h35l20 -96l21 96h37l-37 -127l-2 -6h-35l-22 96l-21 -96h-37zM1110 2v4h37l20 -96l19 96h35l20 -96l23 96h34l-36 -127v-6h-37 l-21 96l-20 -96h-37zM119 2v4h37l20 -96l19 96h36l19 -96l22 96h35l-37 -127v-6h-37l-20 96l-20 -96h-37zM506 2v4h37l20 -96l19 96h36l19 -96l20 96h37l-37 -127l-2 -6h-34l-21 96l-22 -96h-35zM1778 238q12 8 28 12l31 4q12 2 12 10q0 16 -20 17q-8 0 -17 -5q-6 -2 -8 -16 h-32q2 18 8 29q4 8 18 14q8 4 14 4h17q27 0 37 -4l8 -8t6 -8q4 -12 4 -17v-71v-15q0 -6 8 -6v-6h-39q-2 0 -2 2v2v2q0 4 -1 6t-1 4q-4 -6 -10 -10q-4 -2 -7 -4t-5 -2l-9 -3t-10 -1q-6 0 -18 4q-4 4 -8 6t-8 6q-6 8 -7 25q1 21 11 29zM987 -61q8 8 27 12l33 4q10 4 10 10 q0 16 -21 17q-4 0 -8 -1t-8 -1q-2 -4 -4 -8.5t-2 -8.5h-33q0 14 6 27q12 12 21 14l12 4q4 0 8 1t8 1q27 0 37 -8q10 -6 17 -14q2 -6 2 -17v-71q0 -10 2 -15q0 -6 6 -6v-6h-37q0 2 -2 4v2q-2 4 -2 10q-8 -8 -12 -10t-6.5 -3t-6.5 -3t-16 -2q-14 0 -19 2q-10 2 -16 14 q-8 6 -8 21q0 21 12 31zM512 274q6 16 20 25q8 6 17.5 7t19.5 1q27 0 35 -8q12 -8 21 -27q4 -10 5 -18t1 -18v-9h-92q0 -12 10 -22q6 -8 22 -8q6 0 15 4q8 8 8 10h37q-4 -10 -13 -23q-6 -4 -11 -8t-9 -6q-8 -2 -13 -4t-14 -2q-66 0 -65 74q0 10 1 17t5 15zM1190 1210 q10 0 18.5 2t14.5 5q14 8 24 22q8 10 8 29q0 14 -4 18q-2 12 -12 19q-8 12 -22 14q-8 6 -29 6q-10 0 -31 -8q-12 -6 -24 -21q-8 -14 -9 -28q0 -14 4 -21q6 -12 15 -20q8 -8 22 -13q13 -4 25 -4zM1204 1044q8 10 8 29q0 12 -4 21q-4 8 -12 18q-10 10 -22 12q-12 6 -27 6 q-23 0 -33 -8q-10 -4 -15 -9t-9 -11q-8 -14 -9 -29q0 -16 4 -22q8 -12 15 -19q4 -4 10 -6t12 -6q16 -4 25 -4q23 0 33 8q12 6 24 20zM1495 -84q0 -18 31 -18q10 0 16 2q4 8 4 10q0 8 -14 10l-31 8q-6 2 -13 5.5t-11 7.5q-12 8 -13 24q0 12 6 23q4 8 19 16q8 6 29 6 q12 0 21 -2t17 -6q12 -6 17 -16q2 -4 2 -5t2 -6v-10h-35q0 10 -6 15q-2 2 -16 2q-20 0 -21 -13q0 -6 12 -8l31 -8q12 -2 29 -12q10 -6 10 -25q0 -12 -6 -25q-8 -10 -21 -16q-8 -4 -30 -4h-13q-8 0 -12 2q-12 4 -20 8q-12 8 -15 15q-4 12 -4 20h35zM1315 6h35v-20 q14 25 41 24q12 0 24 -6q10 -4 15 -14q6 -12 6 -25v-92h-35v80q0 16 -4 20q-2 6 -19 7q-14 0 -20 -9q-6 -10 -6 -22v-76h-37v133zM1473 305h32v-18q14 20 41 20q18 0 25 -4q4 -4 8 -7t8 -7q6 -12 6 -25v-92h-34v80q0 8 -5 20q-6 6 -20 7q-14 0 -21 -9q-4 -6 -4 -22v-76h-36 v133zM1008 172h-33v18q-6 -10 -17 -14q-16 -8 -24 -8q-20 0 -33 14q-12 12 -12 35v88h35v-82q0 -25 22 -24q8 0 12 2t13 10q0 4 2 8t2 8v78h33v-133zM1681 -12q16 23 48 22q18 0 30 -6q14 -4 21 -18q10 -10 10 -27h-37q0 6 -4 14q-4 6 -16 7q-16 0 -21 -11q-8 -8 -8 -26 t2 -25q2 -10 8 -14q4 -4 17 -4q10 0 16 4q6 6 6 18h37q0 -10 -8 -26q-6 -10 -21 -19q-12 -6 -32 -6q-27 0 -43 14q-8 8 -15 21q-2 8 -2 31q0 28 12 51zM831 1212h72v5h-4q-12 0 -16 4q-4 2 -4 6v8v31h24l39 -54h41v5h-4q-10 0 -14 2l-7 6q-2 4 -4 6t-4 6l-4 4q0 2 -4 6v4 q-6 2 -12 2q-8 4 -10 7l-13 6h19q4 2 8 2t8 2q6 0 14 4q12 8 13 22q0 4 -2 7q-4 8 -6 10q-6 6 -17 6q-12 4 -26 4h-87v-4h5q10 0 14 -4q6 -4 6 -17v-63q0 -4 -1 -8t-5 -6q-4 -4 -14 -4h-5v-5zM811 281h-18v24h18v10q0 37 39 37h18v-26h-10q-6 0 -8 -2q-4 0 -4 -5v-14h22v-24 h-22v-109h-35v109zM1243 281h-18v24h18v10q0 37 39 37h16v-26h-8q-8 0 -8 -2q-2 0 -4 -5v-14h25v-24h-25v-109h-35v109zM1917 281h-16v24h16v35h37v-35h22v-24h-22v-72q0 -4 1 -6t1 -4q2 0 4 -1t6 -1l6 2h4v-27h-22q-16 0 -23 4q-8 0 -10 8q0 4 -2 7.5t-2 7.5v82zM659 281 h-18v24h18v35h35v-35h21v-24h-21v-72q0 -8 2 -10q2 0 5.5 -1t7.5 -1l4 2h2v-27h-21q-16 0 -22 4q-8 0 -10 8q-2 4 -3 15v82zM631 1212v5h-6q-20 0 -21 18v29h29h22q12 4 15 6q10 4 10 10q4 4 4 12t-6 19q-8 8 -21 8q-2 2 -8 2h-12q-6 2 -14 2h-66v-4h4q20 0 21 -21v-63 q0 -18 -21 -18h-4v-5h74zM1630 281h-20v24h20v35h33v-35h23v-24h-23v-72q0 -4 1 -6t1 -4q4 0 6 -1t6 -1l4 2h5v-27h-23q-16 0 -21 4q-10 0 -12 8v15v82zM1176 1112l4 -8t4 -10q0 -4 1 -9.5t1 -11.5q0 -12 -4 -29q-6 -12 -15 -20q-6 -4 -20 -4q-12 0 -14 4q-8 0 -15 10 q-2 4 -6 17q-4 12 -4 22q0 4 1 9t1 10q2 4 3 7t3 7q6 10 8 12q0 2 11 6q8 4 14 4q2 0 3 -1t5 -1l8 -4zM1219 1307q2 -4 4 -8.5t4 -10.5q0 -4 1 -9t1 -11q0 -16 -6 -29q-4 -12 -13 -18q-10 -6 -20 -7q-10 0 -16 3q-4 4 -6.5 5t-4.5 5q-4 6 -8 18q-2 6 -3 11.5t-1 11.5 q0 4 1 9t1 9q2 4 3 7t3 7q4 8 8 13q6 6 11 6q4 2 14 2h8q2 -2 3 -2t3 -2q9 -2 13 -10zM1040 352h35v-180h-35v180zM1102 352h33v-180h-33v180zM713 1315q6 -4 6 -17v-63q0 -18 -21 -18h-2v-5h119v45h-2q-2 -4 -2 -7t-4 -7q-4 -10 -10 -16t-11 -6l-12 -4h-33v49h4 q14 0 21 -11l6 -6q0 -2 1 -3t1 -5q0 -8 2 -10h2v72h-2q-2 -4 -2 -11q0 -10 -6 -12q-6 -12 -20 -12h-7v51h23q16 0 22 -4q8 0 11 -8q4 -2 8 -11q2 -4 2 -8t4 -8h2v43h-117v-4h2q13 0 15 -4zM1008 1063q-4 -4 -4 -7t-3 -7q-8 -12 -12 -17q-6 -6 -10 -6l-10 -4q-6 -2 -15 -2 h-18v49h2q14 0 23 -8q2 -2 2 -3t2 -3q0 -2 1 -3t1 -5q2 -4 2 -11h2v72h-2v-10l-3 -6t-3 -7q-10 -12 -21 -12h-6v51h20q18 0 25 -2q4 -4 5 -4t5 -4l6 -12q4 -8 7 -17h4v43h-119v-4h4q10 0 12 -4q6 -4 6 -14v-66q0 -20 -18 -20h-4v-2h119v45zM1380 1128h-55v-4h10q0 -2 4 -2 q8 -8 9 -10q4 -4 4 -16v-47l-78 79h-43v-4h2q8 0 10 -2q4 0 5 -2t3 -2q2 -4 2 -10v-64q0 -8 -2 -12q-2 -6 -8 -8q-8 -4 -14 -4v-2h57v2q-6 0 -10 2q-4 0 -5 1t-5 1q-2 2 -6 10q-2 2 -3 15v65l95 -96h4v78q0 12 6 22q2 6 18 6v4zM1430 1212h45v5h-7h-2q-4 2 -4 3t-2 3 q0 2 -1 3t-1 5q0 2 1 4t1 4l2 8h47l2 -4l2 -2v-2q2 -4 3.5 -6t1.5 -6q2 -2 2 -4q0 -6 -2 -6h-9h-10v-5h66v5h-4h-9q-2 0 -3 2t-3 2l-4 8l-43 96h-4l-35 -78q-10 -23 -16 -26q-4 0 -5 -2t-3 -2h-6v-5zM877 1051v10q-2 2 -3.5 4t-3.5 4q-6 4 -14 8q-4 2 -9 3t-11 5h-9h-4l-2 2 q-16 4 -16 5q-4 2 -6 2t-4 2q-2 0 -7 4q-4 4 -4 8q0 6 2 8q0 -2 5 6l8 4q4 0 6 1t6 1q8 0 16 -4q10 0 17 -6q8 -4 12 -8t5 -9t5 -11h4v36h-4q-2 -8 -8 -8t-10 2q-20 10 -37 10q-10 0 -23 -4q-4 -4 -7 -6t-7 -4q-6 -10 -6 -18q0 -6 6 -13q0 -2 6 -8q8 -4 15 -6q2 -2 8 -3 t16 -5l8 -2q12 -4 17 -4q4 0 8 -4q2 0 4 -2q6 -6 6 -13q0 -2 -4 -10q-2 -2 -10 -8h-12q-12 0 -19 2q-12 4 -20 8l-13 12q-10 14 -10 25h-4v-51h4q0 8 4 8q4 4 10 4q2 0 2.5 -1t4.5 -1q2 0 3 -1t5 -1q6 -4 9 -4t7 -2t17 -2q6 0 18 4q4 0 7 2t7 6q4 2 4 4t5 6v13zM1063 1210 q8 0 20 4q8 2 15 9q2 2 3 5t3 5q2 4 2 10v10q-4 4 -4 6.5t-4 4.5q-4 4 -13 8q-4 2 -9 3t-13 5l-10 2h-4q-4 0 -8.5 2t-8.5 2t-8 4q-2 0 -6 4q-4 2 -4 9q0 4 2 6q0 2 4 6q2 4 8 4q4 2 12 2q10 0 17 -2q4 0 8 -2t8 -2q4 -4 6 -5t4 -5q8 -12 13 -23h2v39h-2q-2 -8 -11 -8h-2 q-4 0 -6 2q-20 10 -37 10q-16 0 -22 -4q-8 -2 -14 -12q-6 -6 -7 -17q0 -8 4 -12q2 -4 4.5 -5t4.5 -3t5 -3t7 -3t10 -3t17 -6l8 -2q4 -2 7 -2t7 -2l8 -4q6 0 6 -4q6 -4 7 -10q0 -6 -5 -10q-6 -6 -10 -6q-4 -2 -14 -3q-10 0 -19 3q-6 0 -18 8q-6 4 -14 12q-8 16 -11 27h-2v-54 h2q4 6 7 9q2 2 8 2h6q6 0 10 -4q4 -2 8 -2.5t9 -2.5q4 -2 14 -2zM1272 1212h57v5h-10q-6 0 -10 4q-6 0 -6 8q-4 8 -5 14v66l97 -99h2v80q0 6 2 12.5t4 10.5q6 6 20 6v4h-55v-4h8l8 -4q4 0 9 -8q2 -4 2 -17v-47l-76 80h-45v-4h12q4 -4 5 -4t3 -2q2 -4 2 -10v-64q0 -8 -2 -12 q-2 -6 -8 -8q-4 -2 -14 -2v-5zM1405 266q-6 12 -25 13q-18 0 -24 -13q-8 -12 -8 -28q0 -14 8 -27q4 -12 24 -12t25 12q8 8 8 27q0 20 -8 28zM1898 -31q-6 10 -24 11q-18 0 -25 -11q-6 -12 -6 -30q0 -14 6 -27q6 -12 25 -12q18 0 24 12q4 6 5.5 13t1.5 14q-1 22 -7 30z M1696 1262h-4q0 -4 -2 -7.5t-2 -7.5q-2 -4 -2 -5t-3 -5l-6 -6q-6 -10 -14 -10q-4 -4 -14 -4h-29v81q0 12 4 17q2 4 16 4h7v4h-74v-4h4q20 0 20 -21v-63q0 -18 -20 -18h-4v-5h123v50zM1653 1128h-56v-4h7q10 0 12 -2q4 -2 4 -8q0 -4 -6 -12l-23 -31l-28 37l-4 8v2q0 4 2 4 q0 2 6 2h10v4h-72v-4h2q12 0 17 -2l6 -6t4 -6l35 -45v-25q0 -10 -4 -14q-4 -2 -8.5 -4t-8.5 -2h-6v-2h78v2h-8q-8 0 -15 6q-6 2 -6 14v27l29 39q4 4 6 8q8 4 10 4q2 4 6 4q4 2 11 2v4zM1511 1067h-2q-4 -4 -4 -7t-2 -7q-4 -4 -4 -11q-2 -2 -6 -8q-8 -8 -14 -10q-4 -4 -17 -4 h-28v86q0 10 6 14q4 4 14 4h8v4h-76v-4h7q18 0 18 -18v-66q0 -20 -18 -20h-7v-2h125v49zM754 1128h-56v-4h13q2 0 3 -1t3 -1q12 -6 12 -26v-39q0 -16 -10 -27q-2 -2 -14 -10h-19q-14 0 -20 4q-4 0 -13 8q-4 4 -4 19v55q0 12 4 14q4 4 17 4h8v4h-76v-4h2q23 0 23 -18v-55 q0 -14 12 -27q6 -4 18 -6q6 -2 23 -2q16 0 29 4q8 4 12 8q10 8 10 27v43v14l10 10h2l2 2h9v4zM928 1272q-4 -2 -19 -2h-30v49h30q33 0 33 -23q0 -12 -4 -16q0 -4 -10 -8zM649 1272q-2 -6 -22 -6h-23v53h33q6 0 10 -4q12 -4 12 -23q0 -14 -10 -20zM1044 -68l-16 -2l-12 -6 q-6 -6 -6 -14t6 -10q4 -4 12 -4h6q2 0 3 1t3 1q4 2 6.5 4t6.5 4q4 4 4 14v19q-7 -7 -13 -7zM1835 231l-16 -4q-6 0 -13 -6q-4 -2 -4 -12t4 -10q4 -4 13 -4h8h2q2 0 4 2q8 4 12 8q4 8 4 16v17q-6 -7 -14 -7zM1608 -90h37v-37h-37v37zM694 -90h37v-37h-37v37zM596 252 q-4 12 -8 20q-4 4 -8.5 6.5t-10.5 2.5q-23 0 -26 -29h53zM1509 1249h-45l23 49z" />
<glyph unicode="&#x26;" horiz-adv-x="800" d="M1855 1124l-36 -30l26 -41l-43 -27l27 -43l-43 -25l18 -43l-47 -20l17 -49l-45 -15l8 -45l-49 -10l4 -51l-47 -4v-47h-41l-7 -43l-45 4l-10 -45l-49 8l-14 -47l-45 14l-17 -47l-49 21l-22 -45l-43 22l-27 -41l-43 27l-29 -37l-37 31l-34 -33l-31 29l-33 -29l-29 37 l-41 -27l-28 43l-43 -24l-23 40l-45 -18l-20 47l-47 -14l-15 45l-47 -10l-10 49l-49 -4l-6 47h-48v43l-40 4l4 47l-47 8l10 49l-49 15l14 45l-45 18l18 47l-45 25l23 41l-39 26l29 43l-39 31l28 37l-32 35l30 29l-28 32l36 31l-26 39l41 29l-23 43l39 22l-16 45l45 21 l-14 47l47 14l-11 47l50 10l-7 52l47 4v47h44l4 43l47 -6l8 47l51 -8l12 47l45 -13l19 43l47 -18l25 45l43 -22l24 40l43 -28l31 39l39 -31l33 33l30 -29l31 27l31 -35l41 27l26 -43l45 24l23 -41l43 19l20 -48l50 15l14 -45l45 10l10 -49l51 4l4 -47h48v-43l43 -4l-5 -47 l46 -9l-9 -49l49 -14l-14 -45l45 -19l-20 -47l47 -24l-25 -41l41 -27l-26 -43l36 -31l-30 -36l32 -33l-26 -31zM319 281q0 4 2.5 9t2.5 9q2 14 16 29q4 6 11 11t16 9q10 4 19 6t20 2h6q6 0 18 -4q6 0 10 -2t9 -4q14 -8 24 -22q4 -6 8 -15q2 -4 2 -12h-39q0 6 -4 10 q-2 6 -12 12t-20 7q-6 0 -11 -2h-8q-4 -4 -16 -13q-4 -4 -7.5 -8t-5.5 -10q-4 -10 -4 -33q0 -18 6 -33q2 -14 15 -18q6 -4 11 -6t11 -4h7q14 0 20 6q8 0 14 10q4 6 7.5 11t3.5 12h-43v32h75v-98h-24l-4 23q-6 -10 -17 -17q-6 -4 -11 -5t-9 -5q-6 0 -11.5 -1t-11.5 -1 q-18 0 -28 8q-16 6 -25 19q-12 12 -18 30t-7 39q0 13 2 19zM764 6h33v-20q12 25 39 24q14 0 20 -6q10 -4 16 -16q4 10 15 16q8 6 20 6q16 0 27 -8q8 -6 14 -16q4 -4 4 -21v-92h-32v80q0 27 -21 27q-23 0 -22 -27v-80h-37v80v12q0 6 -6 12q-4 2 -15 3q-23 0 -22 -25v-82h-33 v133zM1966 6h33v-20q14 25 39 24q16 0 22 -6q8 -4 15 -16q4 8 16 16q6 6 20 6q16 0 25 -8q12 -6 14 -16q6 -6 7 -21v-92h-35v80q0 27 -21 27q-23 0 -22 -27v-80h-35v80q0 10 -2 12q0 6 -6 12q-4 2 -13 3q-23 0 -22 -25v-82h-35v133zM1810 -35q2 8 5.5 13.5t7.5 11.5 q12 12 22 14q8 6 29 6q16 0 29 -6q8 -2 22 -12q4 -4 6 -10.5t6 -12.5q4 -8 5 -30q0 -20 -9 -35q-6 -14 -22 -25q-14 -8 -37 -8q-27 0 -39 10q-14 10 -23 25q-6 14 -6 33q0 18 4 26zM1317 264q2 12 12 23q12 12 23 16q8 4 28 4t31 -4q4 -4 9 -6t10 -6q10 -12 14 -25 q4 -12 4 -28q0 -20 -8 -35q-6 -14 -23 -25q-16 -10 -37 -10q-23 0 -39 10q-12 10 -22 27q-6 14 -6 33q0 10 4 26zM313 2v4h35l23 -96l18 96h35l20 -96l21 96h37l-37 -127l-2 -6h-35l-22 96l-21 -96h-37zM1110 2v4h37l20 -96l19 96h35l20 -96l23 96h34l-36 -127v-6h-37 l-21 96l-20 -96h-37zM119 2v4h37l20 -96l19 96h36l19 -96l22 96h35l-37 -127v-6h-37l-20 96l-20 -96h-37zM506 2v4h37l20 -96l19 96h36l19 -96l20 96h37l-37 -127l-2 -6h-34l-21 96l-22 -96h-35zM1778 238q12 8 28 12l31 4q12 2 12 10q0 16 -20 17q-8 0 -17 -5q-6 -2 -8 -16 h-32q2 18 8 29q4 8 18 14q8 4 14 4h17q27 0 37 -4l8 -8t6 -8q4 -12 4 -17v-71v-15q0 -6 8 -6v-6h-39q-2 0 -2 2v2v2q0 4 -1 6t-1 4q-4 -6 -10 -10q-4 -2 -7 -4t-5 -2l-9 -3t-10 -1q-6 0 -18 4q-4 4 -8 6t-8 6q-6 8 -7 25q1 21 11 29zM987 -61q8 8 27 12l33 4q10 4 10 10 q0 16 -21 17q-4 0 -8 -1t-8 -1q-2 -4 -4 -8.5t-2 -8.5h-33q0 14 6 27q12 12 21 14l12 4q4 0 8 1t8 1q27 0 37 -8q10 -6 17 -14q2 -6 2 -17v-71q0 -10 2 -15q0 -6 6 -6v-6h-37q0 2 -2 4v2q-2 4 -2 10q-8 -8 -12 -10t-6.5 -3t-6.5 -3t-16 -2q-14 0 -19 2q-10 2 -16 14 q-8 6 -8 21q0 21 12 31zM512 274q6 16 20 25q8 6 17.5 7t19.5 1q27 0 35 -8q12 -8 21 -27q4 -10 5 -18t1 -18v-9h-92q0 -12 10 -22q6 -8 22 -8q6 0 15 4q8 8 8 10h37q-4 -10 -13 -23q-6 -4 -11 -8t-9 -6q-8 -2 -13 -4t-14 -2q-66 0 -65 74q0 10 1 17t5 15zM1190 1210 q10 0 18.5 2t14.5 5q14 8 24 22q8 10 8 29q0 14 -4 18q-2 12 -12 19q-8 12 -22 14q-8 6 -29 6q-10 0 -31 -8q-12 -6 -24 -21q-8 -14 -9 -28q0 -14 4 -21q6 -12 15 -20q8 -8 22 -13q13 -4 25 -4zM1204 1044q8 10 8 29q0 12 -4 21q-4 8 -12 18q-10 10 -22 12q-12 6 -27 6 q-23 0 -33 -8q-10 -4 -15 -9t-9 -11q-8 -14 -9 -29q0 -16 4 -22q8 -12 15 -19q4 -4 10 -6t12 -6q16 -4 25 -4q23 0 33 8q12 6 24 20zM1495 -84q0 -18 31 -18q10 0 16 2q4 8 4 10q0 8 -14 10l-31 8q-6 2 -13 5.5t-11 7.5q-12 8 -13 24q0 12 6 23q4 8 19 16q8 6 29 6 q12 0 21 -2t17 -6q12 -6 17 -16q2 -4 2 -5t2 -6v-10h-35q0 10 -6 15q-2 2 -16 2q-20 0 -21 -13q0 -6 12 -8l31 -8q12 -2 29 -12q10 -6 10 -25q0 -12 -6 -25q-8 -10 -21 -16q-8 -4 -30 -4h-13q-8 0 -12 2q-12 4 -20 8q-12 8 -15 15q-4 12 -4 20h35zM1315 6h35v-20 q14 25 41 24q12 0 24 -6q10 -4 15 -14q6 -12 6 -25v-92h-35v80q0 16 -4 20q-2 6 -19 7q-14 0 -20 -9q-6 -10 -6 -22v-76h-37v133zM1473 305h32v-18q14 20 41 20q18 0 25 -4q4 -4 8 -7t8 -7q6 -12 6 -25v-92h-34v80q0 8 -5 20q-6 6 -20 7q-14 0 -21 -9q-4 -6 -4 -22v-76h-36 v133zM1008 172h-33v18q-6 -10 -17 -14q-16 -8 -24 -8q-20 0 -33 14q-12 12 -12 35v88h35v-82q0 -25 22 -24q8 0 12 2t13 10q0 4 2 8t2 8v78h33v-133zM1681 -12q16 23 48 22q18 0 30 -6q14 -4 21 -18q10 -10 10 -27h-37q0 6 -4 14q-4 6 -16 7q-16 0 -21 -11q-8 -8 -8 -26 t2 -25q2 -10 8 -14q4 -4 17 -4q10 0 16 4q6 6 6 18h37q0 -10 -8 -26q-6 -10 -21 -19q-12 -6 -32 -6q-27 0 -43 14q-8 8 -15 21q-2 8 -2 31q0 28 12 51zM831 1212h72v5h-4q-12 0 -16 4q-4 2 -4 6v8v31h24l39 -54h41v5h-4q-10 0 -14 2l-7 6q-2 4 -4 6t-4 6l-4 4q0 2 -4 6v4 q-6 2 -12 2q-8 4 -10 7l-13 6h19q4 2 8 2t8 2q6 0 14 4q12 8 13 22q0 4 -2 7q-4 8 -6 10q-6 6 -17 6q-12 4 -26 4h-87v-4h5q10 0 14 -4q6 -4 6 -17v-63q0 -4 -1 -8t-5 -6q-4 -4 -14 -4h-5v-5zM811 281h-18v24h18v10q0 37 39 37h18v-26h-10q-6 0 -8 -2q-4 0 -4 -5v-14h22v-24 h-22v-109h-35v109zM1243 281h-18v24h18v10q0 37 39 37h16v-26h-8q-8 0 -8 -2q-2 0 -4 -5v-14h25v-24h-25v-109h-35v109zM1917 281h-16v24h16v35h37v-35h22v-24h-22v-72q0 -4 1 -6t1 -4q2 0 4 -1t6 -1l6 2h4v-27h-22q-16 0 -23 4q-8 0 -10 8q0 4 -2 7.5t-2 7.5v82zM659 281 h-18v24h18v35h35v-35h21v-24h-21v-72q0 -8 2 -10q2 0 5.5 -1t7.5 -1l4 2h2v-27h-21q-16 0 -22 4q-8 0 -10 8q-2 4 -3 15v82zM631 1212v5h-6q-20 0 -21 18v29h29h22q12 4 15 6q10 4 10 10q4 4 4 12t-6 19q-8 8 -21 8q-2 2 -8 2h-12q-6 2 -14 2h-66v-4h4q20 0 21 -21v-63 q0 -18 -21 -18h-4v-5h74zM1630 281h-20v24h20v35h33v-35h23v-24h-23v-72q0 -4 1 -6t1 -4q4 0 6 -1t6 -1l4 2h5v-27h-23q-16 0 -21 4q-10 0 -12 8v15v82zM1176 1112l4 -8t4 -10q0 -4 1 -9.5t1 -11.5q0 -12 -4 -29q-6 -12 -15 -20q-6 -4 -20 -4q-12 0 -14 4q-8 0 -15 10 q-2 4 -6 17q-4 12 -4 22q0 4 1 9t1 10q2 4 3 7t3 7q6 10 8 12q0 2 11 6q8 4 14 4q2 0 3 -1t5 -1l8 -4zM1219 1307q2 -4 4 -8.5t4 -10.5q0 -4 1 -9t1 -11q0 -16 -6 -29q-4 -12 -13 -18q-10 -6 -20 -7q-10 0 -16 3q-4 4 -6.5 5t-4.5 5q-4 6 -8 18q-2 6 -3 11.5t-1 11.5 q0 4 1 9t1 9q2 4 3 7t3 7q4 8 8 13q6 6 11 6q4 2 14 2h8q2 -2 3 -2t3 -2q9 -2 13 -10zM1040 352h35v-180h-35v180zM1102 352h33v-180h-33v180zM713 1315q6 -4 6 -17v-63q0 -18 -21 -18h-2v-5h119v45h-2q-2 -4 -2 -7t-4 -7q-4 -10 -10 -16t-11 -6l-12 -4h-33v49h4 q14 0 21 -11l6 -6q0 -2 1 -3t1 -5q0 -8 2 -10h2v72h-2q-2 -4 -2 -11q0 -10 -6 -12q-6 -12 -20 -12h-7v51h23q16 0 22 -4q8 0 11 -8q4 -2 8 -11q2 -4 2 -8t4 -8h2v43h-117v-4h2q13 0 15 -4zM1008 1063q-4 -4 -4 -7t-3 -7q-8 -12 -12 -17q-6 -6 -10 -6l-10 -4q-6 -2 -15 -2 h-18v49h2q14 0 23 -8q2 -2 2 -3t2 -3q0 -2 1 -3t1 -5q2 -4 2 -11h2v72h-2v-10l-3 -6t-3 -7q-10 -12 -21 -12h-6v51h20q18 0 25 -2q4 -4 5 -4t5 -4l6 -12q4 -8 7 -17h4v43h-119v-4h4q10 0 12 -4q6 -4 6 -14v-66q0 -20 -18 -20h-4v-2h119v45zM1380 1128h-55v-4h10q0 -2 4 -2 q8 -8 9 -10q4 -4 4 -16v-47l-78 79h-43v-4h2q8 0 10 -2q4 0 5 -2t3 -2q2 -4 2 -10v-64q0 -8 -2 -12q-2 -6 -8 -8q-8 -4 -14 -4v-2h57v2q-6 0 -10 2q-4 0 -5 1t-5 1q-2 2 -6 10q-2 2 -3 15v65l95 -96h4v78q0 12 6 22q2 6 18 6v4zM1430 1212h45v5h-7h-2q-4 2 -4 3t-2 3 q0 2 -1 3t-1 5q0 2 1 4t1 4l2 8h47l2 -4l2 -2v-2q2 -4 3.5 -6t1.5 -6q2 -2 2 -4q0 -6 -2 -6h-9h-10v-5h66v5h-4h-9q-2 0 -3 2t-3 2l-4 8l-43 96h-4l-35 -78q-10 -23 -16 -26q-4 0 -5 -2t-3 -2h-6v-5zM877 1051v10q-2 2 -3.5 4t-3.5 4q-6 4 -14 8q-4 2 -9 3t-11 5h-9h-4l-2 2 q-16 4 -16 5q-4 2 -6 2t-4 2q-2 0 -7 4q-4 4 -4 8q0 6 2 8q0 -2 5 6l8 4q4 0 6 1t6 1q8 0 16 -4q10 0 17 -6q8 -4 12 -8t5 -9t5 -11h4v36h-4q-2 -8 -8 -8t-10 2q-20 10 -37 10q-10 0 -23 -4q-4 -4 -7 -6t-7 -4q-6 -10 -6 -18q0 -6 6 -13q0 -2 6 -8q8 -4 15 -6q2 -2 8 -3 t16 -5l8 -2q12 -4 17 -4q4 0 8 -4q2 0 4 -2q6 -6 6 -13q0 -2 -4 -10q-2 -2 -10 -8h-12q-12 0 -19 2q-12 4 -20 8l-13 12q-10 14 -10 25h-4v-51h4q0 8 4 8q4 4 10 4q2 0 2.5 -1t4.5 -1q2 0 3 -1t5 -1q6 -4 9 -4t7 -2t17 -2q6 0 18 4q4 0 7 2t7 6q4 2 4 4t5 6v13zM1063 1210 q8 0 20 4q8 2 15 9q2 2 3 5t3 5q2 4 2 10v10q-4 4 -4 6.5t-4 4.5q-4 4 -13 8q-4 2 -9 3t-13 5l-10 2h-4q-4 0 -8.5 2t-8.5 2t-8 4q-2 0 -6 4q-4 2 -4 9q0 4 2 6q0 2 4 6q2 4 8 4q4 2 12 2q10 0 17 -2q4 0 8 -2t8 -2q4 -4 6 -5t4 -5q8 -12 13 -23h2v39h-2q-2 -8 -11 -8h-2 q-4 0 -6 2q-20 10 -37 10q-16 0 -22 -4q-8 -2 -14 -12q-6 -6 -7 -17q0 -8 4 -12q2 -4 4.5 -5t4.5 -3t5 -3t7 -3t10 -3t17 -6l8 -2q4 -2 7 -2t7 -2l8 -4q6 0 6 -4q6 -4 7 -10q0 -6 -5 -10q-6 -6 -10 -6q-4 -2 -14 -3q-10 0 -19 3q-6 0 -18 8q-6 4 -14 12q-8 16 -11 27h-2v-54 h2q4 6 7 9q2 2 8 2h6q6 0 10 -4q4 -2 8 -2.5t9 -2.5q4 -2 14 -2zM1272 1212h57v5h-10q-6 0 -10 4q-6 0 -6 8q-4 8 -5 14v66l97 -99h2v80q0 6 2 12.5t4 10.5q6 6 20 6v4h-55v-4h8l8 -4q4 0 9 -8q2 -4 2 -17v-47l-76 80h-45v-4h12q4 -4 5 -4t3 -2q2 -4 2 -10v-64q0 -8 -2 -12 q-2 -6 -8 -8q-4 -2 -14 -2v-5zM1405 266q-6 12 -25 13q-18 0 -24 -13q-8 -12 -8 -28q0 -14 8 -27q4 -12 24 -12t25 12q8 8 8 27q0 20 -8 28zM1898 -31q-6 10 -24 11q-18 0 -25 -11q-6 -12 -6 -30q0 -14 6 -27q6 -12 25 -12q18 0 24 12q4 6 5.5 13t1.5 14q-1 22 -7 30z M1696 1262h-4q0 -4 -2 -7.5t-2 -7.5q-2 -4 -2 -5t-3 -5l-6 -6q-6 -10 -14 -10q-4 -4 -14 -4h-29v81q0 12 4 17q2 4 16 4h7v4h-74v-4h4q20 0 20 -21v-63q0 -18 -20 -18h-4v-5h123v50zM1653 1128h-56v-4h7q10 0 12 -2q4 -2 4 -8q0 -4 -6 -12l-23 -31l-28 37l-4 8v2q0 4 2 4 q0 2 6 2h10v4h-72v-4h2q12 0 17 -2l6 -6t4 -6l35 -45v-25q0 -10 -4 -14q-4 -2 -8.5 -4t-8.5 -2h-6v-2h78v2h-8q-8 0 -15 6q-6 2 -6 14v27l29 39q4 4 6 8q8 4 10 4q2 4 6 4q4 2 11 2v4zM1511 1067h-2q-4 -4 -4 -7t-2 -7q-4 -4 -4 -11q-2 -2 -6 -8q-8 -8 -14 -10q-4 -4 -17 -4 h-28v86q0 10 6 14q4 4 14 4h8v4h-76v-4h7q18 0 18 -18v-66q0 -20 -18 -20h-7v-2h125v49zM754 1128h-56v-4h13q2 0 3 -1t3 -1q12 -6 12 -26v-39q0 -16 -10 -27q-2 -2 -14 -10h-19q-14 0 -20 4q-4 0 -13 8q-4 4 -4 19v55q0 12 4 14q4 4 17 4h8v4h-76v-4h2q23 0 23 -18v-55 q0 -14 12 -27q6 -4 18 -6q6 -2 23 -2q16 0 29 4q8 4 12 8q10 8 10 27v43v14l10 10h2l2 2h9v4zM928 1272q-4 -2 -19 -2h-30v49h30q33 0 33 -23q0 -12 -4 -16q0 -4 -10 -8zM649 1272q-2 -6 -22 -6h-23v53h33q6 0 10 -4q12 -4 12 -23q0 -14 -10 -20zM1044 -68l-16 -2l-12 -6 q-6 -6 -6 -14t6 -10q4 -4 12 -4h6q2 0 3 1t3 1q4 2 6.5 4t6.5 4q4 4 4 14v19q-7 -7 -13 -7zM1835 231l-16 -4q-6 0 -13 -6q-4 -2 -4 -12t4 -10q4 -4 13 -4h8h2q2 0 4 2q8 4 12 8q4 8 4 16v17q-6 -7 -14 -7zM1608 -90h37v-37h-37v37zM694 -90h37v-37h-37v37zM596 252 q-4 12 -8 20q-4 4 -8.5 6.5t-10.5 2.5q-23 0 -26 -29h53zM1509 1249h-45l23 49z" />
<glyph unicode="'" horiz-adv-x="8" d="M-137 1143l284 596q10 18 30 26.5t38 -2.5q20 -10 27.5 -29.5t-2.5 -39.5q-2 -2 -2 -4l-338 -568q-10 -18 -29 -8q-18 11 -8 29z" />
<glyph unicode="(" horiz-adv-x="471" d="M717 1325l-6 -4l-4 -2q-8 -4 -13 -8l-22 -15l-43 -30q-23 -16 -42.5 -35t-39.5 -37q-39 -39 -75 -80t-69 -86q-31 -47 -59.5 -93t-54.5 -95q-27 -49 -48.5 -100.5t-41.5 -104.5q-18 -53 -33.5 -105.5t-28.5 -107.5q-25 -106 -31 -219q-2 -55 2.5 -110.5t14.5 -108.5 q6 -27 13 -53.5t18 -51.5q23 -51 53 -94q12 -16 -4 -29q-18 -10 -29 4q-39 47 -59 103q-25 51 -37 110q-14 57 -19.5 114.5t-5.5 117.5q2 115 25 229q10 57 25.5 112.5t33.5 110.5q37 111 88 213q49 102 115 201q35 49 70.5 95t76.5 87q39 43 86 80l48 37q8 4 24 16l12 9 l9 4l6 4q16 10 33.5 6t27.5 -20t6 -35t-20 -29h-2z" />
<glyph unicode=")" horiz-adv-x="688" d="M-98 -209q47 29 89 63.5t81 75.5q76 78 139 174q31 47 58.5 94.5t49.5 98.5q49 100 84 205q33 106 56 215q10 53 15 108.5t5 108.5q4 115 -20 213q-6 27 -15.5 51.5t-19.5 46.5q-23 49 -51 86q-14 18 -11 40t21 36q16 14 38.5 11t37.5 -19v-2q20 -27 34.5 -54.5 t26.5 -56.5t20.5 -58.5t14.5 -58.5q12 -59 16 -118.5t0 -118.5t-11 -116.5t-21 -115.5q-12 -57 -28.5 -112.5t-37.5 -110.5q-41 -111 -94 -211q-27 -51 -56.5 -100t-64.5 -96q-70 -96 -152 -174q-20 -20 -42.5 -39t-45.5 -37q-23 -16 -46 -32.5t-50 -33.5q-6 -4 -14 -2 t-12 10q-10 17 6 29z" />
<glyph unicode="*" horiz-adv-x="753" d="M1855 1124l-36 -30l26 -41l-43 -27l27 -43l-43 -25l18 -43l-47 -20l17 -49l-45 -15l8 -45l-49 -10l4 -51l-47 -4v-47h-41l-7 -43l-45 4l-10 -45l-49 8l-14 -47l-45 14l-17 -47l-49 21l-22 -45l-43 22l-27 -41l-43 27l-29 -37l-37 31l-34 -33l-31 29l-33 -29l-29 37 l-41 -27l-28 43l-43 -24l-23 40l-45 -18l-20 47l-47 -14l-15 45l-47 -10l-10 49l-49 -4l-6 47h-48v43l-40 4l4 47l-47 8l10 49l-49 15l14 45l-45 18l18 47l-45 25l23 41l-39 26l29 43l-39 31l28 37l-32 35l30 29l-28 32l36 31l-26 39l41 29l-23 43l39 22l-16 45l45 21 l-14 47l47 14l-11 47l50 10l-7 52l47 4v47h44l4 43l47 -6l8 47l51 -8l12 47l45 -13l19 43l47 -18l25 45l43 -22l24 40l43 -28l31 39l39 -31l33 33l30 -29l31 27l31 -35l41 27l26 -43l45 24l23 -41l43 19l20 -48l50 15l14 -45l45 10l10 -49l51 4l4 -47h48v-43l43 -4l-5 -47 l46 -9l-9 -49l49 -14l-14 -45l45 -19l-20 -47l47 -24l-25 -41l41 -27l-26 -43l36 -31l-30 -36l32 -33l-26 -31zM319 281q0 4 2.5 9t2.5 9q2 14 16 29q4 6 11 11t16 9q10 4 19 6t20 2h6q6 0 18 -4q6 0 10 -2t9 -4q14 -8 24 -22q4 -6 8 -15q2 -4 2 -12h-39q0 6 -4 10 q-2 6 -12 12t-20 7q-6 0 -11 -2h-8q-4 -4 -16 -13q-4 -4 -7.5 -8t-5.5 -10q-4 -10 -4 -33q0 -18 6 -33q2 -14 15 -18q6 -4 11 -6t11 -4h7q14 0 20 6q8 0 14 10q4 6 7.5 11t3.5 12h-43v32h75v-98h-24l-4 23q-6 -10 -17 -17q-6 -4 -11 -5t-9 -5q-6 0 -11.5 -1t-11.5 -1 q-18 0 -28 8q-16 6 -25 19q-12 12 -18 30t-7 39q0 13 2 19zM764 6h33v-20q12 25 39 24q14 0 20 -6q10 -4 16 -16q4 10 15 16q8 6 20 6q16 0 27 -8q8 -6 14 -16q4 -4 4 -21v-92h-32v80q0 27 -21 27q-23 0 -22 -27v-80h-37v80v12q0 6 -6 12q-4 2 -15 3q-23 0 -22 -25v-82h-33 v133zM1966 6h33v-20q14 25 39 24q16 0 22 -6q8 -4 15 -16q4 8 16 16q6 6 20 6q16 0 25 -8q12 -6 14 -16q6 -6 7 -21v-92h-35v80q0 27 -21 27q-23 0 -22 -27v-80h-35v80q0 10 -2 12q0 6 -6 12q-4 2 -13 3q-23 0 -22 -25v-82h-35v133zM1810 -35q2 8 5.5 13.5t7.5 11.5 q12 12 22 14q8 6 29 6q16 0 29 -6q8 -2 22 -12q4 -4 6 -10.5t6 -12.5q4 -8 5 -30q0 -20 -9 -35q-6 -14 -22 -25q-14 -8 -37 -8q-27 0 -39 10q-14 10 -23 25q-6 14 -6 33q0 18 4 26zM1317 264q2 12 12 23q12 12 23 16q8 4 28 4t31 -4q4 -4 9 -6t10 -6q10 -12 14 -25 q4 -12 4 -28q0 -20 -8 -35q-6 -14 -23 -25q-16 -10 -37 -10q-23 0 -39 10q-12 10 -22 27q-6 14 -6 33q0 10 4 26zM313 2v4h35l23 -96l18 96h35l20 -96l21 96h37l-37 -127l-2 -6h-35l-22 96l-21 -96h-37zM1110 2v4h37l20 -96l19 96h35l20 -96l23 96h34l-36 -127v-6h-37 l-21 96l-20 -96h-37zM119 2v4h37l20 -96l19 96h36l19 -96l22 96h35l-37 -127v-6h-37l-20 96l-20 -96h-37zM506 2v4h37l20 -96l19 96h36l19 -96l20 96h37l-37 -127l-2 -6h-34l-21 96l-22 -96h-35zM1778 238q12 8 28 12l31 4q12 2 12 10q0 16 -20 17q-8 0 -17 -5q-6 -2 -8 -16 h-32q2 18 8 29q4 8 18 14q8 4 14 4h17q27 0 37 -4l8 -8t6 -8q4 -12 4 -17v-71v-15q0 -6 8 -6v-6h-39q-2 0 -2 2v2v2q0 4 -1 6t-1 4q-4 -6 -10 -10q-4 -2 -7 -4t-5 -2l-9 -3t-10 -1q-6 0 -18 4q-4 4 -8 6t-8 6q-6 8 -7 25q1 21 11 29zM987 -61q8 8 27 12l33 4q10 4 10 10 q0 16 -21 17q-4 0 -8 -1t-8 -1q-2 -4 -4 -8.5t-2 -8.5h-33q0 14 6 27q12 12 21 14l12 4q4 0 8 1t8 1q27 0 37 -8q10 -6 17 -14q2 -6 2 -17v-71q0 -10 2 -15q0 -6 6 -6v-6h-37q0 2 -2 4v2q-2 4 -2 10q-8 -8 -12 -10t-6.5 -3t-6.5 -3t-16 -2q-14 0 -19 2q-10 2 -16 14 q-8 6 -8 21q0 21 12 31zM512 274q6 16 20 25q8 6 17.5 7t19.5 1q27 0 35 -8q12 -8 21 -27q4 -10 5 -18t1 -18v-9h-92q0 -12 10 -22q6 -8 22 -8q6 0 15 4q8 8 8 10h37q-4 -10 -13 -23q-6 -4 -11 -8t-9 -6q-8 -2 -13 -4t-14 -2q-66 0 -65 74q0 10 1 17t5 15zM1190 1210 q10 0 18.5 2t14.5 5q14 8 24 22q8 10 8 29q0 14 -4 18q-2 12 -12 19q-8 12 -22 14q-8 6 -29 6q-10 0 -31 -8q-12 -6 -24 -21q-8 -14 -9 -28q0 -14 4 -21q6 -12 15 -20q8 -8 22 -13q13 -4 25 -4zM1204 1044q8 10 8 29q0 12 -4 21q-4 8 -12 18q-10 10 -22 12q-12 6 -27 6 q-23 0 -33 -8q-10 -4 -15 -9t-9 -11q-8 -14 -9 -29q0 -16 4 -22q8 -12 15 -19q4 -4 10 -6t12 -6q16 -4 25 -4q23 0 33 8q12 6 24 20zM1495 -84q0 -18 31 -18q10 0 16 2q4 8 4 10q0 8 -14 10l-31 8q-6 2 -13 5.5t-11 7.5q-12 8 -13 24q0 12 6 23q4 8 19 16q8 6 29 6 q12 0 21 -2t17 -6q12 -6 17 -16q2 -4 2 -5t2 -6v-10h-35q0 10 -6 15q-2 2 -16 2q-20 0 -21 -13q0 -6 12 -8l31 -8q12 -2 29 -12q10 -6 10 -25q0 -12 -6 -25q-8 -10 -21 -16q-8 -4 -30 -4h-13q-8 0 -12 2q-12 4 -20 8q-12 8 -15 15q-4 12 -4 20h35zM1315 6h35v-20 q14 25 41 24q12 0 24 -6q10 -4 15 -14q6 -12 6 -25v-92h-35v80q0 16 -4 20q-2 6 -19 7q-14 0 -20 -9q-6 -10 -6 -22v-76h-37v133zM1473 305h32v-18q14 20 41 20q18 0 25 -4q4 -4 8 -7t8 -7q6 -12 6 -25v-92h-34v80q0 8 -5 20q-6 6 -20 7q-14 0 -21 -9q-4 -6 -4 -22v-76h-36 v133zM1008 172h-33v18q-6 -10 -17 -14q-16 -8 -24 -8q-20 0 -33 14q-12 12 -12 35v88h35v-82q0 -25 22 -24q8 0 12 2t13 10q0 4 2 8t2 8v78h33v-133zM1681 -12q16 23 48 22q18 0 30 -6q14 -4 21 -18q10 -10 10 -27h-37q0 6 -4 14q-4 6 -16 7q-16 0 -21 -11q-8 -8 -8 -26 t2 -25q2 -10 8 -14q4 -4 17 -4q10 0 16 4q6 6 6 18h37q0 -10 -8 -26q-6 -10 -21 -19q-12 -6 -32 -6q-27 0 -43 14q-8 8 -15 21q-2 8 -2 31q0 28 12 51zM831 1212h72v5h-4q-12 0 -16 4q-4 2 -4 6v8v31h24l39 -54h41v5h-4q-10 0 -14 2l-7 6q-2 4 -4 6t-4 6l-4 4q0 2 -4 6v4 q-6 2 -12 2q-8 4 -10 7l-13 6h19q4 2 8 2t8 2q6 0 14 4q12 8 13 22q0 4 -2 7q-4 8 -6 10q-6 6 -17 6q-12 4 -26 4h-87v-4h5q10 0 14 -4q6 -4 6 -17v-63q0 -4 -1 -8t-5 -6q-4 -4 -14 -4h-5v-5zM811 281h-18v24h18v10q0 37 39 37h18v-26h-10q-6 0 -8 -2q-4 0 -4 -5v-14h22v-24 h-22v-109h-35v109zM1243 281h-18v24h18v10q0 37 39 37h16v-26h-8q-8 0 -8 -2q-2 0 -4 -5v-14h25v-24h-25v-109h-35v109zM1917 281h-16v24h16v35h37v-35h22v-24h-22v-72q0 -4 1 -6t1 -4q2 0 4 -1t6 -1l6 2h4v-27h-22q-16 0 -23 4q-8 0 -10 8q0 4 -2 7.5t-2 7.5v82zM659 281 h-18v24h18v35h35v-35h21v-24h-21v-72q0 -8 2 -10q2 0 5.5 -1t7.5 -1l4 2h2v-27h-21q-16 0 -22 4q-8 0 -10 8q-2 4 -3 15v82zM631 1212v5h-6q-20 0 -21 18v29h29h22q12 4 15 6q10 4 10 10q4 4 4 12t-6 19q-8 8 -21 8q-2 2 -8 2h-12q-6 2 -14 2h-66v-4h4q20 0 21 -21v-63 q0 -18 -21 -18h-4v-5h74zM1630 281h-20v24h20v35h33v-35h23v-24h-23v-72q0 -4 1 -6t1 -4q4 0 6 -1t6 -1l4 2h5v-27h-23q-16 0 -21 4q-10 0 -12 8v15v82zM1176 1112l4 -8t4 -10q0 -4 1 -9.5t1 -11.5q0 -12 -4 -29q-6 -12 -15 -20q-6 -4 -20 -4q-12 0 -14 4q-8 0 -15 10 q-2 4 -6 17q-4 12 -4 22q0 4 1 9t1 10q2 4 3 7t3 7q6 10 8 12q0 2 11 6q8 4 14 4q2 0 3 -1t5 -1l8 -4zM1219 1307q2 -4 4 -8.5t4 -10.5q0 -4 1 -9t1 -11q0 -16 -6 -29q-4 -12 -13 -18q-10 -6 -20 -7q-10 0 -16 3q-4 4 -6.5 5t-4.5 5q-4 6 -8 18q-2 6 -3 11.5t-1 11.5 q0 4 1 9t1 9q2 4 3 7t3 7q4 8 8 13q6 6 11 6q4 2 14 2h8q2 -2 3 -2t3 -2q9 -2 13 -10zM1040 352h35v-180h-35v180zM1102 352h33v-180h-33v180zM713 1315q6 -4 6 -17v-63q0 -18 -21 -18h-2v-5h119v45h-2q-2 -4 -2 -7t-4 -7q-4 -10 -10 -16t-11 -6l-12 -4h-33v49h4 q14 0 21 -11l6 -6q0 -2 1 -3t1 -5q0 -8 2 -10h2v72h-2q-2 -4 -2 -11q0 -10 -6 -12q-6 -12 -20 -12h-7v51h23q16 0 22 -4q8 0 11 -8q4 -2 8 -11q2 -4 2 -8t4 -8h2v43h-117v-4h2q13 0 15 -4zM1008 1063q-4 -4 -4 -7t-3 -7q-8 -12 -12 -17q-6 -6 -10 -6l-10 -4q-6 -2 -15 -2 h-18v49h2q14 0 23 -8q2 -2 2 -3t2 -3q0 -2 1 -3t1 -5q2 -4 2 -11h2v72h-2v-10l-3 -6t-3 -7q-10 -12 -21 -12h-6v51h20q18 0 25 -2q4 -4 5 -4t5 -4l6 -12q4 -8 7 -17h4v43h-119v-4h4q10 0 12 -4q6 -4 6 -14v-66q0 -20 -18 -20h-4v-2h119v45zM1380 1128h-55v-4h10q0 -2 4 -2 q8 -8 9 -10q4 -4 4 -16v-47l-78 79h-43v-4h2q8 0 10 -2q4 0 5 -2t3 -2q2 -4 2 -10v-64q0 -8 -2 -12q-2 -6 -8 -8q-8 -4 -14 -4v-2h57v2q-6 0 -10 2q-4 0 -5 1t-5 1q-2 2 -6 10q-2 2 -3 15v65l95 -96h4v78q0 12 6 22q2 6 18 6v4zM1430 1212h45v5h-7h-2q-4 2 -4 3t-2 3 q0 2 -1 3t-1 5q0 2 1 4t1 4l2 8h47l2 -4l2 -2v-2q2 -4 3.5 -6t1.5 -6q2 -2 2 -4q0 -6 -2 -6h-9h-10v-5h66v5h-4h-9q-2 0 -3 2t-3 2l-4 8l-43 96h-4l-35 -78q-10 -23 -16 -26q-4 0 -5 -2t-3 -2h-6v-5zM877 1051v10q-2 2 -3.5 4t-3.5 4q-6 4 -14 8q-4 2 -9 3t-11 5h-9h-4l-2 2 q-16 4 -16 5q-4 2 -6 2t-4 2q-2 0 -7 4q-4 4 -4 8q0 6 2 8q0 -2 5 6l8 4q4 0 6 1t6 1q8 0 16 -4q10 0 17 -6q8 -4 12 -8t5 -9t5 -11h4v36h-4q-2 -8 -8 -8t-10 2q-20 10 -37 10q-10 0 -23 -4q-4 -4 -7 -6t-7 -4q-6 -10 -6 -18q0 -6 6 -13q0 -2 6 -8q8 -4 15 -6q2 -2 8 -3 t16 -5l8 -2q12 -4 17 -4q4 0 8 -4q2 0 4 -2q6 -6 6 -13q0 -2 -4 -10q-2 -2 -10 -8h-12q-12 0 -19 2q-12 4 -20 8l-13 12q-10 14 -10 25h-4v-51h4q0 8 4 8q4 4 10 4q2 0 2.5 -1t4.5 -1q2 0 3 -1t5 -1q6 -4 9 -4t7 -2t17 -2q6 0 18 4q4 0 7 2t7 6q4 2 4 4t5 6v13zM1063 1210 q8 0 20 4q8 2 15 9q2 2 3 5t3 5q2 4 2 10v10q-4 4 -4 6.5t-4 4.5q-4 4 -13 8q-4 2 -9 3t-13 5l-10 2h-4q-4 0 -8.5 2t-8.5 2t-8 4q-2 0 -6 4q-4 2 -4 9q0 4 2 6q0 2 4 6q2 4 8 4q4 2 12 2q10 0 17 -2q4 0 8 -2t8 -2q4 -4 6 -5t4 -5q8 -12 13 -23h2v39h-2q-2 -8 -11 -8h-2 q-4 0 -6 2q-20 10 -37 10q-16 0 -22 -4q-8 -2 -14 -12q-6 -6 -7 -17q0 -8 4 -12q2 -4 4.5 -5t4.5 -3t5 -3t7 -3t10 -3t17 -6l8 -2q4 -2 7 -2t7 -2l8 -4q6 0 6 -4q6 -4 7 -10q0 -6 -5 -10q-6 -6 -10 -6q-4 -2 -14 -3q-10 0 -19 3q-6 0 -18 8q-6 4 -14 12q-8 16 -11 27h-2v-54 h2q4 6 7 9q2 2 8 2h6q6 0 10 -4q4 -2 8 -2.5t9 -2.5q4 -2 14 -2zM1272 1212h57v5h-10q-6 0 -10 4q-6 0 -6 8q-4 8 -5 14v66l97 -99h2v80q0 6 2 12.5t4 10.5q6 6 20 6v4h-55v-4h8l8 -4q4 0 9 -8q2 -4 2 -17v-47l-76 80h-45v-4h12q4 -4 5 -4t3 -2q2 -4 2 -10v-64q0 -8 -2 -12 q-2 -6 -8 -8q-4 -2 -14 -2v-5zM1405 266q-6 12 -25 13q-18 0 -24 -13q-8 -12 -8 -28q0 -14 8 -27q4 -12 24 -12t25 12q8 8 8 27q0 20 -8 28zM1898 -31q-6 10 -24 11q-18 0 -25 -11q-6 -12 -6 -30q0 -14 6 -27q6 -12 25 -12q18 0 24 12q4 6 5.5 13t1.5 14q-1 22 -7 30z M1696 1262h-4q0 -4 -2 -7.5t-2 -7.5q-2 -4 -2 -5t-3 -5l-6 -6q-6 -10 -14 -10q-4 -4 -14 -4h-29v81q0 12 4 17q2 4 16 4h7v4h-74v-4h4q20 0 20 -21v-63q0 -18 -20 -18h-4v-5h123v50zM1653 1128h-56v-4h7q10 0 12 -2q4 -2 4 -8q0 -4 -6 -12l-23 -31l-28 37l-4 8v2q0 4 2 4 q0 2 6 2h10v4h-72v-4h2q12 0 17 -2l6 -6t4 -6l35 -45v-25q0 -10 -4 -14q-4 -2 -8.5 -4t-8.5 -2h-6v-2h78v2h-8q-8 0 -15 6q-6 2 -6 14v27l29 39q4 4 6 8q8 4 10 4q2 4 6 4q4 2 11 2v4zM1511 1067h-2q-4 -4 -4 -7t-2 -7q-4 -4 -4 -11q-2 -2 -6 -8q-8 -8 -14 -10q-4 -4 -17 -4 h-28v86q0 10 6 14q4 4 14 4h8v4h-76v-4h7q18 0 18 -18v-66q0 -20 -18 -20h-7v-2h125v49zM754 1128h-56v-4h13q2 0 3 -1t3 -1q12 -6 12 -26v-39q0 -16 -10 -27q-2 -2 -14 -10h-19q-14 0 -20 4q-4 0 -13 8q-4 4 -4 19v55q0 12 4 14q4 4 17 4h8v4h-76v-4h2q23 0 23 -18v-55 q0 -14 12 -27q6 -4 18 -6q6 -2 23 -2q16 0 29 4q8 4 12 8q10 8 10 27v43v14l10 10h2l2 2h9v4zM928 1272q-4 -2 -19 -2h-30v49h30q33 0 33 -23q0 -12 -4 -16q0 -4 -10 -8zM649 1272q-2 -6 -22 -6h-23v53h33q6 0 10 -4q12 -4 12 -23q0 -14 -10 -20zM1044 -68l-16 -2l-12 -6 q-6 -6 -6 -14t6 -10q4 -4 12 -4h6q2 0 3 1t3 1q4 2 6.5 4t6.5 4q4 4 4 14v19q-7 -7 -13 -7zM1835 231l-16 -4q-6 0 -13 -6q-4 -2 -4 -12t4 -10q4 -4 13 -4h8h2q2 0 4 2q8 4 12 8q4 8 4 16v17q-6 -7 -14 -7zM1608 -90h37v-37h-37v37zM694 -90h37v-37h-37v37zM596 252 q-4 12 -8 20q-4 4 -8.5 6.5t-10.5 2.5q-23 0 -26 -29h53zM1509 1249h-45l23 49z" />
<glyph unicode="+" horiz-adv-x="675" d="M1855 1124l-36 -30l26 -41l-43 -27l27 -43l-43 -25l18 -43l-47 -20l17 -49l-45 -15l8 -45l-49 -10l4 -51l-47 -4v-47h-41l-7 -43l-45 4l-10 -45l-49 8l-14 -47l-45 14l-17 -47l-49 21l-22 -45l-43 22l-27 -41l-43 27l-29 -37l-37 31l-34 -33l-31 29l-33 -29l-29 37 l-41 -27l-28 43l-43 -24l-23 40l-45 -18l-20 47l-47 -14l-15 45l-47 -10l-10 49l-49 -4l-6 47h-48v43l-40 4l4 47l-47 8l10 49l-49 15l14 45l-45 18l18 47l-45 25l23 41l-39 26l29 43l-39 31l28 37l-32 35l30 29l-28 32l36 31l-26 39l41 29l-23 43l39 22l-16 45l45 21 l-14 47l47 14l-11 47l50 10l-7 52l47 4v47h44l4 43l47 -6l8 47l51 -8l12 47l45 -13l19 43l47 -18l25 45l43 -22l24 40l43 -28l31 39l39 -31l33 33l30 -29l31 27l31 -35l41 27l26 -43l45 24l23 -41l43 19l20 -48l50 15l14 -45l45 10l10 -49l51 4l4 -47h48v-43l43 -4l-5 -47 l46 -9l-9 -49l49 -14l-14 -45l45 -19l-20 -47l47 -24l-25 -41l41 -27l-26 -43l36 -31l-30 -36l32 -33l-26 -31zM319 281q0 4 2.5 9t2.5 9q2 14 16 29q4 6 11 11t16 9q10 4 19 6t20 2h6q6 0 18 -4q6 0 10 -2t9 -4q14 -8 24 -22q4 -6 8 -15q2 -4 2 -12h-39q0 6 -4 10 q-2 6 -12 12t-20 7q-6 0 -11 -2h-8q-4 -4 -16 -13q-4 -4 -7.5 -8t-5.5 -10q-4 -10 -4 -33q0 -18 6 -33q2 -14 15 -18q6 -4 11 -6t11 -4h7q14 0 20 6q8 0 14 10q4 6 7.5 11t3.5 12h-43v32h75v-98h-24l-4 23q-6 -10 -17 -17q-6 -4 -11 -5t-9 -5q-6 0 -11.5 -1t-11.5 -1 q-18 0 -28 8q-16 6 -25 19q-12 12 -18 30t-7 39q0 13 2 19zM764 6h33v-20q12 25 39 24q14 0 20 -6q10 -4 16 -16q4 10 15 16q8 6 20 6q16 0 27 -8q8 -6 14 -16q4 -4 4 -21v-92h-32v80q0 27 -21 27q-23 0 -22 -27v-80h-37v80v12q0 6 -6 12q-4 2 -15 3q-23 0 -22 -25v-82h-33 v133zM1966 6h33v-20q14 25 39 24q16 0 22 -6q8 -4 15 -16q4 8 16 16q6 6 20 6q16 0 25 -8q12 -6 14 -16q6 -6 7 -21v-92h-35v80q0 27 -21 27q-23 0 -22 -27v-80h-35v80q0 10 -2 12q0 6 -6 12q-4 2 -13 3q-23 0 -22 -25v-82h-35v133zM1810 -35q2 8 5.5 13.5t7.5 11.5 q12 12 22 14q8 6 29 6q16 0 29 -6q8 -2 22 -12q4 -4 6 -10.5t6 -12.5q4 -8 5 -30q0 -20 -9 -35q-6 -14 -22 -25q-14 -8 -37 -8q-27 0 -39 10q-14 10 -23 25q-6 14 -6 33q0 18 4 26zM1317 264q2 12 12 23q12 12 23 16q8 4 28 4t31 -4q4 -4 9 -6t10 -6q10 -12 14 -25 q4 -12 4 -28q0 -20 -8 -35q-6 -14 -23 -25q-16 -10 -37 -10q-23 0 -39 10q-12 10 -22 27q-6 14 -6 33q0 10 4 26zM313 2v4h35l23 -96l18 96h35l20 -96l21 96h37l-37 -127l-2 -6h-35l-22 96l-21 -96h-37zM1110 2v4h37l20 -96l19 96h35l20 -96l23 96h34l-36 -127v-6h-37 l-21 96l-20 -96h-37zM119 2v4h37l20 -96l19 96h36l19 -96l22 96h35l-37 -127v-6h-37l-20 96l-20 -96h-37zM506 2v4h37l20 -96l19 96h36l19 -96l20 96h37l-37 -127l-2 -6h-34l-21 96l-22 -96h-35zM1778 238q12 8 28 12l31 4q12 2 12 10q0 16 -20 17q-8 0 -17 -5q-6 -2 -8 -16 h-32q2 18 8 29q4 8 18 14q8 4 14 4h17q27 0 37 -4l8 -8t6 -8q4 -12 4 -17v-71v-15q0 -6 8 -6v-6h-39q-2 0 -2 2v2v2q0 4 -1 6t-1 4q-4 -6 -10 -10q-4 -2 -7 -4t-5 -2l-9 -3t-10 -1q-6 0 -18 4q-4 4 -8 6t-8 6q-6 8 -7 25q1 21 11 29zM987 -61q8 8 27 12l33 4q10 4 10 10 q0 16 -21 17q-4 0 -8 -1t-8 -1q-2 -4 -4 -8.5t-2 -8.5h-33q0 14 6 27q12 12 21 14l12 4q4 0 8 1t8 1q27 0 37 -8q10 -6 17 -14q2 -6 2 -17v-71q0 -10 2 -15q0 -6 6 -6v-6h-37q0 2 -2 4v2q-2 4 -2 10q-8 -8 -12 -10t-6.5 -3t-6.5 -3t-16 -2q-14 0 -19 2q-10 2 -16 14 q-8 6 -8 21q0 21 12 31zM512 274q6 16 20 25q8 6 17.5 7t19.5 1q27 0 35 -8q12 -8 21 -27q4 -10 5 -18t1 -18v-9h-92q0 -12 10 -22q6 -8 22 -8q6 0 15 4q8 8 8 10h37q-4 -10 -13 -23q-6 -4 -11 -8t-9 -6q-8 -2 -13 -4t-14 -2q-66 0 -65 74q0 10 1 17t5 15zM1190 1210 q10 0 18.5 2t14.5 5q14 8 24 22q8 10 8 29q0 14 -4 18q-2 12 -12 19q-8 12 -22 14q-8 6 -29 6q-10 0 -31 -8q-12 -6 -24 -21q-8 -14 -9 -28q0 -14 4 -21q6 -12 15 -20q8 -8 22 -13q13 -4 25 -4zM1204 1044q8 10 8 29q0 12 -4 21q-4 8 -12 18q-10 10 -22 12q-12 6 -27 6 q-23 0 -33 -8q-10 -4 -15 -9t-9 -11q-8 -14 -9 -29q0 -16 4 -22q8 -12 15 -19q4 -4 10 -6t12 -6q16 -4 25 -4q23 0 33 8q12 6 24 20zM1495 -84q0 -18 31 -18q10 0 16 2q4 8 4 10q0 8 -14 10l-31 8q-6 2 -13 5.5t-11 7.5q-12 8 -13 24q0 12 6 23q4 8 19 16q8 6 29 6 q12 0 21 -2t17 -6q12 -6 17 -16q2 -4 2 -5t2 -6v-10h-35q0 10 -6 15q-2 2 -16 2q-20 0 -21 -13q0 -6 12 -8l31 -8q12 -2 29 -12q10 -6 10 -25q0 -12 -6 -25q-8 -10 -21 -16q-8 -4 -30 -4h-13q-8 0 -12 2q-12 4 -20 8q-12 8 -15 15q-4 12 -4 20h35zM1315 6h35v-20 q14 25 41 24q12 0 24 -6q10 -4 15 -14q6 -12 6 -25v-92h-35v80q0 16 -4 20q-2 6 -19 7q-14 0 -20 -9q-6 -10 -6 -22v-76h-37v133zM1473 305h32v-18q14 20 41 20q18 0 25 -4q4 -4 8 -7t8 -7q6 -12 6 -25v-92h-34v80q0 8 -5 20q-6 6 -20 7q-14 0 -21 -9q-4 -6 -4 -22v-76h-36 v133zM1008 172h-33v18q-6 -10 -17 -14q-16 -8 -24 -8q-20 0 -33 14q-12 12 -12 35v88h35v-82q0 -25 22 -24q8 0 12 2t13 10q0 4 2 8t2 8v78h33v-133zM1681 -12q16 23 48 22q18 0 30 -6q14 -4 21 -18q10 -10 10 -27h-37q0 6 -4 14q-4 6 -16 7q-16 0 -21 -11q-8 -8 -8 -26 t2 -25q2 -10 8 -14q4 -4 17 -4q10 0 16 4q6 6 6 18h37q0 -10 -8 -26q-6 -10 -21 -19q-12 -6 -32 -6q-27 0 -43 14q-8 8 -15 21q-2 8 -2 31q0 28 12 51zM831 1212h72v5h-4q-12 0 -16 4q-4 2 -4 6v8v31h24l39 -54h41v5h-4q-10 0 -14 2l-7 6q-2 4 -4 6t-4 6l-4 4q0 2 -4 6v4 q-6 2 -12 2q-8 4 -10 7l-13 6h19q4 2 8 2t8 2q6 0 14 4q12 8 13 22q0 4 -2 7q-4 8 -6 10q-6 6 -17 6q-12 4 -26 4h-87v-4h5q10 0 14 -4q6 -4 6 -17v-63q0 -4 -1 -8t-5 -6q-4 -4 -14 -4h-5v-5zM811 281h-18v24h18v10q0 37 39 37h18v-26h-10q-6 0 -8 -2q-4 0 -4 -5v-14h22v-24 h-22v-109h-35v109zM1243 281h-18v24h18v10q0 37 39 37h16v-26h-8q-8 0 -8 -2q-2 0 -4 -5v-14h25v-24h-25v-109h-35v109zM1917 281h-16v24h16v35h37v-35h22v-24h-22v-72q0 -4 1 -6t1 -4q2 0 4 -1t6 -1l6 2h4v-27h-22q-16 0 -23 4q-8 0 -10 8q0 4 -2 7.5t-2 7.5v82zM659 281 h-18v24h18v35h35v-35h21v-24h-21v-72q0 -8 2 -10q2 0 5.5 -1t7.5 -1l4 2h2v-27h-21q-16 0 -22 4q-8 0 -10 8q-2 4 -3 15v82zM631 1212v5h-6q-20 0 -21 18v29h29h22q12 4 15 6q10 4 10 10q4 4 4 12t-6 19q-8 8 -21 8q-2 2 -8 2h-12q-6 2 -14 2h-66v-4h4q20 0 21 -21v-63 q0 -18 -21 -18h-4v-5h74zM1630 281h-20v24h20v35h33v-35h23v-24h-23v-72q0 -4 1 -6t1 -4q4 0 6 -1t6 -1l4 2h5v-27h-23q-16 0 -21 4q-10 0 -12 8v15v82zM1176 1112l4 -8t4 -10q0 -4 1 -9.5t1 -11.5q0 -12 -4 -29q-6 -12 -15 -20q-6 -4 -20 -4q-12 0 -14 4q-8 0 -15 10 q-2 4 -6 17q-4 12 -4 22q0 4 1 9t1 10q2 4 3 7t3 7q6 10 8 12q0 2 11 6q8 4 14 4q2 0 3 -1t5 -1l8 -4zM1219 1307q2 -4 4 -8.5t4 -10.5q0 -4 1 -9t1 -11q0 -16 -6 -29q-4 -12 -13 -18q-10 -6 -20 -7q-10 0 -16 3q-4 4 -6.5 5t-4.5 5q-4 6 -8 18q-2 6 -3 11.5t-1 11.5 q0 4 1 9t1 9q2 4 3 7t3 7q4 8 8 13q6 6 11 6q4 2 14 2h8q2 -2 3 -2t3 -2q9 -2 13 -10zM1040 352h35v-180h-35v180zM1102 352h33v-180h-33v180zM713 1315q6 -4 6 -17v-63q0 -18 -21 -18h-2v-5h119v45h-2q-2 -4 -2 -7t-4 -7q-4 -10 -10 -16t-11 -6l-12 -4h-33v49h4 q14 0 21 -11l6 -6q0 -2 1 -3t1 -5q0 -8 2 -10h2v72h-2q-2 -4 -2 -11q0 -10 -6 -12q-6 -12 -20 -12h-7v51h23q16 0 22 -4q8 0 11 -8q4 -2 8 -11q2 -4 2 -8t4 -8h2v43h-117v-4h2q13 0 15 -4zM1008 1063q-4 -4 -4 -7t-3 -7q-8 -12 -12 -17q-6 -6 -10 -6l-10 -4q-6 -2 -15 -2 h-18v49h2q14 0 23 -8q2 -2 2 -3t2 -3q0 -2 1 -3t1 -5q2 -4 2 -11h2v72h-2v-10l-3 -6t-3 -7q-10 -12 -21 -12h-6v51h20q18 0 25 -2q4 -4 5 -4t5 -4l6 -12q4 -8 7 -17h4v43h-119v-4h4q10 0 12 -4q6 -4 6 -14v-66q0 -20 -18 -20h-4v-2h119v45zM1380 1128h-55v-4h10q0 -2 4 -2 q8 -8 9 -10q4 -4 4 -16v-47l-78 79h-43v-4h2q8 0 10 -2q4 0 5 -2t3 -2q2 -4 2 -10v-64q0 -8 -2 -12q-2 -6 -8 -8q-8 -4 -14 -4v-2h57v2q-6 0 -10 2q-4 0 -5 1t-5 1q-2 2 -6 10q-2 2 -3 15v65l95 -96h4v78q0 12 6 22q2 6 18 6v4zM1430 1212h45v5h-7h-2q-4 2 -4 3t-2 3 q0 2 -1 3t-1 5q0 2 1 4t1 4l2 8h47l2 -4l2 -2v-2q2 -4 3.5 -6t1.5 -6q2 -2 2 -4q0 -6 -2 -6h-9h-10v-5h66v5h-4h-9q-2 0 -3 2t-3 2l-4 8l-43 96h-4l-35 -78q-10 -23 -16 -26q-4 0 -5 -2t-3 -2h-6v-5zM877 1051v10q-2 2 -3.5 4t-3.5 4q-6 4 -14 8q-4 2 -9 3t-11 5h-9h-4l-2 2 q-16 4 -16 5q-4 2 -6 2t-4 2q-2 0 -7 4q-4 4 -4 8q0 6 2 8q0 -2 5 6l8 4q4 0 6 1t6 1q8 0 16 -4q10 0 17 -6q8 -4 12 -8t5 -9t5 -11h4v36h-4q-2 -8 -8 -8t-10 2q-20 10 -37 10q-10 0 -23 -4q-4 -4 -7 -6t-7 -4q-6 -10 -6 -18q0 -6 6 -13q0 -2 6 -8q8 -4 15 -6q2 -2 8 -3 t16 -5l8 -2q12 -4 17 -4q4 0 8 -4q2 0 4 -2q6 -6 6 -13q0 -2 -4 -10q-2 -2 -10 -8h-12q-12 0 -19 2q-12 4 -20 8l-13 12q-10 14 -10 25h-4v-51h4q0 8 4 8q4 4 10 4q2 0 2.5 -1t4.5 -1q2 0 3 -1t5 -1q6 -4 9 -4t7 -2t17 -2q6 0 18 4q4 0 7 2t7 6q4 2 4 4t5 6v13zM1063 1210 q8 0 20 4q8 2 15 9q2 2 3 5t3 5q2 4 2 10v10q-4 4 -4 6.5t-4 4.5q-4 4 -13 8q-4 2 -9 3t-13 5l-10 2h-4q-4 0 -8.5 2t-8.5 2t-8 4q-2 0 -6 4q-4 2 -4 9q0 4 2 6q0 2 4 6q2 4 8 4q4 2 12 2q10 0 17 -2q4 0 8 -2t8 -2q4 -4 6 -5t4 -5q8 -12 13 -23h2v39h-2q-2 -8 -11 -8h-2 q-4 0 -6 2q-20 10 -37 10q-16 0 -22 -4q-8 -2 -14 -12q-6 -6 -7 -17q0 -8 4 -12q2 -4 4.5 -5t4.5 -3t5 -3t7 -3t10 -3t17 -6l8 -2q4 -2 7 -2t7 -2l8 -4q6 0 6 -4q6 -4 7 -10q0 -6 -5 -10q-6 -6 -10 -6q-4 -2 -14 -3q-10 0 -19 3q-6 0 -18 8q-6 4 -14 12q-8 16 -11 27h-2v-54 h2q4 6 7 9q2 2 8 2h6q6 0 10 -4q4 -2 8 -2.5t9 -2.5q4 -2 14 -2zM1272 1212h57v5h-10q-6 0 -10 4q-6 0 -6 8q-4 8 -5 14v66l97 -99h2v80q0 6 2 12.5t4 10.5q6 6 20 6v4h-55v-4h8l8 -4q4 0 9 -8q2 -4 2 -17v-47l-76 80h-45v-4h12q4 -4 5 -4t3 -2q2 -4 2 -10v-64q0 -8 -2 -12 q-2 -6 -8 -8q-4 -2 -14 -2v-5zM1405 266q-6 12 -25 13q-18 0 -24 -13q-8 -12 -8 -28q0 -14 8 -27q4 -12 24 -12t25 12q8 8 8 27q0 20 -8 28zM1898 -31q-6 10 -24 11q-18 0 -25 -11q-6 -12 -6 -30q0 -14 6 -27q6 -12 25 -12q18 0 24 12q4 6 5.5 13t1.5 14q-1 22 -7 30z M1696 1262h-4q0 -4 -2 -7.5t-2 -7.5q-2 -4 -2 -5t-3 -5l-6 -6q-6 -10 -14 -10q-4 -4 -14 -4h-29v81q0 12 4 17q2 4 16 4h7v4h-74v-4h4q20 0 20 -21v-63q0 -18 -20 -18h-4v-5h123v50zM1653 1128h-56v-4h7q10 0 12 -2q4 -2 4 -8q0 -4 -6 -12l-23 -31l-28 37l-4 8v2q0 4 2 4 q0 2 6 2h10v4h-72v-4h2q12 0 17 -2l6 -6t4 -6l35 -45v-25q0 -10 -4 -14q-4 -2 -8.5 -4t-8.5 -2h-6v-2h78v2h-8q-8 0 -15 6q-6 2 -6 14v27l29 39q4 4 6 8q8 4 10 4q2 4 6 4q4 2 11 2v4zM1511 1067h-2q-4 -4 -4 -7t-2 -7q-4 -4 -4 -11q-2 -2 -6 -8q-8 -8 -14 -10q-4 -4 -17 -4 h-28v86q0 10 6 14q4 4 14 4h8v4h-76v-4h7q18 0 18 -18v-66q0 -20 -18 -20h-7v-2h125v49zM754 1128h-56v-4h13q2 0 3 -1t3 -1q12 -6 12 -26v-39q0 -16 -10 -27q-2 -2 -14 -10h-19q-14 0 -20 4q-4 0 -13 8q-4 4 -4 19v55q0 12 4 14q4 4 17 4h8v4h-76v-4h2q23 0 23 -18v-55 q0 -14 12 -27q6 -4 18 -6q6 -2 23 -2q16 0 29 4q8 4 12 8q10 8 10 27v43v14l10 10h2l2 2h9v4zM928 1272q-4 -2 -19 -2h-30v49h30q33 0 33 -23q0 -12 -4 -16q0 -4 -10 -8zM649 1272q-2 -6 -22 -6h-23v53h33q6 0 10 -4q12 -4 12 -23q0 -14 -10 -20zM1044 -68l-16 -2l-12 -6 q-6 -6 -6 -14t6 -10q4 -4 12 -4h6q2 0 3 1t3 1q4 2 6.5 4t6.5 4q4 4 4 14v19q-7 -7 -13 -7zM1835 231l-16 -4q-6 0 -13 -6q-4 -2 -4 -12t4 -10q4 -4 13 -4h8h2q2 0 4 2q8 4 12 8q4 8 4 16v17q-6 -7 -14 -7zM1608 -90h37v-37h-37v37zM694 -90h37v-37h-37v37zM596 252 q-4 12 -8 20q-4 4 -8.5 6.5t-10.5 2.5q-23 0 -26 -29h53zM1509 1249h-45l23 49z" />
<glyph unicode="," horiz-adv-x="380" d="M143 207l-395 -588q-4 -8 -13 -9t-18 3q-16 12 -6 31l346 616q10 18 31 24.5t39 -3.5t23.5 -31t-5.5 -39q0 -4 -2 -4z" />
<glyph unicode="-" horiz-adv-x="774" d="M543 424l-449 -41q-10 -2 -18 6t-10 19q0 27 22 26l449 55q29 4 36 -28q4 -33 -28 -37h-2z" />
<glyph unicode="." horiz-adv-x="368" d="M88 166q0 -23 -14.5 -37t-36.5 -14q-23 0 -37 14t-14 37t14 37t37 14t37 -14t14 -37z" />
<glyph unicode="/" horiz-adv-x="817" d="M-113 -297l1149 1868q10 16 32 21t38 -7q18 -10 22.5 -31.5t-8.5 -37.5v-3l-1200 -1832q-4 -8 -12 -9.5t-14 2.5q-19 15 -7 29z" />
<glyph unicode="0" horiz-adv-x="485" d="M365 905h-13q-4 0 -5 -1t-5 -1l-23 -10q-23 -16 -45 -39q-23 -23 -41 -47l-38 -53q-8 -14 -16.5 -27.5t-16.5 -30.5l-31 -57q-16 -31 -28.5 -61.5t-24.5 -61.5q-10 -31 -20.5 -62.5t-18.5 -64.5q-8 -31 -12 -63q-4 -16 -5.5 -33t-3.5 -33q0 -16 1 -31.5t4 -31.5 q4 -14 8 -27.5t14 -24.5q14 -20 45 -24q27 -2 55 10q23 10 50 35q10 10 20 23.5t21 25.5q10 14 18 27.5t16 27.5q8 16 15.5 29.5t13.5 30.5q29 63 49 125q10 33 18.5 64.5t16.5 64.5t14 64.5t13 66.5l8 65l6 66q0 16 1 32.5t1 32.5l-4 66l-6 31q-4 16 -8 28q-2 10 -11 19 l-4 4h-2q-14 -4 -28.5 2t-18.5 20q-4 16 2 29.5t23 17.5q4 2 16 2l16 -2q16 -4 29 -12q16 -12 21 -20l12 -21l6 -18q4 -10 5 -19.5t3 -19.5t3 -18.5t1 -16.5q2 -37 1 -71.5t-5 -69.5l-8 -68l-12 -67q-12 -68 -31 -136l-39 -131l-51 -127q-8 -16 -15.5 -30.5t-17.5 -30.5 q-8 -16 -17.5 -29.5t-19.5 -29.5q-16 -25 -45 -54q-12 -12 -27.5 -23.5t-31.5 -19.5q-18 -10 -37 -12l-21 -4h-10q-2 0 -4 1t-4 1q-20 0 -41 10q-16 8 -31 27q-14 12 -20 35q-4 10 -6 18t-4 18q-4 16 -5.5 35t-1.5 37q0 66 17 137q16 72 37 133q20 68 49 130l29 63 q8 16 15 30.5t17 30.5q16 31 36 59.5t42 57.5q29 31 55 53q18 14 37 23q6 4 23 8q4 2 12 2q2 0 4 2h8q18 2 31.5 -10t16.5 -31q2 -16 -10.5 -29.5t-30.5 -15.5z" />
<glyph unicode="1" horiz-adv-x="520" d="M39 444q49 37 86 76q23 20 41 41t39 43q76 86 147 178q35 47 69 94.5t66 96.5q37 49 66 96l31 49l16 25l14 24l2 2q10 14 26.5 17.5t33.5 -6.5q31 -20 14 -56l-2 -4l-600 -1183q-8 -14 -25 -9q-14 10 -8 25l389 846l-45 -54q-39 -47 -78.5 -90t-80.5 -86 q-20 -20 -42 -40.5t-44 -39.5q-43 -39 -95 -75q-14 -8 -24 6t4 24z" />
<glyph unicode="2" horiz-adv-x="663" d="M219 317q-16 6 -24 19q-12 14 -15 26l-6 25q-2 12 -2 24.5v24.5t1 23.5t3 21.5q4 23 9 45.5t12 44.5q6 23 13 42.5t15 41.5q29 80 72 164l45 78q4 10 10 18.5t13 18.5l24 37q51 80 113 141q16 16 32.5 31.5t34.5 32.5q18 16 38 28.5t42 24.5l47 18q12 4 24.5 6t27.5 4 q4 2 12 3h14q10 0 31 -5q18 -4 35 -14l16 -14q8 -12 10 -19q10 -20 11 -34q2 -16 0 -31q-2 -14 -4.5 -26.5t-6.5 -24.5l-18 -45l-21 -41q-4 -10 -10 -19.5t-10 -19.5l-25 -39l-49 -74l-53 -70l-53 -69l-111 -137l-113 -134l-114 -131l-119 -129q-14 -16 -28.5 -31.5 t-30.5 -31.5q-14 -16 -28.5 -31.5t-31.5 -32.5l-84 -86q25 2 50.5 6.5t54.5 8.5q41 6 78.5 15t76.5 19q41 10 79 21.5t77 24.5l76 24l37 12l18 9l21 6q12 4 24 -1t16 -18q10 -33 -18 -43h-2l-18 -6l-21 -6l-39 -12q-20 -6 -38.5 -12.5t-39.5 -10.5q-41 -10 -79.5 -20.5 t-79.5 -20.5q-41 -8 -80 -15t-80 -13q-23 -4 -42.5 -6.5t-39.5 -4.5q-23 -2 -42 -2h-42q-20 0 -20 21q0 8 6 14l63 62q16 14 30.5 29.5t29.5 31.5l61 61l57 66l92 100q-12 4 -14 6zM369 473q29 35 55.5 67.5t52.5 67.5q27 35 52.5 70t50.5 72l49 71q12 16 23.5 34.5 t21.5 37.5q25 37 43 74q6 10 11 18t9 19l19 38q18 37 30 74q2 10 4.5 18.5t2.5 16.5v12q0 2 -1 2t-1 2v2q0 2 -7 2q-2 2 -12 3h-16q-31 -2 -68 -23q-33 -14 -65 -41q-16 -12 -30.5 -25.5t-31.5 -29.5q-14 -16 -28.5 -30.5t-26.5 -31.5q-14 -16 -26.5 -33.5t-24.5 -33.5 l-25 -35l-24 -35l-44 -74q-43 -74 -75 -151l-33 -78q-6 -20 -12 -39.5t-11 -42.5q-4 -10 -5 -19.5t-3 -19.5q0 -10 -1 -19.5t1 -19.5q0 -12 2 -16q0 -6 4 -15q6 -6 9 -6q2 -2 6 -2l2 -2h4q8 0 12 -6z" />
<glyph unicode="3" horiz-adv-x="837" d="M270 954l35 35l19 17l18 14q18 16 36.5 30.5t39.5 30.5l39 29l41 27l41 24q12 10 22 13l23 12q23 10 48 19t54 14q35 4 64 -5q20 -4 32 -14q16 -10 29 -24q12 -16 18 -31q4 -8 5.5 -16.5t3.5 -16.5v-31q0 -8 -1 -14t-3 -14q-6 -27 -16.5 -50.5t-22.5 -46.5t-25.5 -43 t-30.5 -41l-32 -36l-33 -37q-16 -16 -34.5 -31.5t-39.5 -32.5q-18 -16 -37.5 -29.5t-40.5 -27.5q-2 -2 -4 -2l62 14q29 8 63 12q37 6 68 5h17t17 -2q18 -4 37 -13l21 -10l8 -8l8 -8q10 -10 12 -21q4 -6 9 -22q4 -23 0 -41q-2 -16 -11 -35q-8 -29 -28 -64q-14 -27 -35 -53 q-20 -27 -39.5 -51.5t-42.5 -46.5q-23 -25 -44.5 -47.5t-43.5 -44.5l-94 -84q-94 -76 -199 -156q-25 -18 -50.5 -35.5t-51.5 -36.5l-51 -34l-52 -35l-53 -35l-53 -35l-53 -33l-27 -16q-16 -12 -27 -16q-8 -6 -17 -4.5t-13 10.5q-4 8 -2 17t10 13l53 33l53 33l54 33l51 35 l51 34l51 35l100 74l50 37l49 39l94 80l88 86q43 43 84 90q18 25 37.5 48t36.5 48q20 27 30 51q8 12 14.5 25.5t10.5 25.5l6 25v20l-6 13q-4 6 -14 10l-23 8q-6 0 -12 1t-14 1q-27 2 -58 0q-55 -2 -119 -16q-16 -4 -30.5 -7.5t-28.5 -7.5l-59 -18l-70 -29l-70 -35l-43 -20 l-32 -16l-7 -2l-2 -2h-2h-2q-18 -8 -28 12q-6 16 10 28q20 8 29 15l28 12l58 29l77 33q37 20 72 42.5t70 45.5l39 28q12 8 18 15l8 6l10 8q16 16 33 31.5t33 31.5l17.5 17.5t13.5 17.5q8 10 14 18.5t12 18.5q27 39 43 80q4 10 7.5 21.5t7.5 21.5l6 39v20q0 4 -1 8.5t-1 8.5 l-6 14l-6 8l-9 6q-2 0 -10 5q-6 0 -14 1t-19 -1q-10 -2 -19 -3.5t-20 -5.5l-39 -16q-4 -2 -10 -3t-10 -5q-6 -2 -18 -10q-20 -8 -41 -23q-10 -4 -20.5 -10t-20.5 -13l-39 -24l-160 -98v-2q-18 -10 -33 8q-8 16 4 26z" />
<glyph unicode="4" horiz-adv-x="708" d="M721 1006l-129 -365l-111 -311l70 20q20 8 24 -12q8 -20 -12 -25l-98 -28q-4 -8 -4 -11q-66 -182 -135 -362q-16 -47 -34 -91t-36 -91l-39 -90q-4 -10 -9 -21.5t-11 -21.5q-4 -6 -5.5 -12.5t-5.5 -10.5q-4 -8 -8 -12q-4 -8 -8 -13q-12 -16 -27 -2q-16 12 -2 27l4 8l7 10 l10 21l18 43l33 90q16 47 32.5 91t33.5 91l114 336l-379 -106q-20 -8 -24 12q-2 8 0 14h2l649 1315q8 16 24.5 21.5t32.5 -2.5t22.5 -24.5t-1.5 -33.5v-2l-674 -1251l363 102l114 355l117 370q6 16 21.5 24.5t31.5 2.5q16 -4 25.5 -20.5t3.5 -32.5v-2z" />
<glyph unicode="5" horiz-adv-x="718" d="M737 1135q-27 -6 -51 -12.5t-51 -10.5t-52.5 -8t-54.5 -8q-53 -10 -106 -13q-14 -2 -26.5 -2h-28.5h-29l-10 -20l-25 -49q-12 -25 -22.5 -50.5t-20.5 -52.5q-4 -12 -9 -25.5t-11 -25.5q-4 -14 -8.5 -26.5t-8.5 -26.5l-16 -53l-6 -23l6 2l33 12q18 4 35.5 8.5t35.5 6.5 l39 4h18.5t18.5 -2q41 -4 78 -15l37 -18l16 -12l17 -13q14 -14 26 -32q6 -8 11.5 -16.5t9.5 -18.5q10 -18 14 -37.5t8 -38.5q4 -18 4 -37.5v-38.5q-2 -37 -7 -72.5t-15 -70.5q-16 -68 -41 -135l-25 -66q-4 -10 -7 -17t-7 -16l-12 -32l-60 -129q-16 -31 -33.5 -61.5 t-35.5 -61.5q-20 -29 -41 -57.5t-45 -55.5q-25 -27 -52 -51q-31 -23 -59 -41q-16 -10 -33.5 -16.5t-38.5 -8.5q-18 -2 -39 0q-18 2 -37 13q-18 8 -30 24q-8 8 -13.5 15.5t-9.5 15.5q-18 33 -24 70t-6 73q0 35 6 72q8 66 34 137q4 16 11.5 32.5t13.5 33.5q8 16 14.5 32.5 t14.5 32.5t24 9q14 -8 8 -25q-10 -16 -16 -30.5t-14 -30.5t-14.5 -32t-12.5 -32q-23 -70 -35 -133l-6 -68q0 -33 6 -65q6 -37 21 -62q18 -31 43 -43q23 -14 57 -10q35 6 62 23q14 8 27.5 17t25.5 22l49 47q43 51 80 110q18 29 33.5 59.5t31.5 61.5q29 57 56 127l12 33l10 33 q6 16 11.5 32.5t9.5 32.5q10 33 18 65.5t14 67.5q12 68 13 133q0 33 -6 64q-4 31 -17 57q-16 29 -35 45l-22 19l-25 12q-25 10 -59 14l-31 4h-33q-35 0 -67 -6q-12 0 -33 -4q-4 0 -8 -1t-8 -1l-17 -4h-4q-14 -4 -18 12q-4 4 0 9q4 14 8 27l8 26l25 110q4 14 7 27.5t7 28.5 q6 29 12.5 55.5t14.5 54.5q2 6 3 13.5t5 13.5q4 20 8 29l19 57l4 4q6 12 18 17.5t25 0.5q10 -4 22 -6t23 -2q12 -2 25.5 -3t25.5 -1q25 -2 50.5 -2h51.5q27 0 52.5 1t52.5 3l104 8q6 2 12.5 -3t6.5 -11q-1 -16 -15 -18z" />
<glyph unicode="6" horiz-adv-x="628" d="M236 852q14 10 28.5 18.5t30.5 14.5t33.5 10t36.5 4q37 2 73 -12q16 -6 31.5 -17.5t28.5 -23.5q20 -25 39 -60q16 -33 22 -63q4 -16 6 -32.5t4 -33.5q2 -35 1 -66.5t-5 -64.5q-4 -31 -10 -62.5t-14 -62.5q-16 -66 -37 -120q-4 -16 -9.5 -30.5t-11.5 -29.5l-24 -59 l-31 -58q-14 -27 -35 -53q-25 -31 -45 -49q-12 -10 -25.5 -20.5t-29.5 -18.5q-33 -16 -66 -16q-10 -2 -18 -1t-19 3q-18 4 -32 12q-31 16 -54 41q-23 27 -38 57q-8 14 -13.5 28.5t-11.5 31.5q-4 16 -7 31.5t-7 31.5q-4 33 -7.5 65t-1.5 64q0 33 3.5 64t7.5 63q10 66 24 125 q16 66 37 121l21 59l24 60q14 29 28.5 57.5t31.5 57.5q16 27 33.5 53t37.5 51q80 100 178 184q102 86 209 146q29 16 56.5 30.5t56.5 28.5t58.5 26.5t60.5 24.5q121 47 241 78q31 8 63 15.5t62 11.5l64 12l31 4l16 2l8 2h10q16 2 29.5 -9t15.5 -30q2 -18 -9 -31.5t-30 -15.5 h-16l-14 -2q-10 0 -31 -4q-16 -2 -29.5 -3t-29.5 -5q-31 -4 -61.5 -9t-59.5 -12q-123 -29 -238 -67q-29 -10 -56.5 -21.5t-55.5 -25.5q-29 -12 -56.5 -24.5t-54.5 -29.5q-53 -29 -105.5 -62.5t-99.5 -72.5t-91 -82t-83 -90q-41 -49 -69 -100q-23 -33 -46 -76zM55 309 q0 -31 2 -60.5t6 -60.5q4 -29 12.5 -57.5t22.5 -56.5q14 -27 31 -47q16 -20 43 -35q25 -12 53 -12q25 0 54 14t47 33q23 20 39 45q18 23 33.5 49t27.5 55l23 57l18 60q10 29 18.5 58.5t14.5 60.5q12 57 18 120q4 31 4 61t-2 60q-2 14 -4 28.5t-6 29.5q-4 14 -9 27.5 t-12 25.5q-14 29 -30 45q-20 18 -41 29q-23 8 -51 8q-27 0 -52 -12q-29 -10 -49 -25l-45 -37q-39 -43 -71 -94q-8 -14 -15.5 -26.5t-13.5 -26.5t-12.5 -27.5t-10.5 -30.5l-4 -6q0 -2 -1 -4t-1 -4q-16 -59 -25.5 -121t-11.5 -123z" />
<glyph unicode="7" horiz-adv-x="696" d="M-555 -338l481 84q35 63 68 125.5t67 124.5q35 63 70 125.5t72 122.5q35 61 72.5 122.5t76.5 120.5q41 59 81 118t81 118q43 59 87 115.5t91 109.5q45 55 96 109l29 28l-559 31q-20 0 -20 23q0 18 20 18l664 10q18 0 30.5 -12t12.5 -29q0 -20 -15 -32l-8 -9l-8 -4 l-12 -12q-6 -4 -12.5 -10t-14.5 -10l-24.5 -24.5t-26.5 -23.5q-25 -25 -49.5 -49t-46.5 -51q-47 -51 -95 -106q-23 -27 -44 -53.5t-44 -55.5q-88 -113 -168 -228.5t-155 -236.5q-39 -59 -75 -120.5t-71 -123.5q-33 -55 -63.5 -110t-59.5 -113l838 148q16 4 30.5 -7.5 t18.5 -27.5q4 -18 -7 -32.5t-28 -18.5h-2l-882 -121l-15 -29l-32 -63l-33 -64l-31 -63l-31 -66l-30 -63l-58 -129q-8 -18 -26 -11q-18 8 -11 27l62 129l31 64l32 63l31 66l33 63l31 64l4 6l-449 -64q-20 -4 -20 17q-4 20 16 20z" />
<glyph unicode="8" horiz-adv-x="757" d="M580 455q20 -35 28 -64q10 -33 14.5 -65.5t4.5 -67.5t-4.5 -66.5t-12.5 -64.5q-16 -66 -42.5 -125t-61.5 -115q-39 -55 -84 -100q-51 -47 -107 -80q-29 -16 -59.5 -27.5t-65.5 -19.5l-32 -6q-10 0 -17 -2h-16q-31 -2 -68 4t-65 29q-8 6 -15.5 12t-11.5 12q-10 14 -20 33 q-16 31 -19 68q-4 33 0 67q4 33 11.5 64.5t17.5 62.5l25 62q6 16 13 29.5t15 29.5q31 55 68 111q18 27 37.5 52t42.5 50q23 23 46 45.5t48 44.5q27 20 53.5 37.5t56.5 34.5l41 20q-4 2 -12 10q-31 27 -49 52q-20 27 -35 61q-27 61 -26 137q0 70 24 135q27 70 70 121 q10 14 23.5 26.5t27.5 22.5q27 20 61 37q35 16 70 25q20 4 35 4h2q-6 2 -17 2q-16 2 -28 14.5t-12 30.5q2 16 14 28.5t31 10.5h2q20 -2 38.5 -7t36.5 -13q37 -20 62 -46q27 -29 43 -61q16 -27 26 -66q16 -68 13 -137q-2 -35 -9.5 -67.5t-17.5 -65.5t-24.5 -62.5t-34.5 -58.5 t-43 -53.5t-51 -44.5q-43 -31 -86 -47q29 -28 45 -53zM438 479q-14 -4 -27.5 -10t-27.5 -12q-57 -29 -102 -68q-49 -37 -91 -84q-43 -45 -79.5 -96t-65.5 -105q-14 -29 -26.5 -56.5t-22.5 -55.5q-23 -61 -29 -119q-4 -31 0 -59q4 -33 15 -56q14 -27 32 -41q25 -18 52 -20 q31 -6 57 -4h14q4 0 8.5 1t8.5 1l28 6q61 12 113 43q55 33 96 74q23 23 42.5 45t35.5 49t31.5 53.5t25.5 54.5q12 29 21.5 59t17.5 58q12 61 13 121q0 31 -3.5 59.5t-13.5 57.5q-10 31 -24 51q-16 27 -37 41q-6 4 -12.5 8t-10.5 8q-8 4 -12 4q-21 -4 -27 -8zM627 1067h-31 h-13.5t-13.5 -2q-14 -2 -26.5 -6t-26.5 -8q-53 -25 -88 -64q-39 -39 -61 -96q-23 -55 -23 -113q-2 -57 16 -112q10 -27 25.5 -50.5t38.5 -40.5q20 -18 49 -30l2 -2q4 2 8 2q25 8 54 22q29 16 51 33q45 33 78 86q33 47 49 107q18 57 18 116q4 61 -14 115q-16 55 -49 88 q0 -18 -12.5 -31.5t-30.5 -13.5z" />
<glyph unicode="9" horiz-adv-x="671" d="M709 1083h-9q-2 0 -3 -1t-5 -1q-6 0 -14 -4l-33 -8q-16 -6 -30.5 -12t-30.5 -15l-58 -34q-33 -18 -57 -39q-51 -39 -102 -95q-25 -25 -48.5 -50t-46.5 -54t-42 -57.5t-40 -57.5q-18 -29 -35.5 -59.5t-33.5 -63.5q-16 -31 -30.5 -62.5t-27.5 -63.5q-6 -16 -11 -34t-9 -34 q-10 -35 -12 -68v-32l6 -31q6 -16 14 -25q6 -6 25 -10q4 -2 14 -2h16q20 4 31 8q16 4 30.5 12.5t29.5 18.5q16 10 28.5 20.5t26.5 22.5q12 10 24.5 23.5t24.5 25.5l45 53q10 14 20.5 27.5t20.5 30.5q41 57 78 117.5t70 123.5q4 8 8 15.5t8 15.5t8 15.5t8 15.5l31 65l31 64 l8 24l4 9l14 32v2q8 16 24.5 21.5t33.5 -2.5q16 -8 22 -24.5t-2 -33.5l-577 -1237q-8 -14 -25 -8q-14 8 -8 25l326 772q-6 -10 -13.5 -18.5t-15.5 -18.5q-10 -14 -21.5 -28.5t-23.5 -28.5q-10 -14 -22.5 -26.5t-24.5 -27.5q-27 -27 -53.5 -50t-59.5 -46q-16 -10 -32.5 -18 t-35.5 -15q-10 -4 -18 -6t-18 -2q-4 -2 -11 -2h-10q-14 0 -20 2q-12 4 -21 8q-12 2 -18 13q-6 4 -15 16q-8 12 -10 19q-4 16 -8 41v36q2 37 12 74l21 70q12 35 26.5 67.5t30.5 65.5t33.5 64.5t36.5 62.5q18 31 37.5 61.5t42.5 59.5t45 57.5t45 54.5q49 55 104 105 q53 47 119 88q16 10 33.5 18t33.5 17q10 4 18.5 7t18.5 7q8 6 19 6l8 4l10 2q16 4 30.5 -4t18.5 -24t-4 -30.5t-24 -19.5h-4v-2z" />
<glyph unicode=":" horiz-adv-x="305" d="M1855 1124l-36 -30l26 -41l-43 -27l27 -43l-43 -25l18 -43l-47 -20l17 -49l-45 -15l8 -45l-49 -10l4 -51l-47 -4v-47h-41l-7 -43l-45 4l-10 -45l-49 8l-14 -47l-45 14l-17 -47l-49 21l-22 -45l-43 22l-27 -41l-43 27l-29 -37l-37 31l-34 -33l-31 29l-33 -29l-29 37 l-41 -27l-28 43l-43 -24l-23 40l-45 -18l-20 47l-47 -14l-15 45l-47 -10l-10 49l-49 -4l-6 47h-48v43l-40 4l4 47l-47 8l10 49l-49 15l14 45l-45 18l18 47l-45 25l23 41l-39 26l29 43l-39 31l28 37l-32 35l30 29l-28 32l36 31l-26 39l41 29l-23 43l39 22l-16 45l45 21 l-14 47l47 14l-11 47l50 10l-7 52l47 4v47h44l4 43l47 -6l8 47l51 -8l12 47l45 -13l19 43l47 -18l25 45l43 -22l24 40l43 -28l31 39l39 -31l33 33l30 -29l31 27l31 -35l41 27l26 -43l45 24l23 -41l43 19l20 -48l50 15l14 -45l45 10l10 -49l51 4l4 -47h48v-43l43 -4l-5 -47 l46 -9l-9 -49l49 -14l-14 -45l45 -19l-20 -47l47 -24l-25 -41l41 -27l-26 -43l36 -31l-30 -36l32 -33l-26 -31zM319 281q0 4 2.5 9t2.5 9q2 14 16 29q4 6 11 11t16 9q10 4 19 6t20 2h6q6 0 18 -4q6 0 10 -2t9 -4q14 -8 24 -22q4 -6 8 -15q2 -4 2 -12h-39q0 6 -4 10 q-2 6 -12 12t-20 7q-6 0 -11 -2h-8q-4 -4 -16 -13q-4 -4 -7.5 -8t-5.5 -10q-4 -10 -4 -33q0 -18 6 -33q2 -14 15 -18q6 -4 11 -6t11 -4h7q14 0 20 6q8 0 14 10q4 6 7.5 11t3.5 12h-43v32h75v-98h-24l-4 23q-6 -10 -17 -17q-6 -4 -11 -5t-9 -5q-6 0 -11.5 -1t-11.5 -1 q-18 0 -28 8q-16 6 -25 19q-12 12 -18 30t-7 39q0 13 2 19zM764 6h33v-20q12 25 39 24q14 0 20 -6q10 -4 16 -16q4 10 15 16q8 6 20 6q16 0 27 -8q8 -6 14 -16q4 -4 4 -21v-92h-32v80q0 27 -21 27q-23 0 -22 -27v-80h-37v80v12q0 6 -6 12q-4 2 -15 3q-23 0 -22 -25v-82h-33 v133zM1966 6h33v-20q14 25 39 24q16 0 22 -6q8 -4 15 -16q4 8 16 16q6 6 20 6q16 0 25 -8q12 -6 14 -16q6 -6 7 -21v-92h-35v80q0 27 -21 27q-23 0 -22 -27v-80h-35v80q0 10 -2 12q0 6 -6 12q-4 2 -13 3q-23 0 -22 -25v-82h-35v133zM1810 -35q2 8 5.5 13.5t7.5 11.5 q12 12 22 14q8 6 29 6q16 0 29 -6q8 -2 22 -12q4 -4 6 -10.5t6 -12.5q4 -8 5 -30q0 -20 -9 -35q-6 -14 -22 -25q-14 -8 -37 -8q-27 0 -39 10q-14 10 -23 25q-6 14 -6 33q0 18 4 26zM1317 264q2 12 12 23q12 12 23 16q8 4 28 4t31 -4q4 -4 9 -6t10 -6q10 -12 14 -25 q4 -12 4 -28q0 -20 -8 -35q-6 -14 -23 -25q-16 -10 -37 -10q-23 0 -39 10q-12 10 -22 27q-6 14 -6 33q0 10 4 26zM313 2v4h35l23 -96l18 96h35l20 -96l21 96h37l-37 -127l-2 -6h-35l-22 96l-21 -96h-37zM1110 2v4h37l20 -96l19 96h35l20 -96l23 96h34l-36 -127v-6h-37 l-21 96l-20 -96h-37zM119 2v4h37l20 -96l19 96h36l19 -96l22 96h35l-37 -127v-6h-37l-20 96l-20 -96h-37zM506 2v4h37l20 -96l19 96h36l19 -96l20 96h37l-37 -127l-2 -6h-34l-21 96l-22 -96h-35zM1778 238q12 8 28 12l31 4q12 2 12 10q0 16 -20 17q-8 0 -17 -5q-6 -2 -8 -16 h-32q2 18 8 29q4 8 18 14q8 4 14 4h17q27 0 37 -4l8 -8t6 -8q4 -12 4 -17v-71v-15q0 -6 8 -6v-6h-39q-2 0 -2 2v2v2q0 4 -1 6t-1 4q-4 -6 -10 -10q-4 -2 -7 -4t-5 -2l-9 -3t-10 -1q-6 0 -18 4q-4 4 -8 6t-8 6q-6 8 -7 25q1 21 11 29zM987 -61q8 8 27 12l33 4q10 4 10 10 q0 16 -21 17q-4 0 -8 -1t-8 -1q-2 -4 -4 -8.5t-2 -8.5h-33q0 14 6 27q12 12 21 14l12 4q4 0 8 1t8 1q27 0 37 -8q10 -6 17 -14q2 -6 2 -17v-71q0 -10 2 -15q0 -6 6 -6v-6h-37q0 2 -2 4v2q-2 4 -2 10q-8 -8 -12 -10t-6.5 -3t-6.5 -3t-16 -2q-14 0 -19 2q-10 2 -16 14 q-8 6 -8 21q0 21 12 31zM512 274q6 16 20 25q8 6 17.5 7t19.5 1q27 0 35 -8q12 -8 21 -27q4 -10 5 -18t1 -18v-9h-92q0 -12 10 -22q6 -8 22 -8q6 0 15 4q8 8 8 10h37q-4 -10 -13 -23q-6 -4 -11 -8t-9 -6q-8 -2 -13 -4t-14 -2q-66 0 -65 74q0 10 1 17t5 15zM1190 1210 q10 0 18.5 2t14.5 5q14 8 24 22q8 10 8 29q0 14 -4 18q-2 12 -12 19q-8 12 -22 14q-8 6 -29 6q-10 0 -31 -8q-12 -6 -24 -21q-8 -14 -9 -28q0 -14 4 -21q6 -12 15 -20q8 -8 22 -13q13 -4 25 -4zM1204 1044q8 10 8 29q0 12 -4 21q-4 8 -12 18q-10 10 -22 12q-12 6 -27 6 q-23 0 -33 -8q-10 -4 -15 -9t-9 -11q-8 -14 -9 -29q0 -16 4 -22q8 -12 15 -19q4 -4 10 -6t12 -6q16 -4 25 -4q23 0 33 8q12 6 24 20zM1495 -84q0 -18 31 -18q10 0 16 2q4 8 4 10q0 8 -14 10l-31 8q-6 2 -13 5.5t-11 7.5q-12 8 -13 24q0 12 6 23q4 8 19 16q8 6 29 6 q12 0 21 -2t17 -6q12 -6 17 -16q2 -4 2 -5t2 -6v-10h-35q0 10 -6 15q-2 2 -16 2q-20 0 -21 -13q0 -6 12 -8l31 -8q12 -2 29 -12q10 -6 10 -25q0 -12 -6 -25q-8 -10 -21 -16q-8 -4 -30 -4h-13q-8 0 -12 2q-12 4 -20 8q-12 8 -15 15q-4 12 -4 20h35zM1315 6h35v-20 q14 25 41 24q12 0 24 -6q10 -4 15 -14q6 -12 6 -25v-92h-35v80q0 16 -4 20q-2 6 -19 7q-14 0 -20 -9q-6 -10 -6 -22v-76h-37v133zM1473 305h32v-18q14 20 41 20q18 0 25 -4q4 -4 8 -7t8 -7q6 -12 6 -25v-92h-34v80q0 8 -5 20q-6 6 -20 7q-14 0 -21 -9q-4 -6 -4 -22v-76h-36 v133zM1008 172h-33v18q-6 -10 -17 -14q-16 -8 -24 -8q-20 0 -33 14q-12 12 -12 35v88h35v-82q0 -25 22 -24q8 0 12 2t13 10q0 4 2 8t2 8v78h33v-133zM1681 -12q16 23 48 22q18 0 30 -6q14 -4 21 -18q10 -10 10 -27h-37q0 6 -4 14q-4 6 -16 7q-16 0 -21 -11q-8 -8 -8 -26 t2 -25q2 -10 8 -14q4 -4 17 -4q10 0 16 4q6 6 6 18h37q0 -10 -8 -26q-6 -10 -21 -19q-12 -6 -32 -6q-27 0 -43 14q-8 8 -15 21q-2 8 -2 31q0 28 12 51zM831 1212h72v5h-4q-12 0 -16 4q-4 2 -4 6v8v31h24l39 -54h41v5h-4q-10 0 -14 2l-7 6q-2 4 -4 6t-4 6l-4 4q0 2 -4 6v4 q-6 2 -12 2q-8 4 -10 7l-13 6h19q4 2 8 2t8 2q6 0 14 4q12 8 13 22q0 4 -2 7q-4 8 -6 10q-6 6 -17 6q-12 4 -26 4h-87v-4h5q10 0 14 -4q6 -4 6 -17v-63q0 -4 -1 -8t-5 -6q-4 -4 -14 -4h-5v-5zM811 281h-18v24h18v10q0 37 39 37h18v-26h-10q-6 0 -8 -2q-4 0 -4 -5v-14h22v-24 h-22v-109h-35v109zM1243 281h-18v24h18v10q0 37 39 37h16v-26h-8q-8 0 -8 -2q-2 0 -4 -5v-14h25v-24h-25v-109h-35v109zM1917 281h-16v24h16v35h37v-35h22v-24h-22v-72q0 -4 1 -6t1 -4q2 0 4 -1t6 -1l6 2h4v-27h-22q-16 0 -23 4q-8 0 -10 8q0 4 -2 7.5t-2 7.5v82zM659 281 h-18v24h18v35h35v-35h21v-24h-21v-72q0 -8 2 -10q2 0 5.5 -1t7.5 -1l4 2h2v-27h-21q-16 0 -22 4q-8 0 -10 8q-2 4 -3 15v82zM631 1212v5h-6q-20 0 -21 18v29h29h22q12 4 15 6q10 4 10 10q4 4 4 12t-6 19q-8 8 -21 8q-2 2 -8 2h-12q-6 2 -14 2h-66v-4h4q20 0 21 -21v-63 q0 -18 -21 -18h-4v-5h74zM1630 281h-20v24h20v35h33v-35h23v-24h-23v-72q0 -4 1 -6t1 -4q4 0 6 -1t6 -1l4 2h5v-27h-23q-16 0 -21 4q-10 0 -12 8v15v82zM1176 1112l4 -8t4 -10q0 -4 1 -9.5t1 -11.5q0 -12 -4 -29q-6 -12 -15 -20q-6 -4 -20 -4q-12 0 -14 4q-8 0 -15 10 q-2 4 -6 17q-4 12 -4 22q0 4 1 9t1 10q2 4 3 7t3 7q6 10 8 12q0 2 11 6q8 4 14 4q2 0 3 -1t5 -1l8 -4zM1219 1307q2 -4 4 -8.5t4 -10.5q0 -4 1 -9t1 -11q0 -16 -6 -29q-4 -12 -13 -18q-10 -6 -20 -7q-10 0 -16 3q-4 4 -6.5 5t-4.5 5q-4 6 -8 18q-2 6 -3 11.5t-1 11.5 q0 4 1 9t1 9q2 4 3 7t3 7q4 8 8 13q6 6 11 6q4 2 14 2h8q2 -2 3 -2t3 -2q9 -2 13 -10zM1040 352h35v-180h-35v180zM1102 352h33v-180h-33v180zM713 1315q6 -4 6 -17v-63q0 -18 -21 -18h-2v-5h119v45h-2q-2 -4 -2 -7t-4 -7q-4 -10 -10 -16t-11 -6l-12 -4h-33v49h4 q14 0 21 -11l6 -6q0 -2 1 -3t1 -5q0 -8 2 -10h2v72h-2q-2 -4 -2 -11q0 -10 -6 -12q-6 -12 -20 -12h-7v51h23q16 0 22 -4q8 0 11 -8q4 -2 8 -11q2 -4 2 -8t4 -8h2v43h-117v-4h2q13 0 15 -4zM1008 1063q-4 -4 -4 -7t-3 -7q-8 -12 -12 -17q-6 -6 -10 -6l-10 -4q-6 -2 -15 -2 h-18v49h2q14 0 23 -8q2 -2 2 -3t2 -3q0 -2 1 -3t1 -5q2 -4 2 -11h2v72h-2v-10l-3 -6t-3 -7q-10 -12 -21 -12h-6v51h20q18 0 25 -2q4 -4 5 -4t5 -4l6 -12q4 -8 7 -17h4v43h-119v-4h4q10 0 12 -4q6 -4 6 -14v-66q0 -20 -18 -20h-4v-2h119v45zM1380 1128h-55v-4h10q0 -2 4 -2 q8 -8 9 -10q4 -4 4 -16v-47l-78 79h-43v-4h2q8 0 10 -2q4 0 5 -2t3 -2q2 -4 2 -10v-64q0 -8 -2 -12q-2 -6 -8 -8q-8 -4 -14 -4v-2h57v2q-6 0 -10 2q-4 0 -5 1t-5 1q-2 2 -6 10q-2 2 -3 15v65l95 -96h4v78q0 12 6 22q2 6 18 6v4zM1430 1212h45v5h-7h-2q-4 2 -4 3t-2 3 q0 2 -1 3t-1 5q0 2 1 4t1 4l2 8h47l2 -4l2 -2v-2q2 -4 3.5 -6t1.5 -6q2 -2 2 -4q0 -6 -2 -6h-9h-10v-5h66v5h-4h-9q-2 0 -3 2t-3 2l-4 8l-43 96h-4l-35 -78q-10 -23 -16 -26q-4 0 -5 -2t-3 -2h-6v-5zM877 1051v10q-2 2 -3.5 4t-3.5 4q-6 4 -14 8q-4 2 -9 3t-11 5h-9h-4l-2 2 q-16 4 -16 5q-4 2 -6 2t-4 2q-2 0 -7 4q-4 4 -4 8q0 6 2 8q0 -2 5 6l8 4q4 0 6 1t6 1q8 0 16 -4q10 0 17 -6q8 -4 12 -8t5 -9t5 -11h4v36h-4q-2 -8 -8 -8t-10 2q-20 10 -37 10q-10 0 -23 -4q-4 -4 -7 -6t-7 -4q-6 -10 -6 -18q0 -6 6 -13q0 -2 6 -8q8 -4 15 -6q2 -2 8 -3 t16 -5l8 -2q12 -4 17 -4q4 0 8 -4q2 0 4 -2q6 -6 6 -13q0 -2 -4 -10q-2 -2 -10 -8h-12q-12 0 -19 2q-12 4 -20 8l-13 12q-10 14 -10 25h-4v-51h4q0 8 4 8q4 4 10 4q2 0 2.5 -1t4.5 -1q2 0 3 -1t5 -1q6 -4 9 -4t7 -2t17 -2q6 0 18 4q4 0 7 2t7 6q4 2 4 4t5 6v13zM1063 1210 q8 0 20 4q8 2 15 9q2 2 3 5t3 5q2 4 2 10v10q-4 4 -4 6.5t-4 4.5q-4 4 -13 8q-4 2 -9 3t-13 5l-10 2h-4q-4 0 -8.5 2t-8.5 2t-8 4q-2 0 -6 4q-4 2 -4 9q0 4 2 6q0 2 4 6q2 4 8 4q4 2 12 2q10 0 17 -2q4 0 8 -2t8 -2q4 -4 6 -5t4 -5q8 -12 13 -23h2v39h-2q-2 -8 -11 -8h-2 q-4 0 -6 2q-20 10 -37 10q-16 0 -22 -4q-8 -2 -14 -12q-6 -6 -7 -17q0 -8 4 -12q2 -4 4.5 -5t4.5 -3t5 -3t7 -3t10 -3t17 -6l8 -2q4 -2 7 -2t7 -2l8 -4q6 0 6 -4q6 -4 7 -10q0 -6 -5 -10q-6 -6 -10 -6q-4 -2 -14 -3q-10 0 -19 3q-6 0 -18 8q-6 4 -14 12q-8 16 -11 27h-2v-54 h2q4 6 7 9q2 2 8 2h6q6 0 10 -4q4 -2 8 -2.5t9 -2.5q4 -2 14 -2zM1272 1212h57v5h-10q-6 0 -10 4q-6 0 -6 8q-4 8 -5 14v66l97 -99h2v80q0 6 2 12.5t4 10.5q6 6 20 6v4h-55v-4h8l8 -4q4 0 9 -8q2 -4 2 -17v-47l-76 80h-45v-4h12q4 -4 5 -4t3 -2q2 -4 2 -10v-64q0 -8 -2 -12 q-2 -6 -8 -8q-4 -2 -14 -2v-5zM1405 266q-6 12 -25 13q-18 0 -24 -13q-8 -12 -8 -28q0 -14 8 -27q4 -12 24 -12t25 12q8 8 8 27q0 20 -8 28zM1898 -31q-6 10 -24 11q-18 0 -25 -11q-6 -12 -6 -30q0 -14 6 -27q6 -12 25 -12q18 0 24 12q4 6 5.5 13t1.5 14q-1 22 -7 30z M1696 1262h-4q0 -4 -2 -7.5t-2 -7.5q-2 -4 -2 -5t-3 -5l-6 -6q-6 -10 -14 -10q-4 -4 -14 -4h-29v81q0 12 4 17q2 4 16 4h7v4h-74v-4h4q20 0 20 -21v-63q0 -18 -20 -18h-4v-5h123v50zM1653 1128h-56v-4h7q10 0 12 -2q4 -2 4 -8q0 -4 -6 -12l-23 -31l-28 37l-4 8v2q0 4 2 4 q0 2 6 2h10v4h-72v-4h2q12 0 17 -2l6 -6t4 -6l35 -45v-25q0 -10 -4 -14q-4 -2 -8.5 -4t-8.5 -2h-6v-2h78v2h-8q-8 0 -15 6q-6 2 -6 14v27l29 39q4 4 6 8q8 4 10 4q2 4 6 4q4 2 11 2v4zM1511 1067h-2q-4 -4 -4 -7t-2 -7q-4 -4 -4 -11q-2 -2 -6 -8q-8 -8 -14 -10q-4 -4 -17 -4 h-28v86q0 10 6 14q4 4 14 4h8v4h-76v-4h7q18 0 18 -18v-66q0 -20 -18 -20h-7v-2h125v49zM754 1128h-56v-4h13q2 0 3 -1t3 -1q12 -6 12 -26v-39q0 -16 -10 -27q-2 -2 -14 -10h-19q-14 0 -20 4q-4 0 -13 8q-4 4 -4 19v55q0 12 4 14q4 4 17 4h8v4h-76v-4h2q23 0 23 -18v-55 q0 -14 12 -27q6 -4 18 -6q6 -2 23 -2q16 0 29 4q8 4 12 8q10 8 10 27v43v14l10 10h2l2 2h9v4zM928 1272q-4 -2 -19 -2h-30v49h30q33 0 33 -23q0 -12 -4 -16q0 -4 -10 -8zM649 1272q-2 -6 -22 -6h-23v53h33q6 0 10 -4q12 -4 12 -23q0 -14 -10 -20zM1044 -68l-16 -2l-12 -6 q-6 -6 -6 -14t6 -10q4 -4 12 -4h6q2 0 3 1t3 1q4 2 6.5 4t6.5 4q4 4 4 14v19q-7 -7 -13 -7zM1835 231l-16 -4q-6 0 -13 -6q-4 -2 -4 -12t4 -10q4 -4 13 -4h8h2q2 0 4 2q8 4 12 8q4 8 4 16v17q-6 -7 -14 -7zM1608 -90h37v-37h-37v37zM694 -90h37v-37h-37v37zM596 252 q-4 12 -8 20q-4 4 -8.5 6.5t-10.5 2.5q-23 0 -26 -29h53zM1509 1249h-45l23 49z" />
<glyph unicode=";" horiz-adv-x="305" d="M1855 1124l-36 -30l26 -41l-43 -27l27 -43l-43 -25l18 -43l-47 -20l17 -49l-45 -15l8 -45l-49 -10l4 -51l-47 -4v-47h-41l-7 -43l-45 4l-10 -45l-49 8l-14 -47l-45 14l-17 -47l-49 21l-22 -45l-43 22l-27 -41l-43 27l-29 -37l-37 31l-34 -33l-31 29l-33 -29l-29 37 l-41 -27l-28 43l-43 -24l-23 40l-45 -18l-20 47l-47 -14l-15 45l-47 -10l-10 49l-49 -4l-6 47h-48v43l-40 4l4 47l-47 8l10 49l-49 15l14 45l-45 18l18 47l-45 25l23 41l-39 26l29 43l-39 31l28 37l-32 35l30 29l-28 32l36 31l-26 39l41 29l-23 43l39 22l-16 45l45 21 l-14 47l47 14l-11 47l50 10l-7 52l47 4v47h44l4 43l47 -6l8 47l51 -8l12 47l45 -13l19 43l47 -18l25 45l43 -22l24 40l43 -28l31 39l39 -31l33 33l30 -29l31 27l31 -35l41 27l26 -43l45 24l23 -41l43 19l20 -48l50 15l14 -45l45 10l10 -49l51 4l4 -47h48v-43l43 -4l-5 -47 l46 -9l-9 -49l49 -14l-14 -45l45 -19l-20 -47l47 -24l-25 -41l41 -27l-26 -43l36 -31l-30 -36l32 -33l-26 -31zM319 281q0 4 2.5 9t2.5 9q2 14 16 29q4 6 11 11t16 9q10 4 19 6t20 2h6q6 0 18 -4q6 0 10 -2t9 -4q14 -8 24 -22q4 -6 8 -15q2 -4 2 -12h-39q0 6 -4 10 q-2 6 -12 12t-20 7q-6 0 -11 -2h-8q-4 -4 -16 -13q-4 -4 -7.5 -8t-5.5 -10q-4 -10 -4 -33q0 -18 6 -33q2 -14 15 -18q6 -4 11 -6t11 -4h7q14 0 20 6q8 0 14 10q4 6 7.5 11t3.5 12h-43v32h75v-98h-24l-4 23q-6 -10 -17 -17q-6 -4 -11 -5t-9 -5q-6 0 -11.5 -1t-11.5 -1 q-18 0 -28 8q-16 6 -25 19q-12 12 -18 30t-7 39q0 13 2 19zM764 6h33v-20q12 25 39 24q14 0 20 -6q10 -4 16 -16q4 10 15 16q8 6 20 6q16 0 27 -8q8 -6 14 -16q4 -4 4 -21v-92h-32v80q0 27 -21 27q-23 0 -22 -27v-80h-37v80v12q0 6 -6 12q-4 2 -15 3q-23 0 -22 -25v-82h-33 v133zM1966 6h33v-20q14 25 39 24q16 0 22 -6q8 -4 15 -16q4 8 16 16q6 6 20 6q16 0 25 -8q12 -6 14 -16q6 -6 7 -21v-92h-35v80q0 27 -21 27q-23 0 -22 -27v-80h-35v80q0 10 -2 12q0 6 -6 12q-4 2 -13 3q-23 0 -22 -25v-82h-35v133zM1810 -35q2 8 5.5 13.5t7.5 11.5 q12 12 22 14q8 6 29 6q16 0 29 -6q8 -2 22 -12q4 -4 6 -10.5t6 -12.5q4 -8 5 -30q0 -20 -9 -35q-6 -14 -22 -25q-14 -8 -37 -8q-27 0 -39 10q-14 10 -23 25q-6 14 -6 33q0 18 4 26zM1317 264q2 12 12 23q12 12 23 16q8 4 28 4t31 -4q4 -4 9 -6t10 -6q10 -12 14 -25 q4 -12 4 -28q0 -20 -8 -35q-6 -14 -23 -25q-16 -10 -37 -10q-23 0 -39 10q-12 10 -22 27q-6 14 -6 33q0 10 4 26zM313 2v4h35l23 -96l18 96h35l20 -96l21 96h37l-37 -127l-2 -6h-35l-22 96l-21 -96h-37zM1110 2v4h37l20 -96l19 96h35l20 -96l23 96h34l-36 -127v-6h-37 l-21 96l-20 -96h-37zM119 2v4h37l20 -96l19 96h36l19 -96l22 96h35l-37 -127v-6h-37l-20 96l-20 -96h-37zM506 2v4h37l20 -96l19 96h36l19 -96l20 96h37l-37 -127l-2 -6h-34l-21 96l-22 -96h-35zM1778 238q12 8 28 12l31 4q12 2 12 10q0 16 -20 17q-8 0 -17 -5q-6 -2 -8 -16 h-32q2 18 8 29q4 8 18 14q8 4 14 4h17q27 0 37 -4l8 -8t6 -8q4 -12 4 -17v-71v-15q0 -6 8 -6v-6h-39q-2 0 -2 2v2v2q0 4 -1 6t-1 4q-4 -6 -10 -10q-4 -2 -7 -4t-5 -2l-9 -3t-10 -1q-6 0 -18 4q-4 4 -8 6t-8 6q-6 8 -7 25q1 21 11 29zM987 -61q8 8 27 12l33 4q10 4 10 10 q0 16 -21 17q-4 0 -8 -1t-8 -1q-2 -4 -4 -8.5t-2 -8.5h-33q0 14 6 27q12 12 21 14l12 4q4 0 8 1t8 1q27 0 37 -8q10 -6 17 -14q2 -6 2 -17v-71q0 -10 2 -15q0 -6 6 -6v-6h-37q0 2 -2 4v2q-2 4 -2 10q-8 -8 -12 -10t-6.5 -3t-6.5 -3t-16 -2q-14 0 -19 2q-10 2 -16 14 q-8 6 -8 21q0 21 12 31zM512 274q6 16 20 25q8 6 17.5 7t19.5 1q27 0 35 -8q12 -8 21 -27q4 -10 5 -18t1 -18v-9h-92q0 -12 10 -22q6 -8 22 -8q6 0 15 4q8 8 8 10h37q-4 -10 -13 -23q-6 -4 -11 -8t-9 -6q-8 -2 -13 -4t-14 -2q-66 0 -65 74q0 10 1 17t5 15zM1190 1210 q10 0 18.5 2t14.5 5q14 8 24 22q8 10 8 29q0 14 -4 18q-2 12 -12 19q-8 12 -22 14q-8 6 -29 6q-10 0 -31 -8q-12 -6 -24 -21q-8 -14 -9 -28q0 -14 4 -21q6 -12 15 -20q8 -8 22 -13q13 -4 25 -4zM1204 1044q8 10 8 29q0 12 -4 21q-4 8 -12 18q-10 10 -22 12q-12 6 -27 6 q-23 0 -33 -8q-10 -4 -15 -9t-9 -11q-8 -14 -9 -29q0 -16 4 -22q8 -12 15 -19q4 -4 10 -6t12 -6q16 -4 25 -4q23 0 33 8q12 6 24 20zM1495 -84q0 -18 31 -18q10 0 16 2q4 8 4 10q0 8 -14 10l-31 8q-6 2 -13 5.5t-11 7.5q-12 8 -13 24q0 12 6 23q4 8 19 16q8 6 29 6 q12 0 21 -2t17 -6q12 -6 17 -16q2 -4 2 -5t2 -6v-10h-35q0 10 -6 15q-2 2 -16 2q-20 0 -21 -13q0 -6 12 -8l31 -8q12 -2 29 -12q10 -6 10 -25q0 -12 -6 -25q-8 -10 -21 -16q-8 -4 -30 -4h-13q-8 0 -12 2q-12 4 -20 8q-12 8 -15 15q-4 12 -4 20h35zM1315 6h35v-20 q14 25 41 24q12 0 24 -6q10 -4 15 -14q6 -12 6 -25v-92h-35v80q0 16 -4 20q-2 6 -19 7q-14 0 -20 -9q-6 -10 -6 -22v-76h-37v133zM1473 305h32v-18q14 20 41 20q18 0 25 -4q4 -4 8 -7t8 -7q6 -12 6 -25v-92h-34v80q0 8 -5 20q-6 6 -20 7q-14 0 -21 -9q-4 -6 -4 -22v-76h-36 v133zM1008 172h-33v18q-6 -10 -17 -14q-16 -8 -24 -8q-20 0 -33 14q-12 12 -12 35v88h35v-82q0 -25 22 -24q8 0 12 2t13 10q0 4 2 8t2 8v78h33v-133zM1681 -12q16 23 48 22q18 0 30 -6q14 -4 21 -18q10 -10 10 -27h-37q0 6 -4 14q-4 6 -16 7q-16 0 -21 -11q-8 -8 -8 -26 t2 -25q2 -10 8 -14q4 -4 17 -4q10 0 16 4q6 6 6 18h37q0 -10 -8 -26q-6 -10 -21 -19q-12 -6 -32 -6q-27 0 -43 14q-8 8 -15 21q-2 8 -2 31q0 28 12 51zM831 1212h72v5h-4q-12 0 -16 4q-4 2 -4 6v8v31h24l39 -54h41v5h-4q-10 0 -14 2l-7 6q-2 4 -4 6t-4 6l-4 4q0 2 -4 6v4 q-6 2 -12 2q-8 4 -10 7l-13 6h19q4 2 8 2t8 2q6 0 14 4q12 8 13 22q0 4 -2 7q-4 8 -6 10q-6 6 -17 6q-12 4 -26 4h-87v-4h5q10 0 14 -4q6 -4 6 -17v-63q0 -4 -1 -8t-5 -6q-4 -4 -14 -4h-5v-5zM811 281h-18v24h18v10q0 37 39 37h18v-26h-10q-6 0 -8 -2q-4 0 -4 -5v-14h22v-24 h-22v-109h-35v109zM1243 281h-18v24h18v10q0 37 39 37h16v-26h-8q-8 0 -8 -2q-2 0 -4 -5v-14h25v-24h-25v-109h-35v109zM1917 281h-16v24h16v35h37v-35h22v-24h-22v-72q0 -4 1 -6t1 -4q2 0 4 -1t6 -1l6 2h4v-27h-22q-16 0 -23 4q-8 0 -10 8q0 4 -2 7.5t-2 7.5v82zM659 281 h-18v24h18v35h35v-35h21v-24h-21v-72q0 -8 2 -10q2 0 5.5 -1t7.5 -1l4 2h2v-27h-21q-16 0 -22 4q-8 0 -10 8q-2 4 -3 15v82zM631 1212v5h-6q-20 0 -21 18v29h29h22q12 4 15 6q10 4 10 10q4 4 4 12t-6 19q-8 8 -21 8q-2 2 -8 2h-12q-6 2 -14 2h-66v-4h4q20 0 21 -21v-63 q0 -18 -21 -18h-4v-5h74zM1630 281h-20v24h20v35h33v-35h23v-24h-23v-72q0 -4 1 -6t1 -4q4 0 6 -1t6 -1l4 2h5v-27h-23q-16 0 -21 4q-10 0 -12 8v15v82zM1176 1112l4 -8t4 -10q0 -4 1 -9.5t1 -11.5q0 -12 -4 -29q-6 -12 -15 -20q-6 -4 -20 -4q-12 0 -14 4q-8 0 -15 10 q-2 4 -6 17q-4 12 -4 22q0 4 1 9t1 10q2 4 3 7t3 7q6 10 8 12q0 2 11 6q8 4 14 4q2 0 3 -1t5 -1l8 -4zM1219 1307q2 -4 4 -8.5t4 -10.5q0 -4 1 -9t1 -11q0 -16 -6 -29q-4 -12 -13 -18q-10 -6 -20 -7q-10 0 -16 3q-4 4 -6.5 5t-4.5 5q-4 6 -8 18q-2 6 -3 11.5t-1 11.5 q0 4 1 9t1 9q2 4 3 7t3 7q4 8 8 13q6 6 11 6q4 2 14 2h8q2 -2 3 -2t3 -2q9 -2 13 -10zM1040 352h35v-180h-35v180zM1102 352h33v-180h-33v180zM713 1315q6 -4 6 -17v-63q0 -18 -21 -18h-2v-5h119v45h-2q-2 -4 -2 -7t-4 -7q-4 -10 -10 -16t-11 -6l-12 -4h-33v49h4 q14 0 21 -11l6 -6q0 -2 1 -3t1 -5q0 -8 2 -10h2v72h-2q-2 -4 -2 -11q0 -10 -6 -12q-6 -12 -20 -12h-7v51h23q16 0 22 -4q8 0 11 -8q4 -2 8 -11q2 -4 2 -8t4 -8h2v43h-117v-4h2q13 0 15 -4zM1008 1063q-4 -4 -4 -7t-3 -7q-8 -12 -12 -17q-6 -6 -10 -6l-10 -4q-6 -2 -15 -2 h-18v49h2q14 0 23 -8q2 -2 2 -3t2 -3q0 -2 1 -3t1 -5q2 -4 2 -11h2v72h-2v-10l-3 -6t-3 -7q-10 -12 -21 -12h-6v51h20q18 0 25 -2q4 -4 5 -4t5 -4l6 -12q4 -8 7 -17h4v43h-119v-4h4q10 0 12 -4q6 -4 6 -14v-66q0 -20 -18 -20h-4v-2h119v45zM1380 1128h-55v-4h10q0 -2 4 -2 q8 -8 9 -10q4 -4 4 -16v-47l-78 79h-43v-4h2q8 0 10 -2q4 0 5 -2t3 -2q2 -4 2 -10v-64q0 -8 -2 -12q-2 -6 -8 -8q-8 -4 -14 -4v-2h57v2q-6 0 -10 2q-4 0 -5 1t-5 1q-2 2 -6 10q-2 2 -3 15v65l95 -96h4v78q0 12 6 22q2 6 18 6v4zM1430 1212h45v5h-7h-2q-4 2 -4 3t-2 3 q0 2 -1 3t-1 5q0 2 1 4t1 4l2 8h47l2 -4l2 -2v-2q2 -4 3.5 -6t1.5 -6q2 -2 2 -4q0 -6 -2 -6h-9h-10v-5h66v5h-4h-9q-2 0 -3 2t-3 2l-4 8l-43 96h-4l-35 -78q-10 -23 -16 -26q-4 0 -5 -2t-3 -2h-6v-5zM877 1051v10q-2 2 -3.5 4t-3.5 4q-6 4 -14 8q-4 2 -9 3t-11 5h-9h-4l-2 2 q-16 4 -16 5q-4 2 -6 2t-4 2q-2 0 -7 4q-4 4 -4 8q0 6 2 8q0 -2 5 6l8 4q4 0 6 1t6 1q8 0 16 -4q10 0 17 -6q8 -4 12 -8t5 -9t5 -11h4v36h-4q-2 -8 -8 -8t-10 2q-20 10 -37 10q-10 0 -23 -4q-4 -4 -7 -6t-7 -4q-6 -10 -6 -18q0 -6 6 -13q0 -2 6 -8q8 -4 15 -6q2 -2 8 -3 t16 -5l8 -2q12 -4 17 -4q4 0 8 -4q2 0 4 -2q6 -6 6 -13q0 -2 -4 -10q-2 -2 -10 -8h-12q-12 0 -19 2q-12 4 -20 8l-13 12q-10 14 -10 25h-4v-51h4q0 8 4 8q4 4 10 4q2 0 2.5 -1t4.5 -1q2 0 3 -1t5 -1q6 -4 9 -4t7 -2t17 -2q6 0 18 4q4 0 7 2t7 6q4 2 4 4t5 6v13zM1063 1210 q8 0 20 4q8 2 15 9q2 2 3 5t3 5q2 4 2 10v10q-4 4 -4 6.5t-4 4.5q-4 4 -13 8q-4 2 -9 3t-13 5l-10 2h-4q-4 0 -8.5 2t-8.5 2t-8 4q-2 0 -6 4q-4 2 -4 9q0 4 2 6q0 2 4 6q2 4 8 4q4 2 12 2q10 0 17 -2q4 0 8 -2t8 -2q4 -4 6 -5t4 -5q8 -12 13 -23h2v39h-2q-2 -8 -11 -8h-2 q-4 0 -6 2q-20 10 -37 10q-16 0 -22 -4q-8 -2 -14 -12q-6 -6 -7 -17q0 -8 4 -12q2 -4 4.5 -5t4.5 -3t5 -3t7 -3t10 -3t17 -6l8 -2q4 -2 7 -2t7 -2l8 -4q6 0 6 -4q6 -4 7 -10q0 -6 -5 -10q-6 -6 -10 -6q-4 -2 -14 -3q-10 0 -19 3q-6 0 -18 8q-6 4 -14 12q-8 16 -11 27h-2v-54 h2q4 6 7 9q2 2 8 2h6q6 0 10 -4q4 -2 8 -2.5t9 -2.5q4 -2 14 -2zM1272 1212h57v5h-10q-6 0 -10 4q-6 0 -6 8q-4 8 -5 14v66l97 -99h2v80q0 6 2 12.5t4 10.5q6 6 20 6v4h-55v-4h8l8 -4q4 0 9 -8q2 -4 2 -17v-47l-76 80h-45v-4h12q4 -4 5 -4t3 -2q2 -4 2 -10v-64q0 -8 -2 -12 q-2 -6 -8 -8q-4 -2 -14 -2v-5zM1405 266q-6 12 -25 13q-18 0 -24 -13q-8 -12 -8 -28q0 -14 8 -27q4 -12 24 -12t25 12q8 8 8 27q0 20 -8 28zM1898 -31q-6 10 -24 11q-18 0 -25 -11q-6 -12 -6 -30q0 -14 6 -27q6 -12 25 -12q18 0 24 12q4 6 5.5 13t1.5 14q-1 22 -7 30z M1696 1262h-4q0 -4 -2 -7.5t-2 -7.5q-2 -4 -2 -5t-3 -5l-6 -6q-6 -10 -14 -10q-4 -4 -14 -4h-29v81q0 12 4 17q2 4 16 4h7v4h-74v-4h4q20 0 20 -21v-63q0 -18 -20 -18h-4v-5h123v50zM1653 1128h-56v-4h7q10 0 12 -2q4 -2 4 -8q0 -4 -6 -12l-23 -31l-28 37l-4 8v2q0 4 2 4 q0 2 6 2h10v4h-72v-4h2q12 0 17 -2l6 -6t4 -6l35 -45v-25q0 -10 -4 -14q-4 -2 -8.5 -4t-8.5 -2h-6v-2h78v2h-8q-8 0 -15 6q-6 2 -6 14v27l29 39q4 4 6 8q8 4 10 4q2 4 6 4q4 2 11 2v4zM1511 1067h-2q-4 -4 -4 -7t-2 -7q-4 -4 -4 -11q-2 -2 -6 -8q-8 -8 -14 -10q-4 -4 -17 -4 h-28v86q0 10 6 14q4 4 14 4h8v4h-76v-4h7q18 0 18 -18v-66q0 -20 -18 -20h-7v-2h125v49zM754 1128h-56v-4h13q2 0 3 -1t3 -1q12 -6 12 -26v-39q0 -16 -10 -27q-2 -2 -14 -10h-19q-14 0 -20 4q-4 0 -13 8q-4 4 -4 19v55q0 12 4 14q4 4 17 4h8v4h-76v-4h2q23 0 23 -18v-55 q0 -14 12 -27q6 -4 18 -6q6 -2 23 -2q16 0 29 4q8 4 12 8q10 8 10 27v43v14l10 10h2l2 2h9v4zM928 1272q-4 -2 -19 -2h-30v49h30q33 0 33 -23q0 -12 -4 -16q0 -4 -10 -8zM649 1272q-2 -6 -22 -6h-23v53h33q6 0 10 -4q12 -4 12 -23q0 -14 -10 -20zM1044 -68l-16 -2l-12 -6 q-6 -6 -6 -14t6 -10q4 -4 12 -4h6q2 0 3 1t3 1q4 2 6.5 4t6.5 4q4 4 4 14v19q-7 -7 -13 -7zM1835 231l-16 -4q-6 0 -13 -6q-4 -2 -4 -12t4 -10q4 -4 13 -4h8h2q2 0 4 2q8 4 12 8q4 8 4 16v17q-6 -7 -14 -7zM1608 -90h37v-37h-37v37zM694 -90h37v-37h-37v37zM596 252 q-4 12 -8 20q-4 4 -8.5 6.5t-10.5 2.5q-23 0 -26 -29h53zM1509 1249h-45l23 49z" />
<glyph unicode="&#x3c;" horiz-adv-x="849" d="M1855 1124l-36 -30l26 -41l-43 -27l27 -43l-43 -25l18 -43l-47 -20l17 -49l-45 -15l8 -45l-49 -10l4 -51l-47 -4v-47h-41l-7 -43l-45 4l-10 -45l-49 8l-14 -47l-45 14l-17 -47l-49 21l-22 -45l-43 22l-27 -41l-43 27l-29 -37l-37 31l-34 -33l-31 29l-33 -29l-29 37 l-41 -27l-28 43l-43 -24l-23 40l-45 -18l-20 47l-47 -14l-15 45l-47 -10l-10 49l-49 -4l-6 47h-48v43l-40 4l4 47l-47 8l10 49l-49 15l14 45l-45 18l18 47l-45 25l23 41l-39 26l29 43l-39 31l28 37l-32 35l30 29l-28 32l36 31l-26 39l41 29l-23 43l39 22l-16 45l45 21 l-14 47l47 14l-11 47l50 10l-7 52l47 4v47h44l4 43l47 -6l8 47l51 -8l12 47l45 -13l19 43l47 -18l25 45l43 -22l24 40l43 -28l31 39l39 -31l33 33l30 -29l31 27l31 -35l41 27l26 -43l45 24l23 -41l43 19l20 -48l50 15l14 -45l45 10l10 -49l51 4l4 -47h48v-43l43 -4l-5 -47 l46 -9l-9 -49l49 -14l-14 -45l45 -19l-20 -47l47 -24l-25 -41l41 -27l-26 -43l36 -31l-30 -36l32 -33l-26 -31zM319 281q0 4 2.5 9t2.5 9q2 14 16 29q4 6 11 11t16 9q10 4 19 6t20 2h6q6 0 18 -4q6 0 10 -2t9 -4q14 -8 24 -22q4 -6 8 -15q2 -4 2 -12h-39q0 6 -4 10 q-2 6 -12 12t-20 7q-6 0 -11 -2h-8q-4 -4 -16 -13q-4 -4 -7.5 -8t-5.5 -10q-4 -10 -4 -33q0 -18 6 -33q2 -14 15 -18q6 -4 11 -6t11 -4h7q14 0 20 6q8 0 14 10q4 6 7.5 11t3.5 12h-43v32h75v-98h-24l-4 23q-6 -10 -17 -17q-6 -4 -11 -5t-9 -5q-6 0 -11.5 -1t-11.5 -1 q-18 0 -28 8q-16 6 -25 19q-12 12 -18 30t-7 39q0 13 2 19zM764 6h33v-20q12 25 39 24q14 0 20 -6q10 -4 16 -16q4 10 15 16q8 6 20 6q16 0 27 -8q8 -6 14 -16q4 -4 4 -21v-92h-32v80q0 27 -21 27q-23 0 -22 -27v-80h-37v80v12q0 6 -6 12q-4 2 -15 3q-23 0 -22 -25v-82h-33 v133zM1966 6h33v-20q14 25 39 24q16 0 22 -6q8 -4 15 -16q4 8 16 16q6 6 20 6q16 0 25 -8q12 -6 14 -16q6 -6 7 -21v-92h-35v80q0 27 -21 27q-23 0 -22 -27v-80h-35v80q0 10 -2 12q0 6 -6 12q-4 2 -13 3q-23 0 -22 -25v-82h-35v133zM1810 -35q2 8 5.5 13.5t7.5 11.5 q12 12 22 14q8 6 29 6q16 0 29 -6q8 -2 22 -12q4 -4 6 -10.5t6 -12.5q4 -8 5 -30q0 -20 -9 -35q-6 -14 -22 -25q-14 -8 -37 -8q-27 0 -39 10q-14 10 -23 25q-6 14 -6 33q0 18 4 26zM1317 264q2 12 12 23q12 12 23 16q8 4 28 4t31 -4q4 -4 9 -6t10 -6q10 -12 14 -25 q4 -12 4 -28q0 -20 -8 -35q-6 -14 -23 -25q-16 -10 -37 -10q-23 0 -39 10q-12 10 -22 27q-6 14 -6 33q0 10 4 26zM313 2v4h35l23 -96l18 96h35l20 -96l21 96h37l-37 -127l-2 -6h-35l-22 96l-21 -96h-37zM1110 2v4h37l20 -96l19 96h35l20 -96l23 96h34l-36 -127v-6h-37 l-21 96l-20 -96h-37zM119 2v4h37l20 -96l19 96h36l19 -96l22 96h35l-37 -127v-6h-37l-20 96l-20 -96h-37zM506 2v4h37l20 -96l19 96h36l19 -96l20 96h37l-37 -127l-2 -6h-34l-21 96l-22 -96h-35zM1778 238q12 8 28 12l31 4q12 2 12 10q0 16 -20 17q-8 0 -17 -5q-6 -2 -8 -16 h-32q2 18 8 29q4 8 18 14q8 4 14 4h17q27 0 37 -4l8 -8t6 -8q4 -12 4 -17v-71v-15q0 -6 8 -6v-6h-39q-2 0 -2 2v2v2q0 4 -1 6t-1 4q-4 -6 -10 -10q-4 -2 -7 -4t-5 -2l-9 -3t-10 -1q-6 0 -18 4q-4 4 -8 6t-8 6q-6 8 -7 25q1 21 11 29zM987 -61q8 8 27 12l33 4q10 4 10 10 q0 16 -21 17q-4 0 -8 -1t-8 -1q-2 -4 -4 -8.5t-2 -8.5h-33q0 14 6 27q12 12 21 14l12 4q4 0 8 1t8 1q27 0 37 -8q10 -6 17 -14q2 -6 2 -17v-71q0 -10 2 -15q0 -6 6 -6v-6h-37q0 2 -2 4v2q-2 4 -2 10q-8 -8 -12 -10t-6.5 -3t-6.5 -3t-16 -2q-14 0 -19 2q-10 2 -16 14 q-8 6 -8 21q0 21 12 31zM512 274q6 16 20 25q8 6 17.5 7t19.5 1q27 0 35 -8q12 -8 21 -27q4 -10 5 -18t1 -18v-9h-92q0 -12 10 -22q6 -8 22 -8q6 0 15 4q8 8 8 10h37q-4 -10 -13 -23q-6 -4 -11 -8t-9 -6q-8 -2 -13 -4t-14 -2q-66 0 -65 74q0 10 1 17t5 15zM1190 1210 q10 0 18.5 2t14.5 5q14 8 24 22q8 10 8 29q0 14 -4 18q-2 12 -12 19q-8 12 -22 14q-8 6 -29 6q-10 0 -31 -8q-12 -6 -24 -21q-8 -14 -9 -28q0 -14 4 -21q6 -12 15 -20q8 -8 22 -13q13 -4 25 -4zM1204 1044q8 10 8 29q0 12 -4 21q-4 8 -12 18q-10 10 -22 12q-12 6 -27 6 q-23 0 -33 -8q-10 -4 -15 -9t-9 -11q-8 -14 -9 -29q0 -16 4 -22q8 -12 15 -19q4 -4 10 -6t12 -6q16 -4 25 -4q23 0 33 8q12 6 24 20zM1495 -84q0 -18 31 -18q10 0 16 2q4 8 4 10q0 8 -14 10l-31 8q-6 2 -13 5.5t-11 7.5q-12 8 -13 24q0 12 6 23q4 8 19 16q8 6 29 6 q12 0 21 -2t17 -6q12 -6 17 -16q2 -4 2 -5t2 -6v-10h-35q0 10 -6 15q-2 2 -16 2q-20 0 -21 -13q0 -6 12 -8l31 -8q12 -2 29 -12q10 -6 10 -25q0 -12 -6 -25q-8 -10 -21 -16q-8 -4 -30 -4h-13q-8 0 -12 2q-12 4 -20 8q-12 8 -15 15q-4 12 -4 20h35zM1315 6h35v-20 q14 25 41 24q12 0 24 -6q10 -4 15 -14q6 -12 6 -25v-92h-35v80q0 16 -4 20q-2 6 -19 7q-14 0 -20 -9q-6 -10 -6 -22v-76h-37v133zM1473 305h32v-18q14 20 41 20q18 0 25 -4q4 -4 8 -7t8 -7q6 -12 6 -25v-92h-34v80q0 8 -5 20q-6 6 -20 7q-14 0 -21 -9q-4 -6 -4 -22v-76h-36 v133zM1008 172h-33v18q-6 -10 -17 -14q-16 -8 -24 -8q-20 0 -33 14q-12 12 -12 35v88h35v-82q0 -25 22 -24q8 0 12 2t13 10q0 4 2 8t2 8v78h33v-133zM1681 -12q16 23 48 22q18 0 30 -6q14 -4 21 -18q10 -10 10 -27h-37q0 6 -4 14q-4 6 -16 7q-16 0 -21 -11q-8 -8 -8 -26 t2 -25q2 -10 8 -14q4 -4 17 -4q10 0 16 4q6 6 6 18h37q0 -10 -8 -26q-6 -10 -21 -19q-12 -6 -32 -6q-27 0 -43 14q-8 8 -15 21q-2 8 -2 31q0 28 12 51zM831 1212h72v5h-4q-12 0 -16 4q-4 2 -4 6v8v31h24l39 -54h41v5h-4q-10 0 -14 2l-7 6q-2 4 -4 6t-4 6l-4 4q0 2 -4 6v4 q-6 2 -12 2q-8 4 -10 7l-13 6h19q4 2 8 2t8 2q6 0 14 4q12 8 13 22q0 4 -2 7q-4 8 -6 10q-6 6 -17 6q-12 4 -26 4h-87v-4h5q10 0 14 -4q6 -4 6 -17v-63q0 -4 -1 -8t-5 -6q-4 -4 -14 -4h-5v-5zM811 281h-18v24h18v10q0 37 39 37h18v-26h-10q-6 0 -8 -2q-4 0 -4 -5v-14h22v-24 h-22v-109h-35v109zM1243 281h-18v24h18v10q0 37 39 37h16v-26h-8q-8 0 -8 -2q-2 0 -4 -5v-14h25v-24h-25v-109h-35v109zM1917 281h-16v24h16v35h37v-35h22v-24h-22v-72q0 -4 1 -6t1 -4q2 0 4 -1t6 -1l6 2h4v-27h-22q-16 0 -23 4q-8 0 -10 8q0 4 -2 7.5t-2 7.5v82zM659 281 h-18v24h18v35h35v-35h21v-24h-21v-72q0 -8 2 -10q2 0 5.5 -1t7.5 -1l4 2h2v-27h-21q-16 0 -22 4q-8 0 -10 8q-2 4 -3 15v82zM631 1212v5h-6q-20 0 -21 18v29h29h22q12 4 15 6q10 4 10 10q4 4 4 12t-6 19q-8 8 -21 8q-2 2 -8 2h-12q-6 2 -14 2h-66v-4h4q20 0 21 -21v-63 q0 -18 -21 -18h-4v-5h74zM1630 281h-20v24h20v35h33v-35h23v-24h-23v-72q0 -4 1 -6t1 -4q4 0 6 -1t6 -1l4 2h5v-27h-23q-16 0 -21 4q-10 0 -12 8v15v82zM1176 1112l4 -8t4 -10q0 -4 1 -9.5t1 -11.5q0 -12 -4 -29q-6 -12 -15 -20q-6 -4 -20 -4q-12 0 -14 4q-8 0 -15 10 q-2 4 -6 17q-4 12 -4 22q0 4 1 9t1 10q2 4 3 7t3 7q6 10 8 12q0 2 11 6q8 4 14 4q2 0 3 -1t5 -1l8 -4zM1219 1307q2 -4 4 -8.5t4 -10.5q0 -4 1 -9t1 -11q0 -16 -6 -29q-4 -12 -13 -18q-10 -6 -20 -7q-10 0 -16 3q-4 4 -6.5 5t-4.5 5q-4 6 -8 18q-2 6 -3 11.5t-1 11.5 q0 4 1 9t1 9q2 4 3 7t3 7q4 8 8 13q6 6 11 6q4 2 14 2h8q2 -2 3 -2t3 -2q9 -2 13 -10zM1040 352h35v-180h-35v180zM1102 352h33v-180h-33v180zM713 1315q6 -4 6 -17v-63q0 -18 -21 -18h-2v-5h119v45h-2q-2 -4 -2 -7t-4 -7q-4 -10 -10 -16t-11 -6l-12 -4h-33v49h4 q14 0 21 -11l6 -6q0 -2 1 -3t1 -5q0 -8 2 -10h2v72h-2q-2 -4 -2 -11q0 -10 -6 -12q-6 -12 -20 -12h-7v51h23q16 0 22 -4q8 0 11 -8q4 -2 8 -11q2 -4 2 -8t4 -8h2v43h-117v-4h2q13 0 15 -4zM1008 1063q-4 -4 -4 -7t-3 -7q-8 -12 -12 -17q-6 -6 -10 -6l-10 -4q-6 -2 -15 -2 h-18v49h2q14 0 23 -8q2 -2 2 -3t2 -3q0 -2 1 -3t1 -5q2 -4 2 -11h2v72h-2v-10l-3 -6t-3 -7q-10 -12 -21 -12h-6v51h20q18 0 25 -2q4 -4 5 -4t5 -4l6 -12q4 -8 7 -17h4v43h-119v-4h4q10 0 12 -4q6 -4 6 -14v-66q0 -20 -18 -20h-4v-2h119v45zM1380 1128h-55v-4h10q0 -2 4 -2 q8 -8 9 -10q4 -4 4 -16v-47l-78 79h-43v-4h2q8 0 10 -2q4 0 5 -2t3 -2q2 -4 2 -10v-64q0 -8 -2 -12q-2 -6 -8 -8q-8 -4 -14 -4v-2h57v2q-6 0 -10 2q-4 0 -5 1t-5 1q-2 2 -6 10q-2 2 -3 15v65l95 -96h4v78q0 12 6 22q2 6 18 6v4zM1430 1212h45v5h-7h-2q-4 2 -4 3t-2 3 q0 2 -1 3t-1 5q0 2 1 4t1 4l2 8h47l2 -4l2 -2v-2q2 -4 3.5 -6t1.5 -6q2 -2 2 -4q0 -6 -2 -6h-9h-10v-5h66v5h-4h-9q-2 0 -3 2t-3 2l-4 8l-43 96h-4l-35 -78q-10 -23 -16 -26q-4 0 -5 -2t-3 -2h-6v-5zM877 1051v10q-2 2 -3.5 4t-3.5 4q-6 4 -14 8q-4 2 -9 3t-11 5h-9h-4l-2 2 q-16 4 -16 5q-4 2 -6 2t-4 2q-2 0 -7 4q-4 4 -4 8q0 6 2 8q0 -2 5 6l8 4q4 0 6 1t6 1q8 0 16 -4q10 0 17 -6q8 -4 12 -8t5 -9t5 -11h4v36h-4q-2 -8 -8 -8t-10 2q-20 10 -37 10q-10 0 -23 -4q-4 -4 -7 -6t-7 -4q-6 -10 -6 -18q0 -6 6 -13q0 -2 6 -8q8 -4 15 -6q2 -2 8 -3 t16 -5l8 -2q12 -4 17 -4q4 0 8 -4q2 0 4 -2q6 -6 6 -13q0 -2 -4 -10q-2 -2 -10 -8h-12q-12 0 -19 2q-12 4 -20 8l-13 12q-10 14 -10 25h-4v-51h4q0 8 4 8q4 4 10 4q2 0 2.5 -1t4.5 -1q2 0 3 -1t5 -1q6 -4 9 -4t7 -2t17 -2q6 0 18 4q4 0 7 2t7 6q4 2 4 4t5 6v13zM1063 1210 q8 0 20 4q8 2 15 9q2 2 3 5t3 5q2 4 2 10v10q-4 4 -4 6.5t-4 4.5q-4 4 -13 8q-4 2 -9 3t-13 5l-10 2h-4q-4 0 -8.5 2t-8.5 2t-8 4q-2 0 -6 4q-4 2 -4 9q0 4 2 6q0 2 4 6q2 4 8 4q4 2 12 2q10 0 17 -2q4 0 8 -2t8 -2q4 -4 6 -5t4 -5q8 -12 13 -23h2v39h-2q-2 -8 -11 -8h-2 q-4 0 -6 2q-20 10 -37 10q-16 0 -22 -4q-8 -2 -14 -12q-6 -6 -7 -17q0 -8 4 -12q2 -4 4.5 -5t4.5 -3t5 -3t7 -3t10 -3t17 -6l8 -2q4 -2 7 -2t7 -2l8 -4q6 0 6 -4q6 -4 7 -10q0 -6 -5 -10q-6 -6 -10 -6q-4 -2 -14 -3q-10 0 -19 3q-6 0 -18 8q-6 4 -14 12q-8 16 -11 27h-2v-54 h2q4 6 7 9q2 2 8 2h6q6 0 10 -4q4 -2 8 -2.5t9 -2.5q4 -2 14 -2zM1272 1212h57v5h-10q-6 0 -10 4q-6 0 -6 8q-4 8 -5 14v66l97 -99h2v80q0 6 2 12.5t4 10.5q6 6 20 6v4h-55v-4h8l8 -4q4 0 9 -8q2 -4 2 -17v-47l-76 80h-45v-4h12q4 -4 5 -4t3 -2q2 -4 2 -10v-64q0 -8 -2 -12 q-2 -6 -8 -8q-4 -2 -14 -2v-5zM1405 266q-6 12 -25 13q-18 0 -24 -13q-8 -12 -8 -28q0 -14 8 -27q4 -12 24 -12t25 12q8 8 8 27q0 20 -8 28zM1898 -31q-6 10 -24 11q-18 0 -25 -11q-6 -12 -6 -30q0 -14 6 -27q6 -12 25 -12q18 0 24 12q4 6 5.5 13t1.5 14q-1 22 -7 30z M1696 1262h-4q0 -4 -2 -7.5t-2 -7.5q-2 -4 -2 -5t-3 -5l-6 -6q-6 -10 -14 -10q-4 -4 -14 -4h-29v81q0 12 4 17q2 4 16 4h7v4h-74v-4h4q20 0 20 -21v-63q0 -18 -20 -18h-4v-5h123v50zM1653 1128h-56v-4h7q10 0 12 -2q4 -2 4 -8q0 -4 -6 -12l-23 -31l-28 37l-4 8v2q0 4 2 4 q0 2 6 2h10v4h-72v-4h2q12 0 17 -2l6 -6t4 -6l35 -45v-25q0 -10 -4 -14q-4 -2 -8.5 -4t-8.5 -2h-6v-2h78v2h-8q-8 0 -15 6q-6 2 -6 14v27l29 39q4 4 6 8q8 4 10 4q2 4 6 4q4 2 11 2v4zM1511 1067h-2q-4 -4 -4 -7t-2 -7q-4 -4 -4 -11q-2 -2 -6 -8q-8 -8 -14 -10q-4 -4 -17 -4 h-28v86q0 10 6 14q4 4 14 4h8v4h-76v-4h7q18 0 18 -18v-66q0 -20 -18 -20h-7v-2h125v49zM754 1128h-56v-4h13q2 0 3 -1t3 -1q12 -6 12 -26v-39q0 -16 -10 -27q-2 -2 -14 -10h-19q-14 0 -20 4q-4 0 -13 8q-4 4 -4 19v55q0 12 4 14q4 4 17 4h8v4h-76v-4h2q23 0 23 -18v-55 q0 -14 12 -27q6 -4 18 -6q6 -2 23 -2q16 0 29 4q8 4 12 8q10 8 10 27v43v14l10 10h2l2 2h9v4zM928 1272q-4 -2 -19 -2h-30v49h30q33 0 33 -23q0 -12 -4 -16q0 -4 -10 -8zM649 1272q-2 -6 -22 -6h-23v53h33q6 0 10 -4q12 -4 12 -23q0 -14 -10 -20zM1044 -68l-16 -2l-12 -6 q-6 -6 -6 -14t6 -10q4 -4 12 -4h6q2 0 3 1t3 1q4 2 6.5 4t6.5 4q4 4 4 14v19q-7 -7 -13 -7zM1835 231l-16 -4q-6 0 -13 -6q-4 -2 -4 -12t4 -10q4 -4 13 -4h8h2q2 0 4 2q8 4 12 8q4 8 4 16v17q-6 -7 -14 -7zM1608 -90h37v-37h-37v37zM694 -90h37v-37h-37v37zM596 252 q-4 12 -8 20q-4 4 -8.5 6.5t-10.5 2.5q-23 0 -26 -29h53zM1509 1249h-45l23 49z" />
<glyph unicode="=" horiz-adv-x="763" d="M1855 1124l-36 -30l26 -41l-43 -27l27 -43l-43 -25l18 -43l-47 -20l17 -49l-45 -15l8 -45l-49 -10l4 -51l-47 -4v-47h-41l-7 -43l-45 4l-10 -45l-49 8l-14 -47l-45 14l-17 -47l-49 21l-22 -45l-43 22l-27 -41l-43 27l-29 -37l-37 31l-34 -33l-31 29l-33 -29l-29 37 l-41 -27l-28 43l-43 -24l-23 40l-45 -18l-20 47l-47 -14l-15 45l-47 -10l-10 49l-49 -4l-6 47h-48v43l-40 4l4 47l-47 8l10 49l-49 15l14 45l-45 18l18 47l-45 25l23 41l-39 26l29 43l-39 31l28 37l-32 35l30 29l-28 32l36 31l-26 39l41 29l-23 43l39 22l-16 45l45 21 l-14 47l47 14l-11 47l50 10l-7 52l47 4v47h44l4 43l47 -6l8 47l51 -8l12 47l45 -13l19 43l47 -18l25 45l43 -22l24 40l43 -28l31 39l39 -31l33 33l30 -29l31 27l31 -35l41 27l26 -43l45 24l23 -41l43 19l20 -48l50 15l14 -45l45 10l10 -49l51 4l4 -47h48v-43l43 -4l-5 -47 l46 -9l-9 -49l49 -14l-14 -45l45 -19l-20 -47l47 -24l-25 -41l41 -27l-26 -43l36 -31l-30 -36l32 -33l-26 -31zM319 281q0 4 2.5 9t2.5 9q2 14 16 29q4 6 11 11t16 9q10 4 19 6t20 2h6q6 0 18 -4q6 0 10 -2t9 -4q14 -8 24 -22q4 -6 8 -15q2 -4 2 -12h-39q0 6 -4 10 q-2 6 -12 12t-20 7q-6 0 -11 -2h-8q-4 -4 -16 -13q-4 -4 -7.5 -8t-5.5 -10q-4 -10 -4 -33q0 -18 6 -33q2 -14 15 -18q6 -4 11 -6t11 -4h7q14 0 20 6q8 0 14 10q4 6 7.5 11t3.5 12h-43v32h75v-98h-24l-4 23q-6 -10 -17 -17q-6 -4 -11 -5t-9 -5q-6 0 -11.5 -1t-11.5 -1 q-18 0 -28 8q-16 6 -25 19q-12 12 -18 30t-7 39q0 13 2 19zM764 6h33v-20q12 25 39 24q14 0 20 -6q10 -4 16 -16q4 10 15 16q8 6 20 6q16 0 27 -8q8 -6 14 -16q4 -4 4 -21v-92h-32v80q0 27 -21 27q-23 0 -22 -27v-80h-37v80v12q0 6 -6 12q-4 2 -15 3q-23 0 -22 -25v-82h-33 v133zM1966 6h33v-20q14 25 39 24q16 0 22 -6q8 -4 15 -16q4 8 16 16q6 6 20 6q16 0 25 -8q12 -6 14 -16q6 -6 7 -21v-92h-35v80q0 27 -21 27q-23 0 -22 -27v-80h-35v80q0 10 -2 12q0 6 -6 12q-4 2 -13 3q-23 0 -22 -25v-82h-35v133zM1810 -35q2 8 5.5 13.5t7.5 11.5 q12 12 22 14q8 6 29 6q16 0 29 -6q8 -2 22 -12q4 -4 6 -10.5t6 -12.5q4 -8 5 -30q0 -20 -9 -35q-6 -14 -22 -25q-14 -8 -37 -8q-27 0 -39 10q-14 10 -23 25q-6 14 -6 33q0 18 4 26zM1317 264q2 12 12 23q12 12 23 16q8 4 28 4t31 -4q4 -4 9 -6t10 -6q10 -12 14 -25 q4 -12 4 -28q0 -20 -8 -35q-6 -14 -23 -25q-16 -10 -37 -10q-23 0 -39 10q-12 10 -22 27q-6 14 -6 33q0 10 4 26zM313 2v4h35l23 -96l18 96h35l20 -96l21 96h37l-37 -127l-2 -6h-35l-22 96l-21 -96h-37zM1110 2v4h37l20 -96l19 96h35l20 -96l23 96h34l-36 -127v-6h-37 l-21 96l-20 -96h-37zM119 2v4h37l20 -96l19 96h36l19 -96l22 96h35l-37 -127v-6h-37l-20 96l-20 -96h-37zM506 2v4h37l20 -96l19 96h36l19 -96l20 96h37l-37 -127l-2 -6h-34l-21 96l-22 -96h-35zM1778 238q12 8 28 12l31 4q12 2 12 10q0 16 -20 17q-8 0 -17 -5q-6 -2 -8 -16 h-32q2 18 8 29q4 8 18 14q8 4 14 4h17q27 0 37 -4l8 -8t6 -8q4 -12 4 -17v-71v-15q0 -6 8 -6v-6h-39q-2 0 -2 2v2v2q0 4 -1 6t-1 4q-4 -6 -10 -10q-4 -2 -7 -4t-5 -2l-9 -3t-10 -1q-6 0 -18 4q-4 4 -8 6t-8 6q-6 8 -7 25q1 21 11 29zM987 -61q8 8 27 12l33 4q10 4 10 10 q0 16 -21 17q-4 0 -8 -1t-8 -1q-2 -4 -4 -8.5t-2 -8.5h-33q0 14 6 27q12 12 21 14l12 4q4 0 8 1t8 1q27 0 37 -8q10 -6 17 -14q2 -6 2 -17v-71q0 -10 2 -15q0 -6 6 -6v-6h-37q0 2 -2 4v2q-2 4 -2 10q-8 -8 -12 -10t-6.5 -3t-6.5 -3t-16 -2q-14 0 -19 2q-10 2 -16 14 q-8 6 -8 21q0 21 12 31zM512 274q6 16 20 25q8 6 17.5 7t19.5 1q27 0 35 -8q12 -8 21 -27q4 -10 5 -18t1 -18v-9h-92q0 -12 10 -22q6 -8 22 -8q6 0 15 4q8 8 8 10h37q-4 -10 -13 -23q-6 -4 -11 -8t-9 -6q-8 -2 -13 -4t-14 -2q-66 0 -65 74q0 10 1 17t5 15zM1190 1210 q10 0 18.5 2t14.5 5q14 8 24 22q8 10 8 29q0 14 -4 18q-2 12 -12 19q-8 12 -22 14q-8 6 -29 6q-10 0 -31 -8q-12 -6 -24 -21q-8 -14 -9 -28q0 -14 4 -21q6 -12 15 -20q8 -8 22 -13q13 -4 25 -4zM1204 1044q8 10 8 29q0 12 -4 21q-4 8 -12 18q-10 10 -22 12q-12 6 -27 6 q-23 0 -33 -8q-10 -4 -15 -9t-9 -11q-8 -14 -9 -29q0 -16 4 -22q8 -12 15 -19q4 -4 10 -6t12 -6q16 -4 25 -4q23 0 33 8q12 6 24 20zM1495 -84q0 -18 31 -18q10 0 16 2q4 8 4 10q0 8 -14 10l-31 8q-6 2 -13 5.5t-11 7.5q-12 8 -13 24q0 12 6 23q4 8 19 16q8 6 29 6 q12 0 21 -2t17 -6q12 -6 17 -16q2 -4 2 -5t2 -6v-10h-35q0 10 -6 15q-2 2 -16 2q-20 0 -21 -13q0 -6 12 -8l31 -8q12 -2 29 -12q10 -6 10 -25q0 -12 -6 -25q-8 -10 -21 -16q-8 -4 -30 -4h-13q-8 0 -12 2q-12 4 -20 8q-12 8 -15 15q-4 12 -4 20h35zM1315 6h35v-20 q14 25 41 24q12 0 24 -6q10 -4 15 -14q6 -12 6 -25v-92h-35v80q0 16 -4 20q-2 6 -19 7q-14 0 -20 -9q-6 -10 -6 -22v-76h-37v133zM1473 305h32v-18q14 20 41 20q18 0 25 -4q4 -4 8 -7t8 -7q6 -12 6 -25v-92h-34v80q0 8 -5 20q-6 6 -20 7q-14 0 -21 -9q-4 -6 -4 -22v-76h-36 v133zM1008 172h-33v18q-6 -10 -17 -14q-16 -8 -24 -8q-20 0 -33 14q-12 12 -12 35v88h35v-82q0 -25 22 -24q8 0 12 2t13 10q0 4 2 8t2 8v78h33v-133zM1681 -12q16 23 48 22q18 0 30 -6q14 -4 21 -18q10 -10 10 -27h-37q0 6 -4 14q-4 6 -16 7q-16 0 -21 -11q-8 -8 -8 -26 t2 -25q2 -10 8 -14q4 -4 17 -4q10 0 16 4q6 6 6 18h37q0 -10 -8 -26q-6 -10 -21 -19q-12 -6 -32 -6q-27 0 -43 14q-8 8 -15 21q-2 8 -2 31q0 28 12 51zM831 1212h72v5h-4q-12 0 -16 4q-4 2 -4 6v8v31h24l39 -54h41v5h-4q-10 0 -14 2l-7 6q-2 4 -4 6t-4 6l-4 4q0 2 -4 6v4 q-6 2 -12 2q-8 4 -10 7l-13 6h19q4 2 8 2t8 2q6 0 14 4q12 8 13 22q0 4 -2 7q-4 8 -6 10q-6 6 -17 6q-12 4 -26 4h-87v-4h5q10 0 14 -4q6 -4 6 -17v-63q0 -4 -1 -8t-5 -6q-4 -4 -14 -4h-5v-5zM811 281h-18v24h18v10q0 37 39 37h18v-26h-10q-6 0 -8 -2q-4 0 -4 -5v-14h22v-24 h-22v-109h-35v109zM1243 281h-18v24h18v10q0 37 39 37h16v-26h-8q-8 0 -8 -2q-2 0 -4 -5v-14h25v-24h-25v-109h-35v109zM1917 281h-16v24h16v35h37v-35h22v-24h-22v-72q0 -4 1 -6t1 -4q2 0 4 -1t6 -1l6 2h4v-27h-22q-16 0 -23 4q-8 0 -10 8q0 4 -2 7.5t-2 7.5v82zM659 281 h-18v24h18v35h35v-35h21v-24h-21v-72q0 -8 2 -10q2 0 5.5 -1t7.5 -1l4 2h2v-27h-21q-16 0 -22 4q-8 0 -10 8q-2 4 -3 15v82zM631 1212v5h-6q-20 0 -21 18v29h29h22q12 4 15 6q10 4 10 10q4 4 4 12t-6 19q-8 8 -21 8q-2 2 -8 2h-12q-6 2 -14 2h-66v-4h4q20 0 21 -21v-63 q0 -18 -21 -18h-4v-5h74zM1630 281h-20v24h20v35h33v-35h23v-24h-23v-72q0 -4 1 -6t1 -4q4 0 6 -1t6 -1l4 2h5v-27h-23q-16 0 -21 4q-10 0 -12 8v15v82zM1176 1112l4 -8t4 -10q0 -4 1 -9.5t1 -11.5q0 -12 -4 -29q-6 -12 -15 -20q-6 -4 -20 -4q-12 0 -14 4q-8 0 -15 10 q-2 4 -6 17q-4 12 -4 22q0 4 1 9t1 10q2 4 3 7t3 7q6 10 8 12q0 2 11 6q8 4 14 4q2 0 3 -1t5 -1l8 -4zM1219 1307q2 -4 4 -8.5t4 -10.5q0 -4 1 -9t1 -11q0 -16 -6 -29q-4 -12 -13 -18q-10 -6 -20 -7q-10 0 -16 3q-4 4 -6.5 5t-4.5 5q-4 6 -8 18q-2 6 -3 11.5t-1 11.5 q0 4 1 9t1 9q2 4 3 7t3 7q4 8 8 13q6 6 11 6q4 2 14 2h8q2 -2 3 -2t3 -2q9 -2 13 -10zM1040 352h35v-180h-35v180zM1102 352h33v-180h-33v180zM713 1315q6 -4 6 -17v-63q0 -18 -21 -18h-2v-5h119v45h-2q-2 -4 -2 -7t-4 -7q-4 -10 -10 -16t-11 -6l-12 -4h-33v49h4 q14 0 21 -11l6 -6q0 -2 1 -3t1 -5q0 -8 2 -10h2v72h-2q-2 -4 -2 -11q0 -10 -6 -12q-6 -12 -20 -12h-7v51h23q16 0 22 -4q8 0 11 -8q4 -2 8 -11q2 -4 2 -8t4 -8h2v43h-117v-4h2q13 0 15 -4zM1008 1063q-4 -4 -4 -7t-3 -7q-8 -12 -12 -17q-6 -6 -10 -6l-10 -4q-6 -2 -15 -2 h-18v49h2q14 0 23 -8q2 -2 2 -3t2 -3q0 -2 1 -3t1 -5q2 -4 2 -11h2v72h-2v-10l-3 -6t-3 -7q-10 -12 -21 -12h-6v51h20q18 0 25 -2q4 -4 5 -4t5 -4l6 -12q4 -8 7 -17h4v43h-119v-4h4q10 0 12 -4q6 -4 6 -14v-66q0 -20 -18 -20h-4v-2h119v45zM1380 1128h-55v-4h10q0 -2 4 -2 q8 -8 9 -10q4 -4 4 -16v-47l-78 79h-43v-4h2q8 0 10 -2q4 0 5 -2t3 -2q2 -4 2 -10v-64q0 -8 -2 -12q-2 -6 -8 -8q-8 -4 -14 -4v-2h57v2q-6 0 -10 2q-4 0 -5 1t-5 1q-2 2 -6 10q-2 2 -3 15v65l95 -96h4v78q0 12 6 22q2 6 18 6v4zM1430 1212h45v5h-7h-2q-4 2 -4 3t-2 3 q0 2 -1 3t-1 5q0 2 1 4t1 4l2 8h47l2 -4l2 -2v-2q2 -4 3.5 -6t1.5 -6q2 -2 2 -4q0 -6 -2 -6h-9h-10v-5h66v5h-4h-9q-2 0 -3 2t-3 2l-4 8l-43 96h-4l-35 -78q-10 -23 -16 -26q-4 0 -5 -2t-3 -2h-6v-5zM877 1051v10q-2 2 -3.5 4t-3.5 4q-6 4 -14 8q-4 2 -9 3t-11 5h-9h-4l-2 2 q-16 4 -16 5q-4 2 -6 2t-4 2q-2 0 -7 4q-4 4 -4 8q0 6 2 8q0 -2 5 6l8 4q4 0 6 1t6 1q8 0 16 -4q10 0 17 -6q8 -4 12 -8t5 -9t5 -11h4v36h-4q-2 -8 -8 -8t-10 2q-20 10 -37 10q-10 0 -23 -4q-4 -4 -7 -6t-7 -4q-6 -10 -6 -18q0 -6 6 -13q0 -2 6 -8q8 -4 15 -6q2 -2 8 -3 t16 -5l8 -2q12 -4 17 -4q4 0 8 -4q2 0 4 -2q6 -6 6 -13q0 -2 -4 -10q-2 -2 -10 -8h-12q-12 0 -19 2q-12 4 -20 8l-13 12q-10 14 -10 25h-4v-51h4q0 8 4 8q4 4 10 4q2 0 2.5 -1t4.5 -1q2 0 3 -1t5 -1q6 -4 9 -4t7 -2t17 -2q6 0 18 4q4 0 7 2t7 6q4 2 4 4t5 6v13zM1063 1210 q8 0 20 4q8 2 15 9q2 2 3 5t3 5q2 4 2 10v10q-4 4 -4 6.5t-4 4.5q-4 4 -13 8q-4 2 -9 3t-13 5l-10 2h-4q-4 0 -8.5 2t-8.5 2t-8 4q-2 0 -6 4q-4 2 -4 9q0 4 2 6q0 2 4 6q2 4 8 4q4 2 12 2q10 0 17 -2q4 0 8 -2t8 -2q4 -4 6 -5t4 -5q8 -12 13 -23h2v39h-2q-2 -8 -11 -8h-2 q-4 0 -6 2q-20 10 -37 10q-16 0 -22 -4q-8 -2 -14 -12q-6 -6 -7 -17q0 -8 4 -12q2 -4 4.5 -5t4.5 -3t5 -3t7 -3t10 -3t17 -6l8 -2q4 -2 7 -2t7 -2l8 -4q6 0 6 -4q6 -4 7 -10q0 -6 -5 -10q-6 -6 -10 -6q-4 -2 -14 -3q-10 0 -19 3q-6 0 -18 8q-6 4 -14 12q-8 16 -11 27h-2v-54 h2q4 6 7 9q2 2 8 2h6q6 0 10 -4q4 -2 8 -2.5t9 -2.5q4 -2 14 -2zM1272 1212h57v5h-10q-6 0 -10 4q-6 0 -6 8q-4 8 -5 14v66l97 -99h2v80q0 6 2 12.5t4 10.5q6 6 20 6v4h-55v-4h8l8 -4q4 0 9 -8q2 -4 2 -17v-47l-76 80h-45v-4h12q4 -4 5 -4t3 -2q2 -4 2 -10v-64q0 -8 -2 -12 q-2 -6 -8 -8q-4 -2 -14 -2v-5zM1405 266q-6 12 -25 13q-18 0 -24 -13q-8 -12 -8 -28q0 -14 8 -27q4 -12 24 -12t25 12q8 8 8 27q0 20 -8 28zM1898 -31q-6 10 -24 11q-18 0 -25 -11q-6 -12 -6 -30q0 -14 6 -27q6 -12 25 -12q18 0 24 12q4 6 5.5 13t1.5 14q-1 22 -7 30z M1696 1262h-4q0 -4 -2 -7.5t-2 -7.5q-2 -4 -2 -5t-3 -5l-6 -6q-6 -10 -14 -10q-4 -4 -14 -4h-29v81q0 12 4 17q2 4 16 4h7v4h-74v-4h4q20 0 20 -21v-63q0 -18 -20 -18h-4v-5h123v50zM1653 1128h-56v-4h7q10 0 12 -2q4 -2 4 -8q0 -4 -6 -12l-23 -31l-28 37l-4 8v2q0 4 2 4 q0 2 6 2h10v4h-72v-4h2q12 0 17 -2l6 -6t4 -6l35 -45v-25q0 -10 -4 -14q-4 -2 -8.5 -4t-8.5 -2h-6v-2h78v2h-8q-8 0 -15 6q-6 2 -6 14v27l29 39q4 4 6 8q8 4 10 4q2 4 6 4q4 2 11 2v4zM1511 1067h-2q-4 -4 -4 -7t-2 -7q-4 -4 -4 -11q-2 -2 -6 -8q-8 -8 -14 -10q-4 -4 -17 -4 h-28v86q0 10 6 14q4 4 14 4h8v4h-76v-4h7q18 0 18 -18v-66q0 -20 -18 -20h-7v-2h125v49zM754 1128h-56v-4h13q2 0 3 -1t3 -1q12 -6 12 -26v-39q0 -16 -10 -27q-2 -2 -14 -10h-19q-14 0 -20 4q-4 0 -13 8q-4 4 -4 19v55q0 12 4 14q4 4 17 4h8v4h-76v-4h2q23 0 23 -18v-55 q0 -14 12 -27q6 -4 18 -6q6 -2 23 -2q16 0 29 4q8 4 12 8q10 8 10 27v43v14l10 10h2l2 2h9v4zM928 1272q-4 -2 -19 -2h-30v49h30q33 0 33 -23q0 -12 -4 -16q0 -4 -10 -8zM649 1272q-2 -6 -22 -6h-23v53h33q6 0 10 -4q12 -4 12 -23q0 -14 -10 -20zM1044 -68l-16 -2l-12 -6 q-6 -6 -6 -14t6 -10q4 -4 12 -4h6q2 0 3 1t3 1q4 2 6.5 4t6.5 4q4 4 4 14v19q-7 -7 -13 -7zM1835 231l-16 -4q-6 0 -13 -6q-4 -2 -4 -12t4 -10q4 -4 13 -4h8h2q2 0 4 2q8 4 12 8q4 8 4 16v17q-6 -7 -14 -7zM1608 -90h37v-37h-37v37zM694 -90h37v-37h-37v37zM596 252 q-4 12 -8 20q-4 4 -8.5 6.5t-10.5 2.5q-23 0 -26 -29h53zM1509 1249h-45l23 49z" />
<glyph unicode="&#x3e;" horiz-adv-x="864" d="M1855 1124l-36 -30l26 -41l-43 -27l27 -43l-43 -25l18 -43l-47 -20l17 -49l-45 -15l8 -45l-49 -10l4 -51l-47 -4v-47h-41l-7 -43l-45 4l-10 -45l-49 8l-14 -47l-45 14l-17 -47l-49 21l-22 -45l-43 22l-27 -41l-43 27l-29 -37l-37 31l-34 -33l-31 29l-33 -29l-29 37 l-41 -27l-28 43l-43 -24l-23 40l-45 -18l-20 47l-47 -14l-15 45l-47 -10l-10 49l-49 -4l-6 47h-48v43l-40 4l4 47l-47 8l10 49l-49 15l14 45l-45 18l18 47l-45 25l23 41l-39 26l29 43l-39 31l28 37l-32 35l30 29l-28 32l36 31l-26 39l41 29l-23 43l39 22l-16 45l45 21 l-14 47l47 14l-11 47l50 10l-7 52l47 4v47h44l4 43l47 -6l8 47l51 -8l12 47l45 -13l19 43l47 -18l25 45l43 -22l24 40l43 -28l31 39l39 -31l33 33l30 -29l31 27l31 -35l41 27l26 -43l45 24l23 -41l43 19l20 -48l50 15l14 -45l45 10l10 -49l51 4l4 -47h48v-43l43 -4l-5 -47 l46 -9l-9 -49l49 -14l-14 -45l45 -19l-20 -47l47 -24l-25 -41l41 -27l-26 -43l36 -31l-30 -36l32 -33l-26 -31zM319 281q0 4 2.5 9t2.5 9q2 14 16 29q4 6 11 11t16 9q10 4 19 6t20 2h6q6 0 18 -4q6 0 10 -2t9 -4q14 -8 24 -22q4 -6 8 -15q2 -4 2 -12h-39q0 6 -4 10 q-2 6 -12 12t-20 7q-6 0 -11 -2h-8q-4 -4 -16 -13q-4 -4 -7.5 -8t-5.5 -10q-4 -10 -4 -33q0 -18 6 -33q2 -14 15 -18q6 -4 11 -6t11 -4h7q14 0 20 6q8 0 14 10q4 6 7.5 11t3.5 12h-43v32h75v-98h-24l-4 23q-6 -10 -17 -17q-6 -4 -11 -5t-9 -5q-6 0 -11.5 -1t-11.5 -1 q-18 0 -28 8q-16 6 -25 19q-12 12 -18 30t-7 39q0 13 2 19zM764 6h33v-20q12 25 39 24q14 0 20 -6q10 -4 16 -16q4 10 15 16q8 6 20 6q16 0 27 -8q8 -6 14 -16q4 -4 4 -21v-92h-32v80q0 27 -21 27q-23 0 -22 -27v-80h-37v80v12q0 6 -6 12q-4 2 -15 3q-23 0 -22 -25v-82h-33 v133zM1966 6h33v-20q14 25 39 24q16 0 22 -6q8 -4 15 -16q4 8 16 16q6 6 20 6q16 0 25 -8q12 -6 14 -16q6 -6 7 -21v-92h-35v80q0 27 -21 27q-23 0 -22 -27v-80h-35v80q0 10 -2 12q0 6 -6 12q-4 2 -13 3q-23 0 -22 -25v-82h-35v133zM1810 -35q2 8 5.5 13.5t7.5 11.5 q12 12 22 14q8 6 29 6q16 0 29 -6q8 -2 22 -12q4 -4 6 -10.5t6 -12.5q4 -8 5 -30q0 -20 -9 -35q-6 -14 -22 -25q-14 -8 -37 -8q-27 0 -39 10q-14 10 -23 25q-6 14 -6 33q0 18 4 26zM1317 264q2 12 12 23q12 12 23 16q8 4 28 4t31 -4q4 -4 9 -6t10 -6q10 -12 14 -25 q4 -12 4 -28q0 -20 -8 -35q-6 -14 -23 -25q-16 -10 -37 -10q-23 0 -39 10q-12 10 -22 27q-6 14 -6 33q0 10 4 26zM313 2v4h35l23 -96l18 96h35l20 -96l21 96h37l-37 -127l-2 -6h-35l-22 96l-21 -96h-37zM1110 2v4h37l20 -96l19 96h35l20 -96l23 96h34l-36 -127v-6h-37 l-21 96l-20 -96h-37zM119 2v4h37l20 -96l19 96h36l19 -96l22 96h35l-37 -127v-6h-37l-20 96l-20 -96h-37zM506 2v4h37l20 -96l19 96h36l19 -96l20 96h37l-37 -127l-2 -6h-34l-21 96l-22 -96h-35zM1778 238q12 8 28 12l31 4q12 2 12 10q0 16 -20 17q-8 0 -17 -5q-6 -2 -8 -16 h-32q2 18 8 29q4 8 18 14q8 4 14 4h17q27 0 37 -4l8 -8t6 -8q4 -12 4 -17v-71v-15q0 -6 8 -6v-6h-39q-2 0 -2 2v2v2q0 4 -1 6t-1 4q-4 -6 -10 -10q-4 -2 -7 -4t-5 -2l-9 -3t-10 -1q-6 0 -18 4q-4 4 -8 6t-8 6q-6 8 -7 25q1 21 11 29zM987 -61q8 8 27 12l33 4q10 4 10 10 q0 16 -21 17q-4 0 -8 -1t-8 -1q-2 -4 -4 -8.5t-2 -8.5h-33q0 14 6 27q12 12 21 14l12 4q4 0 8 1t8 1q27 0 37 -8q10 -6 17 -14q2 -6 2 -17v-71q0 -10 2 -15q0 -6 6 -6v-6h-37q0 2 -2 4v2q-2 4 -2 10q-8 -8 -12 -10t-6.5 -3t-6.5 -3t-16 -2q-14 0 -19 2q-10 2 -16 14 q-8 6 -8 21q0 21 12 31zM512 274q6 16 20 25q8 6 17.5 7t19.5 1q27 0 35 -8q12 -8 21 -27q4 -10 5 -18t1 -18v-9h-92q0 -12 10 -22q6 -8 22 -8q6 0 15 4q8 8 8 10h37q-4 -10 -13 -23q-6 -4 -11 -8t-9 -6q-8 -2 -13 -4t-14 -2q-66 0 -65 74q0 10 1 17t5 15zM1190 1210 q10 0 18.5 2t14.5 5q14 8 24 22q8 10 8 29q0 14 -4 18q-2 12 -12 19q-8 12 -22 14q-8 6 -29 6q-10 0 -31 -8q-12 -6 -24 -21q-8 -14 -9 -28q0 -14 4 -21q6 -12 15 -20q8 -8 22 -13q13 -4 25 -4zM1204 1044q8 10 8 29q0 12 -4 21q-4 8 -12 18q-10 10 -22 12q-12 6 -27 6 q-23 0 -33 -8q-10 -4 -15 -9t-9 -11q-8 -14 -9 -29q0 -16 4 -22q8 -12 15 -19q4 -4 10 -6t12 -6q16 -4 25 -4q23 0 33 8q12 6 24 20zM1495 -84q0 -18 31 -18q10 0 16 2q4 8 4 10q0 8 -14 10l-31 8q-6 2 -13 5.5t-11 7.5q-12 8 -13 24q0 12 6 23q4 8 19 16q8 6 29 6 q12 0 21 -2t17 -6q12 -6 17 -16q2 -4 2 -5t2 -6v-10h-35q0 10 -6 15q-2 2 -16 2q-20 0 -21 -13q0 -6 12 -8l31 -8q12 -2 29 -12q10 -6 10 -25q0 -12 -6 -25q-8 -10 -21 -16q-8 -4 -30 -4h-13q-8 0 -12 2q-12 4 -20 8q-12 8 -15 15q-4 12 -4 20h35zM1315 6h35v-20 q14 25 41 24q12 0 24 -6q10 -4 15 -14q6 -12 6 -25v-92h-35v80q0 16 -4 20q-2 6 -19 7q-14 0 -20 -9q-6 -10 -6 -22v-76h-37v133zM1473 305h32v-18q14 20 41 20q18 0 25 -4q4 -4 8 -7t8 -7q6 -12 6 -25v-92h-34v80q0 8 -5 20q-6 6 -20 7q-14 0 -21 -9q-4 -6 -4 -22v-76h-36 v133zM1008 172h-33v18q-6 -10 -17 -14q-16 -8 -24 -8q-20 0 -33 14q-12 12 -12 35v88h35v-82q0 -25 22 -24q8 0 12 2t13 10q0 4 2 8t2 8v78h33v-133zM1681 -12q16 23 48 22q18 0 30 -6q14 -4 21 -18q10 -10 10 -27h-37q0 6 -4 14q-4 6 -16 7q-16 0 -21 -11q-8 -8 -8 -26 t2 -25q2 -10 8 -14q4 -4 17 -4q10 0 16 4q6 6 6 18h37q0 -10 -8 -26q-6 -10 -21 -19q-12 -6 -32 -6q-27 0 -43 14q-8 8 -15 21q-2 8 -2 31q0 28 12 51zM831 1212h72v5h-4q-12 0 -16 4q-4 2 -4 6v8v31h24l39 -54h41v5h-4q-10 0 -14 2l-7 6q-2 4 -4 6t-4 6l-4 4q0 2 -4 6v4 q-6 2 -12 2q-8 4 -10 7l-13 6h19q4 2 8 2t8 2q6 0 14 4q12 8 13 22q0 4 -2 7q-4 8 -6 10q-6 6 -17 6q-12 4 -26 4h-87v-4h5q10 0 14 -4q6 -4 6 -17v-63q0 -4 -1 -8t-5 -6q-4 -4 -14 -4h-5v-5zM811 281h-18v24h18v10q0 37 39 37h18v-26h-10q-6 0 -8 -2q-4 0 -4 -5v-14h22v-24 h-22v-109h-35v109zM1243 281h-18v24h18v10q0 37 39 37h16v-26h-8q-8 0 -8 -2q-2 0 -4 -5v-14h25v-24h-25v-109h-35v109zM1917 281h-16v24h16v35h37v-35h22v-24h-22v-72q0 -4 1 -6t1 -4q2 0 4 -1t6 -1l6 2h4v-27h-22q-16 0 -23 4q-8 0 -10 8q0 4 -2 7.5t-2 7.5v82zM659 281 h-18v24h18v35h35v-35h21v-24h-21v-72q0 -8 2 -10q2 0 5.5 -1t7.5 -1l4 2h2v-27h-21q-16 0 -22 4q-8 0 -10 8q-2 4 -3 15v82zM631 1212v5h-6q-20 0 -21 18v29h29h22q12 4 15 6q10 4 10 10q4 4 4 12t-6 19q-8 8 -21 8q-2 2 -8 2h-12q-6 2 -14 2h-66v-4h4q20 0 21 -21v-63 q0 -18 -21 -18h-4v-5h74zM1630 281h-20v24h20v35h33v-35h23v-24h-23v-72q0 -4 1 -6t1 -4q4 0 6 -1t6 -1l4 2h5v-27h-23q-16 0 -21 4q-10 0 -12 8v15v82zM1176 1112l4 -8t4 -10q0 -4 1 -9.5t1 -11.5q0 -12 -4 -29q-6 -12 -15 -20q-6 -4 -20 -4q-12 0 -14 4q-8 0 -15 10 q-2 4 -6 17q-4 12 -4 22q0 4 1 9t1 10q2 4 3 7t3 7q6 10 8 12q0 2 11 6q8 4 14 4q2 0 3 -1t5 -1l8 -4zM1219 1307q2 -4 4 -8.5t4 -10.5q0 -4 1 -9t1 -11q0 -16 -6 -29q-4 -12 -13 -18q-10 -6 -20 -7q-10 0 -16 3q-4 4 -6.5 5t-4.5 5q-4 6 -8 18q-2 6 -3 11.5t-1 11.5 q0 4 1 9t1 9q2 4 3 7t3 7q4 8 8 13q6 6 11 6q4 2 14 2h8q2 -2 3 -2t3 -2q9 -2 13 -10zM1040 352h35v-180h-35v180zM1102 352h33v-180h-33v180zM713 1315q6 -4 6 -17v-63q0 -18 -21 -18h-2v-5h119v45h-2q-2 -4 -2 -7t-4 -7q-4 -10 -10 -16t-11 -6l-12 -4h-33v49h4 q14 0 21 -11l6 -6q0 -2 1 -3t1 -5q0 -8 2 -10h2v72h-2q-2 -4 -2 -11q0 -10 -6 -12q-6 -12 -20 -12h-7v51h23q16 0 22 -4q8 0 11 -8q4 -2 8 -11q2 -4 2 -8t4 -8h2v43h-117v-4h2q13 0 15 -4zM1008 1063q-4 -4 -4 -7t-3 -7q-8 -12 -12 -17q-6 -6 -10 -6l-10 -4q-6 -2 -15 -2 h-18v49h2q14 0 23 -8q2 -2 2 -3t2 -3q0 -2 1 -3t1 -5q2 -4 2 -11h2v72h-2v-10l-3 -6t-3 -7q-10 -12 -21 -12h-6v51h20q18 0 25 -2q4 -4 5 -4t5 -4l6 -12q4 -8 7 -17h4v43h-119v-4h4q10 0 12 -4q6 -4 6 -14v-66q0 -20 -18 -20h-4v-2h119v45zM1380 1128h-55v-4h10q0 -2 4 -2 q8 -8 9 -10q4 -4 4 -16v-47l-78 79h-43v-4h2q8 0 10 -2q4 0 5 -2t3 -2q2 -4 2 -10v-64q0 -8 -2 -12q-2 -6 -8 -8q-8 -4 -14 -4v-2h57v2q-6 0 -10 2q-4 0 -5 1t-5 1q-2 2 -6 10q-2 2 -3 15v65l95 -96h4v78q0 12 6 22q2 6 18 6v4zM1430 1212h45v5h-7h-2q-4 2 -4 3t-2 3 q0 2 -1 3t-1 5q0 2 1 4t1 4l2 8h47l2 -4l2 -2v-2q2 -4 3.5 -6t1.5 -6q2 -2 2 -4q0 -6 -2 -6h-9h-10v-5h66v5h-4h-9q-2 0 -3 2t-3 2l-4 8l-43 96h-4l-35 -78q-10 -23 -16 -26q-4 0 -5 -2t-3 -2h-6v-5zM877 1051v10q-2 2 -3.5 4t-3.5 4q-6 4 -14 8q-4 2 -9 3t-11 5h-9h-4l-2 2 q-16 4 -16 5q-4 2 -6 2t-4 2q-2 0 -7 4q-4 4 -4 8q0 6 2 8q0 -2 5 6l8 4q4 0 6 1t6 1q8 0 16 -4q10 0 17 -6q8 -4 12 -8t5 -9t5 -11h4v36h-4q-2 -8 -8 -8t-10 2q-20 10 -37 10q-10 0 -23 -4q-4 -4 -7 -6t-7 -4q-6 -10 -6 -18q0 -6 6 -13q0 -2 6 -8q8 -4 15 -6q2 -2 8 -3 t16 -5l8 -2q12 -4 17 -4q4 0 8 -4q2 0 4 -2q6 -6 6 -13q0 -2 -4 -10q-2 -2 -10 -8h-12q-12 0 -19 2q-12 4 -20 8l-13 12q-10 14 -10 25h-4v-51h4q0 8 4 8q4 4 10 4q2 0 2.5 -1t4.5 -1q2 0 3 -1t5 -1q6 -4 9 -4t7 -2t17 -2q6 0 18 4q4 0 7 2t7 6q4 2 4 4t5 6v13zM1063 1210 q8 0 20 4q8 2 15 9q2 2 3 5t3 5q2 4 2 10v10q-4 4 -4 6.5t-4 4.5q-4 4 -13 8q-4 2 -9 3t-13 5l-10 2h-4q-4 0 -8.5 2t-8.5 2t-8 4q-2 0 -6 4q-4 2 -4 9q0 4 2 6q0 2 4 6q2 4 8 4q4 2 12 2q10 0 17 -2q4 0 8 -2t8 -2q4 -4 6 -5t4 -5q8 -12 13 -23h2v39h-2q-2 -8 -11 -8h-2 q-4 0 -6 2q-20 10 -37 10q-16 0 -22 -4q-8 -2 -14 -12q-6 -6 -7 -17q0 -8 4 -12q2 -4 4.5 -5t4.5 -3t5 -3t7 -3t10 -3t17 -6l8 -2q4 -2 7 -2t7 -2l8 -4q6 0 6 -4q6 -4 7 -10q0 -6 -5 -10q-6 -6 -10 -6q-4 -2 -14 -3q-10 0 -19 3q-6 0 -18 8q-6 4 -14 12q-8 16 -11 27h-2v-54 h2q4 6 7 9q2 2 8 2h6q6 0 10 -4q4 -2 8 -2.5t9 -2.5q4 -2 14 -2zM1272 1212h57v5h-10q-6 0 -10 4q-6 0 -6 8q-4 8 -5 14v66l97 -99h2v80q0 6 2 12.5t4 10.5q6 6 20 6v4h-55v-4h8l8 -4q4 0 9 -8q2 -4 2 -17v-47l-76 80h-45v-4h12q4 -4 5 -4t3 -2q2 -4 2 -10v-64q0 -8 -2 -12 q-2 -6 -8 -8q-4 -2 -14 -2v-5zM1405 266q-6 12 -25 13q-18 0 -24 -13q-8 -12 -8 -28q0 -14 8 -27q4 -12 24 -12t25 12q8 8 8 27q0 20 -8 28zM1898 -31q-6 10 -24 11q-18 0 -25 -11q-6 -12 -6 -30q0 -14 6 -27q6 -12 25 -12q18 0 24 12q4 6 5.5 13t1.5 14q-1 22 -7 30z M1696 1262h-4q0 -4 -2 -7.5t-2 -7.5q-2 -4 -2 -5t-3 -5l-6 -6q-6 -10 -14 -10q-4 -4 -14 -4h-29v81q0 12 4 17q2 4 16 4h7v4h-74v-4h4q20 0 20 -21v-63q0 -18 -20 -18h-4v-5h123v50zM1653 1128h-56v-4h7q10 0 12 -2q4 -2 4 -8q0 -4 -6 -12l-23 -31l-28 37l-4 8v2q0 4 2 4 q0 2 6 2h10v4h-72v-4h2q12 0 17 -2l6 -6t4 -6l35 -45v-25q0 -10 -4 -14q-4 -2 -8.5 -4t-8.5 -2h-6v-2h78v2h-8q-8 0 -15 6q-6 2 -6 14v27l29 39q4 4 6 8q8 4 10 4q2 4 6 4q4 2 11 2v4zM1511 1067h-2q-4 -4 -4 -7t-2 -7q-4 -4 -4 -11q-2 -2 -6 -8q-8 -8 -14 -10q-4 -4 -17 -4 h-28v86q0 10 6 14q4 4 14 4h8v4h-76v-4h7q18 0 18 -18v-66q0 -20 -18 -20h-7v-2h125v49zM754 1128h-56v-4h13q2 0 3 -1t3 -1q12 -6 12 -26v-39q0 -16 -10 -27q-2 -2 -14 -10h-19q-14 0 -20 4q-4 0 -13 8q-4 4 -4 19v55q0 12 4 14q4 4 17 4h8v4h-76v-4h2q23 0 23 -18v-55 q0 -14 12 -27q6 -4 18 -6q6 -2 23 -2q16 0 29 4q8 4 12 8q10 8 10 27v43v14l10 10h2l2 2h9v4zM928 1272q-4 -2 -19 -2h-30v49h30q33 0 33 -23q0 -12 -4 -16q0 -4 -10 -8zM649 1272q-2 -6 -22 -6h-23v53h33q6 0 10 -4q12 -4 12 -23q0 -14 -10 -20zM1044 -68l-16 -2l-12 -6 q-6 -6 -6 -14t6 -10q4 -4 12 -4h6q2 0 3 1t3 1q4 2 6.5 4t6.5 4q4 4 4 14v19q-7 -7 -13 -7zM1835 231l-16 -4q-6 0 -13 -6q-4 -2 -4 -12t4 -10q4 -4 13 -4h8h2q2 0 4 2q8 4 12 8q4 8 4 16v17q-6 -7 -14 -7zM1608 -90h37v-37h-37v37zM694 -90h37v-37h-37v37zM596 252 q-4 12 -8 20q-4 4 -8.5 6.5t-10.5 2.5q-23 0 -26 -29h53zM1509 1249h-45l23 49z" />
<glyph unicode="?" d="M338 1184q10 8 19.5 16t19.5 17l37 32q35 33 75 64q74 61 156 125q41 29 82 57.5t84 54.5q23 12 44.5 25.5t43.5 23.5q12 6 23.5 12.5t23.5 10.5l45 20q47 18 96.5 34t100.5 26q27 4 52.5 8t51.5 4q55 2 111 -6q31 -6 53 -14q14 -6 27.5 -11.5t27.5 -13.5q27 -16 48 -37 q23 -20 38 -49q14 -25 25 -57q4 -16 5 -30.5t3 -29.5q0 -31 -6 -57q-2 -27 -12 -55q-20 -57 -45 -97q-14 -23 -28.5 -44t-31.5 -42q-35 -41 -70.5 -75.5t-74.5 -67.5q-37 -35 -80 -61q-20 -16 -40.5 -29.5t-41.5 -28.5q-10 -6 -21.5 -12t-21.5 -14l-43 -25 q-23 -12 -44 -24.5t-44 -22.5q-90 -47 -181 -83t-188 -64q-47 -16 -95 -29.5t-95 -24.5q-25 -6 -49.5 -11t-48.5 -9q-12 -4 -24.5 -6t-25.5 -4l-24 -5q-6 -2 -14 -2q-10 -18 -17.5 -36.5t-15.5 -36.5l-74 -164q-8 -23 -16 -42.5t-19 -39.5q-10 -20 -28 -12q-10 4 -13.5 12 t0.5 16l39 82l39 82l37 82q10 20 19.5 39.5t19.5 42.5q2 6 14 10q10 0 23 4q8 0 24 4q12 2 24.5 3.5t24.5 5.5q23 4 47.5 9t47.5 11q47 10 95 23.5t95 29.5q92 29 182.5 67t176.5 85q23 10 43 22.5t43 24.5l41 27l38 26q80 55 152 121q35 35 66.5 70t58.5 73q27 39 49 80 q10 23 18.5 42.5t12.5 41.5q12 41 8 84q-4 41 -20 70q-6 8 -11.5 15t-13.5 14q-10 10 -31 20q-18 10 -35 16l-41 11q-47 6 -88 4q-23 0 -46 -2t-46 -6q-45 -6 -91 -17.5t-91 -25.5l-47 -15l-43 -16l-90 -39q-43 -20 -85 -44t-83 -50q-41 -27 -81 -55.5t-79 -59.5 q-18 -16 -36.5 -31.5t-37.5 -31.5l-37 -33l-32 -35q-16 -12 -33 0q-6 6 -6 15.5t6 15.5v2zM10 -121q0 -23 -14 -37t-37 -14t-37 14.5t-14 36.5q0 23 14.5 37t36.5 14q23 0 37 -14t14 -37z" />
<glyph unicode="@" horiz-adv-x="1157" d="M815 705l25 61q8 20 26 10q16 -6 11 -24v-2l-13 -31l-6 -12l-6 -17q-6 -14 -11 -28.5t-12 -30.5l-22 -60q-4 -16 -9 -30.5t-12 -30.5q-10 -31 -18 -60.5t-16 -62.5q-8 -31 -13.5 -61.5t-9.5 -61.5q-2 -16 -3 -30.5t-1 -30.5t1 -30.5t5 -29.5q4 -16 8 -26q6 -10 17 -17 q8 -8 20 -8q4 -2 12 -2h7q4 0 6 2q12 2 23.5 8t21.5 17q23 20 39 45q16 23 33 51q6 14 13 27.5t13 29.5q10 29 20.5 58.5t18.5 60.5q8 29 14.5 60.5t10.5 62.5q10 61 12 125q2 31 2 61.5t-4 61.5q-2 16 -4 30.5t-6 28.5q-4 16 -7.5 29.5t-7.5 28.5q-10 29 -22.5 53t-30.5 45 q-10 10 -19.5 18t-19.5 15q-12 6 -23.5 10t-25.5 6q-16 4 -27 4h-26q-16 0 -30.5 -1t-31.5 -3q-119 -14 -227 -76q-111 -59 -193 -151q-82 -88 -139 -203q-29 -57 -49 -115.5t-33 -120.5q-6 -31 -10 -61.5t-4 -63.5q-4 -66 8 -122q12 -66 39 -115q14 -25 35 -47 q20 -25 45 -39q47 -33 113 -39q10 -2 28 -2h33q16 0 30.5 1t30.5 3t32 3t30 5q16 4 30.5 8.5t30.5 8.5q14 4 28.5 10t27.5 14q16 6 26 15l13 8l6 4l2 2l2 2q14 14 28 0t0 -29l-4 -4q-2 0 -2 -1t-2 -1l-6 -6l-14 -10l-31 -17q-31 -16 -61 -24q-16 -6 -33 -9.5t-33 -7.5 t-32.5 -6t-32.5 -4t-33 -3t-33 -1h-16l-9 -2q-6 0 -8 2h-16t-17 2q-37 4 -67 14q-29 8 -64 29q-29 18 -51 45q-27 27 -41 55q-18 29 -29.5 62t-17.5 65q-16 66 -12 134q0 33 3 65.5t7 65.5q20 129 78 251q57 127 143 226q43 51 94.5 94t110.5 78q55 35 123 57q63 20 133 31 l68 6h36l37 -6q33 -6 72 -27q37 -23 59 -49q23 -27 41 -61q10 -16 16.5 -32.5t10.5 -33.5q4 -16 8 -33.5t6 -33.5q4 -16 5 -34t4 -34q2 -35 2 -67.5t-5 -67.5q-6 -66 -18 -129q-14 -66 -32.5 -129.5t-47.5 -122.5q-29 -63 -67 -115q-10 -14 -21.5 -27.5t-26.5 -23.5 q-10 -10 -30 -21q-16 -10 -37 -12q-2 -2 -10 -2h-9q-14 0 -20 2q-20 4 -37 17q-10 6 -16 14t-10 16q-8 18 -13 35q-4 18 -5 35.5t-1 34.5q0 31 6 65q4 33 10.5 65t14.5 64q4 20 8 31q-6 -6 -8 -14l-4 -8l-6 -9l-7 -10q-8 -14 -16 -27.5t-16 -29.5q-10 -14 -19.5 -27.5 t-19.5 -28.5q-18 -29 -40 -55t-46 -51q-25 -25 -56 -43q-16 -12 -32 -19q-18 -8 -35 -10q-8 -2 -21 -2q-14 0 -20 2q-12 0 -21 6q-12 4 -18 11q-16 12 -27 34q-4 10 -6 18.5t-4 18.5q-6 35 -2 74q2 16 4 33.5t6 34.5q8 35 18.5 67.5t20.5 65.5q12 33 26.5 63.5t31.5 61.5 q31 61 73 116q10 14 21.5 27.5t23.5 28.5q12 12 26.5 25.5t31.5 23.5q8 4 16 10t18 10t20.5 7.5t20.5 5.5q4 0 6.5 1t6.5 1h12q14 0 21 -2q12 0 24 -7l21 -10l20 -16l14 -21q6 -10 8.5 -21t4.5 -22q2 -20 0 -39q0 -10 -1 -18t-3 -18l-5 -21q8 14 14.5 29t12.5 31zM676 422 l14 29q4 8 7 15t8 15q6 16 12 30.5t10 31.5q4 16 8 31.5t8 31.5q4 20 5 31q2 10 2 17.5v15.5q0 20 -2 30q-4 16 -9 27q-6 12 -12 18l-14 9l-19 4h-20q-4 -2 -10.5 -3t-12.5 -5q-4 -2 -10 -5.5t-12 -7.5q-10 -8 -22.5 -17t-22.5 -20l-21 -22q-8 -8 -20 -25q-20 -23 -39 -51 q-20 -27 -35 -53q-16 -29 -31.5 -57.5t-29.5 -57.5t-25.5 -59.5t-20.5 -61.5q-4 -16 -7 -30.5t-7 -30.5q-2 -16 -3 -30.5t1 -28.5l6 -27q6 -12 15 -21q8 -8 20 -8q4 -2 12 -2h15q23 6 53 23q12 8 24.5 18t24.5 21q10 10 21.5 22t21.5 25q10 12 20.5 24.5t20.5 26.5l37 55 q10 14 17.5 27.5t15.5 28.5q2 2 2 4q0 6 2 10z" />
<glyph unicode="A" horiz-adv-x="2924" d="M338 -109l1055 -6q66 123 128 247t126 251q86 170 168.5 337t164.5 339q84 170 165 339t161 341q41 86 79 171t77 171t76.5 172t74.5 172q8 20 27.5 28.5t40.5 -2.5q16 -6 23.5 -20t7.5 -31l-43 -465l-43 -465q-23 -236 -46.5 -466t-48.5 -465l-69 -660l1126 -8 q20 0 35.5 -13.5t15.5 -35.5q0 -23 -14 -37t-37 -14l-1137 22l-18 -182q-25 -233 -49.5 -464.5t-50.5 -465.5q0 -8 -6.5 -12t-12.5 -2q-16 0 -16 18q23 233 43 465t41 465l14 180l-995 19q-16 -29 -32.5 -58.5t-33.5 -60.5q-8 -16 -24 -6q-14 6 -6 22q12 27 25 52.5t28 52.5 l-1022 18q-12 0 -20.5 9.5t-8.5 19.5q4 28 31 28zM2464 547l76 930l36 467l13 186l-41 -88q-41 -86 -82 -170t-84 -170q-166 -340 -340 -674q-86 -170 -173 -336t-175 -334q-66 -119 -128.5 -236.5t-125.5 -236.5l964 -6z" />
<glyph unicode="B" horiz-adv-x="2848" d="M223 1618q59 25 119.5 48.5t122.5 45.5l121 43q29 12 59.5 23.5t61.5 21.5q29 10 59.5 20.5t60.5 20.5q31 10 62 20.5t61 20.5l123 41l195 57l96 326q6 23 24.5 32t38.5 3t30.5 -24.5t4.5 -39.5h-2l-86 -264l70 19q61 16 123.5 32.5t126.5 30.5q33 8 63.5 15.5t63.5 13.5 l127 24l129 19q63 8 131 12q35 2 67.5 3t67.5 -3q16 -2 33.5 -3t36.5 -5q37 -6 71 -19l35 -16l35 -25q16 -14 31 -34q12 -23 18 -45q6 -23 6 -43v-21q-2 -6 -2 -18q-2 -16 -6 -35t-8 -35t-10.5 -32.5t-12.5 -32.5t-13 -32t-15 -32l-35 -57l-37 -56q-39 -53 -82 -102t-90 -96 t-94 -91t-99 -85q-25 -23 -49 -42.5t-49 -39.5l-102 -80q-27 -20 -52.5 -39t-52.5 -37l-39 -31q51 16 104.5 26.5t106.5 14.5q72 4 144 -6q76 -14 139 -39q70 -31 127 -80q29 -25 52.5 -53.5t39.5 -62.5q37 -66 47 -142q12 -72 2 -145q-4 -37 -14 -71t-23 -68 q-12 -35 -27.5 -67t-31.5 -62q-18 -29 -36.5 -57.5t-41.5 -57.5t-44 -54.5t-46 -52.5q-98 -102 -203 -182q-109 -86 -223.5 -156.5t-235.5 -132.5q-31 -16 -61.5 -30.5t-60.5 -28.5l-123 -55q-61 -29 -124 -53.5t-126 -47.5t-127 -45t-129 -43q-63 -20 -128 -39.5 t-130 -38.5q-129 -35 -259 -66.5t-263 -60.5q-10 -2 -18.5 4.5t-10.5 16.5q-4 20 18 29q66 14 130.5 28.5t129.5 30.5q127 29 260 68q66 18 128.5 37.5t125.5 39.5q66 23 128.5 45.5t123.5 45.5q125 47 247 101t241 118q117 61 227 135q57 35 110.5 73.5t104.5 82.5 q104 86 191 180q88 98 151 209q16 29 28.5 57.5t22.5 56.5q10 31 17.5 60.5t11.5 60.5q10 66 -2 121q-8 59 -37 113q-27 49 -74 90q-45 39 -102 63q-51 23 -117 33q-57 12 -125 8q-31 0 -62.5 -4t-64.5 -8q-16 -4 -30.5 -7t-30.5 -7t-31.5 -8.5t-32.5 -8.5 q-31 -10 -61.5 -21.5t-60.5 -23.5q-31 -12 -61 -25.5t-58 -27.5h-2q-23 -14 -33 8q-10 20 8 33q2 0 2 1t2 1q23 16 46.5 29.5t47.5 27.5l11 8l104 74q53 37 103.5 75t101.5 79q49 41 97 83t95 85l91 88l88 92q20 25 40.5 48.5t38.5 49.5q20 25 38 49.5t34 51.5 q10 12 17.5 25t15.5 28q16 29 29 53q6 14 12 27.5t10 27.5q12 27 19 56q4 14 6 27.5t4 27.5v27q0 14 -2 18q-4 12 -8 16q-4 6 -13 13q-6 8 -16 13t-23 9q-12 4 -25.5 7t-27.5 8q-29 6 -57 6q-31 4 -61.5 3t-61.5 -3q-61 -4 -123.5 -11.5t-126.5 -17.5q-61 -10 -123.5 -22.5 t-124.5 -24.5q-63 -14 -124.5 -28.5t-125.5 -30.5l-127 -33l-712 -2185q-4 -16 -19 -11q-16 4 -10 19l639 2148l-16 -4q-123 -35 -246 -72t-246 -73q-123 -39 -243.5 -78t-243.5 -80q-25 -6 -31 14q-8 23 12 31z" />
<glyph unicode="C" horiz-adv-x="1490" d="M2109 1649q-10 23 -20 43t-23 43l-24 39q-6 10 -13.5 19t-13.5 19q-57 74 -131 123q-39 27 -80 44.5t-84 29.5q-43 10 -88 16.5t-92 4.5q-88 0 -184 -23q-47 -10 -91 -25.5t-89 -33.5q-43 -18 -85 -40t-83 -46q-82 -49 -158 -109q-39 -29 -75 -59.5t-70 -65.5 q-35 -35 -68 -69.5t-64 -71.5q-63 -72 -117.5 -151t-101.5 -165q-23 -43 -44 -86t-42 -88q-20 -45 -36.5 -89t-32.5 -91q-14 -47 -25.5 -93t-21.5 -93q-18 -96 -25 -191q-2 -98 6 -192q12 -98 43 -187q31 -90 80 -174q49 -80 119 -149q70 -70 147 -121q41 -27 84 -49.5 t88 -40.5q88 -37 183 -62q96 -25 192 -36q47 -6 96 -10.5t99 -6.5q47 -2 96 -1t98 3q49 4 98.5 7.5t96.5 9.5q49 6 98 13t96 15q47 10 96.5 19.5t96.5 19.5l94 23l96 24q47 14 94.5 27.5t94.5 30.5q47 14 92 29.5t92 31.5q20 8 33 -14q4 -10 -1 -18.5t-16 -12.5 q-47 -16 -94 -30.5t-94 -28.5q-47 -16 -95 -28.5t-95 -27.5q-25 -6 -48.5 -12t-48.5 -10q-23 -6 -47 -12.5t-49 -10.5q-47 -10 -96 -19t-99 -20q-193 -33 -393 -43q-49 -4 -99 -4t-99 2q-49 0 -99.5 4.5t-99.5 10.5q-98 12 -197 37q-98 23 -188 61q-96 37 -178 92 q-43 27 -83 58.5t-77 66.5q-70 70 -127 156q-27 43 -49.5 89t-38.5 93t-28.5 97t-20.5 100q-6 51 -9.5 101t-0.5 101q2 51 6 100.5t14 100.5q8 49 19.5 98.5t25.5 96.5q33 100 68 188q18 47 39.5 92t46.5 90q92 178 219 336q33 41 66.5 78t68.5 72q37 35 74 68.5t78 66.5 q80 63 165.5 116.5t180.5 94.5q100 41 194 65q51 12 102.5 18.5t104.5 8.5q106 4 209 -25q55 -16 100 -39q49 -23 92 -55q43 -31 78 -71q35 -37 64 -87q55 -92 76 -190q4 -25 -21 -31q-19 -3 -27 15z" />
<glyph unicode="D" horiz-adv-x="3047" d="M86 1679q53 18 103.5 35t103.5 33l104 31q51 18 105 30q104 31 208.5 58.5t211.5 52.5q53 12 105 24.5t106 22.5q53 10 107 19.5t108 19.5q215 37 434 49q55 4 110.5 4t110.5 -2q55 -4 110.5 -8t110.5 -14q29 -4 55.5 -10.5t53.5 -12.5q29 -8 55.5 -16t52.5 -19 q29 -10 54.5 -21t50.5 -28q27 -14 51 -29.5t47 -35.5q47 -37 84 -84q35 -43 61 -101q12 -29 22.5 -56.5t16.5 -55.5q6 -29 10.5 -57.5t6.5 -57.5t1 -57.5t-3 -57.5l-4 -28v-13l-3 -14l-8 -55q-4 -29 -10 -55.5t-12 -53.5q-8 -29 -14.5 -54.5t-16.5 -51.5 q-16 -53 -36.5 -104.5t-43.5 -102.5t-47.5 -99.5t-52.5 -95.5q-29 -47 -58.5 -93t-60.5 -91q-66 -90 -135 -172q-35 -43 -72 -83t-76 -79q-76 -78 -157 -151l-82 -70t-84 -70t-86 -66.5t-90 -62.5q-90 -61 -182.5 -117.5t-190.5 -105.5q-47 -27 -96 -49.5t-101 -44.5 q-49 -23 -99 -42.5t-103 -35.5q-25 -10 -50.5 -17.5t-52.5 -15.5t-52.5 -15t-51.5 -13q-109 -29 -215 -43q-53 -8 -108.5 -12.5t-108.5 -4.5q-55 -2 -110.5 1t-109.5 14q-20 0 -16 20t23 16q53 -8 106 -12t107 -4q53 0 106 4t107 10q53 8 105 17.5t106 23.5q27 6 52 12.5 t50 14.5l102 33q203 70 396 172q188 98 366 225q88 61 172 129t162 141q78 74 152 152q37 41 71.5 81t69.5 81q33 43 64.5 86t60.5 88q31 45 58.5 90t51.5 92q27 47 49.5 95t43.5 95q20 49 37.5 99.5t31.5 101.5q27 100 43 207l6 51l2 13v14q2 8 2 24q4 53 0 103 q-6 104 -49 190q-41 86 -121 150q-78 61 -174 96q-49 18 -98 31q-25 8 -50.5 13t-51.5 9q-51 10 -103.5 14.5t-105.5 8.5t-105.5 5t-105.5 -1q-109 -4 -214.5 -11t-213.5 -22q-106 -12 -212 -29.5t-212 -37.5q-106 -23 -211 -46.5t-209 -50.5l-104 -28q-27 -6 -52.5 -13.5 t-52.5 -15.5l-102 -31q-27 -8 -52.5 -15t-50.5 -18h-2q-16 -6 -24 13q-4 18 12 24zM770 -326l518 2048q6 23 23.5 33t40.5 6q20 -6 30.5 -23.5t6.5 -39.5l-580 -2032q-6 -20 -25 -14q-18 4 -14 22z" />
<glyph unicode="E" horiz-adv-x="2428" d="M639 391l309 74l223 1032q4 20 21.5 31.5t40.5 7.5q20 -4 31.5 -21.5t7.5 -39.5v-2l-244 -990l1067 252q23 6 40 -5t22 -32q6 -23 -5.5 -40t-31.5 -21h-2l-1108 -223l-260 -1059q-4 -20 -25 -14q-18 4 -14 22l223 1036l-285 -57q-10 -2 -18 4t-10 16q-5 21 18 29z M39 -969l3639 873q20 6 39 -5.5t23 -31.5q4 -23 -6.5 -40t-30.5 -22h-2l-3656 -806q-14 -4 -18 12t12 20zM616 1665l2147 385q20 4 37.5 -8t21.5 -35q4 -20 -8 -37.5t-35 -21.5l-2156 -324q-20 0 -23 18q-4 19 16 23z" />
<glyph unicode="F" horiz-adv-x="2816" d="M639 23l408 79l317 1594q4 23 21.5 34t39.5 7q20 -4 31.5 -21.5t7.5 -40.5l-354 -1558l1409 280q23 4 39 -8t20 -33q4 -23 -7 -39t-31 -20l-3 -2l-1441 -246l-187 -825q-8 -18 -22 -15q-18 4 -15 23l160 807l-383 -66q-10 -4 -19 3.5t-12 17.5q-2 10 4.5 18.5t16.5 10.5z M51 1753l3701 457q20 4 36.5 -9.5t20.5 -35.5q2 -23 -10 -38.5t-35 -19.5h-2l-3705 -395q-20 -4 -24 19q0 18 18 22z" />
<glyph unicode="G" horiz-adv-x="2263" d="M1792 1161q18 47 35.5 94.5t34.5 94.5q8 25 14 48t12 48t12.5 48.5t10.5 47.5q10 49 15 98.5t5 96.5q2 98 -18 192q-18 96 -68 172q-51 80 -127 125q-41 25 -82 37q-23 8 -44 11t-44 7q-94 6 -186 -18q-88 -20 -178 -70q-43 -23 -83 -49t-81 -55q-76 -55 -150 -129 q-35 -35 -68.5 -71t-68.5 -72q-33 -39 -63.5 -78t-59.5 -80t-57.5 -82t-54.5 -84q-53 -86 -102.5 -173t-94.5 -179l-43 -90l-43 -93q-18 -47 -35.5 -94t-34.5 -94q-8 -23 -14 -47.5t-12 -48.5q-12 -49 -19 -99q-4 -25 -7 -49t-3 -49q-4 -49 0 -98q2 -45 16 -96 q6 -25 14.5 -47.5t20.5 -45.5q10 -23 23.5 -42t30.5 -37q31 -37 71 -66q43 -31 86 -47q45 -20 94 -29q41 -10 99 -14q25 -2 49 -2h49q25 2 50.5 4t49.5 6q25 4 49.5 8t49.5 9q96 20 192 55t186.5 77t178.5 93q174 102 327 231l39 31q10 8 19.5 16.5t19.5 16.5l74 67 q37 35 72 71t69 73l4 2q16 14 36 13t36 -17q25 -25 6 -56l-153 -323l-148 -328q-74 -164 -144.5 -327.5t-139.5 -329.5q-70 -166 -138.5 -331t-136.5 -333q-35 -84 -66.5 -166t-64.5 -166q-35 -86 -66.5 -168t-62.5 -168q-8 -16 -25.5 -24t-35.5 -2t-25.5 24.5t-1.5 34.5v4 l145 328l142 330l280 659l279 662l135 333l55 138q-41 -33 -79 -62.5t-78 -58.5q-168 -121 -349 -219q-45 -25 -91 -46.5t-93 -43.5q-96 -41 -190 -74q-49 -16 -99.5 -29.5t-99.5 -23.5q-27 -4 -51.5 -8.5t-50.5 -8.5q-27 -4 -51.5 -5t-51.5 -3q-53 -2 -104.5 2t-102.5 14 q-49 12 -100 31q-53 23 -92 51q-45 33 -80 70q-33 39 -60 88q-10 23 -20 47.5t-16 50.5q-8 25 -11.5 50.5t-7.5 52.5q-10 104 6 207q6 53 17.5 103t25.5 99t30.5 98.5t35.5 96.5l41 94l41 94q41 92 88 183.5t100 179.5q27 45 54.5 89t56.5 85q57 86 123 166q33 41 67.5 79 t69.5 74q37 37 76 72t80 68q80 61 176 116q47 25 96 45.5t102 34.5q27 6 53.5 11.5t55.5 7.5q29 4 55.5 5t54.5 -3q29 -4 55.5 -8.5t55.5 -14.5q51 -14 102 -47q25 -14 46.5 -31.5t42.5 -37.5q20 -20 36.5 -43t32.5 -46q14 -25 25.5 -49t21.5 -51q20 -57 29 -104 q10 -53 13 -106.5t-1 -106.5t-12 -105.5t-21 -103.5q-6 -25 -13 -49.5t-15 -49.5q-10 -25 -18.5 -49t-18.5 -49q-20 -47 -42 -93t-48 -91q-8 -20 -27 -8q-16 8 -8 24z" />
<glyph unicode="H" horiz-adv-x="1906" d="M2048 2671l-614 -1971l596 246q20 8 39.5 0t27.5 -26q8 -20 0 -40t-29 -28l-667 -256l-580 -1864q-6 -16 -22 -12t-13 20l537 1825l-975 -375l-231 -722q-4 -16 -23 -13q-18 8 -12 25l203 686l-242 -92q-23 -8 -31 14q-6 18 13 31l280 114l582 1965q6 23 24.5 31.5 t38.5 2.5t30.5 -24.5t4.5 -38.5h-2l-612 -1907l983 404l598 2033q6 20 23.5 30.5t39.5 4.5q20 -6 30.5 -24.5t4.5 -38.5h-2z" />
<glyph unicode="I" d="M55 -1073l592 213l918 3017l-615 -203q-20 -6 -28 16q-8 20 14 29l1415 528q20 6 39.5 -2t26.5 -28q8 -20 -0.5 -39t-28.5 -27q-2 0 -2 -2l-705 -234q0 -10 -2 -14h-2l-981 -3023l437 156q20 6 38.5 -2t24.5 -29q8 -20 -1 -39.5t-30 -25.5v-2l-1087 -351 q-14 -4 -25.5 2.5t-15.5 18.5t1 24.5t17 16.5z" />
<glyph unicode="J" horiz-adv-x="1851" d="M950 1624l1901 1167q18 12 38.5 7t30.5 -23q10 -16 6 -37.5t-22 -32.5h-2l-733 -421q14 -23 8 -43h-2q-10 -33 -20.5 -65t-20.5 -62l-43 -125q-23 -63 -45.5 -126t-44.5 -124q-47 -125 -95 -248t-100 -246q-51 -123 -104 -242.5t-109 -242.5q-55 -121 -113.5 -239 t-119.5 -236q-61 -117 -126 -232.5t-134 -230.5q-70 -113 -142.5 -223.5t-152.5 -216.5q-39 -53 -80 -105.5t-84 -103.5t-87 -100.5t-91 -96.5t-96.5 -93t-100.5 -87q-106 -84 -219 -152q-12 -10 -24 6q-8 16 6 23q57 35 109 72.5t104 80.5q49 41 96 86.5t94 92.5 q88 94 172 196q41 53 81 105.5t79 105.5q78 106 148.5 217t136.5 224q131 227 249 462q59 119 115.5 238t110.5 240q104 240 202 485q49 123 95.5 246t91.5 248l86 247q10 33 20.5 64t20.5 61q4 20 11 40t13 38l-1095 -631q-16 -8 -25 6q-8 15 6 27z" />
<glyph unicode="K" horiz-adv-x="1613" d="M2884 2030q-92 -49 -181.5 -99.5t-181.5 -101.5q-92 -49 -181 -100.5t-181 -102.5q-180 -102 -358.5 -205.5t-358.5 -210.5q-180 -104 -356.5 -211.5t-352.5 -220.5l-112 -73l-144 -422q51 -10 101.5 -23.5t99.5 -26.5q51 -16 102 -30.5t103 -30.5q102 -33 201.5 -66.5 t201.5 -70.5q100 -35 198.5 -73t198.5 -77q199 -78 393.5 -159.5t391.5 -167.5q98 -43 193.5 -86t193.5 -88l194 -89l193 -92q10 -6 15 -18t-1 -25q-14 -29 -43 -14l-192 92q-47 23 -95.5 45.5t-95.5 44.5q-98 45 -193 89t-194 87q-195 86 -388 170t-392 162 q-98 41 -196.5 79t-198.5 75q-98 37 -197.5 71.5t-202.5 67.5q-102 33 -202 61q-51 16 -100.5 28.5t-100.5 23.5l-180 -533q-8 -16 -23 -10q-16 4 -12 22l166 533q-41 10 -81 17.5t-79 13.5l-104 12q-27 2 -52.5 2h-52.5q-16 -4 -20 16q0 10 6 17q41 35 81 67.5t81 65.5 t82.5 63.5t84.5 59.5q49 35 99.5 70.5t101.5 70.5l479 1544q6 20 24.5 29.5t39.5 3.5q20 -6 30.5 -24.5t4.5 -38.5l-2 -2l-492 -1455l58 39q86 57 173 113.5t175 112.5l352 221q178 111 354 217t357 213l358 209l358 209q18 10 40 5t32 -24q10 -18 4 -39.5t-24 -31.5z M389 551q-43 -29 -85 -59.5t-83 -61.5l-121 -92q14 0 26.5 -1t27.5 -1q53 -2 106 -12q88 -12 168 -31l111 358z" />
<glyph unicode="L" d="M68 -301h383l782 2347q6 20 24.5 29.5t40.5 3.5q20 -6 29.5 -24.5t1.5 -41.5l-837 -2314l2232 -10q23 0 37 -14.5t14 -36.5q0 -23 -14.5 -37.5t-36.5 -14.5h-2l-2656 64q-10 0 -16.5 7t-6.5 17q0 25 25 25z" />
<glyph unicode="M" horiz-adv-x="2607" d="M33 -1161l753 2183q-10 203 -12 403l-8 523q0 14 9 24t24 10q14 0 24.5 -10t10.5 -24q-2 -131 -1 -261.5t1 -261.5q0 -66 1 -129t1 -129l489 1420q8 20 26.5 29.5t39.5 2.5q20 -8 29.5 -26.5t0.5 -38.5l-581 -1593q0 -14 1 -28.5t1 -29.5q4 -262 18 -520q6 -131 19 -260 q4 -33 8 -64.5t8 -64.5q2 -29 12 -64q4 -16 8 -28q0 -2 1.5 -3t1.5 -5q35 31 65.5 62.5t60.5 63.5l134 150q66 78 128 155.5t126 155.5l245 318l240 321q119 164 234.5 326t232.5 328l229 329q57 84 113.5 166t112.5 166v2q12 16 33.5 20.5t37.5 -8.5q16 -10 20.5 -26.5 t-1.5 -32.5l-983 -2677q-8 -14 -21 -8q-14 4 -10 21l805 2367l-31 -43q-59 -82 -118.5 -163t-119.5 -163q-119 -164 -238.5 -323.5t-242.5 -319.5q-61 -80 -122.5 -159.5t-125.5 -159.5q-61 -78 -124.5 -156t-127.5 -155q-129 -158 -264 -308q-33 -37 -67.5 -73.5 t-69.5 -73.5q-35 -35 -70.5 -71t-72.5 -70q-10 -10 -23 2h-2l-10 18l-6 16l-11 33q-4 16 -7 31.5t-5 32.5q-6 35 -11 66.5t-9 64.5q-6 66 -12.5 130t-10.5 130q-8 115 -14 227.5t-12 227.5l-732 -2003q-6 -14 -20 -11q-6 2 -9 8.5t1 10.5z" />
<glyph unicode="N" horiz-adv-x="2150" d="M586 2107l131 -538l151 508q6 23 24.5 32t39.5 2q20 -6 30.5 -24.5t4.5 -38.5h-2l-209 -641l600 -2460q6 35 13 72t15 72q10 59 22.5 118.5t25.5 118.5q23 117 47 235t51 236q51 236 105.5 469.5t113.5 466.5q31 117 61.5 233.5t65.5 233.5t68.5 230.5t72.5 230.5l80 227 q23 57 44.5 113.5t45.5 112.5q23 57 48.5 112.5t54.5 110.5q14 27 27.5 53.5t29.5 52.5q16 29 32.5 54.5t35.5 52.5q12 16 33.5 20t37.5 -8t20.5 -33.5t-7.5 -38.5v-2q-16 -23 -33 -46t-31 -50q-16 -25 -30.5 -50.5t-28.5 -51.5q-29 -51 -53.5 -104.5t-49.5 -108.5 q-23 -53 -45 -108.5t-45 -110.5q-23 -57 -43 -112.5t-41 -113.5q-41 -113 -76.5 -226.5t-70.5 -227.5q-35 -117 -69 -230.5t-64 -230.5q-66 -233 -124.5 -464.5t-111.5 -467.5q-29 -117 -54.5 -234.5t-51.5 -234.5l-52 -236q-12 -59 -24 -117.5t-23 -117.5q-4 -18 -22 -14 q-12 0 -17 14l-630 2413l-613 -1889q-4 -16 -20 -12q-14 6 -10 20l604 2030l-176 674q-4 20 5 37.5t29 21.5q18 4 36 -5.5t22 -29.5z" />
<glyph unicode="O" horiz-adv-x="1970" d="M1608 2120h-17q-4 0 -6 -1t-6 -1q-16 0 -27 -2l-51 -13q-55 -18 -100 -45q-49 -29 -94 -63q-23 -16 -44.5 -34.5t-43.5 -37.5q-43 -39 -84 -81t-80 -85q-39 -45 -75 -90t-71 -92q-72 -96 -135 -193.5t-123 -199.5l-57 -103l-55 -104q-29 -53 -54.5 -105.5t-50.5 -105.5 q-49 -106 -94 -215t-84 -219q-41 -111 -73.5 -223.5t-57.5 -227.5q-25 -119 -37 -231q-6 -59 -8 -116.5t2 -117.5q6 -57 18 -112q8 -29 17.5 -55.5t23.5 -51.5q27 -53 68 -86q20 -16 47 -31q20 -10 51 -20q51 -12 111 -12q57 2 112 18q29 8 54.5 17.5t52.5 23.5 q53 25 100 57q47 33 91 71t85 79q80 80 154 176q70 90 133 193q33 49 61.5 99t57.5 103t54.5 105.5t47.5 105.5q25 53 47.5 107.5t42.5 109.5q10 29 19.5 55.5t19.5 55.5l37 110q16 57 31.5 112.5t28.5 115.5q29 115 43 229q8 57 13 114.5t7 117.5q4 115 -12 229 q-10 57 -25 109q-16 59 -39 104q-12 25 -27.5 46.5t-31.5 41.5q-33 39 -80 66q-43 27 -96 36q-27 6 -52.5 8.5t-52.5 2.5q-23 0 -38 14t-15 35q0 23 14.5 38t34.5 15h4q16 0 31.5 -1t32.5 -3l63 -12q33 -10 64 -22.5t59 -31.5q29 -16 52.5 -38.5t45.5 -49.5q43 -49 68 -108 q29 -59 43 -119q8 -31 13.5 -60.5t9.5 -60.5q12 -123 6 -243q-4 -59 -10.5 -119t-16.5 -119t-21.5 -117.5t-25.5 -116.5q-16 -59 -31.5 -115.5t-34.5 -113.5q-10 -29 -19 -56.5t-19 -56.5t-20.5 -56.5t-22.5 -55.5q-23 -55 -45.5 -109.5t-47.5 -107.5q-27 -53 -53 -106.5 t-55 -106.5q-57 -104 -121.5 -204.5t-138.5 -195.5q-37 -47 -76 -92t-82 -86q-41 -41 -87 -80t-97 -73q-53 -37 -105 -60q-57 -29 -112 -43q-59 -18 -121 -18h-30.5t-31.5 2q-31 2 -61 12q-16 4 -30.5 9t-28.5 14q-14 8 -27.5 16t-24.5 18q-25 20 -44 45t-36 52 q-27 53 -43 114q-12 63 -18 121q-4 59 -2 119.5t6 120.5q4 29 8 58.5t9 58.5q4 29 10 58.5t12 57.5q12 59 26.5 116.5t30.5 115.5q16 57 34 113.5t38 111.5q39 113 83 222.5t93 217.5q25 55 50.5 108.5t52.5 106.5l55 105q14 27 27.5 52.5t29.5 51.5q119 211 254 402 q35 49 71 96t75 94t78.5 91t84.5 85t91 78q25 20 49 37.5t51 34.5q29 16 56.5 29.5t58.5 23.5q31 12 61 18l17.5 3.5t15.5 1.5q6 2 16 2h17q18 2 30.5 -10.5t12.5 -28.5q2 -18 -10.5 -30.5t-28.5 -12.5z" />
<glyph unicode="P" horiz-adv-x="3217" d="M49 1083q-12 49 -12 107q2 27 5 53.5t9 52.5q2 12 5 25.5t7 26.5q10 31 21 51q23 53 49 96q14 23 29.5 44.5t32.5 41.5q16 23 34.5 41t36.5 39q20 18 39 36.5t41 35.5l82 65q86 61 177 112.5t188 94.5q98 43 195 77t200 62q51 14 101 25.5t102 21.5q53 10 103 18.5 t103 14.5q104 14 209 19q27 2 52.5 3t52.5 1h52.5t51.5 -2q53 -2 104.5 -5.5t104.5 -11.5q106 -12 207 -37q102 -25 203 -63q49 -20 96 -43t92 -51q47 -29 89 -60.5t79 -70.5q20 -18 37.5 -38t34.5 -42q33 -41 61 -86q57 -90 92 -191q10 -25 16.5 -50.5t12.5 -51.5 q4 -27 7 -52.5t3 -54.5q4 -53 -3 -105t-21 -104q-12 -53 -33 -100t-47 -94q-51 -92 -121 -170q-35 -41 -72 -76t-78 -70q-80 -68 -167 -120q-45 -29 -90.5 -53.5t-92.5 -47.5q-186 -88 -391 -135q-102 -25 -203 -37q-53 -6 -104 -9t-102 -5q-53 0 -104.5 2t-104.5 8 q-51 6 -102.5 14.5t-102.5 20.5q-16 4 -12 23q4 18 22 14q49 -14 98.5 -23.5t100.5 -15.5q100 -12 202 -12q53 0 103.5 4t101.5 8q96 12 201 37q199 45 383 133q92 45 178 99.5t164 119.5q80 68 143 143q70 80 115 166q49 90 74 187q25 96 18 196q-6 96 -41 195 q-16 47 -39.5 90t-52.5 84q-29 43 -61 80q-16 18 -33 36.5t-35 34.5q-37 35 -77 63t-83 52q-88 49 -180 84q-47 16 -95 29.5t-97 23.5q-98 23 -198.5 32t-201.5 9q-51 4 -100 0q-27 0 -51.5 -1t-51.5 -3q-49 -4 -99 -8t-101 -12q-49 -6 -99.5 -14.5t-99.5 -18.5t-98 -21.5 t-99 -23.5q-201 -53 -383 -131q-47 -20 -92 -41t-90 -45q-43 -23 -86 -49q-23 -12 -43 -25.5t-43 -28.5l-80 -57q-20 -16 -38.5 -32.5t-36.5 -32.5t-36 -34t-34 -36t-31.5 -37.5t-32.5 -40.5q-14 -20 -26 -40.5t-23 -43.5q-6 -10 -11 -21.5t-9 -21.5q-4 -12 -8.5 -23.5 t-8.5 -23.5q-14 -45 -18 -96q-4 -23 -3 -47.5t3 -51.5q4 -16 -16 -20q-14 0 -19 14v2zM842 -360l606 2009q6 20 24.5 29.5t38.5 2.5q20 -6 30.5 -24.5t4.5 -38.5q-2 0 -2 -2l-663 -1989q-8 -18 -25 -12q-18 7 -14 25z" />
<glyph unicode="Q" horiz-adv-x="2394" d="M117 561l200 -153q8 47 17.5 92t23.5 92q29 109 68 207q20 51 41.5 100t48.5 96q49 98 106.5 190.5t125.5 178.5q35 41 70.5 82t76.5 80q78 78 168 143q23 16 46.5 30.5t47.5 29.5q47 27 103 49q29 10 55 18t55 14q14 4 28.5 6.5t28.5 4.5q8 0 14.5 1t14.5 1q4 0 7 1t7 1 h15q23 0 38 -13.5t15 -35.5q2 -23 -12.5 -37.5t-36.5 -16.5h-51l-49 -6q-51 -10 -97 -24q-25 -10 -48 -19.5t-46 -21.5q-43 -20 -88 -49t-85 -62t-79 -67q-78 -72 -145 -152q-70 -82 -127 -170q-57 -86 -109 -180q-27 -47 -48 -95.5t-44 -97.5q-20 -49 -36.5 -98t-33.5 -100 q-16 -51 -26 -101.5t-21 -101.5l985 -752q23 10 44.5 20.5t44.5 22.5q90 47 172 121q20 16 38.5 34.5t36.5 37.5q18 20 36 39.5t34 40.5q35 41 63.5 84t57.5 90q53 86 98 188q23 47 42.5 96.5t35.5 100.5t31.5 101t27.5 104q12 51 22.5 103t18.5 105t13.5 105.5t9.5 105.5 t5 105.5t-1 105.5t-6 105.5t-11 105.5q-4 27 -8 52.5t-10 52.5q-4 25 -10 50l-12 50q-27 98 -72 195q-25 47 -51 90q-29 43 -62 80t-71.5 66.5t-83.5 47.5q-23 10 -45.5 16.5t-47.5 10.5q-47 10 -96 6q-23 -2 -37 12.5t-16 36.5q-2 23 12.5 37t36.5 16h2q57 0 117 -12 q61 -12 112 -37q27 -14 52.5 -29.5t48.5 -33.5t43 -39t39 -43q39 -47 65 -92q16 -25 28.5 -49.5t25.5 -49.5q10 -27 19 -52t19 -52q18 -53 31 -107q27 -106 38 -214.5t11 -217.5q0 -55 -2 -109t-6 -108q-4 -55 -11 -109.5t-18 -107.5q-16 -106 -43.5 -210.5t-62.5 -207.5 q-37 -104 -82 -201.5t-102 -191.5q-29 -47 -61 -91t-66 -85q-16 -23 -35 -42t-37 -40q-41 -41 -80 -74q-80 -72 -178 -125q-18 -10 -36.5 -19t-37.5 -17l1155 -883q8 -4 9.5 -13.5t-5.5 -15.5q-12 -16 -26 -4l-1209 887l-53 -19q-102 -27 -217 -32h-53q-14 0 -27.5 1 t-27.5 1q-29 4 -54.5 7t-54.5 7q-53 10 -106.5 26.5t-100.5 43.5q-53 29 -92 63q-45 35 -78 80q-16 23 -30.5 46.5t-28.5 47.5q-12 25 -21.5 50.5t-17.5 52.5q-16 53 -24.5 107t-10.5 110q-2 33 -1 66.5t3 68.5l-248 182q-18 12 -21 34t9 38t33.5 19t38.5 -9h2zM342 162 q4 -106 31 -207q16 -49 37.5 -96t54.5 -88q61 -82 156 -133q90 -49 196 -68q53 -10 105.5 -13t105.5 -1q109 4 207 32l27 9l-918 669q-2 -27 -3 -52t1 -52z" />
<glyph unicode="R" horiz-adv-x="2279" d="M51 1913q78 23 153 41t152 39l306 71q158 39 309 68q78 16 154.5 30.5t154.5 26.5q150 27 311 49l78 11q20 4 40 5t40 3l78 8t80 6q39 4 77.5 6t79.5 2h80q23 0 42.5 -1t39.5 -3l80 -6q20 -4 40.5 -7t41.5 -7q41 -8 80 -19.5t80 -29.5q20 -10 39.5 -20.5t38.5 -24.5 q16 -16 32.5 -31.5t32.5 -36.5q25 -37 39 -88q4 -12 5 -23.5t3 -23.5v-45q-2 -45 -12 -88q-4 -20 -11.5 -40t-15.5 -40t-15 -38.5t-18 -37.5q-10 -18 -20 -36.5t-20 -35.5q-23 -35 -45.5 -67.5t-47.5 -63.5q-12 -16 -25.5 -31.5t-25.5 -31.5l-53 -60q-53 -59 -108.5 -115.5 t-112.5 -109.5l-58 -55l-59 -53q-29 -27 -58.5 -52.5t-60.5 -50.5q-29 -27 -59.5 -51.5t-61.5 -50.5l-122 -98l-125 -97l-125 -94l-129 -92l-64 -45q-12 -8 -22.5 -15.5t-20.5 -15.5l1651 -1020q14 -6 6 -22q-10 -14 -25 -6l-1673 1034q-14 8 -4 22q0 2 4 6q33 23 64.5 45.5 t64.5 45.5l125 92q33 23 63.5 47t61.5 47l123 98q123 100 238.5 203.5t226.5 214.5q55 57 107.5 114.5t99.5 119.5q49 61 92 122q45 61 82 131q16 33 32.5 67t28.5 69q10 35 18.5 69.5t8.5 69.5v33l-6 30q-4 12 -11 27q-4 8 -7 14.5t-7 12.5q-18 25 -45 45q-25 18 -57 35 q-16 8 -32.5 14t-35.5 12q-35 12 -70 19q-18 4 -36.5 7t-36.5 7t-38 6t-38 4l-76 6q-20 2 -38.5 3t-39.5 1q-39 2 -76.5 2h-78.5l-156 -6q-18 -2 -37.5 -3t-40.5 -1q-18 -2 -37.5 -3t-40.5 -5q-158 -12 -309 -37q-156 -23 -310.5 -50.5t-307.5 -61.5q-78 -16 -153 -34 t-152 -36l-152 -37l-152 -41q-16 -4 -20 12q-4 6 0 12.5t10 8.5zM918 1636l-574 -1859q-4 -16 -22 -13q-16 6 -13 25l510 1876q4 20 22.5 30.5t39.5 6.5q23 -6 32 -24.5t5 -39.5v-2z" />
<glyph unicode="S" horiz-adv-x="3129" d="M2894 2191l-113 -30l-112 -33q-55 -16 -111.5 -33.5t-112.5 -36.5q-113 -35 -222 -73.5t-220 -81.5q-53 -23 -107.5 -44.5t-107.5 -43.5q-53 -25 -106.5 -48.5t-106.5 -50.5q-109 -53 -205 -112q-98 -59 -190 -129q-23 -18 -43.5 -37t-40.5 -39t-39 -42t-35 -44 q-33 -49 -47 -99q-4 -12 -6 -25t-4 -28q-2 -12 -1 -25.5t3 -25.5q6 -29 18 -45q14 -23 37 -37q10 -8 21.5 -14t23.5 -13q14 -4 26.5 -8t26.5 -8q29 -8 56.5 -12t56.5 -8q29 -2 58.5 -3t58.5 -1h116l117 6l117 8l117 8q59 4 117.5 8t117.5 8q59 2 118.5 3.5t119.5 -1.5 q29 -2 59.5 -4t58.5 -6q29 -4 60 -8t59 -12q55 -14 113 -43q31 -16 51 -35q29 -23 45 -43q18 -20 33 -53q14 -29 20 -60q4 -16 5.5 -30.5t3.5 -30.5v-31q-2 -6 -2 -16v-8q0 -4 -3 -7q-4 -31 -12 -60.5t-20 -57.5q-12 -29 -28.5 -54.5t-35.5 -50.5q-18 -23 -37.5 -45 t-42.5 -43q-23 -23 -45 -41t-47 -37q-92 -72 -198 -131q-51 -31 -103.5 -57.5t-105.5 -52.5q-53 -27 -107.5 -50.5t-109.5 -46.5q-53 -23 -108.5 -43t-113.5 -41q-55 -20 -110.5 -38.5t-112.5 -36.5q-55 -18 -111.5 -37t-113.5 -35t-112.5 -31.5t-114.5 -32.5 q-57 -16 -113.5 -30.5t-114.5 -28.5q-29 -8 -57.5 -15t-56.5 -14l-115 -28l-230 -51l-116 -25l-58 -10l-57 -13q-16 -4 -27.5 4.5t-15.5 24.5q-4 33 29 41h2q14 2 27.5 4t29.5 6l57 11l115 20l232 47q29 6 57.5 12.5t56.5 14.5l113 24q59 14 115.5 27.5t113.5 30.5 q113 27 228 61q55 16 111 32.5t112 35.5q113 35 223.5 72.5t218.5 82.5q55 23 109.5 45.5t107.5 46.5q53 25 104.5 51.5t102.5 55.5t99.5 60.5t95.5 66.5q23 18 45 36.5t43 39.5q43 41 78 84q35 49 59 96q25 51 31 108q0 4 2 7v49q0 27 -6 55q-12 57 -45 98q-16 23 -39 39.5 t-48 30.5t-51 23.5t-55 15.5q-29 8 -56.5 13t-56.5 9t-58.5 5.5t-57.5 3.5q-59 2 -116.5 1t-117.5 -3q-59 -4 -116.5 -8.5t-116.5 -8.5l-119 -8l-117 -10q-59 -4 -117.5 -7t-117.5 -3q-31 0 -60.5 1t-60.5 3q-29 4 -59.5 7t-59.5 11q-33 6 -59 19q-29 10 -58 30 q-25 18 -47 47q-16 25 -26 62q-6 33 -7 65q2 16 4.5 31.5t6.5 32.5q16 57 53 112q16 27 35.5 50.5t40.5 46.5q23 23 45 43t45 41q47 39 95 72.5t99 66.5q49 33 100.5 61.5t104.5 57.5q106 53 214 102t218 96q217 88 443 166q55 20 111.5 39t111.5 37q29 10 56.5 18.5 t56.5 16.5q29 10 57.5 18t56.5 17q20 6 39 -4.5t25 -30.5t-4.5 -38.5t-30.5 -25.5h-2z" />
<glyph unicode="T" horiz-adv-x="2246" d="M84 1651l1763 131l187 731q6 23 23.5 33t39.5 4q20 -4 30.5 -22.5t6.5 -39.5l-192 -698l3186 238q23 2 38 -11.5t17 -36.5t-12 -38t-35 -17h-2l-3209 -199l-725 -2637q-4 -18 -22 -15q-16 6 -13 23l668 2623l-1747 -106q-16 0 -20 16q0 21 18 21z" />
<glyph unicode="U" horiz-adv-x="2279" d="M1368 -1130l610 2199l-73 -178q-47 -111 -97.5 -219.5t-103.5 -214.5q-53 -109 -111.5 -213.5t-119.5 -208.5q-63 -102 -132 -200.5t-147 -190.5q-80 -92 -168 -174q-23 -20 -45.5 -40t-46.5 -38q-53 -39 -100 -68q-29 -16 -55.5 -29.5t-55.5 -23.5q-55 -25 -117 -37 q-61 -12 -123 -12q-66 0 -123 14q-27 6 -59 19q-14 6 -27.5 12t-27.5 16q-14 8 -26.5 18.5t-22.5 20.5q-12 10 -21.5 22.5t-19.5 26.5q-35 49 -52 113q-16 57 -20 123q-4 29 -4 59.5t2 61.5t5 60.5t7 59.5q10 59 22.5 118t28.5 118q31 117 69 230.5t83 226.5q43 111 92 221 q23 55 47.5 109.5t50.5 109.5q51 111 103.5 217.5t107.5 212.5t111.5 212t116.5 210l57 104l59 105l62 104l29 52q16 29 32 51q10 18 31 23t39 -5t22.5 -31.5t-6.5 -37.5v-3q-16 -23 -32 -51l-33 -49q-16 -25 -31.5 -50.5t-32.5 -49.5q-16 -25 -31.5 -50.5t-31.5 -50.5 l-62 -102q-61 -104 -120.5 -206.5t-118.5 -207.5q-57 -104 -111.5 -208.5t-107.5 -213.5q-27 -53 -52.5 -107t-50.5 -108q-25 -55 -48 -109t-46 -110q-47 -111 -86 -221q-20 -57 -37.5 -113.5t-34.5 -113.5q-31 -113 -49 -232q-4 -29 -8 -58.5t-6 -57.5q-4 -59 0 -117 q4 -59 18 -115q8 -29 19.5 -54.5t27.5 -47.5q31 -47 78 -78q49 -31 105 -43q55 -12 114 -12q29 0 57.5 3t57.5 7q57 12 111.5 34.5t105.5 51.5q47 29 96 65q23 18 45.5 37t44.5 39q45 41 85 83t79 89q39 45 74 92t70 97q35 49 66.5 98t62.5 102q31 51 59.5 102.5t56.5 104.5 q29 53 55.5 105.5t53.5 105.5t52.5 107.5t47.5 109.5q25 53 48.5 108.5t46.5 110.5q23 53 45 109.5t45 112.5q20 55 40.5 110t41.5 113l79 225l37 113l37 112q0 2 1 3t1 6l254 911q14 45 60 35q18 -6 27 -22.5t5 -35.5v-2q-6 -25 -16 -57l-16 -57l-33 -115l-43 -139 l-1016 -3476q-4 -20 -25 -12q-18 5 -14 25z" />
<glyph unicode="V" horiz-adv-x="1869" d="M588 2255l-461 -3058l3119 3578q14 16 34.5 17t37.5 -13q16 -14 18 -34.5t-12 -37.5l-2 -2l-3207 -3573q-10 -12 -25 -2q-8 8 -4 14l414 3123q4 18 18 29.5t31 9.5q18 -4 30.5 -18.5t8.5 -32.5z" />
<glyph unicode="W" horiz-adv-x="2465" d="M113 1716l88 -1777l985 1933q10 16 31 10q12 -8 10 -20l-111 -2808l2310 3799q10 18 32 23.5t40 -5.5q16 -12 21.5 -32.5t-5.5 -38.5l-2402 -3814q-6 -14 -22 -6q-6 6 -7 14l97 2771l-975 -1894q-8 -12 -23 -6q-8 2 -8 12v2l-137 1833q0 16 9 27.5t26 11.5q16 2 27.5 -7 t13.5 -26v-2z" />
<glyph unicode="X" horiz-adv-x="2670" d="M78 -625q109 113 218.5 221.5t221.5 215.5q113 106 226.5 209.5t230.5 205.5q233 207 466.5 407t469.5 402l55 49l-291 1078q-4 20 6.5 38.5t30.5 22.5q20 6 38.5 -4t25.5 -31v-2l258 -1044q86 76 169 151.5t169 151.5q115 104 225 210.5t219 217.5t210 224.5t198 234.5 q47 59 92 120.5t88 124.5t82 128t75 133q10 18 30 24t38 -4q20 -10 26.5 -29.5t-3.5 -40.5q-39 -70 -80 -135t-86 -131q-88 -127 -189 -250q-98 -123 -203.5 -236.5t-216.5 -224.5t-223 -215t-229 -208q-92 -82 -184.5 -163t-186.5 -159l440 -1774q4 -18 -14 -22 q-20 -8 -24 14l-469 1727q-8 -8 -15.5 -14.5t-15.5 -12.5q-238 -201 -473.5 -397.5t-470.5 -399.5q-236 -205 -463 -410.5t-445 -426.5q-12 -14 -26 0q-12 12 0 24z" />
<glyph unicode="Y" horiz-adv-x="2258" d="M887 2214l762 -1522l1378 1985q12 18 33.5 22t38.5 -8q16 -12 20 -33.5t-8 -38.5l-1428 -1996l41 -80q8 -14 -8 -23q-12 -6 -20 6l-37 64l-1591 -2226q-10 -14 -23 -4q-12 8 -4 20l1583 2277l-829 1508q-10 18 -4 38.5t24 30.5t38.5 5t31.5 -25h2z" />
<glyph unicode="Z" horiz-adv-x="1722" d="M795 1765l2105 672q20 6 38.5 -3t27.5 -30q6 -31 -13 -49v-2l-2834 -3150l2152 668q14 6 23 -10q4 -18 -13 -23l-2213 -688q-14 -6 -23 10q0 12 4 19l2714 3111l-1958 -557q-16 -4 -21 12q-4 6 0.5 12t10.5 8z" />
<glyph unicode="[" horiz-adv-x="423" d="M659 1346l-223 -7l-420 -1540h220q20 0 20 -20t-20 -21h-246q-20 0 -21 21v4l389 1610v2q4 14 15.5 23t27.5 7l258 -6q16 0 26.5 -11t8.5 -28q0 -14 -10.5 -24t-24.5 -10z" />
<glyph unicode="\" horiz-adv-x="1058" d="M903 -379l-821 1981q-10 18 -1 37.5t28 29.5q23 8 41 0t26 -29l2 -2l762 -2003q8 -18 -10 -26q-19 -8 -27 12z" />
<glyph unicode="]" horiz-adv-x="520" d="M-188 -201h241l367 1536l-184 11q-35 4 -35 38q4 31 35 35l245 13q20 2 34.5 -11.5t14.5 -34.5q2 -4 1 -7t-1 -7l-2 -2l-438 -1595v-2q-8 -14 -20 -15h-258q-20 0 -21 21q1 20 21 20z" />
<glyph unicode="^" horiz-adv-x="694" d="M96 874l332 267h2q14 12 33.5 11t30.5 -17l6 -9l114 -227q8 -14 -8 -27q-14 -8 -24 7l-136 153l-329 -190q-14 -10 -27 8q-8 14 6 24z" />
<glyph unicode="_" horiz-adv-x="1202" d="M1010 -131l-916 -80q-10 -2 -18 6t-10 19q0 27 22 26l916 94q29 4 36 -28q4 -33 -28 -37h-2z" />
<glyph unicode="`" horiz-adv-x="991" d="M899 1208l-811 252q-20 4 -29.5 23.5t-5.5 40.5q8 20 26.5 29.5t39.5 2.5q2 0 4 -2l790 -313q14 -8 11 -22q-7 -15 -25 -11z" />
<glyph unicode="a" horiz-adv-x="507" d="M233 889l-4 -2q-2 -2 -6 -2l-10 -6l-20 -13q-10 -6 -19.5 -13t-19.5 -15q-37 -31 -72 -76l-33 -41l-29 -43q-16 -23 -28 -46.5t-27 -45.5q-12 -23 -24.5 -47.5t-22.5 -49.5t-20.5 -49t-20.5 -49l-18 -51l-17 -51q-16 -55 -24 -103q-4 -14 -5 -26.5t-3 -26.5 q-2 -12 -3.5 -25.5t-1.5 -25.5q0 -16 2 -25q0 -10 5 -22q6 -12 10 -17q2 -2 6 -2q0 -2 6 -2h8q2 2 4 2t7 2l18 13q10 8 18.5 17t16.5 20l31 43q8 10 15 21t13 24l27 47l24 47l23 49l22 49q10 25 19.5 49.5t19.5 51.5q4 12 9.5 24t9.5 25l10 26q4 16 8 25v2q14 33 47 18 q25 -10 21 -37l-6 -49l-6 -51q-4 -25 -6.5 -49.5t-4.5 -50.5q-2 -25 -3 -49.5t-1 -49.5v-30l8 16q10 18 20.5 36.5t20.5 37.5q20 37 41 73.5t43 73.5l88 144l90 143q4 8 13.5 9t17.5 -3t9 -13t-3 -18q-23 -35 -44 -70.5t-44 -72.5q-23 -35 -44 -70.5t-44 -72.5 q-23 -35 -42 -72t-40 -74q-10 -18 -20 -36.5t-21 -36.5l-37 -74q-4 -10 -12 -13.5t-18 1.5q-6 2 -8 8q-4 4 -6.5 8t-4.5 8q-4 12 -4 15q-4 8 -4 15t-2 13q-4 14 -4 26.5t-2 26.5q-2 27 -2 52.5v52.5q0 6 1 12t1 12l-19 -34q-6 -12 -12 -24.5t-14 -22.5l-25 -50l-26 -47 l-29 -47q-16 -25 -31.5 -47t-34.5 -45q-10 -10 -19 -20.5t-21 -20.5q-8 -8 -25 -16l-16 -6q-4 -2 -11 -3h-8q-14 0 -20 3l-17 12q-10 6 -12 14q-4 4 -5 7t-3 7q-6 14 -6 31l-4 31q0 14 1 27.5t3 27.5t3 27.5t5 28.5q10 55 24.5 107t30.5 106q18 53 40 103t44 101 q12 25 25.5 49.5t27.5 47.5q6 12 13.5 24t15.5 25q6 10 14.5 22.5t16.5 22.5q8 12 16 23.5t19 21.5q20 27 38 43q20 25 43 41q16 12 25 16q4 4 7 5t7 3q4 4 7 4l6 5q16 8 31.5 3t25.5 -20q8 -16 3 -31.5t-21 -23.5q-1 -2 -5 -2z" />
<glyph unicode="b" horiz-adv-x="919" d="M-20 719l507 862l2 2l5 6q8 16 24.5 20.5t30.5 -5.5q14 -8 18 -21.5t0 -26.5v-2l-41 -104l-39 -102l-75 -209q-37 -104 -72 -209t-68 -211q-35 -106 -66.5 -212t-60.5 -212l-71 -275q10 16 17 35t15 35l103 215q25 55 49.5 109.5t50.5 107.5q12 29 25.5 54.5t27.5 52.5 l31 53q8 14 16.5 26.5t18.5 26.5q12 16 21 25l24 24q14 10 33 21l20 8q4 0 6.5 1t6.5 1h22l10 -6l11 -6q8 -6 12 -12l6 -13q4 -8 4 -12q4 -12 4 -18l4 -19q2 -16 1 -32.5t-1 -32.5q-6 -63 -18 -121q-12 -59 -31 -119q-6 -20 -13 -39.5t-15 -40.5l49 49l161 164l160 166 q4 6 13.5 7t13.5 -5q14 -16 2 -29l-158 -168l-162 -163l-129 -127l-22 -37q-14 -25 -37 -51q-20 -27 -43 -48q-12 -10 -24.5 -20t-28.5 -19q-16 -8 -31.5 -13t-34.5 -7q-20 -4 -24 18q0 14 8 21q39 33 76.5 67.5t78.5 69.5l7 12q14 20 26 52l23 51l37 110q8 29 14 56.5 t12 56.5l8 55l7 58v53q0 4 -1 6t-1 6q-6 -2 -13 -8l-18 -16l-19 -21l-32 -47l-31 -47q-16 -25 -30.5 -50.5t-29.5 -51.5q-16 -25 -29.5 -50.5t-27.5 -52.5q-16 -27 -29.5 -52.5t-27.5 -51.5q-29 -53 -54.5 -106.5t-52.5 -106.5l-53 -107l-49 -106q-10 -16 -27 -11 q-12 6 -12 23q23 111 46.5 218.5t49.5 215.5q55 215 117 430q31 106 63.5 212t67.5 212l33 99l-365 -562q-10 -18 -26 -6q-18 11 -6 27z" />
<glyph unicode="c" horiz-adv-x="557" d="M274 860h-8q-4 0 -6 2q-6 0 -10 -2q-8 0 -25 -4q-20 -6 -47 -22t-47 -35l-43 -41q-37 -41 -74 -96q-18 -25 -33.5 -50.5t-31.5 -54.5q-14 -29 -27.5 -56.5t-23.5 -56.5q-12 -29 -21.5 -58.5t-19.5 -57.5l-13 -60q-6 -31 -6 -61q-2 -14 -1 -28.5t3 -28.5q6 -31 21 -48 q6 -6 18 -14q6 -4 25 -8h24q6 2 13.5 3t13.5 5q14 4 26.5 11t26.5 16q12 8 24.5 16t24.5 19q25 20 47.5 40.5t45.5 42.5q12 10 23 22.5t22 23.5q23 23 41 47q23 23 42 47t39 49t40 49.5t38 48.5q20 25 39 50.5t37 52.5q10 12 18.5 24t16.5 27l37 51q10 18 26 6q18 -10 6 -26 v-3l-36 -51q-10 -12 -19.5 -25.5t-19.5 -25.5l-76 -102q-20 -25 -38.5 -49.5t-41.5 -49.5q-20 -25 -39.5 -49t-42.5 -49q-10 -12 -20.5 -23.5t-20.5 -23.5l-45 -47q-23 -23 -46.5 -44.5t-47.5 -41.5q-12 -10 -25.5 -19.5t-27.5 -19.5q-27 -18 -60 -33q-8 -4 -16 -5t-19 -3 q-2 -2 -8 -2h-28q-18 2 -37 12q-10 4 -17.5 10.5t-13.5 12.5q-12 12 -20 32q-10 18 -13 35q-6 33 -6 68q2 66 19 131q8 31 17 62.5t21 60.5q23 63 52 119q14 29 29.5 57.5t31.5 56.5q16 29 35.5 54.5t42.5 52.5t46.5 49t51.5 45q33 20 64 33q10 4 19 6t20 4q6 2 20 2h21 q16 -2 27 -15.5t11 -29.5q-2 -16 -15.5 -27.5t-29.5 -9.5z" />
<glyph unicode="d" horiz-adv-x="786" d="M125 754h-14q-4 0 -13 -4q-8 -4 -15 -9.5t-15 -11.5q-16 -12 -29.5 -27.5t-28.5 -31.5l-24 -33l-25 -35q-12 -18 -24.5 -36.5t-22.5 -37.5q-10 -18 -20.5 -36.5t-20.5 -38.5l-37 -78q-10 -20 -17 -40t-16 -40q-8 -20 -15 -41t-11 -41l-10 -41q-6 -23 -7 -43q-4 -20 0 -39 q2 -4 2 -7t5 -7l2 -4q2 -2 6 -2q4 -4 14 0l16 6l19 10l16 12q16 12 29 29l29 33q12 16 24 33.5t25 35.5q12 18 23.5 37t21.5 37l43 76l39 78q20 39 38.5 77.5t37.5 77.5l69 160l68 162l63 162q33 82 62.5 163.5t58.5 163.5q16 41 29.5 83t27.5 83l29 82l21 60l6 22v2 q6 16 21.5 23.5t31.5 1.5t22.5 -20.5t2.5 -30.5l-3 -3h3l-7 -14q-8 -25 -15 -50.5t-13 -49.5q-10 -29 -18.5 -58.5t-16.5 -60.5l-68 -236q-33 -119 -63.5 -236.5t-59.5 -238.5q-31 -113 -55 -237q-29 -121 -49 -240q-10 -61 -19.5 -121.5t-15.5 -120.5q-6 -61 -6 -120 q-4 -31 0 -62v-16l14 16l37 53q39 57 72 109q35 55 67.5 110.5t67.5 110.5q33 57 65.5 112.5t63.5 112.5q33 57 66.5 120t64.5 120q8 16 25 8q14 -10 8 -24q-33 -59 -65.5 -122t-65.5 -120l-131 -225q-33 -57 -67 -112.5t-68 -110.5q-33 -51 -72 -109l-37 -53 q-10 -14 -20.5 -27.5t-20.5 -26.5q-10 -14 -27 -2q-6 2 -6 11q-4 16 -6 31.5t-4 31.5t-2 31.5v32.5q0 31 1 61.5t3 61.5q4 63 12.5 124.5t18.5 120.5q18 127 43 244q10 61 23.5 121.5t25.5 120.5q18 86 37.5 168t40.5 168l-23 -56l-139 -321q-37 -80 -75 -159t-79 -157 q-10 -20 -20 -38.5t-21 -39.5l-43 -75q-23 -39 -46 -76t-52 -72l-31 -35l-32 -30l-19 -15l-20 -10q-8 -4 -25 -8q-4 -2 -14 -2h-14l-17 8l-10 12q-6 8 -10 25q0 8 -1 13t-1 12q0 16 2 24q2 41 16 88q6 23 12 43.5t15 40.5q6 23 14 42.5t16 41.5q16 41 35 81t39 79 q16 37 41 78l25 39l24 36q6 10 12.5 18.5t14.5 18.5l31 37q10 8 19 16.5t19 16.5l27 12q12 4 16 4q4 2 11 2h10q16 0 26.5 -11t8.5 -28q0 -16 -10.5 -26t-26.5 -8z" />
<glyph unicode="e" horiz-adv-x="649" d="M-76 360l-24 -104q-4 -27 -8.5 -52.5t-8.5 -51.5q-6 -57 -4 -105q0 -27 6 -51q2 -23 15 -45q8 -20 26 -31q8 -6 19 -6h6l2 -2h2q8 0 12 2q10 0 22.5 4t22.5 8t22.5 10.5t22.5 14.5q23 14 42.5 30.5t39.5 34.5l74 78l68 84q35 43 65.5 86t61.5 90q31 45 59.5 90t56.5 93 l27 47l29 47l24 47l27 47q4 10 13 12t18 -2q10 -4 12 -13t-2 -17l-56 -97q-8 -10 -14 -22.5t-14 -24.5l-29 -45q-29 -47 -58.5 -93t-60.5 -91q-31 -47 -61.5 -91t-65.5 -87l-69 -86q-18 -20 -38 -41t-40 -39q-20 -20 -41 -38t-45 -34q-10 -10 -23.5 -16t-25.5 -13 q-14 -6 -28.5 -11t-31.5 -7h-32q-16 2 -33 12q-8 4 -15.5 9.5t-11.5 11.5q-6 6 -11 13t-9 13l-13 29l-8 29q-4 16 -5 29.5t-3 27.5q-2 57 0 113q4 29 7 55.5t7 54.5q8 55 19.5 109.5t27.5 107.5t35 105.5t41 103.5l25 51q6 12 13 24.5t15 25.5q12 25 31 49l39 47l23 20 q6 6 13 11.5t15 9.5q12 8 37 14q4 0 10.5 1t10.5 1h12l12 -4q6 -2 13.5 -4t11.5 -6q10 -6 18 -17q10 -10 13.5 -18t7.5 -18t5 -18.5t3 -16.5q2 -10 2 -31q0 -16 -1 -30.5t-3 -28.5q-2 -16 -3 -29.5t-5 -28.5q-6 -29 -12.5 -54.5t-16.5 -53.5q-4 -14 -8 -26.5t-8 -26.5 l-11 -25l-4 -14l-6 -13q-23 -57 -53 -102q-8 -12 -16.5 -23.5t-18.5 -21.5q-23 -25 -45 -41q-10 -8 -27 -14q-8 -4 -15 -6.5t-17 -4.5h-19l-18 6q-4 2 -8.5 4.5t-8.5 6.5l-12 12q-4 8 -8 15.5t-6 15.5q-4 8 -5 15t-3 13q0 10 -1 20.5t-1 20.5zM0 573l-12 -53 q-10 -47 -15 -104v-25.5t4 -25.5q0 -10 7 -23q2 -6 10 -18q2 -6 12 -11q4 -2 17 -2l20 6l18 13q18 16 35 35q8 10 15.5 21t13.5 22q14 23 23.5 46t17.5 48l4 12l4 12l6 27l13 51q4 14 6 26.5t4 26.5q4 12 5 25.5t3 26.5l6 51v51q0 14 -2 23l-4 18q-2 6 -6 10q0 2 -2 2h-8 l-15 -6q-4 -4 -8 -6t-8 -6l-17 -15q-8 -8 -15 -17t-15 -19t-15.5 -21.5t-13.5 -21.5q-14 -23 -26.5 -45.5t-24.5 -47.5l-23 -47l-10 -24z" />
<glyph unicode="f" horiz-adv-x="569" d="M-16 719q29 47 56.5 95t55.5 95q41 111 81 220.5t83 220.5l51 127l56 125q8 16 15 30.5t17 30.5q4 8 8.5 15.5t8.5 15.5t9 15t11 15l13 17l18 16q4 4 18 8q4 2 15 2h4l2 -2h6l16 -10q8 -6 13 -12l8 -17l4 -12v-24q0 -10 -1 -19.5t-3 -19.5q-4 -18 -10.5 -36t-12.5 -34 t-12 -31.5t-14 -31.5q-14 -33 -28.5 -64t-31.5 -61q-31 -59 -64.5 -119t-68.5 -119l-131 -213q-12 -31 -23.5 -61.5t-21.5 -61.5l-72 -203h2l7 -6l14 -12q8 -6 15 -12t16 -11q16 -10 32.5 -18t34.5 -16q37 -12 74 -19q41 -4 76 2q39 6 71 25q33 14 62 43q16 12 28.5 26.5 t22.5 30.5q23 29 39 68q8 14 25 8q16 -8 8 -23q0 -2 -2 -2q-10 -18 -21.5 -34.5t-23.5 -32.5q-31 -37 -58 -62q-31 -29 -67 -49q-39 -20 -78 -28t-86 -9q-37 0 -84 11q-41 8 -80 24l-35 12q-4 -8 -4 -12l-22 -55l-41 -113l-80 -227l-154 -453l-153 -454q-29 -86 -56.5 -171 t-56.5 -171l-37 -115q-6 -14 -22 -10q-14 4 -11 20q4 12 4 15l35 116l39 129l6 21l19 59l53 180l82 258l8 27l12 37q4 18 10.5 36.5t12.5 37.5v4l16 51l19 59q27 86 53.5 173t54.5 173l74 230l39 115l20 57q4 14 10.5 27.5t10.5 29.5l4 6l39 119l-23 -33q-10 -14 -24 -4 q-14 12 -4 23v2zM385 1421q8 16 15.5 30.5t13.5 31.5l28 59l25 62q4 16 9 30.5t9 30.5t4 25l-2 -2l-16 -27l-16 -29q-8 -14 -14.5 -28.5t-14.5 -30.5l-55 -121q-12 -33 -25.5 -63.5t-26.5 -61.5q-10 -25 -19 -50.5t-19 -49.5zM502 1702l2 2q-2 0 -2 -1t-2 -1h2z" />
<glyph unicode="g" horiz-adv-x="624" d="M123 631v41q0 6 -2 8v12q0 12 -4 25l-4 8l-2 2l-2 2q-2 0 -2.5 1t-2.5 1h-10q-2 0 -6 -4l-10 -6q-10 -6 -19 -19l-36 -45l-35 -51q-16 -27 -30.5 -53.5t-29.5 -54.5q-16 -29 -28.5 -57.5t-26.5 -57.5q-12 -29 -23.5 -58.5t-21.5 -58.5l-18 -61l-15 -60q-2 -16 -4 -30.5 t-2 -30.5v-29q4 -18 8 -24l6 -8l7 -5h8q4 0 12 5q6 2 23 14q4 4 10 9t10 11q18 18 39 49l35 52q16 29 31.5 55.5t31.5 54.5q16 29 29.5 56.5t28.5 56.5q29 59 54 116.5t52 116.5l47 117l23 60q6 16 12 30.5t10 30.5q8 18 29 12q16 -6 12 -26l-2 -2h2l-4 -7l-438 -1417 q31 66 62.5 130.5t64.5 127.5q70 137 141.5 270.5t149.5 264.5t157.5 259t165.5 255q10 18 27 6q18 -10 6 -27q-84 -129 -162 -257t-151 -261q-74 -133 -143.5 -266t-135.5 -270q-131 -270 -248 -551q-29 -72 -56.5 -140.5t-53.5 -140.5l-51 -143l-25 -70l-12 -43l-4 -12 l-7 -17v-2q-6 -16 -20 -23t-31 -1q-16 4 -24.5 19.5t-1.5 31.5l620 1892l-37 -75q-14 -29 -28.5 -57.5t-30.5 -57.5q-14 -29 -30.5 -56.5t-33.5 -56.5q-14 -27 -34 -53q-18 -27 -41 -53q-6 -6 -11.5 -12.5t-13.5 -10.5q-14 -14 -29 -20q-10 -6 -20 -6q-4 -2 -10 -2h-7l-2 2 h-4q-8 2 -20 10q-6 6 -14 18q-8 18 -13 35q-2 10 -2 18.5v16.5v17.5t2 17.5q0 8 1 15t1 18q6 33 12.5 64.5t16.5 62.5q33 125 86 245q12 29 26.5 58.5t30.5 58.5q16 33 33 57q18 27 43 56l27 26l16 13l21 10l14 4h12v2h4l23 -4q6 -2 13 -4t13 -6q14 -8 21 -19q6 -8 14 -24 l6 -23v-20.5t-2 -20.5l-4 -16q-2 -4 -2 -10l-4 -9l-8 -16q0 -2 -4 -6q0 -4 -4 -8q-10 -16 -29 -7q-8 9 -8 15z" />
<glyph unicode="h" horiz-adv-x="929" d="M-18 719l213 350l106 176l43 74l16 45q16 49 34 97t36 98q10 25 19.5 49t19.5 47q4 12 10 24.5t13 24.5q8 16 14 25l16 26l6 6q2 6 9 8q2 2 12 11q2 0 10 4q4 0 7 1t7 1h9q2 -2 4 -2h2h4l10 -6l10 -9l9 -10q6 -12 6 -18q2 -4 2 -12q0 -14 -2 -21q0 -4 -1 -8t-1 -8l-9 -29 q-4 -14 -10 -26.5t-10 -24.5l-23 -47l-49 -92q-14 -23 -26.5 -45.5t-26.5 -45.5l-47 -79q-31 -88 -59.5 -176.5t-57.5 -178.5l-61 -196q-16 -47 -29.5 -96.5t-30.5 -98.5q-47 -152 -92 -300t-90 -298l23 43l116 217q29 53 59.5 106.5t61.5 106.5l62 107q16 27 32.5 53 t32.5 51q16 27 33.5 52.5t38.5 52.5q10 12 19.5 24t21.5 25l6 6l6 6l14 12q8 4 13 8q4 0 8 2h6l2 3h2q4 0 6 -1.5t6 -1.5l13 -6l14 -12l6 -14l4 -11q0 -4 1 -9t1 -9q2 -10 2 -18.5v-16.5q0 -16 -1 -31.5t-3 -31.5t-3 -31.5t-5 -32.5l-10 -61q-10 -59 -24.5 -119.5 t-28.5 -120.5l-39 -143l415 559q10 14 25 4q14 -10 4 -25l-475 -639q-10 -14 -25 -4q-10 6 -6 19l51 239q12 59 23.5 120t22.5 120q4 31 8 60.5t8 60.5q2 14 3 28.5t1 28.5q0 18 -2 27l-6 -6q-10 -10 -18.5 -21.5t-18.5 -23.5q-18 -23 -35.5 -48.5t-34.5 -50.5 q-66 -102 -129 -209l-123 -210l-122 -213l-119 -209l-2 -4q-8 -16 -23 -9q-12 8 -8 21q25 100 49.5 199.5t50.5 199.5q27 100 53.5 198.5t55.5 198.5l55 197l60 199l24 84l-12 -21l-60 -86l-59 -84q-29 -41 -59.5 -83t-61.5 -83q-8 -12 -24 -4q-12 9 -4 25z" />
<glyph unicode="i" horiz-adv-x="458" d="M57 702l-16 -49l-16 -49q-8 -25 -15.5 -49.5t-13.5 -50.5l-29 -101l-24 -100q-6 -25 -11.5 -50.5t-9.5 -49.5q-4 -27 -8 -52.5t-6 -50.5q-2 -12 -2 -24.5v-24.5q0 -16 2 -24q2 -4 2 -9.5t2 -9.5l2 -2l6 6q8 10 16.5 19.5t16.5 19.5l65 80l62 84l63 84l62 84 q59 86 118.5 171t118.5 173q12 16 31 6q16 -12 6 -31h-2l-244 -340l-61 -83l-61 -86l-64 -84l-63 -84l-17 -21l-18 -20l-10 -11q-2 -2 -5 -2l-4 -4l-2 -2h-4v-2h-12q-8 0 -12 2q-8 4 -11 8q-6 4 -8 8.5t-6 8.5l-6 16l-4 14q-2 10 -2 29q-2 14 -1 27.5t1 27.5q4 53 11 104.5 t17 104.5l19 105l22 102l23 103l12 51l13 51q4 16 18 25.5t31 5.5q16 -4 25 -18.5t5 -30.5q-2 -3 -2 -5zM115 1270l24 112q4 16 17.5 26.5t29.5 6.5q39 -10 33 -49l-2 -4l-37 -111q-4 -12 -17 -18t-26 -2q-28 10 -22 39z" />
<glyph unicode="j" horiz-adv-x="385" d="M18 711q-59 -139 -118.5 -279.5t-116.5 -279.5q-57 -137 -113.5 -274.5t-111.5 -278.5l-125 -320l53 105q37 72 74 142.5t78 141.5q41 70 82.5 138.5t86.5 134.5q47 68 93.5 133t93.5 131l188 260l189 260q8 16 24 4q14 -10 4 -24l-182 -265l-184 -262q-47 -66 -92 -132 t-88 -134q-88 -137 -164 -274q-39 -70 -75 -140.5t-71 -142.5t-67.5 -144.5t-65.5 -146.5q-66 -147 -128 -293.5t-124 -296.5q-6 -16 -21.5 -22t-31.5 0t-22.5 20.5t-2.5 28.5l46 145l49 142q27 72 52 140t54 140q53 139 109.5 276.5t113.5 276.5q59 139 118 275.5 t118 273.5t122.5 277.5t125.5 275.5q8 16 22 8t8 -20zM133 1233l25 84q4 16 19.5 24.5t31.5 4.5q16 -6 24.5 -20.5t4.5 -31.5l-5 -8l-38 -78q-6 -12 -19.5 -17t-25.5 3q-10 4 -15.5 15.5t-1.5 23.5z" />
<glyph unicode="k" horiz-adv-x="1114" d="M-23 713q29 37 58 82l51 86q27 43 50.5 87t47.5 89l187 360l90 182l47 91l10 22l12 23l21 47l20 51q8 16 15 25l10 12q2 6 12 12l8 6l17 8q2 0 4 1t6 1h4q4 0 15 -2q8 -4 16 -10l8 -10l4 -12q2 -2 2 -6v-9q0 -8 -2 -10v-8l-4 -14q-2 -14 -5 -26.5t-7 -25.5l-31 -98 l-31 -98q-33 -96 -66.5 -191.5t-68.5 -191.5q-18 -47 -35.5 -95.5t-33.5 -95.5l-37 -94l-35 -94q-37 -96 -73 -190.5t-73 -188.5q-29 -70 -54 -138.5t-54 -135.5l80 92l155 178q41 45 80 88t80 86t82 85t88 83q23 18 46.5 36.5t51.5 35.5q25 18 56 30l33 13q10 2 19 3t19 1 h7q4 -2 8 -2q4 -2 6 -2t4 -2q8 -4 12 -9q8 -8 11 -14l4 -14q0 -6 -1 -10.5t-1 -8.5l-4 -12l-5 -10l-10 -15q-4 -8 -10 -14t-10 -12l-21 -23q-23 -23 -44 -43t-44 -41l-90 -75l-92 -74q-45 -35 -89 -71t-91 -71q-2 -27 -1 -53t1 -55v-117l4 -117l8 -116q2 -14 3 -28.5 t5 -29.5q2 -16 3 -29.5t5 -27.5q2 -6 3 -13t6 -14q4 -16 8 -26l6 -10q4 -4 6 -5q4 0 8 5l21 18l18 23q10 10 18.5 21t16.5 24l67 96q66 98 126.5 197.5t119.5 201.5l117 205l115 205q8 16 24 8q16 -12 6 -25q-57 -104 -115.5 -205.5t-117.5 -203.5l-123 -201 q-31 -51 -61.5 -101t-63.5 -100l-67 -96l-37 -47q-12 -16 -21 -22q-10 -12 -22 -23l-9 -6q-4 0 -8 -4q-2 0 -3 -1t-5 -1h-6q-6 0 -14 4q-6 4 -9.5 7t-7.5 7l-8 17q-4 8 -6 14t-4 14q-4 10 -8 31q-4 14 -6.5 28.5t-4.5 30.5l-6 60q-6 59 -9 117.5t-5 117.5t-3 117.5t-1 118.5 q0 6 8 14l90 76l90 76q86 78 168 161q23 20 42.5 41t37.5 41l18 23h-2q-27 -10 -47 -25q-49 -29 -94 -63q-23 -16 -46.5 -34.5t-45.5 -37.5l-86 -78q-43 -39 -85 -80t-83 -84t-80 -86t-78 -88l-73 -92l-37 -45q-20 -23 -35 -47q-12 -16 -27 -4q-10 10 -6 20v2 q33 98 65.5 192.5t67.5 190.5l266 766q35 96 68 191.5t64 191.5l30 97q4 12 8.5 24.5t8.5 24.5l-19 -25l-12 -20l-12 -23q-14 -23 -25.5 -44t-24.5 -44q-25 -45 -47 -90t-45 -90q-47 -92 -91 -182t-91 -183q-47 -90 -98 -178q-12 -23 -25.5 -43t-28.5 -43q-14 -23 -27 -43 t-30 -43q-12 -12 -26 -2q-13 11 -3 25zM657 1817l2 2q-2 0 -2 -1t-2 -1h2z" />
<glyph unicode="l" horiz-adv-x="638" d="M-20 707l22 53l27 49q12 25 25.5 49.5t27.5 48.5l57 97l60 94q47 74 94 146.5t94 144.5q6 20 13.5 38.5t15.5 38.5q18 53 37.5 105.5t40.5 105.5l45 105l26 51l27 51l16 25q4 6 9.5 13t11.5 13l12 13l16 14q12 8 27 10q2 2 10 2h11q2 0 14 -4q4 0 7 -2t7 -4q12 -8 17 -14 l10 -15l4 -16q4 -12 0 -23q0 -14 -2 -20q-4 -20 -8 -33l-13 -28q-10 -29 -23 -53.5t-30 -49.5l-57 -96q-31 -47 -61.5 -93t-63.5 -93l-41 -62l-49 -137l-72 -211l-35 -105l-33 -106l-135 -424l-65 -213l-49 -160l4 4l45 43l88 86q43 45 85 90.5t83 92.5t80 95t75 97 q37 51 72 101.5t68 103.5q6 14 22 6q14 -10 6 -22q-35 -53 -69.5 -105.5t-71.5 -101.5q-37 -51 -77 -100.5t-81 -96.5t-83 -92t-85 -90l-90 -88l-45 -43q-8 -8 -24 -21l-23 -20q-14 -10 -24 2q-4 4 -5 14l56 217q14 53 27.5 107.5t29.5 107.5q29 109 58.5 215.5t62.5 214.5 l31 107q10 27 17 53.5t15 52.5q8 27 16.5 52.5t16.5 54.5l-57 -84q-33 -47 -63.5 -92t-61.5 -92q-16 -23 -30.5 -46.5t-28.5 -46.5q-8 -12 -15.5 -23t-13.5 -24q-8 -12 -14.5 -24t-12.5 -25q-6 -14 -22 -6q-16 9 -8 21zM618 1753l27 47l23 47v2l-6 -8q-12 -23 -24.5 -46 t-25.5 -48q-4 -8 -8 -21q4 6 7 13.5t7 13.5z" />
<glyph unicode="m" horiz-adv-x="993" d="M55 698l-213 -497l90 161q29 51 57.5 100.5t59.5 100.5q27 49 62 99q29 45 67 94l19 24l20 23q12 16 21 22q6 6 12 12.5t16 10.5q12 8 21 10q4 2 8 3t10 1h10q4 0 6.5 -1t6.5 -1l20 -12l10 -14q6 -6 7 -13q4 -8 4 -12l4 -18v-19v-16t-2 -17q0 -8 -1 -15t-1 -15l-7 -29 q-2 -14 -5 -28.5t-7 -28.5q-6 -29 -14 -56.5t-17 -56.5l-34 -111l-17 -55l-18 -55l-45 -139l16 24l31 47l33 45q33 51 63 94q16 23 32.5 46.5t33.5 46.5l37 45q18 23 41 41q6 6 12 11t12 9l27 19q4 4 16 8q4 2 9 4t10 2q4 2 12 2q2 2 6 2h10q2 0 4 -2h6l15 -4q16 -10 24 -21 q8 -12 13 -22q4 -6 4 -11.5t2 -9.5q0 -4 1 -9t1 -9q0 -10 -1 -17.5t-1 -15.5l-4 -31q-4 -16 -8 -28l-7 -29l-18 -53q-10 -29 -18.5 -54.5t-16.5 -52.5l-6 -26q-4 -16 -4 -25l2 2q8 6 18 19l19 20q10 10 17 20.5t18 20.5q8 12 16 23.5t16 21.5q10 10 17.5 22.5t15.5 22.5 q33 47 64.5 92t60.5 92q31 47 60.5 95.5t58.5 95.5q10 18 29 8q16 -10 8 -29q-2 0 -2 -2q-63 -92 -125 -185t-127 -185q-16 -23 -32.5 -45.5t-33.5 -44.5l-35 -45l-18 -23l-23 -20l-12 -13q-2 0 -10 -4q-2 0 -3 -1t-3 -1h-13l-10 6l-6 8l-4 13v18q0 20 2 29q4 20 4 29 l23 112l8 53l4 27q0 8 1 14.5t1 12.5q2 8 2 24v25l-4 14l-16 -6l-19 -12l-20 -17q-10 -8 -20.5 -16t-20.5 -18l-39 -37q-41 -39 -78 -80t-72 -84l-35 -45l-34 -43l-64 -92q-8 -8 -14 -2q-8 4 -4 10v2v2l2 2l28 104l31 111l12 57l15 56q6 29 11 56.5t9 55.5q4 29 8.5 56.5 t8.5 56.5l6 55q2 10 2 27q2 10 2 26v27l-2 -2l-19 -18l-18 -21l-18 -20l-70 -88l-68 -93q-33 -47 -65.5 -94t-63.5 -94q-33 -47 -63.5 -96t-59.5 -99q-31 -49 -59.5 -98t-54.5 -100q-8 -16 -23 -8q-16 8 -8 22l2 2h-2l2 4l275 760q14 39 53 25q16 -6 22 -20.5t2 -31.5z" />
<glyph unicode="n" horiz-adv-x="790" d="M96 850l-155 -383l-117 -289l-21 -47l50 64q16 23 31.5 42t31.5 39l131 162q35 39 69 78l68 78q18 20 36 38.5t38 37.5l41 37q4 4 10 8t13 8l16 8q2 2 4 2h2q0 2 4 2h4q2 2 8 2h5l4 -2h4q8 -4 16 -10q6 -4 10 -10q6 -6 11 -19l8 -30q2 -16 3 -29.5t1 -26.5q2 -29 1 -54.5 t-3 -51.5q-4 -53 -7 -103.5t-5 -103.5q0 -12 -1 -24.5t1 -24.5v-24.5t4 -24.5q0 -6 2 -11q0 -4 1 -5t1 -3v-2h2l6 6l18 15l33 39l29 38q16 23 29.5 43.5t27.5 42.5l55 89q25 39 52 88q27 45 51 89t49 91q10 20 31 10q18 -10 10 -31l-104 -180q-27 -45 -53.5 -89t-55.5 -89 q-14 -23 -27.5 -43.5t-29.5 -42.5l-31 -43q-16 -23 -35 -41q-4 -6 -10 -11t-10 -9l-15 -9q-4 -4 -8 -4q-8 -4 -12 -4q-10 0 -17 2q-8 4 -12 8q-8 8 -12 17q-4 4 -4 8t-2 8l-4 14q-4 14 -4.5 27.5t-2.5 28.5q0 12 -1 25.5t-1 27.5v102q0 27 1 52.5t1 52.5v51v24.5t-2 24.5 q0 16 -2 25q0 6 -1 12t-1 10q-2 4 -2 6.5t-2 4.5l-10 -9l-37 -32l-37 -35l-35 -37q-72 -76 -139 -152q-70 -78 -136.5 -155.5t-131.5 -157.5q-16 -23 -31.5 -42t-32.5 -40l-28 -39l-15 -24l-6 -13q-4 -4 -8 -12q-2 -6 -8 -8q0 -2 -1 -2t-1 -2h-2l-2 -2q-2 0 -3 -1t-3 -1 t-10.5 -1t-16.5 9q-4 10 -3 13t1 5v4q0 2 2 2v5l4 4q0 2 1 3t1 3l16 22l9 13l12 24q10 23 19.5 47.5t19.5 46.5l39 97l37 96q18 49 36.5 97t34.5 97q35 98 69 195.5t66 196.5q4 16 19.5 23t32.5 3q37 -14 26 -53q0 -2 -2 -2zM348 676v-2v2zM-334 -59h-2h2z" />
<glyph unicode="o" horiz-adv-x="641" d="M233 410q18 -25 35 -35l23 -6q16 0 24 2q23 2 52 20q20 10 45 35q23 18 43 40.5t39 47.5q39 53 67 100q16 29 30.5 54.5t29.5 54.5q10 16 30 10q18 -10 8 -31l-63 -108q-33 -49 -72 -102q-16 -25 -41 -50q-10 -12 -21 -24t-22 -23q-6 -4 -12 -10t-14 -10q-12 -12 -27 -21 q-6 -4 -13 -8t-16 -8q-18 -8 -34 -10q-8 -2 -17.5 -3t-19.5 1q-20 0 -37 8q-18 10 -33 20q-8 6 -20 23l-21 -47q-23 -53 -51 -101q-27 -45 -66 -90l-20 -20t-23 -21q-18 -16 -51 -30q-10 -4 -31 -9q-4 -2 -16 -2h-16q-16 0 -31 6q-16 6 -31 17l-22 26l-13 31q-8 25 -8 58 q-2 16 -1 29.5t3 27.5q2 16 3 29.5t5 27.5q6 29 12.5 54.5t16.5 52.5q10 29 19.5 54.5t19.5 49.5q20 49 49 101q6 12 12.5 24t14.5 25l31 47q16 25 34.5 46t40.5 44q23 23 54 37q18 8 34 10q8 2 23 2q6 0 10 -2h6l4 -2q16 -4 24.5 -17.5t4.5 -29.5l-6 -14l8 -5 q14 -18 21 -32q10 -18 12 -33q6 -35 6 -64v-28.5t-2 -28.5q-2 -16 -4 -29.5t-6 -27.5l-13 -56q-4 -14 -8 -25t-8 -24q6 -14 16 -28zM139 776q-20 -6 -39 -22q-10 -6 -18 -14.5t-19 -18.5q-8 -10 -16 -19.5t-16 -19.5l-31 -43q-8 -10 -15.5 -21.5t-13.5 -23.5 q-14 -23 -26.5 -46.5t-24.5 -47.5q-10 -23 -20.5 -47.5t-20.5 -51.5l-16 -50t-13 -52q-12 -49 -12 -102q0 -25 6 -50q10 -25 23 -34q18 -14 39 -15h10q8 0 10 2q12 0 23 6q25 10 41 25q20 14 37 37q10 10 17 20.5t15 20.5q6 10 13.5 21.5t13.5 23.5q27 43 45 94 q10 23 17.5 45.5t13.5 44.5v4q-6 16 -9 33t-8 33q-4 16 -5 32.5t-3 32.5q0 16 -1 32t1 32q0 35 4 66.5t9 64.5l2 4q0 2 1 4t1 4q-3 0 -15 -4z" />
<glyph unicode="p" horiz-adv-x="739" d="M129 1065l-344 -1155q18 37 31 74l43 96l22 47l21 49l45 94q10 25 22.5 48.5t24.5 46.5q10 25 22.5 48t24.5 46l53 92q25 45 56 92q16 23 32.5 44.5t34.5 41.5q20 23 41 39q23 20 47 35q14 6 28.5 11t31.5 9l16 4h18q4 0 7.5 -1t7.5 -1l14 -6l14 -10l11 -14q6 -12 6 -25 q2 -8 2 -20l-6 -33q-4 -14 -8.5 -27.5l-8.5 -25.5q-10 -27 -21 -51.5t-24 -47.5l-24 -47l-25 -47q-25 -47 -50.5 -92t-49.5 -92q-12 -23 -23.5 -46.5t-21.5 -45.5q-4 -12 -9.5 -23.5t-9.5 -24.5l-6 -22q-2 -2 -2 -8q8 -2 16.5 -2h18.5q23 4 47 12q20 8 43 25q10 8 21.5 15 t21.5 17q20 16 38.5 36t35.5 40l67 86q31 45 61.5 90t59.5 92l121 197q8 16 27 6q16 -12 6 -26l-121 -199q-29 -47 -59.5 -92t-63.5 -90l-68 -88q-33 -39 -79 -82q-10 -10 -21.5 -18.5t-24.5 -16.5q-12 -8 -24 -15.5t-27 -13.5q-14 -4 -28.5 -8t-30.5 -6q-29 -2 -62 8 q-12 4 -12 12l-2 2q-2 10 -2 17.5v15.5l6 29q4 14 7 27.5t8 25.5q10 27 20 51.5t21 46.5q10 25 21 49.5t24 47.5l45 94l24 47q4 12 10.5 23.5t12.5 23.5l20 47q4 10 9.5 22.5t9.5 22.5q4 12 8 24.5t6 22.5q4 12 4 19q-2 0 -4 -1t-4 -1q-23 -4 -39 -13l-39 -24 q-10 -8 -19.5 -15.5t-19.5 -17.5q-16 -16 -33.5 -34.5t-33.5 -37.5q-35 -41 -64 -83t-57 -87q-14 -23 -26.5 -45t-24.5 -45l-50 -92l-45 -94l-22 -49l-21 -47l-41 -97l-39 -98l-73 -195q-18 -49 -36 -99t-34 -99q-8 -23 -15 -47.5t-18 -46.5l-270 -910q-4 -16 -19.5 -24 t-31.5 -2q-16 4 -24.5 18t-4.5 31l2 2h-2l6 16l805 2560q8 18 27 13q20 -5 12 -25z" />
<glyph unicode="q" horiz-adv-x="731" d="M-942 -590l881 195l342 1044l-37 -76q-14 -29 -28.5 -57.5t-31.5 -56.5q-16 -29 -32.5 -56.5t-32.5 -56.5l-37 -55q-10 -14 -20.5 -26.5t-20.5 -26.5q-10 -12 -21.5 -24.5t-23.5 -25.5q-6 -4 -12.5 -10t-14.5 -10q-16 -12 -30 -18q-20 -10 -39 -11q-14 0 -21 2 q-16 4 -22 9q-10 6 -17 16q-8 12 -10 18q-4 10 -6 18.5t-4 18.5t-2 18.5v16.5l4 35q4 35 12 65q6 33 16.5 65t20.5 62q10 31 23.5 61.5t27.5 61.5q14 29 28.5 58.5t31.5 58.5l36 57q10 14 20.5 26.5t20.5 27.5q6 6 11.5 13t13.5 13l27 25q8 4 17 10t19 10l25 6h23 q20 -4 43 -12q10 -4 19 -10t17 -17q14 -16 23 -36q4 -10 6 -19.5t4 -19.5q0 -4 1 -7.5t1 -7.5l17 39q14 29 26.5 58.5t24.5 60.5q4 12 18 8q14 -6 11 -18l-3 -2h3l-7 -15l-395 -1294l68 14l30 58q279 532 613 1036q12 18 28 6q16 -10 7 -28q-322 -504 -594 -1041 q-2 -4 -4 -7t-5 -7l988 219q16 4 30.5 -6t18.5 -27q6 -39 -33 -49l-1036 -203q-55 -117 -108.5 -231.5t-104.5 -231.5q-61 -139 -117 -276l-53 -139l-25 -70l-12 -29l-2 -10l-4 -14l-6 -17q-6 -16 -21.5 -24t-32.5 -2q-16 4 -23 19.5t-1 31.5l315 954l-856 -168 q-14 -4 -18 13q-4 16 12 20zM248 668q4 31 3 61.5t-7 56.5q-4 16 -8 23l-13 16q-8 8 -14 11q-12 4 -21 4q-2 2 -6 2h-2q-2 0 -3 -1t-5 -1q-10 -4 -18 -13q-8 -4 -23 -18l-20 -21q-35 -45 -72 -100q-35 -53 -63.5 -108.5t-53.5 -114.5q-12 -29 -22.5 -59.5t-20.5 -59.5 q-10 -31 -12 -61q-6 -35 -4 -60q0 -12 4 -24l6 -11l6 -6l8 -4h11q12 0 24 6q6 2 12.5 5.5t12.5 7.5l24 18l43 45q20 25 39 50.5t35 52.5q18 27 34.5 54t33.5 56l61 113q8 16 15.5 33.5t17.5 33.5q-2 5 -2 13zM39 -430l-51 -10l-78 -254q61 131 129 264z" />
<glyph unicode="r" horiz-adv-x="823" d="M-23 719l242 411v3l4 6q8 14 23.5 18t29.5 -4q10 -8 15.5 -20.5t1.5 -24.5l-2 -4l-51 -135l-54 -138l-98 -276q-23 -70 -45.5 -139.5t-42.5 -139.5q-10 -35 -20.5 -70.5t-18.5 -70.5v-4q16 29 31.5 55.5t34.5 55.5q39 57 78.5 111.5t82.5 107.5q45 53 90.5 103t92.5 98 l98 94l51 47l25 22l14 11l6 6l8 6q12 10 28.5 8t27.5 -14q10 -10 10 -22.5t-4 -22.5l-2 -2q-2 -2 -3 -5.5t-5 -7.5l-7 -12l-16 -27l-29 -51q-14 -29 -27.5 -54.5t-25.5 -53.5l-20 -56q-4 -16 -8.5 -29.5t-8.5 -27.5q-2 -8 -3 -14t-1 -15q-4 -14 0 -24q0 -6 2 -11.5t4 -9.5 q4 -4 7 -4q2 -2 8 -2q4 -2 12 -2q4 2 12 2q8 2 25 10q27 14 49 33q23 18 41 41q20 20 39 45q37 47 70 98l30 54q8 10 15 26l8 13l6 14q8 18 27 10q8 -4 11 -12t-1 -16v-2q-12 -16 -17 -27l-18 -25l-33 -53q-18 -25 -35.5 -50.5t-38.5 -47.5q-20 -25 -40.5 -47.5t-43.5 -44.5 q-23 -20 -53 -37q-12 -8 -33 -15q-4 0 -8 -1t-8 -1q-6 -2 -18 -2q-6 2 -11.5 2t-11.5 4q-12 8 -16 15q-8 6 -13 18q-4 12 -4 19q-6 14 -2 34v15.5t2 17.5l13 62l18 59q6 20 12.5 39.5t14.5 40.5q-20 -16 -40 -33.5t-38 -36.5q-49 -45 -95 -92t-91 -98q-45 -49 -87.5 -100.5 t-80.5 -106.5q-78 -111 -140 -225q-8 -18 -24 -11q-12 6 -13 21h3v6q8 70 24 141q8 35 16.5 72t18.5 72q18 72 37.5 142.5t42.5 139.5q23 72 45 141.5t45 141.5q0 4 2 6l-113 -164q-10 -14 -28 -4q-15 11 -7 27z" />
<glyph unicode="s" horiz-adv-x="491" d="M29 616q8 -39 18 -76.5t23 -76.5q27 -74 61 -148l8 -18l6 -8l2 -4l3 -6l12 -29l2 2q41 57 81 113.5t81 113.5q39 59 75.5 117.5t71.5 118.5q10 18 29 8q16 -10 6 -29q-70 -119 -150 -237q-39 -59 -78.5 -115.5t-80.5 -114.5q-6 -8 -12.5 -15t-10.5 -15l6 -47 q0 -23 -2 -44.5t-8 -44.5q-10 -41 -35 -81q-20 -37 -51 -70q-14 -16 -28.5 -30.5t-30.5 -29.5q-16 -14 -34 -27t-34 -24q-10 -6 -18.5 -12t-18.5 -10q-12 -8 -18 -10l-8 -7l-5 -2l-6 -2q-18 -12 -26 8q-6 8 -2 19q16 33 32.5 64.5t34.5 60.5q18 31 37 60.5t39 58.5l119 163 l-8 29l-17 33l-4 8l-4 10l-10 19q-35 70 -68 151q-31 82 -49 162q-10 43 -12 86q-2 39 4 90q6 27 14 47q10 29 27 47q4 4 10 10.5t14 10.5q12 8 31 12q16 6 37 2q16 -2 33 -12l6 -4q12 -8 15 -22.5t-5 -28.5q-2 0 -2 -1t-2 -1l-109 -131v-15q2 -18 3.5 -38t5.5 -38zM35 2 q-20 -29 -39 -57.5t-37 -57.5q-20 -31 -35 -59l10 6l62 49q29 29 54.5 57.5t41.5 63.5q10 16 16.5 33.5t10.5 36.5q6 27 6 55q-49 -66 -90 -127z" />
<glyph unicode="t" horiz-adv-x="610" d="M-43 1055l188 28q8 23 14.5 45.5t14.5 45.5l21 63l20 63l23 64q6 16 12 32.5t10 33.5q12 31 24.5 62.5t28.5 63.5l15 31l10 19l6 8l6 10q2 0 6 4l9 8q0 2 2 2t4 2t4 2t6 3q2 0 3 1t5 1h6q8 0 13 -2l12 -7q6 -4 10 -10q6 -4 6 -8l4 -8q2 -4 2 -13q2 -2 2 -8q0 -4 -1 -7 t-1 -7q0 -6 -2 -10q0 -6 -4 -19q-2 -16 -10 -35l-12 -34l-25 -64q-29 -61 -57.5 -122.5t-59.5 -121.5l-39 -73l1848 284q16 4 29.5 -7t17.5 -27q2 -16 -8.5 -29.5t-26.5 -18.5l-1880 -253q-4 -8 -8 -25l-80 -256q-10 -33 -19.5 -64.5t-19.5 -64.5l-37 -127 q-18 -66 -34.5 -130.5t-32.5 -129.5l-31 -131l-25 -131q-12 -66 -18 -131q-2 -16 -3 -33t-1 -33q-4 -35 2 -63q4 -20 8 -29q0 -4 4 -8l6 -4q6 0 10 2q8 0 15 2q16 8 24 14q27 14 50 41q12 10 23 22.5t22 24.5q41 49 82 107q18 29 36.5 55.5t34.5 54.5q37 57 70 114.5 t65 117.5l64 118l61 119q16 31 29.5 61.5t30.5 59.5l55 121v2q8 14 25 8q14 -8 8 -24q-29 -59 -59.5 -120t-61.5 -120l-62 -121l-63 -117q-66 -121 -135 -233l-74 -115q-20 -29 -39.5 -55.5t-42.5 -52.5q-10 -12 -21.5 -25.5t-23.5 -23.5q-29 -29 -55 -48q-12 -10 -33 -16 l-18 -6h-23q-8 0 -12 4l-12 8l-13 19q-4 10 -6 18t-4 18q-4 18 -4 36v34q0 18 1 35.5t1 34.5q4 35 8 67.5t8 67.5q20 131 49 264q14 66 28.5 132.5t31.5 131.5q16 63 31.5 127t33.5 129q-10 -20 -23 -39.5t-24 -40.5q-10 -14 -24 -6q-14 6 -6 23l112 244l35 75l-166 -22 q-20 0 -22 18q-4 19 16 23z" />
<glyph unicode="u" horiz-adv-x="774" d="M51 702l-18 -47l-19 -49l-32 -96q-16 -49 -30.5 -98.5t-27.5 -98.5l-12 -49q-4 -12 -6 -24.5t-4 -24.5q-12 -49 -19 -100q-2 -12 -3 -24.5t-1 -24.5q-2 -12 -2 -24.5v-25.5l4 -22q0 -8 4 -21l9 -12q4 0 4 -2h8q6 0 18 4q6 2 19 10q20 8 37 29q18 16 34 35l31 39l55 84 l50 90q45 88 86 184q10 23 19 46.5t19 47.5l19 47l8 25l4 10l4 13q4 16 19.5 23t31.5 3q12 -4 20.5 -15t6.5 -26v-6q0 -4 -4 -16q0 -4 -1 -9.5t-1 -9.5l-6 -37q-4 -18 -6 -37.5t-4 -37.5q-10 -74 -13 -148v-36.5t2 -37.5l4 -36q2 -8 3 -16.5t6 -14.5l6 -12l2 -2h2v-2h2l2 2 h6l12 6q14 8 27 20l27 25l47 57q10 16 20 30.5t21 31.5l41 63l36 66q18 33 37 65.5t35 67.5l33 67l31 68q6 20 28 12q18 -10 11 -29v-2l-35 -65l-37 -68q-16 -35 -34.5 -67.5t-39.5 -65.5q-18 -35 -36.5 -66.5t-41.5 -64.5q-10 -16 -20 -31.5t-23 -31.5q-10 -16 -22 -30.5 t-25 -31.5l-26 -28l-33 -25q-10 -8 -23 -10q-4 -2 -12 -2l-2 -2h-8q-4 0 -4 2q-10 0 -17 6l-12 8q-10 12 -12 23q-8 16 -13 38q-4 16 -8 41q0 10 -1 19.5t-1 19.5l-4 37q-2 29 -2 58.5v60.5l-8 -16q-23 -47 -47.5 -92.5t-50.5 -90.5q-53 -94 -115 -176q-16 -20 -32.5 -40.5 t-37.5 -39.5q-20 -16 -45 -32q-6 -4 -13 -7.5t-13 -5.5q-16 -6 -31 -6h-21q-6 2 -18 10q-10 6 -12 15l-11 14q-4 8 -5 15.5t-3 13.5q0 8 -1 14t-1 14q-4 29 0 54q0 14 1 26t3 27q6 53 15.5 103t19.5 102q12 51 23.5 100t25.5 100l25 101q4 12 7 24.5t7 24.5l12 51 q4 16 18.5 24.5t31.5 4.5q16 -4 24 -18.5t4 -30.5z" />
<glyph unicode="v" horiz-adv-x="763" d="M57 705l-166 -775l25 29q29 31 57.5 59.5l57.5 57.5q31 29 61.5 54.5t61.5 51.5q33 27 63.5 52.5t63.5 50.5q63 51 125.5 101t123.5 103q29 27 58.5 52.5t58.5 54.5q14 16 27.5 29.5t25.5 29.5t23.5 31.5t21.5 32.5q12 16 27 6q14 -8 8 -27q-10 -18 -23.5 -34.5 t-25.5 -32.5q-29 -35 -55 -62q-29 -29 -59.5 -56.5t-61.5 -53.5q-61 -53 -123.5 -104.5t-126.5 -102.5l-125 -102q-31 -25 -60.5 -51.5t-58.5 -53.5q-29 -29 -57.5 -56.5t-54.5 -58.5q-12 -16 -24.5 -30.5t-22.5 -30.5t-20.5 -32.5t-18.5 -33.5q-6 -20 -29 -12q-16 8 -12 25 l155 905q4 16 17.5 26.5t30.5 6.5q16 -4 26 -17.5t6 -29.5v-2z" />
<glyph unicode="w" horiz-adv-x="888" d="M143 842q-18 -12 -39 -41q-20 -23 -34 -47q-10 -12 -17.5 -25.5t-15.5 -28.5l-31 -53l-55 -112q-12 -29 -24.5 -57.5t-22.5 -57.5q-23 -59 -43.5 -117.5t-36.5 -120.5q-10 -29 -16.5 -59.5t-12.5 -61.5l-8 -61q0 -14 -1 -28.5t1 -30.5q0 -10 4 -27q4 -18 8 -25l6 -8 q4 -4 7 -4q2 -2 10 -2h6l10 6l10 6q6 4 11.5 10.5t9.5 10.5q10 10 19.5 22.5t19.5 24.5q18 25 34.5 51.5t32.5 52.5l62 109q29 57 56.5 112.5t53.5 112.5l52 115l24 59l13 29l12 29q4 14 18.5 19t28.5 1q12 -6 18 -18.5t2 -26.5l-26 -53l-23 -51l-43 -103q-23 -51 -41 -102 t-35 -105l-16 -53q-4 -12 -7 -25.5t-7 -27.5t-6 -26.5t-5 -26.5q-2 -14 -4 -26.5t-2 -27.5v-24q2 -6 2 -12.5t4 -10.5q0 -6 5 -6l4 -4h6q4 0 5 1t5 1l19 12l16 19q10 10 17 21.5t16 21.5q14 23 27.5 47t25.5 49t24.5 49.5t22.5 48.5q23 51 44.5 102.5t43.5 102.5 q23 51 44.5 102.5t43.5 102.5q10 27 22.5 52.5t24.5 51.5l53 101q10 14 25.5 18t32.5 -4q23 -12 18 -41l-2 -6l-14 -41l-12 -45q-6 -23 -11.5 -43.5t-9.5 -42.5q-2 -12 -3 -23.5t-1 -21.5q-4 -23 0 -43q0 -6 4 -19l6 -16q6 -6 13 -6q6 -2 14 0q8 0 18 6q6 2 19 10l18 13 l17 14q16 16 31.5 32.5t31.5 32.5l55 72q27 41 47 78q12 14 27 6q6 -4 8 -11t-2 -13v-2q-29 -37 -57.5 -74t-59.5 -72q-16 -16 -31.5 -33.5t-31.5 -33.5l-18 -17l-19 -14l-20 -12q-16 -8 -25 -11q-20 -4 -31 -2l-14 6q-10 6 -12 11q-8 8 -17 24l-6 25q-6 25 -6 49v47v23 q-8 -12 -14 -25.5t-13 -26.5q-27 -47 -51 -97t-47 -101q-25 -49 -48.5 -99.5t-47.5 -101.5q-12 -25 -24.5 -50.5t-26.5 -49.5q-14 -25 -27.5 -49.5t-30.5 -47.5q-14 -25 -34 -47l-23 -20q-12 -12 -27 -19q-12 -4 -18 -4h-10q-6 0 -11 2q-12 4 -18 11q-4 4 -6 8l-4 8 q-4 4 -4 8t-2 8q0 4 -1 8.5t-1 8.5q-4 14 0 30q0 29 6 58q0 10 4 26l6 29l12 55l15 54l6 20q-10 -18 -19.5 -35.5t-19.5 -34.5l-66 -110q-8 -14 -16 -26.5t-19 -26.5q-10 -14 -18 -26.5t-18 -27.5l-19 -24l-22 -27l-25 -22l-14 -11l-19 -10q-4 0 -6 -1t-6 -1h-12 q-10 0 -23 6q-10 2 -18 13q-8 6 -13 16q-12 16 -14 35q-2 10 -3 17t-1 18q-4 35 0 65l8 66q6 31 12.5 62.5t14.5 62.5t16 61.5t19 60.5l41 119q23 59 46 118.5t52 117.5q14 29 29.5 57.5t31.5 56.5q8 14 16.5 27.5t18.5 28.5q4 8 10.5 14t12.5 12q2 6 10 15l8 6q0 2 1 2t1 2 l4 2q10 10 24.5 9t24.5 -11t9.5 -24.5t-11.5 -24.5z" />
<glyph unicode="x" horiz-adv-x="653" d="M55 725l25 -193l160 195l67 82l66 82l129 164q10 14 27.5 15t29.5 -9q14 -10 16.5 -26.5t-8.5 -30.5q-2 -2 -2 -3q-37 -39 -71.5 -76.5t-69.5 -78.5l-72 -78l-69 -78q-49 -53 -98.5 -109.5t-96.5 -111.5l57 -446l490 698q12 18 29 6q16 -12 6 -31l-520 -745 q-4 -8 -13.5 -10t-17.5 4q-8 8 -8 14l-80 444l-25 -26l-137 -158l-68 -78l-69 -80q-68 -80 -135.5 -158.5t-135.5 -160.5q-4 -4 -12 -5t-12 3q-14 12 -2 24q68 80 136.5 160t133.5 160l135 160l135 162l45 53l-45 254q-4 16 6.5 29.5t26.5 17.5t29.5 -6.5t17.5 -26.5v-2z " />
<glyph unicode="y" horiz-adv-x="833" d="M47 694q-10 -25 -19.5 -49t-19.5 -49q-10 -27 -19 -51.5t-20 -50.5q-16 -51 -32.5 -101.5t-30.5 -103.5q-4 -12 -7 -24.5t-8 -26.5q-4 -12 -6 -25.5t-4 -26.5q-4 -14 -5 -26.5t-3 -26.5q-2 -8 -2 -24t2 -25q0 -6 2 -8v-4q0 -2 2 -2v-2h4l8 4l11 6l18 16l37 37l35 41 q35 43 65 84l64 88q31 45 60.5 89t58.5 91q29 45 57.5 90t56.5 93q16 23 29.5 46t28.5 46l53 94q10 14 22 6q12 -6 9 -20l-445 -1346q41 78 84 156t90 153q47 76 95.5 150t99.5 145q25 37 50.5 73t51.5 73l105 141q51 72 99 144.5t91 150.5q8 16 27 6q16 -6 8 -27 q-41 -78 -89 -152.5t-99 -146.5q-27 -37 -51.5 -73.5t-51.5 -71.5l-100 -143q-49 -74 -96.5 -148t-92.5 -149q-45 -76 -86 -153t-82 -155q-74 -147 -137 -297.5t-123 -304.5l-235 -712q-6 -16 -21.5 -23.5t-31.5 -1.5q-16 4 -23.5 19.5t-1.5 31.5q53 170 109.5 336 t121.5 332l25 65l629 1801q-37 -61 -75 -122t-77 -122q-29 -45 -58.5 -90t-60.5 -90t-61.5 -89t-65.5 -87l-34 -43l-39 -41l-21 -19q-6 -6 -14 -8q-4 -4 -17 -8q-2 -2 -4 -2h-18l-12 6q-6 2 -9 8q-6 6 -10 18q-4 8 -4 17q-2 10 -2 29v28l6 56q4 29 10.5 55t12.5 53 q10 53 24.5 105.5t28.5 105.5q8 27 15.5 52.5t13.5 51.5q8 27 15 52.5t17 52.5q4 16 17.5 23.5t30.5 3.5q16 -4 23 -18.5t3 -31.5q0 -2 -2 -4z" />
<glyph unicode="z" horiz-adv-x="780" d="M0 737l487 158q16 4 32 -3t20 -24q6 -20 -7 -37l-2 -2l-264 -290l-260 -295q-125 -143 -254 -297q-33 -39 -63.5 -76t-59.5 -76q-6 -10 -13 -18t-15 -19l86 62q106 78 217 135q57 31 116 55q29 14 60 24.5t63 20.5q31 8 63 14.5t64 10.5q16 2 32.5 2h33.5h17t18 -2 q4 0 8 -1t8 -1q0 -2 2 -2l375 651q10 18 29 8q16 -10 8 -28l-383 -664q-10 -12 -25 -10h-2l-2 2h-2q-6 0 -8 2q-8 0 -14 2q-6 0 -13.5 1t-15.5 1h-30.5t-31.5 -2q-57 -8 -120 -25q-29 -10 -58.5 -20t-58.5 -21q-53 -23 -113 -55q-55 -29 -108.5 -62.5t-106.5 -68.5 q-102 -74 -198 -156q-14 -14 -29 2q-10 10 -2 25q6 10 12 21.5t14 21.5l27 41q14 23 28.5 42t28.5 38q31 41 61 80l60 78l248 305q63 76 125.5 150.5t128.5 150.5q41 49 84 99t88 101l-373 -90q-23 -4 -26 17q-4 18 14 24z" />
<glyph unicode="{" horiz-adv-x="509" d="M592 1370l-4 -2h-2q-2 0 -3 -1t-3 -1q-4 0 -13 -4l-20 -10q-23 -16 -37 -37q-18 -23 -31 -49q-6 -12 -12 -25.5t-10 -30.5q-10 -29 -19.5 -58.5t-17.5 -59.5q-8 -31 -14.5 -62t-12.5 -61l-28 -127q-10 -31 -18.5 -62.5t-20.5 -62.5q-10 -31 -25 -62q-14 -29 -37 -57 q-10 -14 -22.5 -26.5t-28.5 -22.5q-4 -4 -6 -4q0 -2 2 -2q14 -12 22 -31q4 -8 5.5 -16.5t3.5 -16.5v-30q0 -8 -1 -15.5t-1 -15.5q-4 -14 -6.5 -28.5t-6.5 -29.5q-12 -57 -30 -108q-8 -29 -16.5 -54.5t-18.5 -52.5q-10 -29 -18.5 -54t-16.5 -52q-8 -29 -15.5 -54.5 t-13.5 -52.5q-4 -14 -5 -27.5t-3 -25.5v-26.5t2 -24.5q4 -12 8 -21q4 -10 13 -12q4 -4 18 -8h23q18 0 22 -18q0 -23 -20 -23h-15.5t-17.5 2q-18 4 -33 12q-14 8 -27 27q-4 10 -6 17.5t-6 15.5q-2 8 -2 16v17v28q2 16 4 29.5t6 30.5q4 29 11.5 55.5t17.5 54.5q8 27 16.5 53.5 t18.5 53.5t18 53.5t17 52.5q10 27 17 53.5t13 53.5q4 14 6.5 26.5t4.5 26.5q2 12 2 25.5v25.5l-6 23q-2 6 -11 14q-6 6 -16 6q-6 2 -21 2q-23 0 -22 19q-4 18 16 22q25 6 49 23q23 14 39 41q20 27 31 51q6 14 11 28.5t10 28.5q10 29 17 59.5t15 61.5q6 31 12.5 62.5 t10.5 62.5l24 127q6 33 14.5 64.5t18.5 62.5q6 16 11.5 31.5t13.5 31.5t16 31.5t19 30.5q20 29 53 55q8 4 16 9t19 10q6 4 18 8q2 0 4 1t6 1q0 2 4 2h4q16 4 29.5 -4t18.5 -25q4 -16 -4.5 -28.5t-24.5 -16.5h-2z" />
<glyph unicode="|" horiz-adv-x="583" d="M-98 -344l819 1980q8 20 27.5 28.5t39.5 0.5q20 -10 28.5 -28.5t-1.5 -39.5v-2l-876 -1955q-8 -18 -27 -11q-18 9 -10 27z" />
<glyph unicode="}" horiz-adv-x="616" d="M-55 -238h4q2 0 2 2h6l14 7l25 12q10 10 20.5 19.5t18.5 21.5q20 27 31 51l22 57q10 31 18.5 61t16.5 62q6 31 12 61.5t15 61.5l24 127q8 31 16.5 62.5t18.5 62.5q6 16 12 30.5t15 31.5q6 16 14 30.5t18 28.5q23 29 51 49l5 4q-2 0 -2 2l-13 15q-4 4 -5 8t-5 8 q-4 8 -5 16.5t-3 16.5v30q0 20 2 31q2 16 4 29.5t6 27.5q6 29 13.5 55.5t15.5 55.5l33 109q10 27 17 52t15 54q8 27 15.5 52.5t11.5 52.5q4 14 5 27.5t3 25.5v24q0 8 -4 21q0 10 -6 16q-2 6 -8 8q-4 4 -13 5q-6 2 -20 2q-14 -2 -25.5 7t-13.5 23q0 16 9 27.5t24 11.5h2 q20 4 37 -2q23 -4 39 -14l16 -15q8 -10 12 -18q10 -16 15 -37q2 -10 2 -17v-16q0 -23 -2 -32q-2 -16 -3 -29.5t-6 -30.5q-8 -29 -15 -55.5t-17 -54.5q-8 -29 -17.5 -54.5t-19.5 -52.5l-37 -106q-8 -27 -16.5 -52.5t-14.5 -52.5l-12 -53q-2 -14 -3 -26.5t1 -24.5q0 -8 4 -21 q4 -10 10 -14q4 -6 15 -8q8 -2 22 -2q23 0 23 -19q0 -18 -17 -22q-29 -6 -51 -21q-10 -10 -20.5 -19t-20.5 -22q-8 -12 -15 -24.5t-14 -26.5q-8 -14 -13 -28.5t-11 -28.5q-16 -57 -33 -123q-8 -31 -14 -61.5t-13 -61.5q-6 -33 -12 -63.5t-14 -63.5q-12 -59 -35 -125 q-10 -31 -25 -61q-8 -16 -16 -30.5t-18 -29.5q-18 -29 -50 -49l-30 -18l-19 -6q-6 0 -8 -2h-4l-4 -3q-20 -4 -25 17q-3 20 17 24z" />
<glyph unicode="~" horiz-adv-x="1048" d="M944 547v-31q0 -18 -2 -27q-4 -12 -7 -25t-7 -26l-23 -45l-31 -33q-8 -8 -16 -13t-18 -13l-39 -17q-18 -6 -37 -8t-37 -2q-39 0 -76 12q-37 14 -67 33q-35 20 -60 47q-16 16 -27.5 30.5t-21.5 31.5l-6 8l-6 6q-2 4 -10 12l-21 23q-12 10 -25.5 20.5t-25.5 16.5 q-31 16 -57 18q-35 4 -62 -2q-59 -10 -100 -63q-37 -57 -41 -131q0 -23 -23 -23q-20 0 -20 27q2 20 5 41.5t9 42.5q12 41 37 75q23 31 57 56q29 20 68 30q18 4 36.5 5.5t37.5 -0.5q35 -2 69 -19q39 -18 66 -41l29 -26q4 -4 7 -8.5t5 -8.5l8 -8l2 -4l2 -2q41 -53 96 -86 q57 -33 113 -29q16 2 28.5 4t26.5 11l23 12q10 4 22 16q16 16 27 45l4 25v18l-2 4v2q-2 23 9 40.5t30 21.5q18 4 32.5 -8t18.5 -35z" />
<glyph unicode="&#xa1;" horiz-adv-x="811" d="M719 752l-569 -1370q-8 -20 -28 -28.5t-40 -0.5q-20 10 -28.5 28.5t1.5 38.5v2l627 1346q8 18 27 10q18 -8 10 -26zM819 1139q0 23 14.5 37t36.5 14q23 0 37.5 -14.5t14.5 -36.5q0 -23 -14.5 -37.5t-37.5 -14.5t-37 14.5t-14 37.5z" />
</font>
</defs>
</svg>
