<svg version="1.1" xmlns="http://www.w3.org/2000/svg" xmlns:xlink="http://www.w3.org/1999/xlink" x="0px" y="0px"
	 enable-background="new 0 0 287 138" xml:space="preserve">


	<defs>
		<symbol id="triskel" viewBox="0 0 522 558">
			<path class="triskel" stroke-linecap="round" stroke-linejoin="round" d="	M203.3037109,244.9604492c0,0,29.046875,15.0634766,58.2275391,15.5117188c15.25,0.234375,32.746582-2.1494141,50.6728516-9.953125
				c63.1523438-27.4916992,103.2392578-106.0546875,72.0146484-174.6987305
				c-25.1992188-55.3857422-90.4658203-82.3330078-145.8525391-57.1381836
				c-44.690918,20.3339844-68.1132812,73.8681641-47.7851562,118.5561523
				c16.4023438,36.0585938,60.3671875,55.3691406,96.4257812,38.9648438
				c29.0927734-13.2329102,50.7177734-67.9482422,2.5732422-88.3925781"/>
			<path class="triskel" stroke-linecap="round" stroke-linejoin="round" d="
				M261.1625977,346.3071289c0,0-1.4204102-31.3427734-15.6313477-56.8339844
				c-7.4267578-13.3212891-18.2441406-27.2783203-33.9697266-38.8955078c-2.652832-1.9594727-5.3803711-3.8149414-8.1743164-5.5644531
				c-55.5576172-34.7919922-137.4013672-27.8286133-179.1176758,30.6113281
				C-11.0795898,325.152832-1.7587891,395.1459961,47.765625,430.4975586
				c39.965332,28.5234375,98.0361328,22.0205078,126.559082-17.9375c23.015625-32.2421875,17.7397461-79.9707031-14.503418-102.9853516
				c-26.0126953-18.5703125-84.2070312-9.9199219-77.8227539,41.9951172"/>
			<path class="triskel" stroke-linecap="round" stroke-linejoin="round" d="
				M319.1611328,247.2382812c0,0-25.6708984,16.1743164-40.6298828,41.2338867
				c-7.8164062,13.0957031-14.4873047,29.4462891-16.6767578,48.875
				c-7.7119141,68.4433594,40.3408203,142.4013672,115.4072266,149.6210938
				c60.5703125,5.8212891,116.5058594-37.2734375,122.3300781-97.8417969
				c4.6962891-48.875-29.9921875-95.8974609-78.8603516-100.5976562c-39.4326172-3.7929688-78.1152344,24.6591797-81.90625,64.0917969
				c-3.0615234,31.8134766,33.5488281,77.8691406,75.3017578,46.3632812"/>
		</symbol>
	</defs>

	<defs>
		<symbol id="burger" viewBox="0 0 65 58">
			<path class="burgerPath burgerPath-top" d="M56.593,24.775H7.894c-0.697,0-1.263-0.565-1.263-1.263c0-6.233,2.76-11.833,7.772-15.77
				c4.676-3.673,10.955-5.695,17.683-5.695c6.68,0,13.015,2.086,17.84,5.873c5.114,4.014,7.93,9.551,7.93,15.593
				C57.856,24.21,57.29,24.775,56.593,24.775z M9.198,22.25h46.084c-0.364-4.758-2.788-9.104-6.916-12.344
				c-4.319-3.39-10.253-5.334-16.281-5.334c-6.164,0-11.89,1.831-16.123,5.156C11.853,12.956,9.532,17.265,9.198,22.25z"/>
			<path class="burgerPath burgerPath-mid" d="M41.45,43.714c-0.36,0-0.709-0.154-0.952-0.434c-0.044-0.051-4.438-5.084-8.154-7.504
				c-3.724-2.426-7.941-4.259-11.569-5.031c-3.173-0.675-12.253-0.37-14.051-0.302c-0.604,0.385-2.259,1.631-2.259,3.723
				c0,2.065,1.613,3.305,2.239,3.709h22.015c0.697,0,1.263,0.565,1.263,1.263s-0.565,1.263-1.263,1.263H6.359
				c-0.202,0-0.4-0.048-0.58-0.141c-0.157-0.081-3.84-2.031-3.84-6.094c0-4.063,3.683-6.013,3.84-6.094
				c0.163-0.084,0.342-0.132,0.525-0.14c0.454-0.02,11.174-0.471,14.996,0.342c3.92,0.834,8.448,2.797,12.422,5.386
				c2.614,1.703,5.425,4.473,7.12,6.258c0.547-1.63,1.498-3.866,3.035-5.822c2.626-3.342,4.108-4.647,7.714-5.79
				c3.518-1.116,6.978-0.377,7.124-0.345c0.134,0.029,0.262,0.08,0.379,0.15c0.154,0.092,3.77,2.305,3.77,6.055
				s-3.616,5.962-3.77,6.055c-0.196,0.118-0.421,0.18-0.65,0.18h-9.207c-0.697,0-1.263-0.565-1.263-1.263s0.565-1.263,1.263-1.263
				h8.819c0.65-0.475,2.282-1.852,2.282-3.709c0-1.95-1.812-3.379-2.378-3.777c-0.726-0.121-3.195-0.44-5.606,0.325
				c-2.888,0.916-3.98,1.747-6.491,4.943c-2.374,3.021-3.165,6.995-3.173,7.035c-0.092,0.474-0.446,0.855-0.913,0.98
				C41.669,43.7,41.559,43.714,41.45,43.714z"/>
			<path class="burgerPath burgerPath-bot" d="M53.087,57.289H10.907c-0.334,0-0.654-0.132-0.89-0.367c-2.278-2.265-3.385-5.552-3.385-10.05
				c0-0.697,0.565-1.263,1.263-1.263h48.699c0.697,0,1.263,0.565,1.263,1.263c0,4.993-1.37,8.427-4.073,10.209
				C53.576,57.216,53.334,57.289,53.087,57.289z M11.451,54.763h41.233c1.559-1.206,2.435-3.43,2.612-6.629H9.189
				C9.347,51.064,10.078,53.203,11.451,54.763z"/>
		</symbol>
	</defs>
</svg>

