<svg version="1.1" xmlns="http://www.w3.org/2000/svg" xmlns:xlink="http://www.w3.org/1999/xlink" x="0px" y="0px"
	 enable-background="new 0 0 287 138" xml:space="preserve">


	<defs>
		<symbol id="triskel" viewBox="0 0 522 558">
			<path class="triskel" stroke-linecap="round" stroke-linejoin="round" d="	M203.3037109,244.9604492c0,0,29.046875,15.0634766,58.2275391,15.5117188c15.25,0.234375,32.746582-2.1494141,50.6728516-9.953125
				c63.1523438-27.4916992,103.2392578-106.0546875,72.0146484-174.6987305
				c-25.1992188-55.3857422-90.4658203-82.3330078-145.8525391-57.1381836
				c-44.690918,20.3339844-68.1132812,73.8681641-47.7851562,118.5561523
				c16.4023438,36.0585938,60.3671875,55.3691406,96.4257812,38.9648438
				c29.0927734-13.2329102,50.7177734-67.9482422,2.5732422-88.3925781"/>
			<path class="triskel" stroke-linecap="round" stroke-linejoin="round" d="
				M261.1625977,346.3071289c0,0-1.4204102-31.3427734-15.6313477-56.8339844
				c-7.4267578-13.3212891-18.2441406-27.2783203-33.9697266-38.8955078c-2.652832-1.9594727-5.3803711-3.8149414-8.1743164-5.5644531
				c-55.5576172-34.7919922-137.4013672-27.8286133-179.1176758,30.6113281
				C-11.0795898,325.152832-1.7587891,395.1459961,47.765625,430.4975586
				c39.965332,28.5234375,98.0361328,22.0205078,126.559082-17.9375c23.015625-32.2421875,17.7397461-79.9707031-14.503418-102.9853516
				c-26.0126953-18.5703125-84.2070312-9.9199219-77.8227539,41.9951172"/>
			<path class="triskel" stroke-linecap="round" stroke-linejoin="round" d="
				M319.1611328,247.2382812c0,0-25.6708984,16.1743164-40.6298828,41.2338867
				c-7.8164062,13.0957031-14.4873047,29.4462891-16.6767578,48.875
				c-7.7119141,68.4433594,40.3408203,142.4013672,115.4072266,149.6210938
				c60.5703125,5.8212891,116.5058594-37.2734375,122.3300781-97.8417969
				c4.6962891-48.875-29.9921875-95.8974609-78.8603516-100.5976562c-39.4326172-3.7929688-78.1152344,24.6591797-81.90625,64.0917969
				c-3.0615234,31.8134766,33.5488281,77.8691406,75.3017578,46.3632812"/>
		</symbol>
	</defs>

	<defs>
		<symbol id="homeAlexis" viewBox="0 0 287 138">
			<path class="alexis" d="M72.7822266,14.9516602C71.6611328,22.456543,70.3168945,35.0566406,68.75,52.7519531
				c0,2.6879883-0.3647461,6.3574219-1.0917969,11.0039062c-0.7299805,4.6489258-1.0922852,7.9799805-1.0922852,9.9960938
				c0,1.7929688,0.2231445,3.4174805,0.671875,4.8720703c-1.34375,1.0078125-2.015625,2.1835938-2.015625,3.527832
				c0,1.34375,0.3911133,2.9135742,1.1757812,4.7041016c0.3359375,0,0.7822266,0.0576172,1.3442383,0.1679688
				c0.559082,0,1.230957,0,2.015625,0c-3.9213867,3.1367188-6.2158203,7.5600586-6.8876953,13.2719727
				c0.1103516,0.3359375-0.4492188,0.8398438-1.6801758,1.5117188c0.2231445,0.2260742,0.5302734,0.4204102,0.9238281,0.5883789
				c0.3911133,0.1679688,0.5883789,0.5878906,0.5883789,1.2597656c0,1.7929688-0.5620117,3.5859375-1.6801758,5.3759766
				c-0.5615234,0-0.6166992,0.5620117-0.1679688,1.6801758c0.4462891-0.3359375,0.8398438-0.5039062,1.1757812-0.5039062
				c-0.784668,2.9135742-1.5405273,5.6855469-2.2675781,8.315918c-0.7299805,2.6303711-0.9819336,5.2919922-0.7563477,7.9799805
				c-0.2255859,0.1103516-0.6166992-0.112793-1.1757812-0.671875c-0.2260742-0.1132812-0.5039062,0-0.840332,0.3359375
				c0.5595703,1.6796875,0.840332,3.2470703,0.840332,4.7036133c0-0.3359375-0.3359375-0.8398438-1.0083008-1.5117188
				c0.1103516-0.112793,0.1679688,0.8950195,0.1679688,3.0239258c-0.4487305-0.3359375-0.784668-0.5039062-1.0078125-0.5039062
				c-0.5615234,1.34375-2.0161133,3.3598633-4.3681641,6.0478516c0,0.1103516,0.4462891-0.2807617,1.3442383-1.1757812
				c-1.4570312-0.6723633-2.0161133-1.9057617-1.6801758-3.6962891c0.559082-2.3520508,0.4462891-3.9765625-0.3359375-4.8720703
				c0-0.4487305,0.671875-0.9526367,2.0161133-1.5117188c-1.3442383-0.7851562-2.0161133-1.8481445-2.0161133-3.1918945
				c0-3.809082,0.671875-6.3261719,2.0161133-7.5600586l-1.0078125-0.840332c0-1.4541016,0.1098633-2.6586914,0.3359375-3.6118164
				c0.2231445-0.9501953,0.3359375-1.3701172,0.3359375-1.2597656c1.230957,0.112793,2.184082,0,2.855957-0.3364258
				c-2.0161133-0.559082-3.0239258-1.5668945-3.0239258-3.0239258c0-0.4462891,0.3359375-1.7636719,1.0078125-3.9477539
				s1.0083008-3.4990234,1.0083008-3.9482422c0-2.2387695-0.394043-3.5830078-1.1762695-4.0317383
				c-0.5615234,0.112793-1.625,0.4775391-3.1918945,1.0917969c-1.5698242,0.6171875-2.5200195,0.9243164-2.855957,0.9243164
				c-0.4492188,0-0.6459961-0.0839844-0.5878906-0.2524414c0.0546875-0.1679688-0.0839844-0.2519531-0.4204102-0.2519531
				c-0.4487305,0-2.9975586,0.840332-7.644043,2.5200195c-4.6484375,1.6801758-7.1977539,2.5200195-7.6435547,2.5200195
				c-0.3364258,0-0.4780273-0.0839844-0.4204102-0.2519531c0.0551758-0.1679688-0.1416016-0.2519531-0.5878906-0.2519531
				c-2.6879883,1.3442383-6.1318359,2.9975586-10.3320312,4.9560547c-4.199707,1.9609375-7.644043,3.5566406-10.3320312,4.7880859
				c-0.4487305,0-0.6166992-0.1103516-0.5039062-0.3359375c0.1103516-0.3359375,0.1103516-0.559082,0-0.6723633
				c-0.4487305,1.0083008-1.2338867,1.737793-2.3520508,2.184082c0.559082,0.5620117,0.840332,1.065918,0.840332,1.512207
				c0-0.559082-0.28125-0.8398438-0.840332-0.8398438c-0.671875,2.128418-1.0078125,3.527832-1.0078125,4.199707
				c-0.4487305,0-0.8398438-0.1679688-1.1762695-0.5039062c-1.34375,1.7929688-1.6245117,3.2470703-0.8398438,4.3681641
				c-0.112793,0.1098633-0.3935547,0.277832-0.8398438,0.5039062c-0.4492188,0.2231445-0.7299805,0.4462891-0.840332,0.671875
				c-0.8974609-0.8979492-1.34375-1.4018555-1.34375-1.512207c0.7822266-0.784668,1.1757812-1.5668945,1.1757812-2.3515625
				c-0.2255859-5.8222656-0.1679688-9.3505859,0.1679688-10.5839844C2.7260742,105,4.1801758,101.9755859,6.0859375,98.2797852
				C5.9731445,97.8334961,6.309082,96.796875,7.09375,95.171875c0.7827148-1.6220703,1.4545898-2.5463867,2.0161133-2.7719727
				c0.4462891-0.3359375,0.2783203-0.5039062-0.5039062-0.5039062c0.3359375-1.2314453,1.1181641-2.1264648,2.3520508-2.6879883
				c-0.3359375-0.3364258-0.671875-0.5043945-1.0078125-0.5043945c0.4458008-0.559082,1.4541016-2.4067383,3.0239258-5.5439453
				c1.1181641-2.2387695,2.2939453-3.6381836,3.527832-4.199707c-0.3359375-0.2231445-0.6166992-0.3359375-0.8398438-0.3359375
				l21.671875-39.144043L58.6699219,4.3676758c5.8222656,1.0083008,9.2402344,1.7929688,10.2480469,2.3520508
				C71.4931641,8.0639648,72.7822266,10.8095703,72.7822266,14.9516602z M2.7260742,116.2558594
				c-0.2260742-1.1181641-0.671875-1.6801758-1.3442383-1.6801758c0.6723633-0.559082,1.1181641-0.8398438,1.3442383-0.8398438
				V116.2558594z M4.0698242,108.8637695l-0.671875-0.3359375l-0.671875,1.34375l0.671875,0.3364258L4.0698242,108.8637695z
				 M5.4140625,110.8798828H3.565918v-0.8398438h1.8481445V110.8798828z M15.6621094,89.8798828v-1.3442383h-0.840332v1.3442383
				H15.6621094z M61.5258789,23.015625v-2.855957c-0.8974609,1.2338867-8.3999023,13.3300781-22.5117188,36.2880859
				c-0.2260742-0.2231445-0.7851562-0.3359375-1.6801758-0.3359375c0.2231445,0.4487305,0.3359375,0.8979492,0.3359375,1.3442383
				c0,1.5693359-1.0078125,3.8637695-3.0239258,6.8876953c-3.0239258,4.7041016-4.5361328,7.1137695-4.5361328,7.2241211
				c0,0.8974609-0.5039062,2.1289062-1.5117188,3.6958008c-1.3442383,2.0161133-2.1289062,3.25-2.3520508,3.6962891
				c-1.4570312,2.9135742-4.0898438,7.1137695-7.8959961,12.6000977c-0.5620117,1.5693359-1.4570312,3.4726562-2.6879883,5.7119141
				c0.671875,0.4487305,1.230957,0.671875,1.6796875,0.671875c0.4462891,0,3.6962891-1.0078125,9.7441406-3.0239258
				s9.2954102-3.0239258,9.7441406-3.0239258c0.4462891,0,0.7822266,0.2519531,1.0078125,0.7558594
				c0.2231445,0.5039062,0.3911133,0.7558594,0.5039062,0.7558594c0-1.0078125,0.1103516-1.6796875,0.3364258-2.0161133h1.8476562
				l1.1762695,1.0083008c0.559082-1.3442383,1.2861328-2.0161133,2.1835938-2.0161133
				c0.4462891,0,0.7563477,0.0839844,0.9243164,0.2519531s0.4750977,0.2519531,0.9238281,0.2519531
				c0.3359375,0,1.1474609-0.2519531,2.4360352-0.7558594c1.2861328-0.5039062,2.1552734-0.7558594,2.6040039-0.7558594
				c0.671875,0,1.3442383,0.3359375,2.0161133,1.0078125c1.6801758-1.9033203,2.855957-5.2080078,3.527832-9.9121094
				c1.0083008-7.1660156,1.5673828-11.0878906,1.6801758-11.7597656
				C60.2373047,36.6816406,61.4130859,21.4487305,61.5258789,23.015625z M33.6381836,57.2875977v-1.0078125l-3.8642578-0.5039062
				v1.0078125L33.6381836,57.2875977z M59.8461914,110.0400391h-1.0083008v-1.3442383h1.0083008V110.0400391z M67.7421875,56.1118164
				l-0.3364258-0.8398438l-1.1757812,0.671875v0.671875L67.7421875,56.1118164z"/>
			<path class="alexis" d="M136.9570312,3.8637695l-9.9121094,16.4638672
				c-7.3916016,11.9858398-12.3217773,21-14.7836914,27.0483398c-3.0239258,6.3837891-6.0483398,12.7128906-9.0722656,18.9838867
				C99.7163086,73.6416016,97.0283203,79.9677734,95.125,85.34375c-1.1206055,4.480957-2.96875,10.5839844-5.5439453,18.3120117
				c-0.2255859,0.7851562,0.0551758,1.4018555,0.8398438,1.8481445c-0.112793,0.112793-0.3359375,0.2519531-0.671875,0.4199219
				s-0.6166992,0.3647461-0.8398438,0.5878906c0.3359375,0.2260742,0.671875,0.3359375,1.0078125,0.3359375
				c-1.34375,6.6098633-2.0161133,9.5209961-2.0161133,8.7363281c0,0.3359375,0,0.7006836,0,1.0917969
				c0,0.3935547,0,0.7558594,0,1.0917969c-0.5615234,0.4492188-0.8398438,1.512207-0.8398438,3.1923828
				c-0.112793,2.1259766-0.2255859,3.4150391-0.3359375,3.8637695c-0.3359375,0.8950195-0.8686523,1.6801758-1.5961914,2.3520508
				c-0.7294922,0.671875-1.0917969,1.230957-1.0917969,1.6801758c0,0.3359375,0.1103516,0.7270508,0.3359375,1.1757812
				l-1.512207-1.1757812c0-0.3359375,0.5043945-1.0083008,1.512207-2.0161133
				c-0.2255859-0.3359375-0.5615234-0.5039062-1.0078125-0.5039062c-0.4492188-0.112793-0.6723633-0.0581055-0.6723633,0.1679688
				c0.2231445-0.8979492-0.0576172-2.9140625-0.8398438-6.0478516c0-2.0161133,1.0629883-10.6391602,3.1918945-25.8720703
				l1.1762695,1.0078125l0.671875-0.671875c-0.5615234-0.4462891-0.8398438-1.3442383-0.8398438-2.6879883
				c0-3.6962891,1.34375-7.8959961,4.0317383-12.6000977c-0.4487305-1.6801758-0.671875-2.184082-0.671875-1.512207
				c0.1103516-0.2231445,0.9501953-0.7270508,2.5200195-1.5117188c-0.671875-0.671875-1.0078125-1.2314453-1.0078125-1.6801758
				c0-1.0078125,0.559082-1.9580078,1.6796875-2.855957c0.4462891-3.9189453,3.3022461-10.9750977,8.5678711-21.1679688
				c0-1.230957,1.9033203-5.7670898,5.7124023-13.6079102c4.7036133-9.9672852,7.3916016-14.9521484,8.0639648-14.9521484
				c0.3359375,0,0.671875,0.1679688,1.0078125,0.5039062c0-2.1259766,1.9033203-6.2709961,5.7119141-12.4316406
				C126.0371094,3.4726562,129.9008789,0,133.2612305,0C135.7231445,0,136.9570312,1.2885742,136.9570312,3.8637695z
				 M85.8852539,123.6479492v-0.840332h-1.8481445v0.840332H85.8852539z M85.8852539,125.4956055l-0.1679688,0.6723633
				l-1.6801758-0.5043945v-0.8398438L85.8852539,125.4956055z"/>

			<path class="alexis" d="M154.0927734,65.1835938c0,0.2260742-0.1679688,1.065918-0.5039062,2.5200195
				c-0.2260742,1.1210938-0.2260742,1.9057617,0,2.3520508c-2.2416992,3.0239258-6.777832,8.5683594-13.6079102,16.6323242
				c-8.9619141,10.3056641-14.2802734,15.4560547-15.9604492,15.4560547c-0.4487305,0-1.0654297,0-1.8476562,0
				c-0.7851562,0-1.3442383,0-1.6801758,0c-0.5615234,0.5615234-0.8398438,1.6796875-0.8398438,3.3598633
				c0,6.7197266,3.9741211,12.8808594,11.9277344,18.4799805c0.2231445-0.3359375,0.3359375-0.671875,0.3359375-1.0083008
				c0.3364258,0.2231445,1.9584961,0.5595703,4.8720703,1.0083008c0.7822266,0.7822266,1.1762695,1.34375,1.1762695,1.6796875
				c0,0.3364258-0.6171875,1.1186523-1.8481445,2.3520508c-0.3359375-0.4487305-0.8979492-0.671875-1.6801758-0.671875
				c0-0.784668,0.1679688-1.34375,0.5043945-1.6801758c-0.5620117-0.4487305-1.1210938-0.671875-1.6801758-0.671875
				l-0.8398438,0.671875c0.671875,0.7827148,1.1181641,1.512207,1.34375,2.184082
				c-0.671875,0-1.0078125,0.3911133-1.0078125,1.1762695c-0.7851562-0.3359375-1.737793-0.840332-2.855957-1.512207
				l-1.3442383,1.0083008c-0.671875-0.6723633-1.5117188-1.0083008-2.5200195-1.0083008
				c-2.0161133,0-5.6567383-3.1367188-10.9199219-9.4077148c0.559082-0.2231445,1.230957-0.559082,2.0161133-1.0083008v-0.3359375
				h-2.855957c-2.1289062-8.0639648-3.1918945-12.8232422-3.1918945-14.2797852
				c0-8.2871094,2.9658203-17.9760742,8.9038086-29.0639648c6.6069336-12.206543,13.4399414-18.3120117,20.4960938-18.3120117
				c0.559082,0,1.5117188,0.2519531,2.855957,0.7558594c1.34375,0.5039062,2.1259766,0.7558594,2.3520508,0.7558594
				c0.4462891,0,0.559082-0.1679688,0.3359375-0.5039062c-0.2255859-0.3359375-0.1679688-0.5039062,0.1679688-0.5039062
				c1.7900391,0,3.8637695,1.5698242,6.2158203,4.7041016C153.5307617,61.8813477,154.0927734,63.5039062,154.0927734,65.1835938z
				 M147.0366211,65.6879883c0-0.3359375-0.1679688-0.7822266-0.5039062-1.3442383
				c-0.2255859-0.4462891-0.2255859-0.7822266,0-1.0078125c-0.3359375,0-0.8686523-0.1103516-1.5961914-0.3359375
				c-0.7294922-0.2231445-1.3173828-0.3364258-1.7636719-0.3364258c-3.5859375,0-8.0087891,4.480957-13.2719727,13.4404297
				c-4.7041016,8.1767578-7.1137695,14.0014648-7.2241211,17.4716797c4.2548828-4.1420898,8.5102539-8.2319336,12.7680664-12.2636719
				C143.1728516,73.4736328,147.0366211,68.265625,147.0366211,65.6879883z M140.8208008,85.6796875v-0.8398438h-1.3442383v0.8398438
				H140.8208008z M153.0849609,64.0078125V63h-1.512207v1.0078125H153.0849609z"/>
			<path class="alexis" d="M210.034668,69.5517578c-4.0322266,3.5859375-8.0644531,7.2241211-12.0961914,10.9199219
				c-7.3920898,6.8330078-11.0878906,10.7519531-11.0878906,11.7602539c0,0.2255859,0.671875,3.4174805,2.0161133,9.5756836
				c1.34375,6.1611328,1.9580078,10.1381836,1.8476562,11.9282227c-0.3359375-0.3359375-0.8974609-0.5039062-1.6796875-0.5039062
				c-0.3364258,0-0.394043,0.1679688-0.1679688,0.5039062c0.2226562,0.3359375,0.1098633,0.5039062-0.3364258,0.5039062
				c-0.3359375,0-0.9814453-0.1103516-1.9316406-0.3359375c-0.953125-0.2231445-1.7089844-0.3359375-2.2680664-0.3359375
				c-0.7851562-2.4624023-1.7929688-6.3261719-3.0239258-11.5922852c-0.1132812,0-0.28125-0.0839844-0.5043945-0.2519531
				c-0.2255859-0.1679688-0.5615234-0.2519531-1.0078125-0.2519531c-0.4487305,0-2.2416992,1.737793-5.3759766,5.2080078
				c-2.5776367,3.0239258-4.480957,5.3208008-5.7119141,6.8881836c-0.5620117,0-1.625,0.112793-3.1918945,0.3359375
				c0.559082,0.2255859,1.3989258,0.5615234,2.5200195,1.0078125c-2.3520508,3.4731445-3.5283203,5.4863281-3.5283203,6.0483398
				c0-0.112793-0.3935547-0.1679688-1.1757812-0.1679688c-0.4492188,0-0.7011719,0.4462891-0.7563477,1.34375
				c-0.0576172,0.8950195-0.1416016,1.4541016-0.2519531,1.6801758c-0.2255859-0.2260742-0.3359375-0.5878906-0.3359375-1.0922852
				c0-0.5039062-0.112793-0.8134766-0.3359375-0.9238281c-0.3359375,0.4462891-1.065918,1.0629883-2.184082,1.8481445
				c0.559082,0.4462891,1.2314453,0.671875,2.0161133,0.671875v2.855957c-0.3359375,0.1103516-0.5327148,0.3359375-0.5878906,0.671875
				c-0.0576172,0.3359375-0.394043,0.6142578-1.0083008,0.840332c-0.6166992,0.2231445-1.0366211,0.4462891-1.2597656,0.671875
				c-0.3359375-1.5698242-0.2255859-2.6879883,0.3359375-3.3598633c-0.2255859-0.1132812-0.671875-0.1679688-1.34375-0.1679688
				c0.2231445-3.137207,0.3359375-6.6098633,0.3359375-10.4160156c0.4462891-0.4462891,1.0078125-0.6723633,1.6796875-0.6723633
				c0.2231445-0.2231445,0.2231445-0.5039062,0-0.8398438c-0.112793-0.2231445-0.3359375-0.3359375-0.671875-0.3359375
				c1.230957-2.0161133,3.0791016-4.2553711,5.5439453-6.7202148c-0.3359375-0.2231445-0.671875-0.3359375-1.0078125-0.3359375
				c1.1181641-1.902832,2.2939453-3.8901367,3.527832-5.9638672c1.2314453-2.0712891,2.0712891-3.1079102,2.5200195-3.1079102
				c0.559082,0,0.8110352,0.1416016,0.7558594,0.4199219c-0.0576172,0.2807617-0.0288086,0.4775391,0.0839844,0.5878906
				c0.2231445-0.671875,0.5043945-1.5668945,0.840332-2.6879883c0.4462891-0.671875,1.4829102-1.9580078,3.1079102-3.8637695
				c1.6220703-1.9033203,2.4360352-3.0791016,2.4360352-3.5283203l-2.0161133-8.2319336
				c-1.4570312-5.9350586-2.409668-10.9750977-2.855957-15.1201172c-1.2338867-1.4541016-1.8481445-3.0239258-1.8481445-4.7036133
				c0-2.2392578,0.7822266-3.3603516,2.3520508-3.3603516c2.3520508,0,4.0322266,0.6723633,5.0400391,2.0161133
				c0.4462891,0.7851562,1.0629883,2.7456055,1.8481445,5.8798828c0.8950195,3.5859375,2.4624023,9.0722656,4.7041016,16.4643555
				c1.230957-2.1264648,4.199707-5.2080078,8.9038086-9.2402344c5.4863281-4.5913086,9.6860352-6.8881836,12.6000977-6.8881836
				c1.4541016,0,2.9663086,0.5043945,4.5361328,1.512207V69.5517578z M159.9702148,124.9916992v-0.8398438h-1.34375v0.8398438
				H159.9702148z M162.4902344,114.5756836c0-0.3359375-0.2255859-0.7822266-0.671875-1.34375l-1.34375,1.34375H162.4902344z
				 M191.890625,118.9438477c0,1.34375-0.5620117,2.2392578-1.6801758,2.6879883h-1.8481445
				c0.1103516-0.671875-0.7294922-2.4648438-2.5200195-5.3759766c0-0.559082,0.0839844-1.0078125,0.2519531-1.3442383
				c0.168457-0.3359375,0.2524414-0.559082,0.2524414-0.671875c0.1098633,0,0.3911133,0.2519531,0.8398438,0.7558594
				c0.4462891,0.5043945,0.8950195,0.7563477,1.34375,0.7563477c0.3364258,0,0.5043945-0.3359375,0.5043945-1.0083008
				c0.1098633,0.1132812,0.6142578,0.7563477,1.5117188,1.9321289
				C191.4414062,117.8520508,191.890625,118.6079102,191.890625,118.9438477z M188.0263672,116.5917969v-1.34375h-0.8398438v1.34375
				H188.0263672z"/>
			<path class="alexis" d="M234.5605469,76.7758789c-2.1289062,7.1689453-4.8183594,15.1201172-8.0644531,23.855957
				c-2.6875,7.0561523-4.4257812,12.5449219-5.2089844,16.4638672c-1.0078125,0-1.6796875,0.1679688-2.015625,0.5039062
				c0,1.0083008,0.5039062,1.065918,1.5117188,0.1679688c-0.8964844,2.1264648-2.4648438,5.6542969-4.703125,10.5844727h-2.184082
				c-0.2260742-0.4492188-0.6171875-1.0083008-1.1762695-1.6801758v-6.7202148
				c0.7822266-0.784668,1.1762695-1.5117188,1.1762695-2.184082c1.1181641,0,1.8476562,0.168457,2.184082,0.5043945l0.671875-0.840332
				c-1.2338867-0.671875-2.5200195-0.7822266-3.8642578-0.3359375c0.7822266-3.4702148,1.7353516-5.9350586,2.855957-7.3920898
				c0-0.4462891-0.3359375-0.671875-1.0078125-0.671875c1.3442383-4.1420898,3.6391602-9.9672852,6.887207-17.4716797
				c0-0.5595703,0-1.3994141,0-2.5200195c0.2246094-1.2314453,1.3710938-4.003418,3.4453125-8.3164062
				c2.0703125-4.3100586,3.4433594-6.4677734,4.1152344-6.4677734
				C232.0957031,75.3764648,233.8886719,76.2167969,234.5605469,76.7758789z M217.2558594,121.9677734v-0.8398438h-2.855957v0.8398438
				H217.2558594z M216.4160156,123.4799805l-1.3442383-1.3442383l-0.5039062,0.5039062l1.3442383,1.1762695L216.4160156,123.4799805z
				 M217.4238281,123.6479492l-1.1757812,1.8476562l-0.6723633-0.5039062l1.1762695-1.8476562L217.4238281,123.6479492z
				 M253.7109375,25.5356445c0,2.1289062-0.9511719,3.1923828-2.8554688,3.1923828
				c-2.1289062,0-3.1914062-1.2314453-3.1914062-3.6962891c0-0.4462891,0.5585938-1.7348633,1.6796875-3.8637695
				C252.2558594,21.7294922,253.7109375,23.1835938,253.7109375,25.5356445z"/>
			<path class="alexis" d="M287.1435547,56.9516602l-1.6796875,1.6801758
				c-0.8984375,0-1.5703125,0.0839844-2.0166016,0.2519531c-0.4482422,0.1679688-0.8398438,0.2519531-1.1757812,0.2519531
				c-0.4492188,0-1.2890625-0.0839844-2.5195312-0.2519531c-1.234375-0.1679688-2.0742188-0.2519531-2.5205078-0.2519531
				c-1.34375,0-2.9980469,0.671875-4.9560547,2.0161133c-1.9609375,1.34375-2.9394531,2.4648438-2.9394531,3.3598633
				c6.8300781,17.6977539,10.2480469,29.5678711,10.2480469,35.6162109c0,3.8085938-1.1210938,8.5678711-3.3603516,14.2797852
				c-2.9140625,7.3920898-6.3837891,11.0878906-10.4160156,11.0878906c-0.3359375,0-0.671875-0.0839844-1.0078125-0.2519531
				s-0.7304688-0.2519531-1.1767578-0.2519531c-0.4482422,0-0.9814453,0.3359375-1.5957031,1.0078125
				c-0.6171875,0.6723633-1.0917969,1.0083008-1.4277344,1.0083008c-0.4492188,0-0.9238281-0.1679688-1.4277344-0.5039062
				c-0.5039062-0.3364258-0.9824219-0.5043945-1.4287109-0.5043945c-0.4482422,0-0.7001953,0.1679688-0.7558594,0.5043945
				c-0.0576172,0.3359375-0.3095703,0.5039062-0.7558594,0.5039062c-0.2255859,0-1.4013672-0.5620117-3.5283203-1.6801758v-1.8481445
				c0.3359375,0,1.0341797-0.0839844,2.1005859-0.2519531c1.0625-0.1679688,1.8193359-0.2519531,2.2675781-0.2519531
				c0.4462891,0,0.671875-0.1679688,0.671875-0.5039062l-0.3359375-0.8398438c0.2236328-0.112793,0.4462891-0.112793,0.671875,0
				c0.2236328,0.1103516,0.1103516,0.2783203-0.3359375,0.5039062c1.1181641,0.559082,2.0166016,0.8398438,2.6884766,0.8398438
				c0-1.7929688,0-2.8007812,0-3.0239258c0.4462891,0.3359375,0.9501953,0.5039062,1.5117188,0.5039062
				c-0.1123047-0.671875,0.9501953-2.4067383,3.1923828-5.2080078c2.5751953-3.2470703,4.0869141-5.3759766,4.5361328-6.3837891
				c1.9023438-3.8061523,2.5195312-7.8383789,1.8476562-12.0961914c0.1103516-0.2231445,0.1679688-0.6142578,0.1679688-1.1757812
				c0-1.7905273-1.8212891-7.5024414-5.4599609-17.1362305c-3.640625-9.6308594-5.4599609-15.7919922-5.4599609-18.4799805
				c0-1.7900391,1.4541016-3.527832,4.3681641-5.2080078c2.4619141-1.4541016,4.3095703-2.184082,5.5439453-2.184082
				c0.4462891,0,0.671875,0.168457,0.671875,0.5043945s0.1679688,0.5039062,0.5039062,0.5039062h1.6796875
				c0-0.4462891-0.4482422-0.671875-1.34375-0.671875c1.5673828-0.4462891,2.9667969-0.6723633,4.2001953-0.6723633
				c0,1.0083008,0.1103516,1.625,0.3359375,1.8481445c0.1103516,0,0.3623047-0.1391602,0.7558594-0.4199219
				c0.3916016-0.2783203,0.6435547-0.4750977,0.7558594-0.5878906c-0.2255859,0-0.4482422-0.0551758-0.671875-0.1679688
				c1.9033203,0.3359375,3.8066406,0.671875,5.7119141,1.0078125
				C285.8544922,54.0957031,287.1435547,55.2719727,287.1435547,56.9516602z M264.9677734,66.3598633l-1.1767578-1.1762695
				l-0.5039062,0.5043945l1.1767578,1.1757812L264.9677734,66.3598633z M277.0634766,107.1835938l-0.3359375,0.840332
				l-1.6796875-0.671875v-0.6723633L277.0634766,107.1835938z M277.0634766,94.7519531l-1.1757812-1.1762695l-0.5039062,0.3359375
				l1.1757812,1.3442383L277.0634766,94.7519531z"/>
		</symbol>
	</defs>
</svg>

