<svg version="1.1" xmlns="http://www.w3.org/2000/svg" xmlns:xlink="http://www.w3.org/1999/xlink" x="0px" y="0px" width="575px" height="290px" viewBox="0 0 575 290" enable-background="new 0 0 575 290" xml:space="preserve">
<path class="alexis" id="alexis_x5F_a" d="M130.169,171.509c-3.48,0-5.51,5.8-8.99,8.41c3.48,0,5.51-2.61,7.83-4.35c0,3.77-4.35,4.35-7.83,6.09
	c-3.19,1.16-5.8,2.61-7.54,6.09v0.87c-4.35,4.35-8.99,11.31-13.92,13.92c-2.9,4.35-5.51,8.699-8.7,11.31
	c-1.16,2.899-6.38,6.96-8.99,9.859c-3.19,4.351-7.54,9.569-11.89,13.92c0,1.739-1.74,3.19-2.9,3.19c1.16,0-1.74,2.899-1.74,2.899
	c-3.19,4.35-7.54,9.28-12.18,12.76c-6.67,9.569-15.37,18.27-22.62,26.39c0,1.449,3.48,0,3.48,0c-1.74,1.449,0,1.449-1.74,3.189
	c-1.74,0-1.74-3.189-3.19-3.189c1.45,1.449-1.16,1.449,0,1.449c-1.16,1.74-3.48,2.9-6.09,4.351c-6.09-4.351-10.44-8.41-18.27-11.31
	c0,0,1.74,0,0-1.74c0,0,0,1.74-1.74,0c0,0,0,0,0-0.87c0,0,0,0,0,0.87c-1.16-0.87-1.16-2.32,0-3.48
	c6.67-21.749,21.75-37.119,37.119-51.328c10.44-8.41,20.879-18.27,32.479-24.939v-1.74c6.09-2.609,9.28-6.38,15.37-9.86
	c2.9-1.45,6.09-4.35,8.7-4.35c-8.7,7.83-19.72,13.049-26.679,20.009c0.87,0,2.61-3.19,4.35-4.06c0,2.609-3.48,2.609-4.35,4.06
	c-1.74,1.16-2.9,4.351-4.64,5.22c1.74,0,4.64-2.609,5.51-4.06c1.74,1.45,1.74-1.16,3.48-1.16c2.61-3.19,6.09-5.8,10.15-8.409
	c5.22-2.9,10.729-3.771,10.729-8.7c1.45,0,3.19-2.9,4.35-3.48c-1.16,0-1.16,2.32-1.16,0.58c-1.74,0,0,0-1.74,1.74v-1.74
	c1.74-0.58,2.9-2.61,4.64-2.61c44.949-52.199,95.408-107.007,140.067-161.816c0-4.93,0-11.31,4.93-11.31
	c4.351-2.61,10.44,1.16,11.6,6.38c1.74,0,0-0.87,1.74-0.87c0,2.61,0,4.06,1.45,4.06c0,1.74,1.74,2.9,1.74,2.9
	c1.739,2.32,0,4.35-1.74,4.35c0,0.87,0,0,0,0.87c0,1.74,0-0.87-1.45,0c-1.74,1.74-1.74,3.479-1.74,4.93
	c-4.64,3.48-7.249,9.57-10.439,13.92c0,2.9-4.35,3.77-2.609,6.959c2.609-5.8,6.959-11.31,10.149-17.399
	c-1.74,8.99-8.7,15.95-13.63,24.649c0-1.74,1.74-1.74,1.74-3.48c-6.09,7.54-9.57,16.53-15.08,24.359c0,5.8-4.06,10.15-7.54,15.66
	c1.45-4.35,4.351-8.7,7.54-12.47c-1.739,0-3.189,2.61-3.189,3.77c0-1.16,0-3.77,1.45-3.77c-2.32,0-1.45,2.61-2.32,3.77
	c-2.03,3.19-5.22,4.35-5.22,6.96c-6.09,13.049-13.34,25.809-17.69,39.729c1.16-1.74,2.9-1.74,4.35-3.48c0,1.74-1.45,1.74-1.45,1.74
	c5.8-2.61,12.18-2.61,16.529-5.22c0,0,1.45,0,1.45,1.16c0-1.16,2.9-1.16,6.09-2.61c10.729-3.77,23.779-5.51,33.06-9.86
	c1.74,0,0,1.16,1.74,1.16c19.429-3.77,40.309-8.12,61.188-9.57c5.22,0,7.829-1.74,12.18-1.74c6.09-1.16,12.76-1.16,18.27-1.16
	c4.93,0,9.569,0,13.63-2.32c1.739,0,6.09,0,3.479,2.32c-7.54,1.16-10.439,0-17.109,2.9c0-1.74,1.45-1.74,1.45-1.74
	c-2.61,1.74-4.351-1.16-6.96,1.74c0,0-1.74,1.45-1.74-1.74c-2.61,1.74-6.67,1.74-9.28,3.19c-1.739,0-3.479-1.45-4.64-1.45v1.45
	c-1.45,0-1.45-1.45-1.45-1.45v1.45c-1.159,0-3.77,0-6.09,0c-2.609,0-7.249,0-8.989,2.61c0-1.74,0-1.74,0-1.74s-1.45,1.74,0,0
	c-1.45,0-1.45,1.74-2.61,0c0,0,0,0,0,1.74c1.16,0-1.739,0,0-1.74c-1.739,0-1.739,1.74-1.739,1.74c-1.45,0,0-1.74-1.45,0
	c-1.74,0,0,1.74-1.74,0c-1.74,0,0,0,0,0c-1.74,0-2.899,1.74-6.09,1.74c0,0,0-1.74-1.74-1.74c0,1.74,1.74,0,1.74,1.74
	c-1.74,0-1.74,0-1.74,0c0-1.74-1.159,0-1.159,0.87c-1.45,0,0-0.87-1.45-2.61c-1.16,1.74,0,1.74,0,1.74c-2.9,0-2.9,0.87-6.09,0.87
	c0-0.87,1.45,0,0-0.87c0,0,0,0.87-1.74,2.61c-2.61-1.74-6.09,1.16-8.7,0c0,1.16,0,1.16-1.159,1.16c0,0,1.159,0,0,0
	c-3.48,0-3.48,3.19-3.48,3.19c-1.45,0,0-1.74,0-3.19c-3.189,0-4.06,1.45-5.8,1.45c0,0,0,0,1.74,0c-5.22,0-5.22,1.74-8.99,1.74
	c0,0,1.16,1.74,0,1.74c0,0,1.16,0,1.16,0.87c-4.64,1.74-10.729,2.9-15.079,4.35c0-1.45,1.159-1.45,1.159-2.61
	c-1.159,1.16-2.609,0-2.609,2.61c1.45,0,0-1.45,1.45-1.45c0,1.45-1.45,1.45-3.19,1.45c-2.609,2.61-8.7,1.16-11.6,3.48
	c-2.32,0-3.19,0-4.93,1.74c-1.16-1.74-1.16-1.74-2.9,0c2.9,1.74-1.739,0,0,2.9c-1.739-1.16-3.189,0-4.06,1.74
	c-2.03-1.74-5.22,2.61-7.83,2.61c1.45-1.16,1.45-1.16,2.61-2.61c0,0-1.16,1.45-1.16,0c1.16,0,1.16,0,1.16-1.74c0,0,0,1.74,0,0
	c0,1.74-1.16,0-1.16,1.74h-1.45c1.45,0-1.74,0-1.74,1.45c0,0,1.74-1.45,3.19-1.45c-1.45,1.45-4.93,4.06-4.93,2.61
	c-1.16,0,0,1.45,0,1.45c-1.16-1.45-1.16,0-2.9,0c0,0,0,0,0,1.74c-0.87,0-3.19,0-3.19,0s0,1.16,0,0c-2.61,1.16-5.51,2.61-8.7,3.77
	c1.45,1.45,3.19-1.16,4.35-1.16c0,1.16-1.16,1.16-1.16,2.61c-1.74-1.45-3.19,0-4.35,0c2.61-1.45,0,2.9,0,0
	c-1.74,1.16-1.74,2.9-3.48,2.9c-1.45,4.06-6.09,11.31-6.09,17.11c-1.45,0-1.45,1.16-1.45,2.9c0,2.32-2.61,5.22-2.61,7.83
	c-1.74,5.22-1.74,7.54-1.74,10.15c2.61-2.61,4.35-6.96,5.8-10.15c2.03,1.45,0,5.22-1.45,5.8c0,1.74,0,0,1.45,0
	c0,2.9-3.19,7.83-4.06,9.859c0.87,0,0.87,0,0.87,0c0,6.09-5.51,10.15-3.77,15.37c-1.74,0-1.74,0-1.74,1.74
	c-1.74,0-3.479-1.74-3.479,0c-4.35-1.74-7.54-6.96-13.05-10.15c1.16-15.079,7.25-29.579,12.18-42.048c-1.74,0-4.93,1.16-6.67,1.16
	c1.74-1.16,3.19-1.16,6.67-2.61c-1.74,0,0,0,0-1.16c-1.74-1.74-3.48,1.16-3.48,0c1.74,0,1.74-1.74,3.48-1.74c0,0,0-0.87,0.87-0.87
	c-7.54,0.87-13.05,6.38-19.14,8.12c0,0,0,0,1.74,0c-1.74,0-1.74,0-3.48,0c0,0,1.74,0,1.74,0.87c-3.19,1.74-6.09,3.48-6.09,3.48
	c-1.45-1.74,1.16-1.74,1.16-3.48c-7.25,4.93-14.79,7.83-19.429,13.05c-1.45,0,0-0.87,0-0.87S129.01,171.509,130.169,171.509z
	 M94.211,202.538c1.16-1.45,2.61-2.61,2.61-4.061c-19.72,24.07-40.019,46.689-58.869,68.729
	c18.85-19.14,36.539-39.148,53.069-60.318C92.47,206.888,94.211,204.279,94.211,202.538z M83.771,194.128
	c-11.02,6.96-20.009,14.5-26.969,22.619c2.61-1.74,4.35-4.35,6.96-5.51c-1.45,1.16,0,2.61-1.45,2.61
	c-1.16,1.159-1.16,1.159-2.9,2.899c0,0,0-1.74,1.74-1.74c-1.74,3.19-9.569,7.541-7.83,8.7c0,1.45-2.61,1.45-2.61,2.61
	c2.61-2.61,6.09-5.51,8.7-8.12c0,1.16,0,1.16,0,1.16c-6.09,5.8-13.919,13.05-19.14,21.46c0,0,0-1.451,1.16,0
	c4.06-7.541,13.05-11.891,17.979-18.27c7.83-3.19,11.6-10.15,17.689-15.66c0,0,0,0-1.74,0c6.67-5.8,11.02-11.02,15.66-17.11
	c-2.9,1.741-4.64,4.35-7.25,3.19C83.771,194.128,83.771,194.128,83.771,194.128z M44.042,240.818c0,1.159-1.16,1.159-1.16,1.159
	c8.7-5.22,16.53-15.659,22.62-22.619c-8.7,8.7-16.24,15.659-24.069,24.359C42.881,243.717,42.881,240.818,44.042,240.818z
	 M56.801,219.358c1.16,1.45-2.32,1.45-2.32,3.19C53.321,220.808,56.801,220.808,56.801,219.358z M82.031,191.519
	c-3.19,2.609-4.93,4.35-7.54,4.35c6.09-4.35,11.89-7.25,17.979-11.6C91.021,187.748,84.641,189.778,82.031,191.519z M74.491,208.628
	c0,0,0-1.74,0.87-1.74C75.361,208.628,74.491,208.628,74.491,208.628z M121.18,179.339c0,0.58-1.74,0.58-1.74,2.32
	C119.44,179.919,121.18,179.919,121.18,179.339z M124.66,174.119c-1.74,1.45-1.74,3.19-3.48,5.22
	C122.919,177.308,124.66,175.569,124.66,174.119z M130.169,175.569c-1.16,1.74,1.45-1.45,4.35-1.45
	C133.359,174.119,131.62,175.569,130.169,175.569z M185.848,105.1c-1.74,3.48-4.35,4.35-5.51,7.25
	c-9.57,8.7-18.27,21.459-27.549,31.029c-1.74,2.9-6.38,4.35-6.38,8.7c0-1.74,4.64-2.61,4.64-2.61c1.74,0,3.19,0,3.19-1.74
	c1.74,0,0-1.45,1.74-1.45c0,1.45,1.74,0,1.74,0c-1.74,1.45-3.48,3.19-4.93,3.19c0,0.87-1.74,0-1.74,0.87
	c3.19-0.87,6.67-0.87,9.28-4.06c-1.45-1.74-1.45,0-2.61,0c0,0,0,0,0-1.74c1.16,1.74,1.16,0,2.61,0c1.74,3.19-4.35,5.8-6.09,4.93
	c0,2.61-1.45,2.61-3.19,2.61c0-1.74,1.74-1.74-1.16-1.74c2.9,2.9-3.48,2.9-4.35,5.51c0.87,0,0.87-1.16,2.9-1.16
	c0,1.16,1.45-1.45,1.45,0c0,1.16-3.48,2.9-6.09,2.9c0,0,1.74,0,0,0c0,0.87-2.61,2.61-4.35,4.35c-1.74,0-4.93,1.45-4.93,2.61
	c1.74,0,6.67-2.61,7.83-2.61c0,1.45-2.9,1.45-4.64,2.61c7.83-2.61,16.529-8.7,21.169-11.31c-2.9,1.45-4.64,2.61-6.09,2.61
	c4.93-2.61,12.18-5.51,17.979-8.12c0,1.74-1.45,0-1.45,1.74c3.189-1.74,7.54-3.19,5.8-6.09c-2.61,2.9-5.8,1.16-10.15,6.09
	c0-1.74,0-1.74,0-1.74c0,1.74,0,0-1.74,1.74c-2.9,0-8.99,3.77-12.18,5.22c-1.16,0,0,1.16-1.16,1.16c0-1.16,0-1.16,0-2.61
	c6.09-1.16,13.339-3.77,15.08-8.7c-1.74,1.74-2.9,1.74-4.64,3.19c0-1.45,1.74-1.45,0-3.19c2.9,0,1.74-1.16,2.9-1.16
	c0,0,1.74,0,0-1.45c1.74,0,1.74,1.45,1.74,1.45c1.45-2.61,5.8-1.45,5.8-2.61c-1.45,1.16-1.45,3.77-3.19,3.77c0-1.16,0-1.16,0-1.16
	c-1.16,1.16,0-1.45-1.16-1.45c-1.45,1.45,1.16,2.61,0,2.61c2.9,0,2.9-1.16,4.35-2.61c0,1.45,0,1.45,1.74,1.45
	c-1.74-1.45,1.74-1.45,1.74-2.61c0,1.16,2.61,1.16,0.87,0c-0.87,0-2.61,1.16-4.35,1.16c0-1.16,1.74,0,1.74-1.16c0,0,0-1.45,1.74,0
	c-1.74,0-1.74,0-1.74,0c1.74,0,4.35,0,4.35-1.45c0,0-1.74,1.45-1.74,0c0,0,1.74-1.16,3.479-1.16
	c4.64-12.18,10.73-22.62,14.79-33.929c-1.45,0-1.45,0.87-1.45,0c0-1.45,1.45-3.19,1.45-3.19c-4.06,4.06-7.54,10.15-13.05,14.5
	c3.77-6.09,8.99-10.439,11.6-15.66c1.45,0,1.45-2.32,1.45-3.19c0,0,0,0-1.45,0.87C189.328,99.88,189.328,104.23,185.848,105.1z
	 M141.19,166.289c0-1.74,1.16,0,1.16-1.74C143.799,164.549,141.19,166.289,141.19,166.289z M148.439,146.279
	c1.45,0,0,1.45-2.03,1.45C145.539,150.339,148.439,146.279,148.439,146.279z M146.409,163.389c-0.87-1.45,2.03,0,2.03-1.45
	L146.409,163.389z M149.889,157.589c0,0-1.45,0-1.45,0.87C148.439,157.589,151.049,157.589,149.889,157.589z M154.239,163.389
	c3.48-1.45,4.64-3.19,7.83-4.93C160.329,160.199,157.719,161.939,154.239,163.389z M164.969,153.239c1.45-1.16,2.61-1.16,4.35-1.16
	C169.319,153.239,166.419,153.239,164.969,153.239z M170.769,152.079c-1.45-1.74,1.74-1.74,3.48-1.74
	C172.508,152.079,170.769,150.339,170.769,152.079z M170.769,125.11c3.48-2.61,6.09-5.22,9.57-9.57
	C178.598,118.15,174.249,122.5,170.769,125.11z M190.778,102.78c-1.45,1.45-4.93,2.32-3.48,4.06
	C187.298,105.1,190.778,104.23,190.778,102.78z M218.908,95.531c0-1.45,0-3.19,1.739-4.06
	C220.647,92.341,218.908,94.08,218.908,95.531z M231.087,129.46c-2.9,0,2.609,0,1.739-1.74
	C232.827,127.72,232.827,129.46,231.087,129.46z M245.007,48.842c0,1.45-3.48,1.45-1.74,2.61
	C243.267,50.291,245.007,48.842,245.007,48.842z M259.796,118.15c0-0.87,1.45-0.87,1.45-0.87c-1.45,0-3.19,0-3.19,0
	c1.74,0.87-1.159,0-1.159,0.87C258.056,118.15,258.056,117.28,259.796,118.15z M262.987,118.15c0-0.87,1.739-0.87,0-2.61
	c0,1.74-1.74,0-1.74,1.74c1.74,0,0,0,0,0S261.247,117.28,262.987,118.15c0,0,0,0,0-0.87V118.15z M262.987,118.15c0,0,0,0-1.74,0
	C261.247,117.28,262.987,119.89,262.987,118.15z M264.726,18.973c-1.739-2.32,3.771-0.87,2.61,0
	C267.336,18.973,265.886,18.102,264.726,18.973z M265.886,118.15c0,0,0-0.87,1.45,0c-1.45-0.87,0-0.87,0-2.61c0,0,0,1.74,0,0
	c0,1.74,0,1.74,0,2.61H265.886z M270.236,115.54c-1.739,1.74,0,2.61-1.739,1.74c0,0,0,0,0-1.74
	C268.497,115.54,268.497,115.54,270.236,115.54z M273.716,115.54c-1.74,0-1.74,1.74-3.48,0c0-1.74,3.48,1.74,3.48-1.74
	c0.87,1.74,0,1.74,0,3.48c-1.74,0,0,0,0,0S271.976,115.54,273.716,115.54z M281.256,115.54c-1.45-1.74-3.48,0-3.48-1.74
	c2.03,0,2.03,0,2.03,0c1.45,0,1.45,0,1.45,0S281.256,113.8,281.256,115.54z M282.416,112.35v1.45c-1.159,0,0,0-1.159,0
	C281.256,112.35,282.416,113.8,282.416,112.35z M298.946,111.19c0-1.74,1.45,0,1.45-1.74
	C300.396,111.19,300.396,111.19,298.946,111.19z"></path>
<path class="alexis" id="alexis_x5F_l" d="M322.839,45.362c0,0,4.35-2.03,1.45,0.87c-2.32,2.32-4.061,6.67-4.061,6.67s2.61-6.67,1.74-6.67
	c2.32-2.9-1.74,4.06-2.899,4.06c1.159,0,0-2.61,0-1.74c0-0.87,1.159-2.32,2.899-5.22c0.87-1.45,0.87-1.74,0-1.45
	c-0.87,2.32-1.74,4.35-2.899,5.8c-1.74,2.03-3.19,2.61-1.45,0c1.45-2.32-0.29-1.45-0.29-1.45c-1.45,0-6.67,8.41-7.83,9.57
	c-0.87,1.45-3.189,6.09-4.93,7.54c0.87,0,6.09-13.05,3.189-6.09c-3.189,6.09-14.789,17.4-17.979,26.969
	c-1.159,0.87-1.159,2.9-2.029,3.77c-0.87,1.45-2.32,3.19-3.19,4.35c0,0.87-2.03,4.06-4.35,6.96c-0.87,2.61-4.35,7.83-5.22,7.83
	c0.87,0,2.319-5.22,3.189-4.35c-0.87-0.87,4.35-9.569,5.51-11.6c4.061-4.93,6.96-10.439,9.28-13.05c0.87-2.61-2.32,0.87-2.32,1.74
	c-2.899,4.35-6.09,11.31-9.569,15.66c0-0.87-0.87,2.03-0.87,0c0,0-0.87,3.48-2.03,3.77c0,0,0-0.29,1.16-0.29
	c-1.16,0-2.03,2.9-1.16,2.9c-0.87,0-2.319-1.16-0.87-2.61c0.87-2.9,7.25-13.05,8.12-14.21c1.45,0,1.45-0.87,2.32-2.32
	c-0.87,1.45,0-0.87,0-0.87c-0.87,0-5.221,8.7-5.221,8.7c-2.319,2.61-6.669,8.41-6.669,8.41c0,0.29-0.87,2.9-1.74,2.9h0.87
	c-2.03-1.16-2.03,1.74-2.03,1.74c-6.09,1.45,2.03,0,1.16-0.87l-1.16,2.32c0,0-4.06,6.38-4.06,6.959c-1.16,0-1.16-0.58-2.03-0.58
	c0.87,0,0.87,3.19-1.45,4.93c0-0.87,1.45-3.19,0-0.87c-2.029,2.03-3.77,6.09-5.22,8.12c0,0,1.45,0.87,0,0c0,0-2.899,3.48-2.899,4.35
	c-0.87,0.87-3.19,3.19-2.32,4.35c-0.87-1.16,1.45-1.16,1.45-1.16c0.87-1.45-1.45-1.45,0-1.45c-1.45,0,2.029,0,2.029,0
	c0,1.45-1.159,0-2.029,1.45l0.87,1.16c-2.32,1.74-0.87,0-0.87,0.87c0,0.87-3.19,3.19-3.19,3.19c0.87,0.87-2.899,7.25-2.029,5.22
	c-0.87,0.87-4.351,6.38-4.351,6.38c-2.319-1.16,4.351-7.25,4.351-7.25s3.77-8.41,2.029-4.35c-2.899,2.9-5.51,8.7-8.699,11.6
	c-3.771,4.06-10.44,18.27-14.21,24.069c-1.45,0-7.83,12.47-4.35,6.96c0.87-2.61,4.35-8.41,6.09-12.76
	c1.159-1.74-1.74,3.48-1.74,3.48c-2.32,3.19-3.479,5.22-4.35,6.67l-0.87,3.77c-1.45,0,5.22-10.439,1.74-6.09
	c-0.87,0.87-3.19,4.93-4.351,6.09c-0.58,3.19-1.74,6.09,0,1.45c2.61-3.48,0,0.87-0.58,3.77c0,0.87-2.029,3.19-3.479,3.19l3.479-3.19
	c0,0,0-2.9,0-3.77c0.58-3.48,6.09-8.7,4.931-11.89c0-2.03-0.87,3.19-3.19,5.22c0,0,1.45-2.03-1.16,1.45c0,0.87-1.74,2.61-1.74,3.77
	c0,0,1.16,0-0.869,2.32c-1.45,0.87,0-0.87,0-0.87c-2.32,0,0,3.77-2.32,4.64c0,1.45-2.03,1.45-2.03,2.32c0,1.16,0,0,0,0
	s-3.189,4.35-3.189,5.22c0-0.87,1.45,3.479,0,3.479v-4.35c0,0-2.03,2.9-1.16,2.9c0,1.449,1.16-1.16,1.16-1.16
	c0,2.609-4.35,8.699-6.38,12.18c-0.87,1.74-3.19,6.96-0.87,1.74c0-1.45,2.03-3.19,2.03-4.35c2.319-3.19-2.03,2.609-2.03,2.609
	c0,0.29-0.87,1.74-0.87,2.609c-1.45,2.03-1.45,2.03-2.609,4.351c0-0.87,0,1.159,0,1.159c-0.58,0.58-0.58,0.58-1.74,3.19
	c0-1.45-3.19,2.899-3.19,3.771c-1.159,0-2.029,4.35-2.029,4.35c-1.45,3.189-3.19,4.06-4.351,7.539c0-1.449-5.22,8.99-4.06,6.961
	c-1.16,3.479-4.64,3.479-3.479,0.869c4.06-8.699,8.409-20.59,12.76-26.68c3.77-6.379,8.119-15.659,11.31-22.039
	c0-0.869,0.87-3.19,0.87-5.22c2.609-0.87,0,1.16,0,1.16s2.609-5.22,2.899-6.09v0.87c1.45,0,1.45-2.03,1.45-0.87
	c0-2.61,4.35-9.57,6.38-11.6c6.09-7.54,6.96-14.79,11.31-20.009c0.87-1.74,5.22-7.54,5.22-8.41c0,0-2.029,4.06-2.899,3.479
	c0.87,0.58-1.45,0.58-2.32,3.19c-2.03,2.9-5.22,9.86-7.25,13.34c0,0.87-3.479,6.09-4.06,6.09c0.58,0,6.96-13.34,9.279-15.66
	c6.38-11.31,11.311-20.879,17.689-31.319c2.32-2.03,5.221-8.7,2.32-2.9c-3.479,6.09-9.279,16.53-12.76,22.91
	c-2.899,4.93,3.48-4.35,4.061-7.25c1.159-2.32,2.029-2.32,3.479-3.48c0-0.87,0-1.74,0.87-2.61c0.87-1.45,8.12-11.89,7.25-12.76
	c0-2.61,5.22-7.25,6.09-9.57c2.609-2.03,4.35-6.09,5.22-9.57c2.319-2.9-0.87,0.87-0.87,2.32c-1.74,2.9-7.25,9.57-8.12,12.47
	c-1.449,1.45-2.319,3.19,0,1.45c6.96-17.109,21.75-37.119,34.22-57.128c6.09-10.44,14.789-18.56,20.01-29.87
	c1.449-1.45,0-3.48,2.319-4.06c0,0,2.9,1.74,4.35,2.61c1.74,1.45,1.74,4.35,2.9,6.09c1.74,3.48,8.7,5.22,7.54,11.31
	c-1.45,3.48,0-1.74,1.16,0C325.45,43.332,322.839,45.362,322.839,45.362z"></path>
<path class="alexis" id="alexis_x5F_e" d="M374.063,143.669c-1.74,0-3.48,1.74-3.48,1.74c-1.74,1.74-3.77,5.8-5.51,7.54c-1.74,0-4.06,0-4.06,1.74
	c0,0,0,0-1.74,2.03c0,0-1.74,0-3.479,0c0,1.74,0,1.74-2.03,1.74c-1.45,1.74-5.8,4.06-6.96,5.8c-2.61,2.03-4.06,2.03-6.09,3.479
	c-1.45,0-3.479,2.03-5.22,2.03c-5.8,3.48-13.05,7.54-18.85,11.02c-5.51,2.03-11.31,5.51-16.819,9.57c-1.74,0-5.221,1.741-7.54,1.741
	c-1.74,1.739-3.48,1.739-3.48,1.739c-2.029,2.03-2.029,2.03-3.77,2.03c0,1.74-1.74,1.74-3.479,1.74l-2.32,1.739
	c-1.74,0-1.74,0-3.48,0c0,1.74-2.029,1.74-3.77,4.06h-2.32c0,0,0,1.74-1.159,1.74c1.159,0-2.32,0-2.32,0s0,0,0,1.74
	c-1.74,0-1.74,0-1.74,0c-1.739,1.74-1.739,1.74-3.479,1.74v2.029h-2.03c-1.74,0-3.479-2.029-3.479-2.029h-2.32
	c-3.479-1.74-3.479,0-5.22-3.48c0,0,0,0-2.03,0c0,0,0,0,0-1.74c0,0,0,0-1.739-2.319c0-1.74-2.32-1.74-2.32-3.479
	c0-1.74,0-1.74-1.16-1.74c0,0,0,0-2.319,0c0,0,0,1.74-1.74,1.74c0,0,0,0-1.74,0c-2.03,0-2.03-3.771-3.77-7.25c0,0,0,0,0-2.32
	c0,0,0-1.74,1.739-1.74c2.03-2.03,2.03-2.03,3.771-3.479c0,0,1.74-2.03,4.06-3.48c1.16-2.03,5.22-3.77,8.99-6.09l1.739-1.74
	c0,0,1.74,0,1.74-1.74v-2.03c2.32-1.45,4.06-3.479,5.8-3.479c0-1.74,2.03-4.06,3.771-5.8c3.479-3.77,6.959-5.51,11.02-8.99
	c9.569-7.54,16.819-13.049,28.129-19.139c0-1.45,1.74-1.45,3.48-1.45c0-2.03,1.739-2.03,4.06-2.03c0-1.74,0-1.74,1.74-1.74
	c0,0,0,0,1.739-1.74c0,0,2.03,0,3.771,0c1.74-1.74,3.479-4.06,3.479-4.06c2.32,0,2.32,2.32,4.061,4.06c0,1.74,3.479,3.48,5.51,5.51
	c0,0,0,0,0,1.45c1.739,0,3.479,2.03,3.479,6.09c0,0,0,1.74,0,3.479c0,0-3.479,2.03-3.479,3.77c-2.03,1.74,0,1.74-2.03,1.74
	c0,0,0,0-1.74,0v1.74l-1.739,2.32c0,0,0,0-1.74,0c0,0,0,1.74-2.32,1.74l-1.739,1.74c-1.74,0-1.74,1.74-3.48,3.77
	c0,0-2.03,0-3.77,1.74c0,0-1.74,1.74-4.061,1.74c-1.739,2.32-1.739,2.32-1.739,2.32s0,0-1.74,0v1.74c-1.74,0-1.74,0-3.77,2.03h-1.74
	c-1.74,0-1.74,0-1.74,1.45h-1.74c0,0,0,0-2.319,0c0,2.03,0,2.03,0,2.03s0,0-1.74,0l-1.74,1.74c0,0-2.029,0,0,0
	c-2.029,1.74-2.029,0-3.77,0v1.74c0,0,0,0-1.74,2.32c0,0-1.739,0-4.06,0v1.74c-1.74,0-1.74,0-1.74,0c-1.74,0-1.74,0-1.74,0
	c-2.029,2.03-3.77,2.03-6.09,3.48c-1.159,0-1.159,0-3.479,0c0,2.03,0,2.03-1.74,3.48c-1.739,0-1.739,0-3.479,0v2.03
	c-2.03,0-2.03,0-3.771,0v1.74c-1.739,2.32-1.739,2.32-1.739,5.8c-2.32,0-4.061,5.51-4.061,7.25c1.74,0,5.8,0,7.54,0
	c2.03-1.74,2.03-1.74,3.771-1.74h1.739c1.74-1.739,4.061-1.739,5.22-1.739l2.32-1.74h1.74h2.029c1.74-2.03,3.48-2.03,7.54-3.77
	c0,0,1.74,0,3.48-1.741c2.029,0,3.77-2.32,5.51-2.32c2.319,0,4.06-1.74,5.8-1.74c0,0,1.74-2.03,3.77-2.03
	c1.74-1.45,3.48-1.45,5.22-3.48c0,0,0,0,2.32,0c0,0,1.74,0,1.74-1.45c1.739,0,1.739,0,3.77-2.03h1.74v-1.74c1.74,0,1.74,0,3.479,0
	c0-2.32,4.061-2.32,5.8-4.06c1.74-1.74,5.51-3.77,7.25-3.77c0-1.45,2.32-1.45,2.32-1.45c3.77-2.03,5.22-3.77,8.699-6.09
	c0,0,2.61,0,2.61-1.74h1.16l2.319-1.74h2.03c5.22-3.77,11.02-7.25,18.27-11.31c1.74-1.74,5.8-5.51,7.54-5.51
	C378.123,139.899,376.382,141.93,374.063,143.669z M292.285,149.469h2.319v-2.32v2.32l3.48-2.32c1.74-1.74,3.77-1.74,5.51-3.48
	c0,0,9.279-5.51,7.54-5.51h-1.74c0,1.74-2.32,0-2.32,0v1.74c0,0,0,0-1.739,0l-5.51,3.77c0,0,3.77-1.74,2.029-1.74l-2.029,1.74
	c-1.74,0-3.48,1.74-3.48,1.74h-1.74c-2.319,1.74-2.319,1.74-2.319,1.74c-1.74,2.32-1.74,2.32-3.48,2.32c0,0-2.029,1.74-2.029,3.48
	c-1.74,0-1.74,0-1.74,0c-1.74,1.74-1.74,1.74,0,0c0,0,0,0,1.74,0c0-1.74,2.029-1.74,3.77-1.74c0,0,0,0,0-1.74H292.285
	c2.319-2.32,0,0-1.74,0v1.74C292.285,151.209,292.285,149.469,292.285,149.469z"></path>
<path class="alexis" id="alexis_x5F_x" d="M435.637,122.79c-0.87,0-2.9,2.61-5.22,3.19c0.58,0,0.58-0.58,0.58,0c-0.58,0.87-1.45,2.03-3.48,2.9
	c2.03-0.87,2.03-0.87,2.9-2.03c0.58,1.16,0,1.16,0,1.16s0,0,0.58,0c-0.58,0.87-4.351,2.32-1.45,0.87
	c-12.18,11.89-23.489,14.5-31.609,22.33c0-0.87,0.29-0.87,0.29-1.74c-1.16,0.87-2.9,1.74-3.771,3.48v-1.45
	c-1.739,2.32-2.609,1.45-4.93,3.48c0.58-2.03-2.029-0.29-3.77,1.74c0,0-3.19,1.45-4.93,4.06c0-1.45,0.58-1.45,1.739-1.74
	c-1.159,0-2.609,0.29-1.739,0c-2.03,1.74,0,1.74,0,2.9c0-1.16-2.9-0.87-0.87-1.16c-2.9,0.29-1.16,0.29-2.9,1.16l0.87-0.87
	c-2.319,3.48-4.35,1.74-4.35,4.35l1.16-0.87c-1.16,0-1.74,0.87-1.16-0.87c-0.58,2.61-4.93,1.74-2.32,6.96
	c0-3.48,2.32,6.09,2.32,7.83c1.16,2.61,4.35,9.28,5.22,11.89c-1.74-1.74-3.189-6.67-4.06-7.83c1.739,6.09,6.09,12.18,7.829,17.399
	c-5.51-8.409-10.439-17.399-5.51-7.54c3.771,7.83,7.25,15.66,11.31,26.1c1.16-0.87,1.16-0.87,1.16-1.74
	c0.87,2.61,3.19,5.221,4.93,9.28c-4.93-6.67,3.48,7.249,5.221,9.569c3.77,5.221,8.119,8.7,11.6,13.05
	c-13.05-9.28-36.539-40.889-43.789-56.259c-3.19-3.77-7.54-13.919-10.15-13.049c2.32-1.74,1.45-2.61,0-4.35
	c-0.869,1.74-2.029,2.61-1.159,3.48c-1.74,0-0.87,0.87-3.19,0c0,3.19-0.87,1.45-2.029,4.06c1.159-1.45,1.159,1.16,2.029-0.87
	c-0.87,3.77-6.38,6.09-8.119,8.7c-0.87-1.74,0.869-0.87,0.869-2.61c-3.479,4.351-7.829,6.09-12.18,11.31
	c0-4.35-6.67,5.51-9.279,5.51c-0.87,0-7.83-12.469-7.83-12.469c2.32-4.351,13.05-11.021,19.14-15.37
	c3.479-2.61,7.54-6.09,10.149-7.83c1.74-0.87,6.38-3.48,7.25-5.22c1.45-2.61-5.22-14.21-5.51-18.56
	c-0.87-4.35-4.35-15.37-3.479-16.24c1.739-0.87,19.429-7.25,20.879-6.09c0,0.87,1.16,13.63,1.16,13.63
	c-1.16,0.87-3.479-6.67-3.479-5.22c-0.87,4.35,0,7.83,0.869,11.31c0.87,3.77,1.45,12.47,2.61,13.339c1.45,0,5.22-2.9,5.22-2.9
	c25.81-15.66,54.809-28.419,84.389-44.369C450.136,113.8,439.987,120.76,435.637,122.79z M350.089,185.429
	c0-1.74,2.029-1.16,2.029-2.9C350.089,183.688,348.639,184.268,350.089,185.429z M354.439,167.159c-1.45,0.87-2.32,0.87-2.32,1.74
	S352.989,168.029,354.439,167.159z M380.829,150.339v-0.87c0,0.87-0.87,1.74-2.03,0.87c0,0.87,1.16,0.87,0,1.16v-0.29
	c-0.87,0,0,0.29-0.87,0.29c0-1.16-0.87,3.48-2.319,4.35c-0.87-1.16-5.221,2.32-6.96,0.87c0,0-3.771,2.61,0,2.61
	c1.739-2.61,1.739,2.61,0.87,3.48c0-0.87,1.739-0.87,2.609-1.74c0,0.87-1.74,0.87-0.87,0.87c1.74-1.16,3.48-1.16,5.22-3.77
	c-0.869,0.87-1.739,0.87-2.899,1.16c-0.58-0.29,4.35-4.64,2.899-0.29c6.09-4.35,13.92-7.83,19.72-12.18c-0.87,0-1.74,0-1.74,0.87
	c0-0.87,0-0.87,0-1.45c-0.869,1.45-4.06,4.06-4.93,4.06c-2.029,0.87,4.061-6.09,4.061-6.96c-3.48,1.74-5.221,4.35-8.41,6.96
	C384.308,150.339,380.829,148.599,380.829,150.339z M371.258,183.688 M372.128,176.729c0.87,1.74,0.87,3.19,1.45,4.35
	C373.579,179.339,372.999,177.599,372.128,176.729z M386.628,208.048c-1.45-1.16-3.48-4.641-4.061-8.12
	C384.308,202.538,385.178,205.438,386.628,208.048z M386.628,151.209c0,1.74-2.32,1.74-3.48,2.61
	C383.148,152.949,385.758,151.499,386.628,151.209z M394.458,142.51c-2.609,13.339,7.25-8.7,2.61-0.58
	c0.87,0.58,1.16,1.45,1.16,1.45s0,0.87,0,0c1.45,0,2.319-2.61,1.45-3.48c-1.74,2.61-2.61-0.87-5.221,3.48
	C394.458,142.51,394.458,142.51,394.458,142.51z M402.578,141.93c0,0-2.03,0-1.74-2.03c-0.29,2.03,3.48,2.61,0,4.35
	c0.87-0.87,1.74-0.87,0.87-1.74c-0.87,0.87-0.87,0.87-1.16,0.87c0,0,1.16-0.87,0.29-0.87c0,1.74-3.77,2.61-4.64,5.22
	c1.74-1.45,2.03-1.45,4.35-2.61c-0.869,0-0.869,0-2.319,1.16c2.609-2.03,7.83-3.77,7.83-5.51
	C404.318,141.93,402.578,142.51,402.578,141.93C402.578,140.769,402.578,140.769,402.578,141.93z"></path>
<path class="alexis" id="alexis_x5F_i" d="M454.909,142.8c-1.45,0.58-1.45-0.87-1.45-0.87l-2.61,5.22c-0.87,1.74-1.739,7.54-2.899,7.54
	c-3.19,0.87,2.899-7.54-0.58-4.35c-0.87,1.74-1.74,2.61-1.74,2.61c-1.74-0.87,4.06-6.09,0.87-0.87c-0.29-1.45,1.45-5.22,1.45-5.22
	l-1.45,1.74c-0.87-0.87,0-1.45,1.45-1.74l-1.74-0.58l-2.61,5.22c-0.869,2.61,0.87,2.32-1.739,3.19c-2.32,1.16-3.48,3.77-4.351,3.77
	c0.87,0.58,0,0,0,0c-0.869,0.58-4.93,10.15-6.959,12.76c-1.45,1.16,0,0-1.45,1.16c0,0,0.87,1.45-0.29,1.74
	c0.29-1.74-2.32,2.32,0.29,1.45l1.45-3.48c0,0,0-0.87,0.869-1.74l0.29,0.87c0.87-1.45,0.87-2.61,0.87-2.61
	c0.87-1.45,3.19-4.35,3.19-4.35s0,0-1.74,0.87c2.899-1.74,0.87,2.9,0,0.87c0.87,1.16,0.87,1.16,0.87,1.16
	c0,0.87-0.87,0.87-2.32,2.61c0,0,1.74,0.58,0.58,0.87c0.29,0.58-0.87,1.45-1.74,2.61c-0.869,2.32-1.739,3.48-1.449,4.93
	c-0.87,0.29-2.61,1.74-2.03,2.61c0.87,0.87,1.16-0.58,1.16-0.58s-0.29,1.45-1.74,2.61c-1.16,0.87-2.03,3.19,0,0
	c0,0,1.74-3.48,0-0.87c0,0-2.61,6.09-4.35,5.8c0,0,2.609-5.22,0.87-2.61c0,0-0.87,2.61-2.03,2.61c0,0-0.87,2.61-1.45,2.61l0.58-0.87
	c0,0-1.45,0-3.189,0.87c-0.29,1.161-2.9,3.48-2.9,5.219c0-1.739-2.32,3.48-0.58,0.871c2.32-7.54-2.899,2.609-4.64,4.35
	c-0.58,0,0-1.45,0-1.45c-0.87,0.58-1.74,2.61-2.32,4.931c-1.16,0,0,0-0.87,1.159c-1.739,0-3.77,6.09-3.77,3.19
	c1.16-1.74-0.58,2.029-0.58,2.029c-0.87,0-0.87,0-0.87,0c0.58,1.45-0.87,2.32-0.87,2.32c-1.159,1.74,1.45-0.87,0-0.58
	c0,0-2.029,3.48-2.899,4.061c0.87-0.58-0.87-2.61,0.29-1.451c-1.16,0.58-0.29,1.451-0.29,1.451s0.87-0.58,0.29,0.289h-1.74
	c0.58,0.58,1.74,0,0.58,1.45v-0.87c-1.45,0.29-1.74,1.74-1.74,1.74c-0.87,0-1.739,2.609-1.739,2.609s0.869-3.479,0.869-2.609
	c0-0.87-1.739,2.9-0.869,2.609l-2.61,3.48c-1.45,1.74-1.45,1.74-2.32,3.48c0,0-1.739,1.159-0.29-1.451
	c0-0.869,1.16-0.289,0.87-1.159c0,0,0,0,0-0.87c0.87-2.609,2.61-5.22,3.48-7.54c1.739-2.61,1.16-4.64,3.479-7.249
	c0.29-1.74,1.16-2.32,2.03-4.061c1.74-3.77,6.09-12.47,6.67-13.92c0.87-5.51,6.09-13.049,12.18-21.169
	c4.35-10.149,8.699-19.139,13.34-26.969c0.58-0.87,3.479-5.22,3.479-6.09s-1.74,0,0-1.74c0-1.74-1.74,0.29-1.16-2.61l0.87-0.87
	c0.87,0,1.16,0.29,2.9,0c0,0-0.87-1.74,0.869-0.87c0.87-0.87,0.58,0.29,0.58,0.29c1.16,0,0.29-1.16,0.29-1.16
	c1.45,0,4.931,0,4.931,0c2.029,1.74-0.87,1.74,1.159,0.87c0.58-1.45,0.87,0.87,0.87,0.87s0.58-1.45,1.45-0.58
	c2.61,0.58,2.61,0.58,5.51,1.45c0,0,2.32-2.61,2.61-1.45c0,0.87-0.29,2.32-0.29,2.32c0,0.87,2.029,2.61,2.029,2.61
	S456.068,140.189,454.909,142.8z M417.5,171.509c0,0,0-0.87,1.159-1.16c0,0-1.159,1.16,0,0.87c0.87-1.45,0-0.87-0.29-2.32
	c0.29,1.45,1.16,0.87,1.16,0.87c0.58-1.16,1.45-2.03,1.45-2.03s-2.32,2.61-1.74,0c0.87-2.32,2.61-0.58,1.74-2.32
	c0.87,0.87-0.58,0.87-0.58,0.87l1.45-3.48c0.29,0.87,0.29,2.32,0.29,2.32c1.45-1.74,0.87-3.19,0.87-3.19
	c-2.03,0.87-2.9,3.48-3.771,5.8C418.369,168.899,416.919,172.089,417.5,171.509z M428.229,156.719
	C427.359,157.299,427.359,158.459,428.229,156.719c-0.29,2.32-2.9,4.06-2.9,3.19c0,0.87,0,2.03,0,2.03
	c-0.869,0.58-1.739,1.45-1.739,1.45s-0.58,3.77-1.74,3.77c1.16,0,0-0.87,0-0.87c0,0.87,1.16-0.29,1.16,0.87
	c-0.87,0.87-2.03,2.61-3.48,2.61c0,0,0,0,0.87,1.45c0,0-1.74,0-2.609,1.16c0.869-1.16,0.579,1.45,0.579,1.45s-0.579-1.45,2.61-2.32
	c2.03-1.16,2.03-4.35,4.35-7.83c-1.739,4.06,0.29-0.87,0.87,0l-1.45,3.19c-1.739,0.29-0.869,2.03-0.869,2.03s1.739-2.9,2.319-5.22
	c2.61-2.61,2.9-5.22,6.38-8.12c0.58-2.32,2.32-4.06,0-3.19c-0.87,1.45,0.87-1.16,0,0c-1.16,0.58-1.74,2.61-1.16,0.58
	C431.419,151.499,428.229,156.719,428.229,156.719z M422.719,172.379C422.719,172.379,420.979,173.249,422.719,172.379
	C423.879,172.089,422.719,169.479,422.719,172.379z M426.199,175.569c0,0,2.9,0,2.61-1.45
	C426.199,175.569,425.329,178.179,426.199,175.569z M429.099,172.379c0,0-0.87-0.29,0.58-0.87c0.87,0.58-3.48,4.06-1.45,1.45
	C428.229,172.959,428.229,172.959,429.099,172.379z M439.249,167.739c-1.74-0.58-0.87,1.16-0.58,2.61
	c-0.29-1.45-2.029,2.61-2.029,2.61s0,0-1.45,0.29c1.45-0.29,0.87,0.87,0.87,0.87c-2.61,2.32-6.38,9.28-4.641,7.83l-2.319,1.74
	c0-1.16,2.609-4.35,2.319-4.64c2.61-4.35,3.771-6.96,6.96-10.15C438.378,168.899,437.508,167.159,439.249,167.739z M429.679,157.299
	c-1.45,0.87,1.159-1.45,1.159-2.32C432.289,154.689,429.679,157.299,429.679,157.299z M433.449,171.219c1.45,0-0.87,4.64-0.29,2.9
	c-0.58-1.16-0.58-1.16,0.87-1.74C432.579,172.959,434.899,171.219,433.449,171.219z M433.159,165.419 M449.688,125.98h-3.189
	c-0.29-0.87-0.29-0.87-0.29-0.87c0-0.87-1.74-0.87-1.74-1.74c-3.189-2.61-4.06-6.96-1.739-8.41c1.739-0.29,2.029,0.58,2.609,0.58
	l0.29-1.74c0.87,0,0.58,1.16,2.61,0.87v-1.45c1.449,0,1.449,1.45,1.449,1.45c0.29-1.45,0.29-1.45,0.29-1.45l0.87,0.58
	c1.74-0.58,3.19-0.58,3.48-0.87l2.319,0.29c2.03-0.87,3.48-1.74,4.351-3.48c0,0,3.77-2.03,5.22-2.03c0.87,0.29-1.45,1.16-0.58,2.03
	c0.58,1.74-2.61,3.48-2.61,3.48c0.58,1.45,3.48,0,3.48,0c1.739,1.45,0,1.74,0,2.61l3.479-0.87c0,0-1.74,0.58-2.03,2.32h1.16
	l1.74,2.9c-1.16,1.45-4.35,1.45-4.35,1.45c-1.74,0-0.87,0.87-0.87,0.87l-0.87-0.87c-2.03,1.74-2.9,2.61-4.35,2.9
	c-1.16,0-0.87-1.16-0.87-1.16c-1.16,0-5.22,1.16-5.22,1.16C453.459,125.11,450.558,125.98,449.688,125.98z M442.149,161.649
	c0,0-0.87,3.48-0.29,1.16C441.859,162.809,442.729,160.199,442.149,161.649z M444.468,157.299c0,0-2.319,4.35-0.87,1.74
	C443.598,159.039,442.729,158.459,444.468,157.299z"></path>
<path class="alexis" id="alexis_x5F_s" d="M529.478,148.599c0,0-3.479,1.74-3.479-0.58c0,0,4.64-1.16,3.77-1.74c1.74,0.58,3.19,0,3.19,0
	c0-0.87-4.351,0-4.351,0c-0.869,0-3.189,1.74-3.189,1.74c-2.61-0.29-0.87-1.74-2.61-0.29c0,0.87-2.899,0.29-4.35,0.87
	c-2.03,1.16-5.22,2.03-6.09,1.74l-1.16,0.87c-1.739,1.16-3.189,1.74-5.22,1.74c-1.45,1.74-4.93,2.61-7.54,3.48
	c-2.899,1.74-7.249,4.35-10.729,4.64l-2.609,1.74l2.029,0.58c15.66-0.58,29.289-4.06,46.109-4.06c0.87,0.58,1.739,0.58,3.189,0.87
	c6.09,0.58,14.21,0,22.04,2.61c0.58,0,2.609,1.74,2.609,1.74c1.45,0,3.19-0.87,2.32,0c-2.32,1.74,2.609,1.74,2.609,2.61
	c0,0-3.189-4.35,0-1.74c1.16,1.45,1.16,3.19,2.03,4.35c2.32,1.45,3.48,3.19,4.35,4.06c0.87,2.03,3.19,0.29,2.32,2.9
	c0.87,1.74,1.16,2.61,0.29,4.35c-1.16-0.29,0,0-1.16,0.87c-0.58,1.45-3.479,2.32-5.22,3.19l0.29-2.32c0,0-5.51,3.479-6.09,3.19
	l-0.87-1.45c-2.609,0.87-5.51,2.61-9.569,3.48c-2.61,0.87-5.22,1.45-8.12,1.74c0,0,0.29-0.87-1.45-1.16
	c-0.29,0.29-0.29,0.29-1.16,0.29c0,0-3.479,1.45-4.93,1.74c0,0,6.09-2.03,7.83-2.9c-2.03,1.16,0.87,0,0.87,0s-4.351,0.29-5.22,0.29
	c0.869,0-1.16,0.58-2.03,1.45l0.87-0.87c-1.45-0.87-5.22,1.16-6.09,1.16c-0.87-0.29-0.87-0.29-2.32-0.87
	c-1.74,0-2.03,0.58-2.899,1.74c-2.61,0.871-5.8,0-7.54,0.871c-2.03,0.58-4.35,0.869-5.51,1.739c-1.74-0.29,0,0-0.87,0l-2.32,0.87
	c0-1.74,5.8-2.029,5.8-2.029c0.29-2.611-5.8,0.289-1.449,0c-2.03,0-4.351,0-6.38,0c-0.58,1.159-2.32,2.029-3.19,1.739
	c-2.03,0.29-4.64,1.16-6.38,1.739c-0.87-0.579-4.06,0.291-6.09,0.871c-0.58,0.869-1.74,1.74-3.189,1.16c0,0-0.29-1.74-0.29-1.16
	c0,0-0.58,1.16,0.87,0.289c-1.45,0.871-3.19,1.74-4.931,2.32c-3.77,0.29-8.699,3.77-10.439,2.9c0,0-6.38,0-7.25,0.869v-0.869
	c-0.58,0.869-8.699,1.74-10.439,1.74c-3.48,1.739-10.149,3.479-14.79,4.35c-2.319,0.58-3.479,1.449-4.35,2.609
	c0.87-1.16-0.87-1.74-0.87,0c0-1.74,4.35-2.609,4.35-2.609c-0.579-1.74-5.22,0.869-6.09,1.74c-7.539,1.739-12.76,5.219-19.14,5.799
	c-3.189,1.16,4.641-2.319-0.869,0c-2.32,0.291-4.351,1.74-6.67,2.61c-2.61,0.29-3.771,1.16,0.58-0.87c0.29-0.869,2.609-0.58,0,0
	c-3.19,1.16-9.57,3.77-10.15,3.77c-1.739,0-3.479,0.58-0.29-0.289c6.09-3.48,14.21-6.96,21.17-9.57
	c6.67-2.609,13.92-4.93,21.459-8.41c16.53-5.219,30.739-10.439,45.529-15.079c3.19,0,6.09-1.45,9.28-2.32
	c-1.74,1.45,2.029-0.29,3.77-1.16c11.89-3.19,29.289-8.7,37.409-11.02c0,0,6.09-1.74,1.74-1.16c-1.74,1.16-5.221,1.74-8.12,0.87
	c0,0-0.58-1.74-2.32-0.87c-1.16,1.16-2.029,2.03-4.35,1.74c1.45,0.29,0.58-2.61,0.58-0.87c-1.45,1.16-0.87-0.58-2.32,0.29
	c-0.87-0.29-1.16,0.58-1.739,0.87v-0.87c0,0-1.16,0.58-2.03,0c-1.74,1.45,0,0-1.74,1.45c-0.58-0.58-4.93,0.29-4.93-0.58
	c0,0.87,2.32-0.29,2.32-0.29c-1.74,0-4.931,0.29-4.931,0.29s0,0-0.869,0.58c-0.87,0.87-4.351,0.29-4.351,0.29
	c-1.739-0.29-8.699,0-10.439,0.87v1.45c-1.74,0.29-4.35,0-3.48,0.29c-0.869-0.29-1.159,0.87-1.159,0.87c-0.87,0.58-3.48,0-5.8,0.58
	c-0.87,0-3.771,1.16-3.771,1.16l0.87-1.74c-1.45,0-7.83,0.58-9.569,0.58c-1.74-0.58-4.061-3.48-3.48-4.06c-0.58-2.61,0,0-0.58-0.29
	c-3.77,0.29-2.029-4.35-3.479-5.8c-2.03-1.16-0.87,0.87-1.74-2.03c-0.29-2.61-3.479-3.48-1.74-6.96c1.74-5.22,7.83-9.57,13.05-12.18
	c7.54-4.35,15.37-7.83,22.33-9.57c2.899-1.74,6.38-2.61,9.569-4.35c4.35-0.87,7.83-2.32,11.31-3.479
	c12.47-4.35,22.91-6.09,35.09-5.8c2.319-0.87,8.409-0.29,10.149,0.87c0.87,0.87,0.29,0.87,0.87,2.32c0.29,1.16,0.29,0,2.609,0.87
	c0,0.87,0.87,2.61,1.74,2.9c0.87,0,1.16-0.87,2.03,0.58c2.609,0,2.609-0.87,4.06,0.29c0.87,1.74-0.87,3.19,0,3.48
	c0,0,0.87,0.58,0.29-1.16c0.58,1.74,0,2.61,0,4.64c0.58-1.16,0.58-1.16,0,0.87c-0.87,3.48-1.74,6.09-3.479,8.41l0.58-0.87
	c-3.19,0.87-3.19,6.38-3.48,6.38c-0.58,0.58-2.609-2.61-1.74-2.61c-0.869,0-1.449,1.45-1.449,1.45s-0.87-2.61-1.74-1.74
	c-3.77-0.87-7.83-0.87-9.859-1.74c0,0-2.32,0.87-2.32-0.58c0,1.45,4.93-1.16,1.45-0.29c-1.45,0.29-5.22,0-7.54-0.87l-20.01,2.61
	C526.869,150.339,530.348,148.89,529.478,148.599z M433.781,210.658c-0.87,0.87,0,0.87-2.61,1.74
	C427.981,213.268,434.941,210.658,433.781,210.658z M434.941,210.658c0,0,2.319-0.289,3.189,0
	C438.13,210.658,434.941,212.108,434.941,210.658z M450.6,204.279c-1.16,0.869-2.899,1.739-2.899,1.739
	C447.991,207.178,451.47,204.568,450.6,204.279z M533.829,130.33c-0.87-0.58-4.351,0.87-5.8,2.03c0.579-1.16,0,0,0,0
	c-2.03,1.74-5.221,0-6.09,0.87h0.869c-1.159,0.58-0.869,0-0.869,0s-0.87,0-1.16,0.58c-1.74-0.58-5.22,0.87-8.7,1.16
	c-3.189,2.32-12.18,4.06-16.239,6.09c0,0.87,0,0.87-0.87,0.87c-2.61,0.58-8.99,4.93-12.18,4.93c0,0-2.9,1.74-2.61,2.03
	c0,0,6.96-2.9,4.061-0.29c-4.061,0.87-9.57,2.61-12.18,5.22c-1.74,0.29-10.44,7.83-9.28,9.86c0.87,0,1.45-1.74,2.32-0.29
	c0.29-0.87-1.45,0.29,0,0c0,0,0.87-1.74,1.739-1.74c1.16,0.29,1.16-2.32,2.61-2.61c0,0-0.58,0.29,0,0c1.16,0,1.16,0,2.03,0
	c0.87-0.58,0.87-2.32,1.739-2.32c1.74,0.58,0,0,1.74-1.16c0.58-0.87,2.32-0.58,2.32-0.58c2.899-0.29-4.061,3.479-4.061,3.479
	s1.74-1.16,0.58-0.87c0,0-1.739,1.45-2.319,1.45c-0.87,0-1.16,0.87-1.16,1.74c0-0.87-5.22,2.61-4.06,4.64
	c-0.29,0.87,2.319-2.61,2.319-2.61c2.61-1.74,6.09-4.35,8.12-4.35c14.789-6.379,32.77-14.79,46.688-19.139
	c3.771-1.16,8.12-2.03,11.311-2.9c0,0,3.77,0.87,3.77-0.87c0.87-0.87-2.9,0-2.9,0c-3.189,1.74-8.409,1.16-12.76,2.61
	c-2.899,0.87-6.38,3.48-8.989,2.61c-0.58,0-0.58,1.16-0.58,1.16c-1.74,0.58-1.74,0.58-2.61,0c0,0-4.64,2.32-5.51,2.32
	c-0.58,0-1.739,0.29-2.319,1.74c-1.16-0.58-1.16-0.58-2.03-0.87c0,0,0.87,0.29,0,0c-0.58,1.16-0.87,1.16-0.87,1.16l-5.8,2.32
	c0,0,0,0-1.16,0.29c1.16-0.29-2.319,0.87-0.87,1.45c-3.479-2.32,2.9-2.61,3.48-4.06c4.64-2.03,8.989-4.35,14.789-6.09
	c6.96-2.03,16.82-5.51,19.43-5.51c2.32,0.29,8.41,0.87,8.7-0.87c0,0-1.16,0-2.03-0.87c0.87,0.87,2.03-1.74,1.16-0.87
	c-1.16,0-2.03-0.58-2.03-1.74C535.858,129.75,533.829,130.33,533.829,130.33z M471.48,163.389c-1.16,0.87-3.48,0.29-2.61,1.74
	C468.58,166.289,472.06,163.389,471.48,163.389z M492.359,152.949c-3.479,1.16-4.64,2.03-6.09,2.9l-0.87-1.16
	c-0.869,0.87-1.159,2.9-2.609,3.77l0.58-0.87c-2.61,0.87-5.8,0.87-6.09,2.61c-1.45,1.74,0,0-2.32,0.58l-1.16,1.16
	c1.16-1.16,2.03,0,2.61-1.16c-0.58,1.16-5.22,3.48-4.35,3.48l4.64-1.74c2.609-1.74,6.09-4.06,9.279-4.06c2.61-0.87,0,0,0.29-1.16
	l2.32-2.32c0.87,0.58,0.87,0.58,2.03-0.29c1.449,0.29,4.93-0.87,3.189-1.45c0,1.45,0.29-1.16,1.74-0.87c0,0-2.61,2.61,0,1.45
	c0-1.45,5.22-2.61,5.22-2.61c2.03-0.58,0.29-1.45,0.29-0.87c0-1.74,2.32,0,3.189,0c0-1.45,0-1.45,0-1.45
	c0.29-0.87,2.9-1.16,4.641-2.61c0.58,0.58,3.479-0.87,3.479-0.87c-2.609,0-5.51,0.87-6.96,2.32
	C501.059,148.599,495.839,150.339,492.359,152.949z M479.02,147.729c0,0-1.74,1.16-1.74,0.87c-0.87,0-0.87,0-2.32,0.87
	C473.799,150.339,479.889,148.599,479.02,147.729z M484.24,152.949c0,0-6.09,1.74-5.8,0.29c-1.16,1.74,4.35-0.29,3.189,0.58
	c0,0,0.87,0.29,2.03-0.58c0,0-1.16,0.87-2.03,0.58c0-0.87,1.16-0.87,2.03-0.58C482.79,152.949,485.11,150.339,484.24,152.949z
	 M493.809,139.32c-1.45,2.32-3.479,2.61-5.8,3.48c-1.16,0.58-7.25,3.479-7.25,4.93c0,0,8.12-5.22,1.16-0.87
	c6.09-3.19,13.92-6.96,19.14-8.7c0,0,4.35,0,4.06-2.32l-4.93,2.32l-2.609,1.74C496.71,139.899,495.549,139.03,493.809,139.32z
	 M485.11,150.339c0,0,2.029,0.29,1.159,0c2.32,0.87,4.061-0.58,4.351-0.58C492.069,150.339,485.979,152.949,485.11,150.339z
	 M491.489,159.039c0,0,6.091-3.19,5.221-3.48c-0.87,0-3.48,2.03-4.351,2.9C492.359,158.459,489.75,159.039,491.489,159.039z
	 M500.189,153.239c-0.29,1.45-1.16,2.32-2.609,1.74c-0.87,0.58,6.959-0.29,6.959-1.16
	C504.539,152.369,500.189,153.239,500.189,153.239z M509.469,193.838c1.159,0-3.48,2.03-4.061,0.87c0,0,6.09-2.32,6.09-0.58
	C511.499,194.128,510.628,193.838,509.469,193.838C509.469,193.838,510.628,193.838,509.469,193.838z M509.469,194.128
	c0,0,2.899,0,2.029,0c0.87,0,0-1.74,1.45-1.16C514.689,193.258,510.338,194.708,509.469,194.128z M519.909,142.8
	c-0.87-0.29-2.32,1.45-2.32,1.45C518.459,144.539,521.069,141.93,519.909,142.8z"></path>
</svg>